<?xml version="1.0" encoding="utf-8"?>
<!-- Generator: Adobe Illustrator 16.0.0, SVG Export Plug-In . SVG Version: 6.00 Build 0)  -->
<!DOCTYPE svg PUBLIC "-//W3C//DTD SVG 1.1//EN" "http://www.w3.org/Graphics/SVG/1.1/DTD/svg11.dtd">
<svg version="1.1" id="Layer_1" xmlns="http://www.w3.org/2000/svg" xmlns:xlink="http://www.w3.org/1999/xlink" x="0px" y="0px"
	 width="69.12px" height="103.69px" viewBox="0 0 69.12 103.69" enable-background="new 0 0 69.12 103.69" xml:space="preserve">
<g>
	<path fill="#F2F2F2" d="M69.123,100.963c0,1.504-1.218,2.723-2.721,2.723H2.722c-1.503,0-2.722-1.219-2.722-2.723V2.721
		C0,1.219,1.219,0,2.722,0h63.681c1.503,0,2.721,1.219,2.721,2.721V100.963z"/>
	<g>
		<g>
			<path fill="#333333" d="M26.322,23.598c0,2.344-2.104,3.654-4.158,3.35c-1.061-0.16-1.842-0.811-2.475-1.594
				c-0.599-0.738-0.748-0.264-0.666,0.221c0.381,2.234,1.399,3.502,3.295,4.096c0.189,0.062,0.987,0.242,0.26,0.242h-7.551
				c-0.728,0,0.069-0.18,0.257-0.242c1.896-0.594,2.914-1.861,3.295-4.096c0.082-0.484-0.064-0.959-0.664-0.221
				c-0.635,0.783-1.414,1.434-2.476,1.594c-2.053,0.303-4.159-1.006-4.159-3.35v-0.002c0-1.682,1.357-3.551,3.127-3.422
				c0.122,0.01,0.96,0.189,1.22-0.064c0.378-0.369-0.149-0.641-0.188-1.477v-0.002c-0.058-1.994,1.312-3.059,2.841-3.252v0.002
				c0-0.002,0.332-0.043,0.481-0.043c0.272-0.002,0.488,0.039,0.562,0.043v-0.002c1.528,0.193,2.898,1.26,2.84,3.252v0.002
				c-0.039,0.836-0.563,1.107-0.188,1.477c0.259,0.254,1.1,0.072,1.219,0.064c1.77-0.129,3.127,1.74,3.127,3.422V23.598z"/>
			<path fill="#4D4D4D" d="M18.785,15.338c-0.008,0-0.017,0-0.023,0c-0.149,0-0.481,0.041-0.481,0.043v-0.002
				c-1.529,0.193-2.898,1.258-2.841,3.252v0.002c0.038,0.836,0.565,1.107,0.188,1.477c-0.26,0.254-1.098,0.074-1.22,0.064
				c-1.77-0.129-3.127,1.74-3.127,3.422v0.002c0,2.344,2.106,3.652,4.159,3.35c1.062-0.16,1.841-0.811,2.476-1.594
				c0.6-0.738,0.746-0.264,0.664,0.221c-0.381,2.234-1.399,3.502-3.295,4.096c-0.188,0.062-0.984,0.242-0.257,0.242h3.758V15.338z"
				/>
		</g>
		<g>
			<path fill="#333333" d="M57.779,23.598c0,2.344-2.104,3.654-4.159,3.35c-1.06-0.16-1.842-0.811-2.474-1.594
				c-0.6-0.738-0.749-0.264-0.666,0.221c0.38,2.234,1.398,3.502,3.294,4.096c0.19,0.062,0.987,0.242,0.26,0.242h-7.55
				c-0.729,0,0.069-0.18,0.257-0.242c1.896-0.594,2.913-1.861,3.295-4.096c0.081-0.484-0.065-0.959-0.664-0.221
				c-0.636,0.783-1.414,1.434-2.477,1.594c-2.053,0.303-4.158-1.006-4.158-3.35v-0.002c0-1.682,1.357-3.551,3.127-3.422
				c0.121,0.01,0.959,0.189,1.22-0.064c0.377-0.369-0.15-0.641-0.188-1.477v-0.002c-0.057-1.994,1.312-3.059,2.842-3.252v0.002
				c0-0.002,0.332-0.043,0.48-0.043c0.272-0.002,0.489,0.039,0.563,0.043v-0.002c1.527,0.193,2.898,1.26,2.839,3.252v0.002
				c-0.038,0.836-0.563,1.107-0.188,1.477c0.26,0.254,1.101,0.072,1.219,0.064c1.77-0.129,3.128,1.74,3.128,3.422V23.598z"/>
			<path fill="#4D4D4D" d="M50.241,15.338c-0.008,0-0.016,0-0.023,0c-0.148,0-0.48,0.041-0.48,0.043v-0.002
				c-1.53,0.193-2.898,1.258-2.842,3.252v0.002c0.038,0.836,0.565,1.107,0.188,1.477c-0.261,0.254-1.099,0.074-1.22,0.064
				c-1.77-0.129-3.127,1.74-3.127,3.422v0.002c0,2.344,2.105,3.652,4.158,3.35c1.062-0.16,1.841-0.811,2.477-1.594
				c0.599-0.738,0.745-0.264,0.664,0.221c-0.382,2.234-1.399,3.502-3.295,4.096c-0.188,0.062-0.985,0.242-0.257,0.242h3.757V15.338z
				"/>
		</g>
	</g>
	<g>
		<path fill="#333333" d="M57.828,86.924c0-1.213,1.09-1.893,2.154-1.734c0.549,0.082,0.954,0.42,1.281,0.826
			c0.311,0.381,0.388,0.135,0.346-0.115c-0.197-1.158-0.726-1.814-1.707-2.121c-0.099-0.033-0.511-0.127-0.135-0.127h3.911
			c0.377,0-0.036,0.094-0.133,0.127c-0.982,0.307-1.51,0.963-1.707,2.121c-0.042,0.25,0.034,0.496,0.345,0.115
			c0.329-0.406,0.731-0.744,1.282-0.826c1.063-0.158,2.154,0.521,2.154,1.734l0,0c0,0.871-0.704,1.84-1.62,1.773
			c-0.062-0.004-0.497-0.098-0.632,0.033c-0.195,0.191,0.077,0.332,0.098,0.766v0.002c0.029,1.031-0.68,1.582-1.472,1.682l0,0
			c0,0-0.172,0.023-0.249,0.023c-0.142,0-0.253-0.021-0.292-0.023l0,0c-0.791-0.1-1.501-0.652-1.471-1.682v-0.002
			c0.02-0.434,0.292-0.574,0.097-0.766c-0.134-0.131-0.569-0.037-0.631-0.033C58.531,88.764,57.828,87.795,57.828,86.924
			L57.828,86.924z"/>
		<path fill="#4D4D4D" d="M61.732,91.203c0.004,0,0.008,0,0.013,0c0.077,0,0.249-0.023,0.249-0.023l0,0
			c0.792-0.098,1.501-0.65,1.472-1.682v-0.002c-0.021-0.434-0.293-0.574-0.098-0.766c0.135-0.131,0.569-0.037,0.632-0.033
			c0.916,0.066,1.62-0.902,1.62-1.773l0,0c0-1.213-1.091-1.893-2.154-1.734c-0.551,0.082-0.953,0.42-1.282,0.826
			c-0.311,0.381-0.387,0.135-0.345-0.115c0.197-1.158,0.725-1.814,1.707-2.121c0.097-0.033,0.51-0.127,0.133-0.127h-1.946V91.203z"
			/>
	</g>
	<g>
		<path fill="#333333" d="M11.295,16.762c0,1.213-1.089,1.893-2.153,1.734c-0.549-0.084-0.953-0.42-1.281-0.826
			c-0.311-0.383-0.388-0.137-0.346,0.115c0.197,1.156,0.725,1.814,1.707,2.121c0.099,0.033,0.512,0.125,0.135,0.125H5.445
			c-0.377,0,0.036-0.092,0.133-0.125c0.981-0.307,1.51-0.965,1.707-2.121c0.042-0.252-0.033-0.498-0.344-0.115
			c-0.329,0.406-0.732,0.742-1.283,0.826c-1.062,0.158-2.154-0.521-2.154-1.734V16.76c0-0.871,0.703-1.84,1.62-1.771
			c0.063,0.004,0.497,0.098,0.632-0.035c0.195-0.189-0.078-0.33-0.098-0.764v-0.002c-0.029-1.031,0.68-1.584,1.472-1.684v0.002
			c0-0.002,0.173-0.023,0.249-0.023c0.142-0.002,0.254,0.021,0.292,0.023v-0.002c0.791,0.1,1.502,0.652,1.471,1.684v0.002
			c-0.021,0.434-0.292,0.574-0.098,0.764c0.135,0.133,0.57,0.037,0.632,0.035c0.916-0.068,1.619,0.9,1.619,1.771V16.762z"/>
		<path fill="#4D4D4D" d="M7.392,12.482c-0.004,0-0.009,0-0.013,0c-0.076,0-0.249,0.021-0.249,0.023v-0.002
			c-0.792,0.1-1.501,0.652-1.472,1.684v0.002c0.02,0.434,0.293,0.574,0.098,0.764c-0.135,0.133-0.568,0.039-0.632,0.035
			c-0.917-0.068-1.62,0.9-1.62,1.771v0.002c0,1.213,1.092,1.893,2.154,1.734c0.551-0.084,0.954-0.42,1.283-0.826
			c0.311-0.383,0.386-0.137,0.344,0.115C7.088,18.941,6.56,19.6,5.578,19.906c-0.097,0.033-0.51,0.125-0.133,0.125h1.946V12.482z"/>
	</g>
	<rect x="2.722" y="2.721" fill="none" width="9.374" height="9.762"/>
	<text transform="matrix(1 0 0 1 3.0811 8.7109)" fill="#333333" font-family="'ChunkFive'" font-size="8.4363">10</text>
	<rect x="57.027" y="91.201" fill="none" width="9.374" height="9.762"/>
	<text transform="matrix(-1 0 0 -1 66.042 94.9727)" fill="#333333" font-family="'ChunkFive'" font-size="8.4363">10</text>
	<g>
		<path fill="#333333" d="M42.083,33.707c0,2.344-2.104,3.654-4.159,3.35c-1.06-0.16-1.841-0.811-2.474-1.596
			c-0.6-0.738-0.748-0.262-0.666,0.223c0.381,2.234,1.398,3.502,3.294,4.096c0.19,0.062,0.988,0.242,0.26,0.242h-7.55
			c-0.729,0,0.069-0.18,0.257-0.242c1.896-0.594,2.914-1.861,3.295-4.096c0.082-0.484-0.064-0.961-0.664-0.223
			c-0.635,0.785-1.414,1.436-2.477,1.596c-2.052,0.303-4.158-1.006-4.158-3.35v-0.002c0-1.682,1.357-3.551,3.127-3.424
			c0.121,0.012,0.959,0.191,1.22-0.064c0.377-0.367-0.149-0.639-0.188-1.475v-0.004c-0.057-1.992,1.312-3.057,2.842-3.25v0.002
			c0-0.002,0.332-0.043,0.481-0.043c0.271-0.002,0.488,0.039,0.562,0.043v-0.002c1.527,0.193,2.898,1.26,2.839,3.25v0.004
			c-0.038,0.836-0.562,1.107-0.188,1.475c0.26,0.256,1.101,0.072,1.219,0.064c1.77-0.127,3.128,1.742,3.128,3.424V33.707z"/>
		<path fill="#4D4D4D" d="M34.545,25.447c-0.008,0-0.016,0-0.022,0c-0.149,0-0.481,0.041-0.481,0.043v-0.002
			c-1.529,0.193-2.898,1.258-2.842,3.25v0.004c0.039,0.836,0.565,1.107,0.188,1.475c-0.261,0.256-1.099,0.076-1.22,0.064
			c-1.77-0.127-3.127,1.742-3.127,3.424v0.002c0,2.344,2.106,3.652,4.158,3.35c1.062-0.16,1.842-0.811,2.477-1.596
			c0.6-0.738,0.746-0.262,0.664,0.223c-0.381,2.234-1.399,3.502-3.295,4.096c-0.188,0.062-0.985,0.242-0.257,0.242h3.757V25.447z"/>
	</g>
	<g>
		<g>
			<path fill="#333333" d="M26.322,42.799c0,2.344-2.104,3.654-4.158,3.348c-1.061-0.158-1.842-0.809-2.475-1.594
				c-0.599-0.738-0.748-0.262-0.666,0.221c0.381,2.234,1.399,3.504,3.295,4.098c0.189,0.061,0.987,0.24,0.26,0.24h-7.551
				c-0.728,0,0.069-0.18,0.257-0.24c1.896-0.594,2.914-1.863,3.295-4.098c0.082-0.482-0.064-0.959-0.664-0.221
				c-0.635,0.785-1.414,1.436-2.476,1.594c-2.053,0.305-4.159-1.004-4.159-3.348v-0.002c0-1.682,1.357-3.553,3.127-3.424
				c0.122,0.01,0.96,0.189,1.22-0.064c0.378-0.367-0.149-0.641-0.188-1.477V37.83c-0.058-1.992,1.312-3.057,2.841-3.25v0.002
				c0-0.002,0.332-0.043,0.481-0.043c0.272-0.004,0.488,0.037,0.562,0.043V34.58c1.528,0.193,2.898,1.26,2.84,3.25v0.002
				c-0.039,0.836-0.563,1.109-0.188,1.477c0.259,0.254,1.1,0.072,1.219,0.064c1.77-0.129,3.127,1.742,3.127,3.424V42.799z"/>
			<path fill="#4D4D4D" d="M18.785,34.539c-0.008,0-0.017,0-0.023,0c-0.149,0-0.481,0.041-0.481,0.043V34.58
				c-1.529,0.193-2.898,1.256-2.841,3.25v0.002c0.038,0.836,0.565,1.109,0.188,1.477c-0.26,0.254-1.098,0.074-1.22,0.064
				c-1.77-0.129-3.127,1.742-3.127,3.424v0.002c0,2.344,2.106,3.652,4.159,3.348c1.062-0.158,1.841-0.811,2.476-1.594
				c0.6-0.738,0.746-0.262,0.664,0.221c-0.381,2.234-1.399,3.504-3.295,4.098c-0.188,0.061-0.984,0.24-0.257,0.24h3.758V34.539z"/>
		</g>
		<g>
			<path fill="#333333" d="M57.779,42.799c0,2.344-2.104,3.654-4.159,3.348c-1.06-0.158-1.842-0.809-2.474-1.594
				c-0.6-0.738-0.749-0.262-0.666,0.221c0.38,2.234,1.398,3.504,3.294,4.098c0.19,0.061,0.987,0.24,0.26,0.24h-7.55
				c-0.729,0,0.069-0.18,0.257-0.24c1.896-0.594,2.913-1.863,3.295-4.098c0.081-0.482-0.065-0.959-0.664-0.221
				c-0.636,0.785-1.414,1.436-2.477,1.594c-2.053,0.305-4.158-1.004-4.158-3.348v-0.002c0-1.682,1.357-3.553,3.127-3.424
				c0.121,0.01,0.959,0.189,1.22-0.064c0.377-0.367-0.15-0.641-0.188-1.477V37.83c-0.057-1.992,1.312-3.057,2.842-3.25v0.002
				c0-0.002,0.332-0.043,0.48-0.043c0.272-0.004,0.489,0.037,0.563,0.043V34.58c1.527,0.193,2.898,1.26,2.839,3.25v0.002
				c-0.038,0.836-0.563,1.109-0.188,1.477c0.26,0.254,1.101,0.072,1.219,0.064c1.77-0.129,3.128,1.742,3.128,3.424V42.799z"/>
			<path fill="#4D4D4D" d="M50.241,34.539c-0.008,0-0.016,0-0.023,0c-0.148,0-0.48,0.041-0.48,0.043V34.58
				c-1.53,0.193-2.898,1.256-2.842,3.25v0.002c0.038,0.836,0.565,1.109,0.188,1.477c-0.261,0.254-1.099,0.074-1.22,0.064
				c-1.77-0.129-3.127,1.742-3.127,3.424v0.002c0,2.344,2.105,3.652,4.158,3.348c1.062-0.158,1.841-0.811,2.477-1.594
				c0.599-0.738,0.745-0.262,0.664,0.221c-0.382,2.234-1.399,3.504-3.295,4.098c-0.188,0.061-0.985,0.24-0.257,0.24h3.757V34.539z"
				/>
		</g>
	</g>
	<g>
		<g>
			<path fill="#333333" d="M26.322,62c0,2.342-2.104,3.654-4.158,3.348c-1.061-0.158-1.842-0.811-2.475-1.594
				c-0.599-0.738-0.748-0.264-0.666,0.221c0.381,2.234,1.399,3.502,3.295,4.096c0.189,0.062,0.987,0.242,0.26,0.242h-7.551
				c-0.728,0,0.069-0.18,0.257-0.242c1.896-0.594,2.914-1.861,3.295-4.096c0.082-0.484-0.064-0.959-0.664-0.221
				c-0.635,0.783-1.414,1.436-2.476,1.594C13.387,65.652,11.28,64.342,11.28,62v-0.004c0-1.682,1.357-3.551,3.127-3.422
				c0.122,0.01,0.96,0.189,1.22-0.064c0.378-0.367-0.149-0.641-0.188-1.477v-0.002c-0.058-1.992,1.312-3.059,2.841-3.25v0.002
				c0-0.002,0.332-0.045,0.481-0.045c0.272-0.002,0.488,0.039,0.562,0.045v-0.002c1.528,0.191,2.898,1.26,2.84,3.25v0.002
				c-0.039,0.836-0.563,1.109-0.188,1.477c0.259,0.254,1.1,0.072,1.219,0.064c1.77-0.129,3.127,1.74,3.127,3.422V62z"/>
			<path fill="#4D4D4D" d="M18.785,53.738c-0.008,0-0.017,0-0.023,0c-0.149,0-0.481,0.043-0.481,0.045v-0.002
				c-1.529,0.191-2.898,1.256-2.841,3.25v0.002c0.038,0.836,0.565,1.109,0.188,1.477c-0.26,0.254-1.098,0.074-1.22,0.064
				c-1.77-0.129-3.127,1.74-3.127,3.422V62c0,2.342,2.106,3.652,4.159,3.348c1.062-0.158,1.841-0.811,2.476-1.594
				c0.6-0.738,0.746-0.264,0.664,0.221c-0.381,2.234-1.399,3.502-3.295,4.096c-0.188,0.062-0.984,0.242-0.257,0.242h3.758V53.738z"
				/>
		</g>
		<g>
			<path fill="#333333" d="M57.779,62c0,2.342-2.104,3.654-4.159,3.348c-1.06-0.158-1.842-0.811-2.474-1.594
				c-0.6-0.738-0.749-0.264-0.666,0.221c0.38,2.234,1.398,3.502,3.294,4.096c0.19,0.062,0.987,0.242,0.26,0.242h-7.55
				c-0.729,0,0.069-0.18,0.257-0.242c1.896-0.594,2.913-1.861,3.295-4.096c0.081-0.484-0.065-0.959-0.664-0.221
				c-0.636,0.783-1.414,1.436-2.477,1.594c-2.053,0.305-4.158-1.006-4.158-3.348v-0.004c0-1.682,1.357-3.551,3.127-3.422
				c0.121,0.01,0.959,0.189,1.22-0.064c0.377-0.367-0.15-0.641-0.188-1.477v-0.002c-0.057-1.992,1.312-3.059,2.842-3.25v0.002
				c0-0.002,0.332-0.045,0.48-0.045c0.272-0.002,0.489,0.039,0.563,0.045v-0.002c1.527,0.191,2.898,1.26,2.839,3.25v0.002
				c-0.038,0.836-0.563,1.109-0.188,1.477c0.26,0.254,1.101,0.072,1.219,0.064c1.77-0.129,3.128,1.74,3.128,3.422V62z"/>
			<path fill="#4D4D4D" d="M50.241,53.738c-0.008,0-0.016,0-0.023,0c-0.148,0-0.48,0.043-0.48,0.045v-0.002
				c-1.53,0.191-2.898,1.256-2.842,3.25v0.002c0.038,0.836,0.565,1.109,0.188,1.477c-0.261,0.254-1.099,0.074-1.22,0.064
				c-1.77-0.129-3.127,1.74-3.127,3.422V62c0,2.342,2.105,3.652,4.158,3.348c1.062-0.158,1.841-0.811,2.477-1.594
				c0.599-0.738,0.745-0.264,0.664,0.221c-0.382,2.234-1.399,3.502-3.295,4.096c-0.188,0.062-0.985,0.242-0.257,0.242h3.757V53.738z
				"/>
		</g>
	</g>
	<g>
		<g>
			<path fill="#333333" d="M26.322,81.199c0,2.344-2.104,3.654-4.158,3.35c-1.061-0.16-1.842-0.811-2.475-1.596
				c-0.599-0.738-0.748-0.262-0.666,0.223c0.381,2.234,1.399,3.502,3.295,4.096c0.189,0.062,0.987,0.242,0.26,0.242h-7.551
				c-0.728,0,0.069-0.18,0.257-0.242c1.896-0.594,2.914-1.861,3.295-4.096c0.082-0.484-0.064-0.961-0.664-0.223
				c-0.635,0.785-1.414,1.436-2.476,1.596c-2.053,0.303-4.159-1.006-4.159-3.35v-0.002c0-1.682,1.357-3.553,3.127-3.424
				c0.122,0.01,0.96,0.191,1.22-0.064c0.378-0.367-0.149-0.639-0.188-1.475V76.23c-0.058-1.992,1.312-3.057,2.841-3.25v0.002
				c0-0.002,0.332-0.043,0.481-0.043c0.272-0.002,0.488,0.039,0.562,0.043V72.98c1.528,0.193,2.898,1.26,2.84,3.25v0.004
				c-0.039,0.836-0.563,1.107-0.188,1.475c0.259,0.256,1.1,0.072,1.219,0.064c1.77-0.129,3.127,1.742,3.127,3.424V81.199z"/>
			<path fill="#4D4D4D" d="M18.785,72.939c-0.008,0-0.017,0-0.023,0c-0.149,0-0.481,0.041-0.481,0.043V72.98
				c-1.529,0.193-2.898,1.258-2.841,3.25v0.004c0.038,0.836,0.565,1.107,0.188,1.475c-0.26,0.256-1.098,0.074-1.22,0.064
				c-1.77-0.129-3.127,1.742-3.127,3.424v0.002c0,2.344,2.106,3.652,4.159,3.35c1.062-0.16,1.841-0.811,2.476-1.596
				c0.6-0.738,0.746-0.262,0.664,0.223c-0.381,2.234-1.399,3.502-3.295,4.096c-0.188,0.062-0.984,0.242-0.257,0.242h3.758V72.939z"
				/>
		</g>
		<g>
			<path fill="#333333" d="M57.779,81.199c0,2.344-2.104,3.654-4.159,3.35c-1.06-0.16-1.842-0.811-2.474-1.596
				c-0.6-0.738-0.749-0.262-0.666,0.223c0.38,2.234,1.398,3.502,3.294,4.096c0.19,0.062,0.987,0.242,0.26,0.242h-7.55
				c-0.729,0,0.069-0.18,0.257-0.242c1.896-0.594,2.913-1.861,3.295-4.096c0.081-0.484-0.065-0.961-0.664-0.223
				c-0.636,0.785-1.414,1.436-2.477,1.596c-2.053,0.303-4.158-1.006-4.158-3.35v-0.002c0-1.682,1.357-3.553,3.127-3.424
				c0.121,0.01,0.959,0.191,1.22-0.064c0.377-0.367-0.15-0.639-0.188-1.475V76.23c-0.057-1.992,1.312-3.057,2.842-3.25v0.002
				c0-0.002,0.332-0.043,0.48-0.043c0.272-0.002,0.489,0.039,0.563,0.043V72.98c1.527,0.193,2.898,1.26,2.839,3.25v0.004
				c-0.038,0.836-0.563,1.107-0.188,1.475c0.26,0.256,1.101,0.072,1.219,0.064c1.77-0.129,3.128,1.742,3.128,3.424V81.199z"/>
			<path fill="#4D4D4D" d="M50.241,72.939c-0.008,0-0.016,0-0.023,0c-0.148,0-0.48,0.041-0.48,0.043V72.98
				c-1.53,0.193-2.898,1.258-2.842,3.25v0.004c0.038,0.836,0.565,1.107,0.188,1.475c-0.261,0.256-1.099,0.074-1.22,0.064
				c-1.77-0.129-3.127,1.742-3.127,3.424v0.002c0,2.344,2.105,3.652,4.158,3.35c1.062-0.16,1.841-0.811,2.477-1.596
				c0.599-0.738,0.745-0.262,0.664,0.223c-0.382,2.234-1.399,3.502-3.295,4.096c-0.188,0.062-0.985,0.242-0.257,0.242h3.757V72.939z
				"/>
		</g>
	</g>
	<g>
		<path fill="#333333" d="M42.083,72.08c0,2.342-2.104,3.654-4.159,3.348c-1.06-0.16-1.841-0.811-2.474-1.594
			c-0.6-0.738-0.748-0.264-0.666,0.221c0.381,2.234,1.398,3.502,3.294,4.096c0.19,0.062,0.988,0.242,0.26,0.242h-7.55
			c-0.729,0,0.069-0.18,0.257-0.242c1.896-0.594,2.914-1.861,3.295-4.096c0.082-0.484-0.064-0.959-0.664-0.221
			c-0.635,0.783-1.414,1.434-2.477,1.594c-2.052,0.303-4.158-1.006-4.158-3.348v-0.004c0-1.682,1.357-3.551,3.127-3.422
			c0.121,0.01,0.959,0.189,1.22-0.064c0.377-0.369-0.149-0.641-0.188-1.477v-0.002c-0.057-1.994,1.312-3.059,2.842-3.25v0.002
			c0-0.002,0.332-0.045,0.481-0.045c0.271-0.002,0.488,0.039,0.562,0.045v-0.002c1.527,0.191,2.898,1.258,2.839,3.25v0.002
			c-0.038,0.836-0.562,1.107-0.188,1.477c0.26,0.254,1.101,0.072,1.219,0.064c1.77-0.129,3.128,1.74,3.128,3.422V72.08z"/>
		<path fill="#4D4D4D" d="M34.545,63.818c-0.008,0-0.016,0-0.022,0c-0.149,0-0.481,0.043-0.481,0.045v-0.002
			c-1.529,0.191-2.898,1.256-2.842,3.25v0.002c0.039,0.836,0.565,1.107,0.188,1.477c-0.261,0.254-1.099,0.074-1.22,0.064
			c-1.77-0.129-3.127,1.74-3.127,3.422v0.004c0,2.342,2.106,3.65,4.158,3.348c1.062-0.16,1.842-0.811,2.477-1.594
			c0.6-0.738,0.746-0.264,0.664,0.221c-0.381,2.234-1.399,3.502-3.295,4.096c-0.188,0.062-0.985,0.242-0.257,0.242h3.757V63.818z"/>
	</g>
</g>
</svg>
