<?xml version="1.0" encoding="utf-8"?>
<!-- Generator: Adobe Illustrator 16.0.0, SVG Export Plug-In . SVG Version: 6.00 Build 0)  -->
<!DOCTYPE svg PUBLIC "-//W3C//DTD SVG 1.1//EN" "http://www.w3.org/Graphics/SVG/1.1/DTD/svg11.dtd">
<svg version="1.1" id="Layer_1" xmlns="http://www.w3.org/2000/svg" xmlns:xlink="http://www.w3.org/1999/xlink" x="0px" y="0px"
	 width="69.12px" height="103.69px" viewBox="0 0 69.12 103.69" enable-background="new 0 0 69.12 103.69" xml:space="preserve">
<g>
	<path fill="#F2F2F2" d="M69.123,100.963c0,1.504-1.219,2.723-2.722,2.723H2.722c-1.503,0-2.722-1.219-2.722-2.723V2.721
		C0,1.219,1.219,0,2.722,0h63.68c1.503,0,2.722,1.219,2.722,2.721V100.963z"/>
	<g>
		<g>
			<polygon fill="#7A2B2B" points="18.817,29.674 13.547,22.506 18.817,15.338 24.087,22.506 			"/>
			<polygon fill="#943434" points="18.801,15.361 13.547,22.506 18.801,29.652 			"/>
		</g>
		<g>
			<polygon fill="#7A2B2B" points="50.273,29.674 45.003,22.506 50.273,15.338 55.544,22.506 			"/>
			<polygon fill="#943434" points="50.257,15.361 45.003,22.506 50.257,29.652 			"/>
		</g>
	</g>
	<g>
		<g>
			<polygon fill="#7A2B2B" points="18.817,49.201 13.547,42.033 18.817,34.865 24.087,42.033 			"/>
			<polygon fill="#943434" points="18.801,34.889 13.547,42.033 18.801,49.18 			"/>
		</g>
		<g>
			<polygon fill="#7A2B2B" points="50.273,49.201 45.003,42.033 50.273,34.865 55.544,42.033 			"/>
			<polygon fill="#943434" points="50.257,34.889 45.003,42.033 50.257,49.18 			"/>
		</g>
	</g>
	<g>
		<g>
			<polygon fill="#7A2B2B" points="18.817,68.73 13.547,61.562 18.817,54.395 24.087,61.562 			"/>
			<polygon fill="#943434" points="18.801,54.416 13.547,61.562 18.801,68.707 			"/>
		</g>
		<g>
			<polygon fill="#7A2B2B" points="50.273,68.73 45.003,61.562 50.273,54.395 55.544,61.562 			"/>
			<polygon fill="#943434" points="50.257,54.416 45.003,61.562 50.257,68.707 			"/>
		</g>
	</g>
	<g>
		<g>
			<polygon fill="#7A2B2B" points="18.817,88.258 13.547,81.09 18.817,73.922 24.087,81.09 			"/>
			<polygon fill="#943434" points="18.801,73.945 13.547,81.09 18.801,88.236 			"/>
		</g>
		<g>
			<polygon fill="#7A2B2B" points="50.273,88.258 45.003,81.09 50.273,73.922 55.544,81.09 			"/>
			<polygon fill="#943434" points="50.257,73.945 45.003,81.09 50.257,88.236 			"/>
		</g>
	</g>
	<rect x="2.721" y="2.721" fill="none" width="9.374" height="9.762"/>
	<text transform="matrix(1 0 0 1 3.0806 8.7109)" fill="#7A2B2B" font-family="'ChunkFive'" font-size="8.4363">10</text>
	<rect x="57.026" y="91.201" fill="none" width="9.375" height="9.762"/>
	<text transform="matrix(-1 0 0 -1 66.041 94.9727)" fill="#7A2B2B" font-family="'ChunkFive'" font-size="8.4363">10</text>
	<g>
		<polygon fill="#7A2B2B" points="61.715,83.533 64.504,87.328 61.715,91.123 58.925,87.328 		"/>
		<polygon fill="#943434" points="61.723,91.109 64.504,87.328 61.723,83.545 		"/>
	</g>
	<g>
		<polygon fill="#7A2B2B" points="7.407,19.971 4.618,16.178 7.407,12.383 10.197,16.178 		"/>
		<polygon fill="#943434" points="7.398,12.395 4.618,16.178 7.398,19.959 		"/>
	</g>
	<g>
		<polygon fill="#7A2B2B" points="34.562,39.902 29.291,32.734 34.562,25.566 39.832,32.734 		"/>
		<polygon fill="#943434" points="34.546,25.59 29.291,32.734 34.546,39.881 		"/>
	</g>
	<g>
		<polygon fill="#7A2B2B" points="34.562,78.273 29.291,71.105 34.562,63.938 39.832,71.105 		"/>
		<polygon fill="#943434" points="34.546,63.961 29.291,71.105 34.546,78.252 		"/>
	</g>
</g>
</svg>
