<?xml version="1.0" encoding="utf-8"?>
<!-- Generator: Adobe Illustrator 16.0.0, SVG Export Plug-In . SVG Version: 6.00 Build 0)  -->
<!DOCTYPE svg PUBLIC "-//W3C//DTD SVG 1.1//EN" "http://www.w3.org/Graphics/SVG/1.1/DTD/svg11.dtd">
<svg version="1.1" id="Layer_1" xmlns="http://www.w3.org/2000/svg" xmlns:xlink="http://www.w3.org/1999/xlink" x="0px" y="0px"
	 width="69.12px" height="103.69px" viewBox="0 0 69.12 103.69" enable-background="new 0 0 69.12 103.69" xml:space="preserve">
<g>
	<path fill="#F2F2F2" d="M69.123,100.963c0,1.504-1.219,2.723-2.722,2.723H2.721c-1.502,0-2.721-1.219-2.721-2.723V2.721
		C0,1.219,1.219,0,2.721,0h63.681c1.503,0,2.722,1.219,2.722,2.721V100.963z"/>
	<g>
		<g>
			<g>
				<g>
					<path fill="#7A2B2B" d="M50.289,29.512l-1.079-1.076c-4.007-3.543-6.625-5.932-6.625-8.861c0-2.385,1.852-4.236,4.235-4.236
						c1.314,0,2.623,1.402,3.469,2.402c0.848-1,2.156-2.402,3.469-2.402c2.385,0,4.236,1.852,4.236,4.236
						c0,2.93-2.618,5.318-6.625,8.861L50.289,29.512z M50.289,29.512"/>
					<path fill="#943434" d="M50.273,17.729c-0.848-0.998-2.147-2.381-3.453-2.381c-2.384,0-4.235,1.85-4.235,4.234
						c0,2.932,2.618,5.318,6.625,8.863l1.063,1.059V17.729z"/>
				</g>
			</g>
			<g>
				<g>
					<path fill="#7A2B2B" d="M18.833,29.512l-1.079-1.076c-4.008-3.543-6.626-5.932-6.626-8.861c0-2.385,1.852-4.236,4.235-4.236
						c1.315,0,2.623,1.402,3.47,2.402c0.847-1,2.155-2.402,3.469-2.402c2.385,0,4.236,1.852,4.236,4.236
						c0,2.93-2.619,5.318-6.625,8.861L18.833,29.512z M18.833,29.512"/>
					<path fill="#943434" d="M18.816,17.729c-0.848-0.998-2.146-2.381-3.453-2.381c-2.384,0-4.235,1.85-4.235,4.234
						c0,2.932,2.618,5.318,6.626,8.863l1.062,1.059V17.729z"/>
				</g>
			</g>
		</g>
		<g>
			<g>
				<g>
					<path fill="#7A2B2B" d="M50.289,49.121l-1.079-1.076c-4.007-3.543-6.625-5.932-6.625-8.863c0-2.383,1.852-4.234,4.235-4.234
						c1.314,0,2.623,1.4,3.469,2.4c0.848-1,2.156-2.4,3.469-2.4c2.385,0,4.236,1.852,4.236,4.234c0,2.932-2.618,5.32-6.625,8.863
						L50.289,49.121z M50.289,49.121"/>
					<path fill="#943434" d="M50.273,37.338c-0.848-1-2.147-2.383-3.453-2.383c-2.384,0-4.235,1.852-4.235,4.236
						c0,2.93,2.618,5.318,6.625,8.861l1.063,1.061V37.338z"/>
				</g>
			</g>
			<g>
				<g>
					<path fill="#7A2B2B" d="M18.833,49.121l-1.079-1.076c-4.008-3.543-6.626-5.932-6.626-8.863c0-2.383,1.852-4.234,4.235-4.234
						c1.315,0,2.623,1.4,3.47,2.4c0.847-1,2.155-2.4,3.469-2.4c2.385,0,4.236,1.852,4.236,4.234c0,2.932-2.619,5.32-6.625,8.863
						L18.833,49.121z M18.833,49.121"/>
					<path fill="#943434" d="M18.816,37.338c-0.848-1-2.146-2.383-3.453-2.383c-2.384,0-4.235,1.852-4.235,4.236
						c0,2.93,2.618,5.318,6.626,8.861l1.062,1.061V37.338z"/>
				</g>
			</g>
		</g>
		<g>
			<g>
				<g>
					<path fill="#7A2B2B" d="M18.833,68.73l-1.079-1.076c-4.008-3.543-6.626-5.932-6.626-8.863c0-2.383,1.852-4.234,4.235-4.234
						c1.315,0,2.623,1.4,3.47,2.4c0.847-1,2.155-2.4,3.469-2.4c2.385,0,4.236,1.852,4.236,4.234c0,2.932-2.619,5.32-6.625,8.863
						L18.833,68.73z M18.833,68.73"/>
					<path fill="#943434" d="M18.816,56.947c-0.848-1-2.146-2.383-3.453-2.383c-2.384,0-4.235,1.852-4.235,4.234
						c0,2.932,2.618,5.32,6.626,8.863l1.062,1.061V56.947z"/>
				</g>
			</g>
			<g>
				<g>
					<path fill="#7A2B2B" d="M50.289,68.73l-1.079-1.076c-4.007-3.543-6.625-5.932-6.625-8.863c0-2.383,1.852-4.234,4.235-4.234
						c1.314,0,2.623,1.4,3.469,2.4c0.848-1,2.156-2.4,3.469-2.4c2.385,0,4.236,1.852,4.236,4.234c0,2.932-2.618,5.32-6.625,8.863
						L50.289,68.73z M50.289,68.73"/>
					<path fill="#943434" d="M50.273,56.947c-0.848-1-2.147-2.383-3.453-2.383c-2.384,0-4.235,1.852-4.235,4.234
						c0,2.932,2.618,5.32,6.625,8.863l1.063,1.061V56.947z"/>
				</g>
			</g>
		</g>
		<g>
			<g>
				<g>
					<path fill="#7A2B2B" d="M18.833,88.348l-1.079-1.076c-4.008-3.543-6.626-5.932-6.626-8.863c0-2.385,1.852-4.234,4.235-4.234
						c1.315,0,2.623,1.4,3.47,2.4c0.847-1,2.155-2.4,3.469-2.4c2.385,0,4.236,1.85,4.236,4.234c0,2.932-2.619,5.32-6.625,8.863
						L18.833,88.348z M18.833,88.348"/>
					<path fill="#943434" d="M18.816,76.562c-0.848-0.998-2.146-2.381-3.453-2.381c-2.384,0-4.235,1.852-4.235,4.234
						c0,2.932,2.618,5.32,6.626,8.863l1.062,1.061V76.562z"/>
				</g>
			</g>
			<g>
				<g>
					<path fill="#7A2B2B" d="M50.289,88.348l-1.079-1.076c-4.007-3.543-6.625-5.932-6.625-8.863c0-2.385,1.852-4.234,4.235-4.234
						c1.314,0,2.623,1.4,3.469,2.4c0.848-1,2.156-2.4,3.469-2.4c2.385,0,4.236,1.85,4.236,4.234c0,2.932-2.618,5.32-6.625,8.863
						L50.289,88.348z M50.289,88.348"/>
					<path fill="#943434" d="M50.273,76.562c-0.848-0.998-2.147-2.381-3.453-2.381c-2.384,0-4.235,1.852-4.235,4.234
						c0,2.932,2.618,5.32,6.625,8.863l1.063,1.061V76.562z"/>
				</g>
			</g>
		</g>
	</g>
	<rect x="2.721" y="2.721" fill="none" width="9.374" height="9.762"/>
	<text transform="matrix(1 0 0 1 3.0801 8.7109)" fill="#7A2B2B" font-family="'ChunkFive'" font-size="8.4363">10</text>
	<rect x="57.026" y="91.201" fill="none" width="9.374" height="9.762"/>
	<text transform="matrix(-1 0 0 -1 66.041 94.9727)" fill="#7A2B2B" font-family="'ChunkFive'" font-size="8.4363">10</text>
	<g>
		<path fill="#7A2B2B" d="M7.417,19.963l-0.578-0.576c-2.144-1.896-3.545-3.174-3.545-4.742c0-1.275,0.99-2.266,2.267-2.266
			c0.703,0,1.403,0.748,1.856,1.283c0.453-0.535,1.153-1.283,1.856-1.283c1.275,0,2.266,0.99,2.266,2.266
			c0,1.568-1.4,2.846-3.545,4.742L7.417,19.963z M7.417,19.963"/>
		<path fill="#943434" d="M7.408,13.656c-0.454-0.533-1.148-1.273-1.848-1.273c-1.276,0-2.267,0.99-2.267,2.266
			c0,1.568,1.401,2.846,3.545,4.742l0.569,0.566V13.656z"/>
	</g>
	<g>
		<path fill="#7A2B2B" d="M61.706,83.723l0.577,0.576c2.144,1.896,3.545,3.174,3.545,4.742c0,1.275-0.99,2.266-2.266,2.266
			c-0.704,0-1.404-0.75-1.856-1.285c-0.453,0.535-1.153,1.285-1.856,1.285c-1.275,0-2.266-0.99-2.266-2.266
			c0-1.568,1.4-2.846,3.545-4.742L61.706,83.723z M61.706,83.723"/>
		<path fill="#943434" d="M61.715,90.027c0.453,0.535,1.148,1.275,1.848,1.275c1.275,0,2.266-0.99,2.266-2.266
			c0-1.568-1.401-2.848-3.545-4.742l-0.568-0.568V90.027z"/>
	</g>
	<g>
		<g>
			<path fill="#7A2B2B" d="M34.561,39.822l-1.078-1.076c-4.008-3.543-6.626-5.932-6.626-8.863c0-2.385,1.852-4.234,4.235-4.234
				c1.314,0,2.623,1.4,3.469,2.4c0.848-1,2.156-2.4,3.469-2.4c2.386,0,4.236,1.85,4.236,4.234c0,2.932-2.618,5.32-6.625,8.863
				L34.561,39.822z M34.561,39.822"/>
			<path fill="#943434" d="M34.545,28.037c-0.848-0.998-2.146-2.381-3.453-2.381c-2.384,0-4.235,1.852-4.235,4.234
				c0,2.932,2.618,5.32,6.626,8.863l1.062,1.061V28.037z"/>
		</g>
	</g>
	<g>
		<g>
			<path fill="#7A2B2B" d="M34.561,78.193l-1.078-1.076c-4.008-3.543-6.626-5.932-6.626-8.863c0-2.383,1.852-4.234,4.235-4.234
				c1.314,0,2.623,1.4,3.469,2.4c0.848-1,2.156-2.4,3.469-2.4c2.386,0,4.236,1.852,4.236,4.234c0,2.932-2.618,5.32-6.625,8.863
				L34.561,78.193z M34.561,78.193"/>
			<path fill="#943434" d="M34.545,66.41c-0.848-1-2.146-2.383-3.453-2.383c-2.384,0-4.235,1.852-4.235,4.236
				c0,2.93,2.618,5.318,6.626,8.861l1.062,1.061V66.41z"/>
		</g>
	</g>
</g>
</svg>
