<?xml version="1.0" encoding="utf-8"?>
<!-- Generator: Adobe Illustrator 16.0.0, SVG Export Plug-In . SVG Version: 6.00 Build 0)  -->
<!DOCTYPE svg PUBLIC "-//W3C//DTD SVG 1.1//EN" "http://www.w3.org/Graphics/SVG/1.1/DTD/svg11.dtd">
<svg version="1.1" id="Layer_1" xmlns="http://www.w3.org/2000/svg" xmlns:xlink="http://www.w3.org/1999/xlink" x="0px" y="0px"
	 width="69.12px" height="103.69px" viewBox="0 0 69.12 103.69" enable-background="new 0 0 69.12 103.69" xml:space="preserve">
<g>
	<path fill="#F2F2F2" d="M69.122,100.963c0,1.504-1.218,2.723-2.721,2.723H2.722c-1.503,0-2.722-1.219-2.722-2.723V2.721
		C0,1.219,1.219,0,2.722,0h63.68c1.503,0,2.721,1.219,2.721,2.721V100.963z"/>
	<g>
		<path fill="#333333" d="M8.94,13.775c-0.452-0.371-0.922-0.756-1.28-1.18c-0.061-0.072-0.15-0.113-0.242-0.113H7.399
			c-0.093,0-0.182,0.041-0.242,0.113c-0.359,0.424-0.829,0.809-1.281,1.18c-0.959,0.783-1.949,1.598-1.949,2.854
			c0,1.141,0.797,1.938,1.94,1.938c0.552,0,1.032-0.326,1.359-0.623c-0.157,0.672-0.45,1.465-1.004,2.088h2.37
			c-0.555-0.623-0.848-1.418-1.005-2.09c0.327,0.297,0.809,0.625,1.362,0.625c1.141,0,1.939-0.797,1.939-1.938
			C10.89,15.373,9.897,14.561,8.94,13.775z"/>
		<path fill="#4D4D4D" d="M7.4,20.031v-7.549H7.399c-0.093,0-0.182,0.041-0.242,0.113c-0.359,0.424-0.829,0.809-1.281,1.18
			c-0.959,0.783-1.949,1.598-1.949,2.854c0,1.141,0.797,1.938,1.94,1.938c0.552,0,1.032-0.326,1.359-0.623
			c-0.157,0.672-0.45,1.465-1.004,2.088H7.4z"/>
	</g>
	<g>
		<path fill="#333333" d="M60.183,89.91c0.452,0.371,0.921,0.754,1.28,1.18c0.061,0.072,0.149,0.113,0.241,0.113h0.019
			c0.094,0,0.183-0.041,0.243-0.113c0.359-0.426,0.828-0.809,1.281-1.18c0.958-0.785,1.948-1.598,1.948-2.854
			c0-1.141-0.797-1.938-1.939-1.938c-0.552,0-1.033,0.326-1.359,0.623c0.156-0.672,0.45-1.467,1.004-2.09h-2.37
			c0.554,0.625,0.847,1.42,1.004,2.092c-0.326-0.297-0.808-0.625-1.361-0.625c-1.142,0-1.94,0.797-1.94,1.938
			C58.232,88.311,59.225,89.123,60.183,89.91z"/>
		<path fill="#4D4D4D" d="M61.723,83.652v7.551l0,0c0.094,0,0.183-0.041,0.243-0.113c0.359-0.426,0.828-0.809,1.281-1.18
			c0.958-0.785,1.948-1.598,1.948-2.854c0-1.141-0.797-1.938-1.939-1.938c-0.552,0-1.033,0.326-1.359,0.623
			c0.156-0.672,0.45-1.467,1.004-2.09H61.723z"/>
	</g>
	<g>
		<g>
			<path fill="#333333" d="M21.759,17.834c-0.873-0.717-1.779-1.459-2.472-2.279c-0.117-0.139-0.29-0.217-0.467-0.217h-0.036
				c-0.181,0-0.353,0.078-0.47,0.217c-0.692,0.82-1.6,1.562-2.473,2.279c-1.852,1.514-3.763,3.082-3.763,5.51
				c0,2.201,1.538,3.738,3.745,3.738c1.065,0,1.994-0.627,2.625-1.201c-0.303,1.297-0.869,2.83-1.938,4.031h4.576
				c-1.069-1.203-1.636-2.74-1.939-4.037c0.631,0.576,1.562,1.207,2.63,1.207c2.203,0,3.744-1.537,3.744-3.738
				C25.521,20.92,23.607,19.352,21.759,17.834z"/>
			<path fill="#4D4D4D" d="M18.784,29.912V15.338l0,0c-0.181,0-0.353,0.078-0.47,0.217c-0.692,0.82-1.6,1.562-2.473,2.279
				c-1.852,1.514-3.763,3.082-3.763,5.51c0,2.201,1.538,3.738,3.745,3.738c1.065,0,1.994-0.627,2.625-1.201
				c-0.303,1.297-0.869,2.83-1.938,4.031H18.784z"/>
		</g>
		<g>
			<path fill="#333333" d="M53.215,17.834c-0.873-0.717-1.779-1.459-2.472-2.279c-0.116-0.139-0.289-0.217-0.467-0.217H50.24
				c-0.18,0-0.352,0.078-0.469,0.217c-0.693,0.82-1.6,1.562-2.473,2.279c-1.852,1.514-3.763,3.082-3.763,5.51
				c0,2.201,1.538,3.738,3.744,3.738c1.065,0,1.994-0.627,2.626-1.201c-0.303,1.297-0.869,2.83-1.938,4.031h4.575
				c-1.069-1.203-1.636-2.74-1.938-4.037c0.63,0.576,1.561,1.207,2.629,1.207c2.203,0,3.745-1.537,3.745-3.738
				C56.979,20.92,55.063,19.352,53.215,17.834z"/>
			<path fill="#4D4D4D" d="M50.241,29.912V15.338H50.24c-0.18,0-0.352,0.078-0.469,0.217c-0.693,0.82-1.6,1.562-2.473,2.279
				c-1.852,1.514-3.763,3.082-3.763,5.51c0,2.201,1.538,3.738,3.744,3.738c1.065,0,1.994-0.627,2.626-1.201
				c-0.303,1.297-0.869,2.83-1.938,4.031H50.241z"/>
		</g>
	</g>
	<g>
		<g>
			<path fill="#333333" d="M21.759,37.033c-0.873-0.715-1.779-1.457-2.472-2.279c-0.117-0.139-0.29-0.215-0.467-0.215h-0.036
				c-0.181,0-0.353,0.076-0.47,0.215c-0.692,0.822-1.6,1.564-2.473,2.279c-1.852,1.516-3.763,3.084-3.763,5.51
				c0,2.201,1.538,3.74,3.745,3.74c1.065,0,1.994-0.629,2.625-1.201c-0.303,1.295-0.869,2.828-1.938,4.031h4.576
				c-1.069-1.205-1.636-2.74-1.939-4.037c0.631,0.574,1.562,1.207,2.63,1.207c2.203,0,3.744-1.539,3.744-3.74
				C25.521,40.119,23.607,38.551,21.759,37.033z"/>
			<path fill="#4D4D4D" d="M18.784,49.113V34.539l0,0c-0.181,0-0.353,0.076-0.47,0.215c-0.692,0.822-1.6,1.564-2.473,2.279
				c-1.852,1.516-3.763,3.084-3.763,5.51c0,2.201,1.538,3.74,3.745,3.74c1.065,0,1.994-0.629,2.625-1.201
				c-0.303,1.295-0.869,2.828-1.938,4.031H18.784z"/>
		</g>
		<g>
			<path fill="#333333" d="M53.215,37.033c-0.873-0.715-1.779-1.457-2.472-2.279c-0.116-0.139-0.289-0.215-0.467-0.215H50.24
				c-0.18,0-0.352,0.076-0.469,0.215c-0.693,0.822-1.6,1.564-2.473,2.279c-1.852,1.516-3.763,3.084-3.763,5.51
				c0,2.201,1.538,3.74,3.744,3.74c1.065,0,1.994-0.629,2.626-1.201c-0.303,1.295-0.869,2.828-1.938,4.031h4.575
				c-1.069-1.205-1.636-2.74-1.938-4.037c0.63,0.574,1.561,1.207,2.629,1.207c2.203,0,3.745-1.539,3.745-3.74
				C56.979,40.119,55.063,38.551,53.215,37.033z"/>
			<path fill="#4D4D4D" d="M50.241,49.113V34.539H50.24c-0.18,0-0.352,0.076-0.469,0.215c-0.693,0.822-1.6,1.564-2.473,2.279
				c-1.852,1.516-3.763,3.084-3.763,5.51c0,2.201,1.538,3.74,3.744,3.74c1.065,0,1.994-0.629,2.626-1.201
				c-0.303,1.295-0.869,2.828-1.938,4.031H50.241z"/>
		</g>
	</g>
	<g>
		<g>
			<path fill="#333333" d="M21.759,56.234c-0.873-0.717-1.779-1.457-2.472-2.279c-0.117-0.139-0.29-0.217-0.467-0.217h-0.036
				c-0.181,0-0.353,0.078-0.47,0.217c-0.692,0.822-1.6,1.562-2.473,2.279c-1.852,1.514-3.763,3.084-3.763,5.51
				c0,2.201,1.538,3.738,3.745,3.738c1.065,0,1.994-0.627,2.625-1.201c-0.303,1.297-0.869,2.83-1.938,4.031h4.576
				c-1.069-1.203-1.636-2.74-1.939-4.037c0.631,0.576,1.562,1.207,2.63,1.207c2.203,0,3.744-1.537,3.744-3.738
				C25.521,59.32,23.607,57.752,21.759,56.234z"/>
			<path fill="#4D4D4D" d="M18.784,68.312V53.738l0,0c-0.181,0-0.353,0.078-0.47,0.217c-0.692,0.822-1.6,1.562-2.473,2.279
				c-1.852,1.514-3.763,3.084-3.763,5.51c0,2.201,1.538,3.738,3.745,3.738c1.065,0,1.994-0.627,2.625-1.201
				c-0.303,1.297-0.869,2.83-1.938,4.031H18.784z"/>
		</g>
		<g>
			<path fill="#333333" d="M53.215,56.234c-0.873-0.717-1.779-1.457-2.472-2.279c-0.116-0.139-0.289-0.217-0.467-0.217H50.24
				c-0.18,0-0.352,0.078-0.469,0.217c-0.693,0.822-1.6,1.562-2.473,2.279c-1.852,1.514-3.763,3.084-3.763,5.51
				c0,2.201,1.538,3.738,3.744,3.738c1.065,0,1.994-0.627,2.626-1.201c-0.303,1.297-0.869,2.83-1.938,4.031h4.575
				c-1.069-1.203-1.636-2.74-1.938-4.037c0.63,0.576,1.561,1.207,2.629,1.207c2.203,0,3.745-1.537,3.745-3.738
				C56.979,59.32,55.063,57.752,53.215,56.234z"/>
			<path fill="#4D4D4D" d="M50.241,68.312V53.738H50.24c-0.18,0-0.352,0.078-0.469,0.217c-0.693,0.822-1.6,1.562-2.473,2.279
				c-1.852,1.514-3.763,3.084-3.763,5.51c0,2.201,1.538,3.738,3.744,3.738c1.065,0,1.994-0.627,2.626-1.201
				c-0.303,1.297-0.869,2.83-1.938,4.031H50.241z"/>
		</g>
	</g>
	<g>
		<g>
			<path fill="#333333" d="M21.759,75.436c-0.873-0.717-1.779-1.459-2.472-2.279c-0.117-0.141-0.29-0.217-0.467-0.217h-0.036
				c-0.181,0-0.353,0.076-0.47,0.217c-0.692,0.82-1.6,1.562-2.473,2.279c-1.852,1.514-3.763,3.082-3.763,5.508
				c0,2.203,1.538,3.74,3.745,3.74c1.065,0,1.994-0.629,2.625-1.201c-0.303,1.295-0.869,2.83-1.938,4.031h4.576
				c-1.069-1.205-1.636-2.74-1.939-4.037c0.631,0.576,1.562,1.207,2.63,1.207c2.203,0,3.744-1.537,3.744-3.74
				C25.521,78.521,23.607,76.953,21.759,75.436z"/>
			<path fill="#4D4D4D" d="M18.784,87.514V72.939l0,0c-0.181,0-0.353,0.076-0.47,0.217c-0.692,0.82-1.6,1.562-2.473,2.279
				c-1.852,1.514-3.763,3.082-3.763,5.508c0,2.203,1.538,3.74,3.745,3.74c1.065,0,1.994-0.629,2.625-1.201
				c-0.303,1.295-0.869,2.83-1.938,4.031H18.784z"/>
		</g>
		<g>
			<path fill="#333333" d="M53.215,75.436c-0.873-0.717-1.779-1.459-2.472-2.279c-0.116-0.141-0.289-0.217-0.467-0.217H50.24
				c-0.18,0-0.352,0.076-0.469,0.217c-0.693,0.82-1.6,1.562-2.473,2.279c-1.852,1.514-3.763,3.082-3.763,5.508
				c0,2.203,1.538,3.74,3.744,3.74c1.065,0,1.994-0.629,2.626-1.201c-0.303,1.295-0.869,2.83-1.938,4.031h4.575
				c-1.069-1.205-1.636-2.74-1.938-4.037c0.63,0.576,1.561,1.207,2.629,1.207c2.203,0,3.745-1.537,3.745-3.74
				C56.979,78.521,55.063,76.953,53.215,75.436z"/>
			<path fill="#4D4D4D" d="M50.241,87.514V72.939H50.24c-0.18,0-0.352,0.076-0.469,0.217c-0.693,0.82-1.6,1.562-2.473,2.279
				c-1.852,1.514-3.763,3.082-3.763,5.508c0,2.203,1.538,3.74,3.744,3.74c1.065,0,1.994-0.629,2.626-1.201
				c-0.303,1.295-0.869,2.83-1.938,4.031H50.241z"/>
		</g>
	</g>
	<rect x="2.721" y="2.721" fill="none" width="9.375" height="9.762"/>
	<text transform="matrix(1 0 0 1 3.0801 8.7109)" fill="#333333" font-family="'ChunkFive'" font-size="8.4363">10</text>
	<rect x="57.027" y="91.201" fill="none" width="9.374" height="9.762"/>
	<text transform="matrix(-1 0 0 -1 66.041 94.9727)" fill="#333333" font-family="'ChunkFive'" font-size="8.4363">10</text>
	<g>
		<path fill="#333333" d="M37.52,27.941c-0.873-0.715-1.779-1.457-2.473-2.279c-0.116-0.139-0.289-0.215-0.466-0.215h-0.036
			c-0.181,0-0.353,0.076-0.47,0.215c-0.693,0.822-1.6,1.564-2.473,2.279c-1.852,1.516-3.763,3.084-3.763,5.51
			c0,2.201,1.538,3.74,3.744,3.74c1.066,0,1.995-0.629,2.626-1.201c-0.303,1.295-0.869,2.828-1.938,4.031h4.576
			c-1.07-1.205-1.636-2.74-1.939-4.037c0.631,0.574,1.561,1.207,2.629,1.207c2.203,0,3.745-1.539,3.745-3.74
			C41.282,31.027,39.367,29.459,37.52,27.941z"/>
		<path fill="#4D4D4D" d="M34.545,40.021V25.447l0,0c-0.181,0-0.353,0.076-0.47,0.215c-0.693,0.822-1.6,1.564-2.473,2.279
			c-1.852,1.516-3.763,3.084-3.763,5.51c0,2.201,1.538,3.74,3.744,3.74c1.066,0,1.995-0.629,2.626-1.201
			c-0.303,1.295-0.869,2.828-1.938,4.031H34.545z"/>
	</g>
	<g>
		<path fill="#333333" d="M37.52,66.314c-0.873-0.717-1.779-1.457-2.473-2.279c-0.116-0.141-0.289-0.217-0.466-0.217h-0.036
			c-0.181,0-0.353,0.076-0.47,0.217c-0.693,0.822-1.6,1.562-2.473,2.279c-1.852,1.514-3.763,3.082-3.763,5.508
			c0,2.203,1.538,3.74,3.744,3.74c1.066,0,1.995-0.627,2.626-1.201c-0.303,1.295-0.869,2.83-1.938,4.031h4.576
			c-1.07-1.205-1.636-2.74-1.939-4.037c0.631,0.576,1.561,1.207,2.629,1.207c2.203,0,3.745-1.537,3.745-3.74
			C41.282,69.4,39.367,67.832,37.52,66.314z"/>
		<path fill="#4D4D4D" d="M34.545,78.393V63.818l0,0c-0.181,0-0.353,0.076-0.47,0.217c-0.693,0.822-1.6,1.562-2.473,2.279
			c-1.852,1.514-3.763,3.082-3.763,5.508c0,2.203,1.538,3.74,3.744,3.74c1.066,0,1.995-0.627,2.626-1.201
			c-0.303,1.295-0.869,2.83-1.938,4.031H34.545z"/>
	</g>
</g>
</svg>
