<?xml version="1.0" encoding="utf-8"?>
<!-- Generator: Adobe Illustrator 16.0.0, SVG Export Plug-In . SVG Version: 6.00 Build 0)  -->
<!DOCTYPE svg PUBLIC "-//W3C//DTD SVG 1.1//EN" "http://www.w3.org/Graphics/SVG/1.1/DTD/svg11.dtd">
<svg version="1.1" id="Layer_1" xmlns="http://www.w3.org/2000/svg" xmlns:xlink="http://www.w3.org/1999/xlink" x="0px" y="0px"
	 width="69.12px" height="103.69px" viewBox="0 0 69.12 103.69" enable-background="new 0 0 69.12 103.69" xml:space="preserve">
<g>
	<path fill="#F2F2F2" d="M70.062,101.939c0,1.504-1.219,2.723-2.722,2.723H3.66c-1.503,0-2.722-1.219-2.722-2.723V3.699
		c0-1.504,1.219-2.722,2.722-2.722h63.68c1.503,0,2.722,1.218,2.722,2.722V101.939z"/>
	<g>
		<polygon fill="#7A2B2B" points="35.483,41.699 30.213,34.531 35.483,27.363 40.754,34.531 		"/>
		<polygon fill="#943434" points="35.468,27.385 30.213,34.531 35.468,41.676 		"/>
	</g>
	<g>
		<polygon fill="#7A2B2B" points="35.483,78.275 30.213,71.107 35.483,63.939 40.754,71.107 		"/>
		<polygon fill="#943434" points="35.468,63.961 30.213,71.107 35.468,78.252 		"/>
	</g>
	<rect x="3.66" y="3.698" fill="none" width="9.375" height="9.762"/>
	<text transform="matrix(1 0 0 1 5.5547 11.4268)" fill="#7A2B2B" font-family="'ChunkFive'" font-size="10.8856">2</text>
	<rect x="57.965" y="92.178" fill="none" width="9.375" height="9.762"/>
	<text transform="matrix(-1 0 0 -1 65.4434 94.2119)" fill="#7A2B2B" font-family="'ChunkFive'" font-size="10.8856">2</text>
	<g>
		<polygon fill="#7A2B2B" points="62.653,84.422 65.443,88.217 62.653,92.012 59.863,88.217 		"/>
		<polygon fill="#943434" points="62.662,92 65.443,88.217 62.662,84.434 		"/>
	</g>
	<g>
		<polygon fill="#7A2B2B" points="8.347,20.861 5.557,17.066 8.347,13.272 11.137,17.066 		"/>
		<polygon fill="#943434" points="8.338,13.284 5.557,17.066 8.338,20.849 		"/>
	</g>
</g>
</svg>
