<?xml version="1.0" encoding="utf-8"?>
<!-- Generator: Adobe Illustrator 16.0.0, SVG Export Plug-In . SVG Version: 6.00 Build 0)  -->
<!DOCTYPE svg PUBLIC "-//W3C//DTD SVG 1.1//EN" "http://www.w3.org/Graphics/SVG/1.1/DTD/svg11.dtd">
<svg version="1.1" id="Layer_1" xmlns="http://www.w3.org/2000/svg" xmlns:xlink="http://www.w3.org/1999/xlink" x="0px" y="0px"
	 width="69.12px" height="103.69px" viewBox="0 0 69.12 103.69" enable-background="new 0 0 69.12 103.69" xml:space="preserve">
<g>
	<path fill="#F2F2F2" d="M69.122,100.965c0,1.504-1.219,2.723-2.722,2.723H2.72c-1.503,0-2.721-1.219-2.721-2.723V2.724
		c0-1.504,1.218-2.722,2.721-2.722H66.4c1.503,0,2.722,1.218,2.722,2.722V100.965z"/>
	<g>
		<g>
			<path fill="#7A2B2B" d="M34.56,40.643l-1.079-1.074c-4.007-3.545-6.625-5.934-6.625-8.863c0-2.385,1.851-4.236,4.235-4.236
				c1.314,0,2.622,1.402,3.469,2.402c0.847-1,2.155-2.402,3.469-2.402c2.385,0,4.236,1.851,4.236,4.236
				c0,2.93-2.618,5.318-6.625,8.863L34.56,40.643z M34.56,40.643"/>
			<path fill="#943434" d="M34.544,28.859c-0.848-0.998-2.146-2.381-3.453-2.381c-2.385,0-4.235,1.85-4.235,4.235
				c0,2.932,2.618,5.318,6.625,8.863l1.063,1.059V28.859z"/>
		</g>
		<g>
			<path fill="#7A2B2B" d="M34.56,77.219l-1.079-1.074c-4.007-3.545-6.625-5.934-6.625-8.863c0-2.385,1.851-4.236,4.235-4.236
				c1.314,0,2.622,1.402,3.469,2.402c0.847-1,2.155-2.402,3.469-2.402c2.385,0,4.236,1.852,4.236,4.236
				c0,2.93-2.618,5.318-6.625,8.863L34.56,77.219z M34.56,77.219"/>
			<path fill="#943434" d="M34.544,65.436c-0.848-0.998-2.146-2.381-3.453-2.381c-2.385,0-4.235,1.85-4.235,4.234
				c0,2.932,2.618,5.318,6.625,8.863l1.063,1.059V65.436z"/>
		</g>
	</g>
	<g>
		<path fill="#7A2B2B" d="M7.371,19.876L6.794,19.3c-2.144-1.895-3.545-3.173-3.545-4.741c0-1.275,0.99-2.267,2.266-2.267
			c0.704,0,1.404,0.75,1.856,1.285c0.453-0.535,1.154-1.285,1.856-1.285c1.275,0,2.266,0.991,2.266,2.267
			c0,1.568-1.4,2.847-3.544,4.741L7.371,19.876z M7.371,19.876"/>
		<path fill="#943434" d="M7.362,13.572c-0.453-0.534-1.147-1.274-1.848-1.274c-1.275,0-2.266,0.99-2.266,2.266
			c0,1.568,1.401,2.847,3.545,4.742l0.568,0.567V13.572z"/>
	</g>
	<g>
		<path fill="#7A2B2B" d="M61.661,83.639l0.577,0.574c2.144,1.896,3.545,3.174,3.545,4.742c0,1.275-0.99,2.266-2.266,2.266
			c-0.704,0-1.404-0.748-1.856-1.283c-0.453,0.535-1.154,1.283-1.856,1.283c-1.275,0-2.266-0.99-2.266-2.266
			c0-1.568,1.4-2.846,3.544-4.742L61.661,83.639z M61.661,83.639"/>
		<path fill="#943434" d="M61.67,89.943c0.453,0.533,1.147,1.273,1.848,1.273c1.275,0,2.266-0.99,2.266-2.266
			c0-1.568-1.401-2.846-3.545-4.742l-0.568-0.566V89.943z"/>
	</g>
	<rect x="2.72" y="2.723" fill="none" width="9.374" height="9.762"/>
	<text transform="matrix(1 0 0 1 4.6147 10.4521)" fill="#7A2B2B" font-family="'ChunkFive'" font-size="10.8856">2</text>
	<rect x="57.025" y="91.203" fill="none" width="9.374" height="9.762"/>
	<text transform="matrix(-1 0 0 -1 64.5039 93.2373)" fill="#7A2B2B" font-family="'ChunkFive'" font-size="10.8856">2</text>
</g>
</svg>
