<?xml version="1.0" encoding="utf-8"?>
<!-- Generator: Adobe Illustrator 16.0.0, SVG Export Plug-In . SVG Version: 6.00 Build 0)  -->
<!DOCTYPE svg PUBLIC "-//W3C//DTD SVG 1.1//EN" "http://www.w3.org/Graphics/SVG/1.1/DTD/svg11.dtd">
<svg version="1.1" id="Layer_1" xmlns="http://www.w3.org/2000/svg" xmlns:xlink="http://www.w3.org/1999/xlink" x="0px" y="0px"
	 width="69.12px" height="103.69px" viewBox="0 0 69.12 103.69" enable-background="new 0 0 69.12 103.69" xml:space="preserve">
<g>
	<path fill="#F2F2F2" d="M69.121,100.965c0,1.504-1.219,2.723-2.721,2.723H2.721c-1.504,0-2.722-1.219-2.722-2.723V2.724
		c0-1.504,1.218-2.722,2.722-2.722H66.4c1.502,0,2.721,1.218,2.721,2.722V100.965z"/>
	<g>
		<path fill="#333333" d="M37.501,28.661c-0.873-0.717-1.779-1.458-2.472-2.279c-0.116-0.139-0.289-0.216-0.467-0.216h-0.035
			c-0.181,0-0.353,0.077-0.47,0.216c-0.693,0.821-1.6,1.562-2.473,2.279c-1.852,1.515-3.763,3.083-3.763,5.51
			c0,2.201,1.538,3.739,3.745,3.739c1.064,0,1.994-0.628,2.625-1.201c-0.303,1.295-0.869,2.829-1.938,4.031h4.576
			c-1.07-1.204-1.636-2.74-1.939-4.037c0.63,0.575,1.562,1.207,2.63,1.207c2.203,0,3.744-1.538,3.744-3.739
			C41.265,31.747,39.35,30.178,37.501,28.661z"/>
		<path fill="#4D4D4D" d="M34.527,40.74V26.166l0,0c-0.181,0-0.353,0.077-0.47,0.216c-0.693,0.821-1.6,1.562-2.473,2.279
			c-1.852,1.515-3.763,3.083-3.763,5.51c0,2.201,1.538,3.739,3.745,3.739c1.064,0,1.994-0.628,2.625-1.201
			c-0.303,1.295-0.869,2.829-1.938,4.031H34.527z"/>
	</g>
	<g>
		<path fill="#333333" d="M37.501,65.445c-0.873-0.717-1.779-1.459-2.472-2.279c-0.116-0.141-0.289-0.217-0.467-0.217h-0.035
			c-0.181,0-0.353,0.076-0.47,0.217c-0.693,0.82-1.6,1.562-2.473,2.279c-1.852,1.514-3.763,3.082-3.763,5.508
			c0,2.201,1.538,3.74,3.745,3.74c1.064,0,1.994-0.629,2.625-1.201c-0.303,1.295-0.869,2.83-1.938,4.031h4.576
			c-1.07-1.205-1.636-2.74-1.939-4.037c0.63,0.576,1.562,1.207,2.63,1.207c2.203,0,3.744-1.539,3.744-3.74
			C41.265,68.531,39.35,66.963,37.501,65.445z"/>
		<path fill="#4D4D4D" d="M34.527,77.523V62.949l0,0c-0.181,0-0.353,0.076-0.47,0.217c-0.693,0.82-1.6,1.562-2.473,2.279
			c-1.852,1.514-3.763,3.082-3.763,5.508c0,2.201,1.538,3.74,3.745,3.74c1.064,0,1.994-0.629,2.625-1.201
			c-0.303,1.295-0.869,2.83-1.938,4.031H34.527z"/>
	</g>
	<g>
		<path fill="#333333" d="M8.923,13.777c-0.452-0.371-0.922-0.755-1.28-1.18c-0.061-0.072-0.149-0.112-0.242-0.112H7.382
			c-0.093,0-0.183,0.04-0.243,0.112c-0.358,0.425-0.828,0.809-1.28,1.18c-0.959,0.784-1.949,1.598-1.949,2.854
			c0,1.141,0.797,1.938,1.939,1.938c0.552,0,1.033-0.325,1.36-0.622c-0.157,0.671-0.45,1.465-1.004,2.088h2.37
			c-0.555-0.624-0.848-1.419-1.005-2.091c0.327,0.298,0.809,0.625,1.361,0.625c1.142,0,1.94-0.797,1.94-1.938
			C10.872,15.375,9.88,14.563,8.923,13.777z"/>
		<path fill="#4D4D4D" d="M7.382,20.034v-7.549l0,0c-0.093,0-0.183,0.04-0.243,0.112c-0.358,0.425-0.828,0.809-1.28,1.18
			c-0.959,0.784-1.949,1.598-1.949,2.854c0,1.141,0.797,1.938,1.939,1.938c0.552,0,1.033-0.325,1.36-0.622
			c-0.157,0.671-0.45,1.465-1.004,2.088H7.382z"/>
	</g>
	<g>
		<path fill="#333333" d="M60.164,89.912c0.452,0.371,0.922,0.754,1.28,1.18c0.061,0.072,0.15,0.111,0.242,0.111h0.019
			c0.094,0,0.183-0.039,0.243-0.111c0.358-0.426,0.828-0.809,1.28-1.18c0.959-0.785,1.949-1.598,1.949-2.854
			c0-1.141-0.797-1.938-1.939-1.938c-0.552,0-1.033,0.324-1.36,0.621c0.157-0.67,0.45-1.465,1.004-2.086h-2.37
			c0.555,0.623,0.848,1.418,1.005,2.09c-0.327-0.299-0.809-0.625-1.361-0.625c-1.142,0-1.94,0.797-1.94,1.938
			C58.215,88.312,59.207,89.125,60.164,89.912z"/>
		<path fill="#4D4D4D" d="M61.705,83.656v7.547l0,0c0.094,0,0.183-0.039,0.243-0.111c0.358-0.426,0.828-0.809,1.28-1.18
			c0.959-0.785,1.949-1.598,1.949-2.854c0-1.141-0.797-1.938-1.939-1.938c-0.552,0-1.033,0.324-1.36,0.621
			c0.157-0.67,0.45-1.465,1.004-2.086H61.705z"/>
	</g>
	<rect x="2.72" y="2.723" fill="none" width="9.374" height="9.762"/>
	<text transform="matrix(1 0 0 1 4.6147 10.4521)" fill="#333333" font-family="'ChunkFive'" font-size="10.8856">2</text>
	<rect x="57.025" y="91.203" fill="none" width="9.375" height="9.762"/>
	<text transform="matrix(-1 0 0 -1 64.5049 93.2373)" fill="#333333" font-family="'ChunkFive'" font-size="10.8856">2</text>
</g>
</svg>
