<?xml version="1.0" encoding="utf-8"?>
<!-- Generator: Adobe Illustrator 16.0.0, SVG Export Plug-In . SVG Version: 6.00 Build 0)  -->
<!DOCTYPE svg PUBLIC "-//W3C//DTD SVG 1.1//EN" "http://www.w3.org/Graphics/SVG/1.1/DTD/svg11.dtd">
<svg version="1.1" id="Layer_1" xmlns="http://www.w3.org/2000/svg" xmlns:xlink="http://www.w3.org/1999/xlink" x="0px" y="0px"
	 width="69.12px" height="103.69px" viewBox="0 0 69.12 103.69" enable-background="new 0 0 69.12 103.69" xml:space="preserve">
<g>
	<path fill="#F2F2F2" d="M69.121,100.965c0,1.504-1.219,2.723-2.721,2.723H2.72c-1.503,0-2.722-1.219-2.722-2.723V2.724
		c0-1.504,1.219-2.722,2.722-2.722H66.4c1.502,0,2.721,1.218,2.721,2.722V100.965z"/>
	<g>
		<path fill="#333333" d="M57.826,86.926c0-1.215,1.09-1.893,2.154-1.734c0.549,0.082,0.953,0.42,1.281,0.826
			c0.311,0.381,0.389,0.135,0.346-0.115c-0.197-1.158-0.725-1.814-1.707-2.123c-0.098-0.031-0.512-0.125-0.135-0.125h3.912
			c0.375,0-0.037,0.094-0.135,0.125c-0.98,0.309-1.508,0.965-1.705,2.123c-0.043,0.25,0.033,0.496,0.344,0.115
			c0.328-0.406,0.73-0.744,1.281-0.826c1.064-0.158,2.154,0.52,2.154,1.734l0,0c0,0.871-0.703,1.84-1.619,1.773
			c-0.062-0.006-0.498-0.098-0.633,0.033c-0.195,0.191,0.078,0.332,0.098,0.766l0,0c0.029,1.033-0.68,1.584-1.471,1.684l0,0
			c0,0-0.172,0.021-0.25,0.021c-0.141,0.002-0.252-0.02-0.291-0.021l0,0c-0.791-0.1-1.502-0.652-1.471-1.684l0,0
			c0.02-0.434,0.291-0.574,0.098-0.766c-0.135-0.131-0.57-0.037-0.631-0.033C58.529,88.766,57.826,87.797,57.826,86.926
			L57.826,86.926z"/>
		<path fill="#4D4D4D" d="M61.73,91.203c0.004,0,0.008,0,0.012,0c0.078,0,0.25-0.021,0.25-0.021l0,0c0.791-0.1,1.5-0.65,1.471-1.684
			l0,0c-0.02-0.434-0.293-0.574-0.098-0.766c0.135-0.131,0.57-0.039,0.633-0.033c0.916,0.066,1.619-0.902,1.619-1.773l0,0
			c0-1.215-1.09-1.893-2.154-1.734c-0.551,0.082-0.953,0.42-1.281,0.826c-0.311,0.381-0.387,0.135-0.344-0.115
			c0.197-1.158,0.725-1.814,1.705-2.123c0.098-0.031,0.51-0.125,0.135-0.125H61.73V91.203z"/>
	</g>
	<g>
		<path fill="#333333" d="M11.293,16.763c0,1.214-1.09,1.893-2.154,1.734c-0.548-0.083-0.953-0.42-1.281-0.826
			c-0.311-0.382-0.388-0.136-0.345,0.115c0.197,1.157,0.725,1.813,1.706,2.122c0.099,0.031,0.512,0.125,0.135,0.125H5.443
			c-0.377,0,0.036-0.094,0.134-0.125c0.981-0.309,1.509-0.965,1.706-2.122c0.043-0.251-0.033-0.497-0.344-0.115
			c-0.329,0.406-0.732,0.743-1.283,0.826c-1.062,0.157-2.153-0.521-2.153-1.734v-0.001c0-0.871,0.703-1.84,1.619-1.773
			c0.063,0.006,0.497,0.099,0.632-0.033c0.196-0.19-0.077-0.332-0.098-0.765V14.19c-0.029-1.032,0.68-1.584,1.473-1.684v0.001
			c0-0.001,0.172-0.022,0.249-0.022c0.141-0.002,0.253,0.02,0.291,0.022v-0.001c0.792,0.1,1.502,0.652,1.471,1.684v0.001
			c-0.02,0.433-0.291,0.574-0.097,0.765c0.134,0.132,0.57,0.037,0.631,0.033C10.59,14.922,11.293,15.891,11.293,16.763
			L11.293,16.763z"/>
		<path fill="#4D4D4D" d="M7.389,12.485c-0.004,0-0.008,0-0.012,0c-0.077,0-0.249,0.021-0.249,0.022v-0.001
			c-0.793,0.1-1.502,0.651-1.473,1.684v0.001c0.021,0.433,0.294,0.574,0.098,0.765c-0.135,0.132-0.568,0.039-0.632,0.033
			c-0.916-0.066-1.619,0.902-1.619,1.773v0.001c0,1.214,1.091,1.892,2.153,1.734c0.551-0.083,0.954-0.42,1.283-0.826
			c0.311-0.382,0.387-0.136,0.344,0.115c-0.197,1.157-0.725,1.813-1.706,2.122c-0.098,0.031-0.511,0.125-0.134,0.125h1.946V12.485z"
			/>
	</g>
	<rect x="2.719" y="2.723" fill="none" width="9.375" height="9.762"/>
	<text transform="matrix(1 0 0 1 4.6143 10.4531)" fill="#333333" font-family="'ChunkFive'" font-size="10.8856">3</text>
	<rect x="57.025" y="91.203" fill="none" width="9.375" height="9.762"/>
	<text transform="matrix(-1 0 0 -1 64.5059 93.2373)" fill="#333333" font-family="'ChunkFive'" font-size="10.8856">3</text>
	<g>
		<path fill="#333333" d="M57.826,28.293c0,2.343-2.105,3.655-4.16,3.349c-1.059-0.159-1.842-0.81-2.473-1.594
			c-0.6-0.738-0.75-0.263-0.666,0.221c0.381,2.234,1.398,3.503,3.293,4.097c0.191,0.062,0.988,0.242,0.26,0.242h-7.549
			c-0.729,0,0.068-0.181,0.256-0.242c1.896-0.594,2.914-1.862,3.295-4.097c0.082-0.483-0.064-0.959-0.664-0.221
			c-0.635,0.784-1.414,1.435-2.477,1.594c-2.051,0.304-4.158-1.006-4.158-3.349v-0.002c0-1.683,1.357-3.552,3.127-3.423
			c0.121,0.01,0.959,0.19,1.221-0.064c0.377-0.368-0.15-0.641-0.189-1.477v-0.002c-0.057-1.993,1.312-3.058,2.842-3.251v0.002
			c0-0.002,0.332-0.043,0.48-0.043c0.273-0.003,0.488,0.038,0.564,0.043v-0.002c1.527,0.193,2.898,1.26,2.838,3.251v0.002
			c-0.037,0.836-0.562,1.108-0.188,1.477c0.26,0.255,1.102,0.072,1.219,0.064c1.77-0.129,3.129,1.74,3.129,3.423V28.293z"/>
		<path fill="#4D4D4D" d="M50.287,20.034c-0.008,0-0.016,0-0.023,0c-0.148,0-0.48,0.041-0.48,0.043v-0.002
			c-1.529,0.193-2.898,1.258-2.842,3.251v0.002c0.039,0.836,0.566,1.108,0.189,1.477c-0.262,0.255-1.1,0.074-1.221,0.064
			c-1.77-0.129-3.127,1.74-3.127,3.423v0.002c0,2.343,2.107,3.652,4.158,3.349c1.062-0.159,1.842-0.81,2.477-1.594
			c0.6-0.738,0.746-0.263,0.664,0.221c-0.381,2.234-1.398,3.503-3.295,4.097c-0.188,0.062-0.984,0.242-0.256,0.242h3.756V20.034z"/>
	</g>
	<g>
		<path fill="#333333" d="M42.098,52.818c0,2.342-2.104,3.654-4.158,3.348c-1.061-0.158-1.842-0.811-2.475-1.594
			c-0.599-0.738-0.748-0.264-0.666,0.221c0.381,2.234,1.399,3.502,3.295,4.096c0.189,0.062,0.986,0.242,0.26,0.242h-7.55
			c-0.729,0,0.068-0.18,0.256-0.242c1.896-0.594,2.914-1.861,3.295-4.096c0.082-0.484-0.064-0.959-0.663-0.221
			c-0.636,0.783-1.415,1.436-2.477,1.594c-2.053,0.303-4.159-1.006-4.159-3.348v-0.004c0-1.682,1.357-3.551,3.127-3.422
			c0.122,0.01,0.96,0.189,1.221-0.064c0.377-0.367-0.15-0.641-0.188-1.477v-0.002c-0.057-1.993,1.312-3.058,2.841-3.251v0.003
			c0-0.003,0.333-0.044,0.481-0.044c0.272-0.003,0.488,0.038,0.563,0.044v-0.003c1.527,0.193,2.898,1.261,2.839,3.251v0.002
			c-0.039,0.836-0.564,1.11-0.188,1.477c0.258,0.254,1.1,0.072,1.219,0.064c1.77-0.129,3.127,1.74,3.127,3.422V52.818z"/>
		<path fill="#4D4D4D" d="M34.56,44.557c-0.008,0-0.016,0-0.023,0c-0.148,0-0.481,0.041-0.481,0.044v-0.003
			c-1.529,0.193-2.897,1.258-2.841,3.251v0.002c0.038,0.836,0.565,1.11,0.188,1.477c-0.261,0.254-1.099,0.074-1.221,0.064
			c-1.77-0.129-3.127,1.74-3.127,3.422v0.004c0,2.342,2.106,3.65,4.159,3.348c1.062-0.16,1.841-0.811,2.477-1.594
			c0.599-0.738,0.745-0.264,0.663,0.221c-0.381,2.234-1.399,3.502-3.295,4.096c-0.188,0.062-0.984,0.242-0.256,0.242h3.757V44.557z"
			/>
	</g>
	<g>
		<path fill="#333333" d="M26.353,77.342c0,2.342-2.104,3.654-4.159,3.348c-1.059-0.158-1.842-0.809-2.474-1.594
			c-0.6-0.738-0.749-0.262-0.666,0.221c0.381,2.234,1.398,3.502,3.294,4.098c0.191,0.061,0.988,0.24,0.26,0.24h-7.55
			c-0.729,0,0.069-0.18,0.257-0.24c1.896-0.596,2.914-1.863,3.295-4.098c0.082-0.482-0.064-0.959-0.664-0.221
			c-0.635,0.785-1.414,1.436-2.477,1.594c-2.052,0.305-4.158-1.006-4.158-3.348V77.34c0-1.684,1.357-3.553,3.127-3.424
			c0.121,0.01,0.959,0.189,1.22-0.064c0.377-0.367-0.149-0.641-0.188-1.477v-0.002c-0.057-1.992,1.312-3.059,2.842-3.25v0.002
			c0-0.002,0.332-0.043,0.48-0.043c0.273-0.004,0.489,0.037,0.563,0.043v-0.002c1.528,0.191,2.898,1.26,2.839,3.25v0.002
			c-0.038,0.836-0.562,1.109-0.188,1.477c0.26,0.254,1.102,0.072,1.219,0.064c1.77-0.129,3.128,1.74,3.128,3.424V77.342z"/>
		<path fill="#4D4D4D" d="M18.815,69.082c-0.008,0-0.016-0.002-0.023,0c-0.148,0-0.48,0.041-0.48,0.043v-0.002
			c-1.529,0.191-2.898,1.256-2.842,3.25v0.002c0.039,0.836,0.565,1.109,0.188,1.477c-0.261,0.254-1.099,0.074-1.22,0.064
			c-1.77-0.129-3.127,1.74-3.127,3.424v0.002c0,2.342,2.106,3.652,4.158,3.348c1.062-0.158,1.842-0.811,2.477-1.594
			c0.6-0.738,0.746-0.262,0.664,0.221c-0.381,2.234-1.399,3.502-3.295,4.098c-0.188,0.061-0.985,0.24-0.257,0.24h3.757V69.082z"/>
	</g>
</g>
</svg>
