<?xml version="1.0" encoding="utf-8"?>
<!-- Generator: Adobe Illustrator 16.0.0, SVG Export Plug-In . SVG Version: 6.00 Build 0)  -->
<!DOCTYPE svg PUBLIC "-//W3C//DTD SVG 1.1//EN" "http://www.w3.org/Graphics/SVG/1.1/DTD/svg11.dtd">
<svg version="1.1" id="Layer_1" xmlns="http://www.w3.org/2000/svg" xmlns:xlink="http://www.w3.org/1999/xlink" x="0px" y="0px"
	 width="69.12px" height="103.69px" viewBox="0 0 69.12 103.69" enable-background="new 0 0 69.12 103.69" xml:space="preserve">
<g>
	<path fill="#F2F2F2" d="M69.158,100.965c0,1.504-1.218,2.723-2.721,2.723H2.757c-1.502,0-2.722-1.219-2.722-2.723V2.725
		c0-1.504,1.22-2.722,2.722-2.722h63.681c1.503,0,2.721,1.218,2.721,2.722V100.965z"/>
	<g>
		<polygon fill="#7A2B2B" points="34.614,59.012 29.344,51.844 34.614,44.677 39.884,51.844 		"/>
		<polygon fill="#943434" points="34.598,44.699 29.344,51.844 34.598,58.99 		"/>
	</g>
	<g>
		<polygon fill="#7A2B2B" points="50.325,34.489 45.055,27.321 50.325,20.153 55.596,27.321 		"/>
		<polygon fill="#943434" points="50.31,20.176 45.055,27.321 50.31,34.467 		"/>
	</g>
	<g>
		<polygon fill="#7A2B2B" points="18.853,83.537 13.583,76.369 18.853,69.199 24.123,76.369 		"/>
		<polygon fill="#943434" points="18.837,69.223 13.583,76.369 18.837,83.514 		"/>
	</g>
	<rect x="2.757" y="2.724" fill="none" width="9.374" height="9.762"/>
	<text transform="matrix(1 0 0 1 4.6514 10.4536)" fill="#7A2B2B" font-family="'ChunkFive'" font-size="10.8856">3</text>
	<rect x="57.062" y="91.203" fill="none" width="9.375" height="9.762"/>
	<text transform="matrix(-1 0 0 -1 64.543 93.2383)" fill="#7A2B2B" font-family="'ChunkFive'" font-size="10.8856">3</text>
	<g>
		<polygon fill="#7A2B2B" points="61.768,83.625 64.557,87.42 61.768,91.213 58.978,87.42 		"/>
		<polygon fill="#943434" points="61.775,91.201 64.557,87.42 61.775,83.637 		"/>
	</g>
	<g>
		<polygon fill="#7A2B2B" points="7.46,20.063 4.671,16.27 7.46,12.475 10.25,16.27 		"/>
		<polygon fill="#943434" points="7.451,12.486 4.671,16.27 7.451,20.052 		"/>
	</g>
</g>
</svg>
