<?xml version="1.0" encoding="utf-8"?>
<!-- Generator: Adobe Illustrator 16.0.0, SVG Export Plug-In . SVG Version: 6.00 Build 0)  -->
<!DOCTYPE svg PUBLIC "-//W3C//DTD SVG 1.1//EN" "http://www.w3.org/Graphics/SVG/1.1/DTD/svg11.dtd">
<svg version="1.1" id="Layer_1" xmlns="http://www.w3.org/2000/svg" xmlns:xlink="http://www.w3.org/1999/xlink" x="0px" y="0px"
	 width="69.12px" height="103.69px" viewBox="0 0 69.12 103.69" enable-background="new 0 0 69.12 103.69" xml:space="preserve">
<g>
	<path fill="#F2F2F2" d="M69.121,100.965c0,1.504-1.219,2.723-2.721,2.723H2.72c-1.503,0-2.722-1.219-2.722-2.723V2.724
		c0-1.504,1.219-2.722,2.722-2.722H66.4c1.502,0,2.721,1.218,2.721,2.722V100.965z"/>
	<g>
		<g>
			<path fill="#7A2B2B" d="M34.56,58.932l-1.079-1.076c-4.007-3.543-6.626-5.932-6.626-8.863c0-2.383,1.852-4.235,4.235-4.235
				c1.315,0,2.623,1.401,3.47,2.401c0.847-1,2.155-2.401,3.469-2.401c2.385,0,4.234,1.852,4.234,4.235
				c0,2.932-2.617,5.32-6.624,8.863L34.56,58.932z M34.56,58.932"/>
			<path fill="#943434" d="M34.543,47.148c-0.848-0.999-2.146-2.382-3.453-2.382c-2.384,0-4.235,1.851-4.235,4.234
				c0,2.932,2.619,5.32,6.626,8.863l1.062,1.061V47.148z"/>
		</g>
	</g>
	<g>
		<g>
			<path fill="#7A2B2B" d="M50.271,34.408l-1.078-1.076c-4.008-3.543-6.627-5.932-6.627-8.863c0-2.384,1.852-4.234,4.236-4.234
				c1.314,0,2.623,1.4,3.469,2.401c0.848-1.001,2.156-2.401,3.469-2.401c2.385,0,4.236,1.851,4.236,4.234
				c0,2.932-2.619,5.32-6.625,8.863L50.271,34.408z M50.271,34.408"/>
			<path fill="#943434" d="M50.256,22.624c-0.848-0.998-2.146-2.382-3.453-2.382c-2.385,0-4.236,1.852-4.236,4.235
				c0,2.931,2.619,5.319,6.627,8.862l1.062,1.061V22.624z"/>
		</g>
	</g>
	<g>
		<g>
			<path fill="#7A2B2B" d="M18.815,83.455l-1.079-1.076c-4.007-3.543-6.625-5.932-6.625-8.863c0-2.383,1.852-4.234,4.235-4.234
				c1.314,0,2.623,1.4,3.469,2.4c0.848-1,2.156-2.4,3.469-2.4c2.385,0,4.236,1.852,4.236,4.234c0,2.932-2.618,5.32-6.625,8.863
				L18.815,83.455z M18.815,83.455"/>
			<path fill="#943434" d="M18.799,71.672c-0.848-1-2.147-2.383-3.453-2.383c-2.384,0-4.235,1.852-4.235,4.236
				c0,2.93,2.618,5.318,6.625,8.861l1.063,1.061V71.672z"/>
		</g>
	</g>
	<rect x="2.72" y="2.723" fill="none" width="9.374" height="9.762"/>
	<text transform="matrix(1 0 0 1 4.6143 10.4531)" fill="#7A2B2B" font-family="'ChunkFive'" font-size="10.8856">3</text>
	<rect x="57.025" y="91.203" fill="none" width="9.375" height="9.762"/>
	<text transform="matrix(-1 0 0 -1 64.5059 93.2373)" fill="#7A2B2B" font-family="'ChunkFive'" font-size="10.8856">3</text>
	<g>
		<path fill="#7A2B2B" d="M7.416,19.964l-0.578-0.576c-2.144-1.896-3.544-3.174-3.544-4.742c0-1.275,0.99-2.266,2.266-2.266
			c0.704,0,1.403,0.749,1.856,1.284c0.453-0.535,1.153-1.284,1.856-1.284c1.275,0,2.266,0.99,2.266,2.266
			c0,1.568-1.4,2.847-3.545,4.742L7.416,19.964z M7.416,19.964"/>
		<path fill="#943434" d="M7.407,13.66c-0.453-0.535-1.148-1.275-1.848-1.275c-1.275,0-2.266,0.99-2.266,2.266
			c0,1.568,1.4,2.847,3.544,4.743l0.569,0.566V13.66z"/>
	</g>
	<g>
		<path fill="#7A2B2B" d="M61.705,83.725l0.578,0.576c2.143,1.896,3.545,3.174,3.545,4.742c0,1.275-0.99,2.266-2.268,2.266
			c-0.703,0-1.402-0.75-1.855-1.285c-0.453,0.535-1.154,1.285-1.855,1.285c-1.277,0-2.268-0.99-2.268-2.266
			c0-1.568,1.4-2.846,3.545-4.742L61.705,83.725z M61.705,83.725"/>
		<path fill="#943434" d="M61.713,90.029c0.455,0.535,1.148,1.275,1.848,1.275c1.277,0,2.268-0.99,2.268-2.266
			c0-1.568-1.402-2.848-3.545-4.742l-0.57-0.568V90.029z"/>
	</g>
</g>
</svg>
