<?xml version="1.0" encoding="utf-8"?>
<!-- Generator: Adobe Illustrator 16.0.0, SVG Export Plug-In . SVG Version: 6.00 Build 0)  -->
<!DOCTYPE svg PUBLIC "-//W3C//DTD SVG 1.1//EN" "http://www.w3.org/Graphics/SVG/1.1/DTD/svg11.dtd">
<svg version="1.1" id="Layer_1" xmlns="http://www.w3.org/2000/svg" xmlns:xlink="http://www.w3.org/1999/xlink" x="0px" y="0px"
	 width="69.12px" height="103.69px" viewBox="0 0 69.12 103.69" enable-background="new 0 0 69.12 103.69" xml:space="preserve">
<g>
	<path fill="#F2F2F2" d="M69.121,100.965c0,1.504-1.219,2.723-2.721,2.723H2.72c-1.503,0-2.722-1.219-2.722-2.723V2.725
		c0-1.504,1.219-2.722,2.722-2.722H66.4c1.502,0,2.721,1.218,2.721,2.722V100.965z"/>
	<g>
		<path fill="#333333" d="M53.262,22.529c-0.873-0.717-1.779-1.458-2.473-2.279c-0.115-0.139-0.289-0.216-0.465-0.216h-0.037
			c-0.18,0-0.352,0.077-0.469,0.216c-0.693,0.821-1.6,1.562-2.473,2.279c-1.852,1.514-3.762,3.083-3.762,5.51
			c0,2.201,1.537,3.739,3.744,3.739c1.064,0,1.994-0.628,2.625-1.202c-0.303,1.296-0.869,2.83-1.939,4.032h4.576
			c-1.068-1.204-1.635-2.74-1.939-4.037c0.631,0.575,1.562,1.207,2.631,1.207c2.203,0,3.744-1.538,3.744-3.739
			C57.025,25.615,55.111,24.047,53.262,22.529z"/>
		<path fill="#4D4D4D" d="M50.287,34.608V20.034l0,0c-0.18,0-0.352,0.077-0.469,0.216c-0.693,0.821-1.6,1.562-2.473,2.279
			c-1.852,1.514-3.762,3.083-3.762,5.51c0,2.201,1.537,3.739,3.744,3.739c1.064,0,1.994-0.628,2.625-1.202
			c-0.303,1.296-0.869,2.83-1.939,4.032H50.287z"/>
	</g>
	<g>
		<path fill="#333333" d="M21.773,71.576c-0.873-0.717-1.779-1.457-2.472-2.279c-0.116-0.139-0.289-0.217-0.467-0.217h-0.036
			c-0.181,0-0.352,0.078-0.47,0.217c-0.692,0.822-1.599,1.562-2.473,2.279c-1.851,1.514-3.762,3.084-3.762,5.51
			c0,2.201,1.537,3.738,3.744,3.738c1.065,0,1.994-0.627,2.626-1.201c-0.304,1.297-0.869,2.83-1.939,4.033h4.576
			c-1.069-1.205-1.636-2.74-1.938-4.039c0.63,0.576,1.561,1.207,2.629,1.207c2.203,0,3.745-1.537,3.745-3.738
			C25.537,74.662,23.622,73.094,21.773,71.576z"/>
		<path fill="#4D4D4D" d="M18.798,83.656V69.08l0,0c-0.181,0-0.352,0.078-0.47,0.217c-0.692,0.822-1.599,1.562-2.473,2.279
			c-1.851,1.514-3.762,3.084-3.762,5.51c0,2.201,1.537,3.738,3.744,3.738c1.065,0,1.994-0.627,2.626-1.201
			c-0.304,1.297-0.869,2.83-1.939,4.033H18.798z"/>
	</g>
	<g>
		<path fill="#333333" d="M37.518,47.053c-0.873-0.717-1.779-1.457-2.471-2.279c-0.117-0.139-0.289-0.216-0.467-0.216h-0.036
			c-0.181,0-0.353,0.077-0.47,0.216c-0.692,0.822-1.599,1.562-2.473,2.279c-1.851,1.514-3.763,3.083-3.763,5.51
			c0,2.201,1.539,3.738,3.745,3.738c1.065,0,1.994-0.627,2.626-1.201c-0.304,1.297-0.869,2.83-1.938,4.031h4.575
			c-1.069-1.203-1.635-2.74-1.938-4.037c0.63,0.576,1.561,1.207,2.629,1.207c2.203,0,3.744-1.537,3.744-3.738
			C41.281,50.139,39.367,48.571,37.518,47.053z"/>
		<path fill="#4D4D4D" d="M34.544,59.131V44.558h-0.001c-0.181,0-0.353,0.077-0.47,0.216c-0.692,0.822-1.599,1.562-2.473,2.279
			c-1.851,1.514-3.763,3.083-3.763,5.51c0,2.201,1.539,3.738,3.745,3.738c1.065,0,1.994-0.627,2.626-1.201
			c-0.304,1.297-0.869,2.83-1.938,4.031H34.544z"/>
	</g>
	<g>
		<path fill="#333333" d="M8.923,13.777c-0.453-0.371-0.922-0.755-1.281-1.18c-0.061-0.072-0.149-0.112-0.241-0.112H7.382
			c-0.093,0-0.183,0.04-0.244,0.112c-0.358,0.425-0.828,0.809-1.28,1.18C4.9,14.562,3.91,15.375,3.91,16.631
			c0,1.141,0.796,1.938,1.939,1.938c0.552,0,1.033-0.325,1.359-0.622c-0.156,0.671-0.45,1.465-1.004,2.088h2.37
			c-0.554-0.624-0.847-1.419-1.004-2.091c0.326,0.298,0.809,0.625,1.361,0.625c1.142,0,1.94-0.797,1.94-1.938
			C10.873,15.376,9.88,14.563,8.923,13.777z"/>
		<path fill="#4D4D4D" d="M7.382,20.034v-7.549l0,0c-0.093,0-0.183,0.04-0.244,0.112c-0.358,0.425-0.828,0.809-1.28,1.18
			C4.9,14.562,3.91,15.375,3.91,16.631c0,1.141,0.796,1.938,1.939,1.938c0.552,0,1.033-0.325,1.359-0.622
			c-0.156,0.671-0.45,1.465-1.004,2.088H7.382z"/>
	</g>
	<g>
		<path fill="#333333" d="M60.164,89.912c0.453,0.371,0.922,0.754,1.281,1.18c0.061,0.072,0.148,0.111,0.24,0.111h0.02
			c0.094,0,0.182-0.039,0.242-0.111c0.359-0.426,0.83-0.809,1.281-1.18c0.959-0.785,1.949-1.598,1.949-2.854
			c0-1.141-0.797-1.938-1.939-1.938c-0.553,0-1.033,0.324-1.359,0.621c0.156-0.67,0.449-1.465,1.004-2.086h-2.371
			c0.555,0.623,0.848,1.418,1.006,2.09c-0.328-0.299-0.809-0.625-1.363-0.625c-1.141,0-1.939,0.797-1.939,1.938
			C58.215,88.312,59.207,89.125,60.164,89.912z"/>
		<path fill="#4D4D4D" d="M61.705,83.656v7.547l0,0c0.094,0,0.182-0.039,0.242-0.111c0.359-0.426,0.83-0.809,1.281-1.18
			c0.959-0.785,1.949-1.598,1.949-2.854c0-1.141-0.797-1.938-1.939-1.938c-0.553,0-1.033,0.324-1.359,0.621
			c0.156-0.67,0.449-1.465,1.004-2.086H61.705z"/>
	</g>
	<rect x="2.72" y="2.724" fill="none" width="9.374" height="9.762"/>
	<text transform="matrix(1 0 0 1 4.6152 10.4536)" fill="#333333" font-family="'ChunkFive'" font-size="10.8856">3</text>
	<rect x="57.025" y="91.203" fill="none" width="9.375" height="9.762"/>
	<text transform="matrix(-1 0 0 -1 64.5059 93.2383)" fill="#333333" font-family="'ChunkFive'" font-size="10.8856">3</text>
</g>
</svg>
