<?xml version="1.0" encoding="utf-8"?>
<!-- Generator: Adobe Illustrator 16.0.0, SVG Export Plug-In . SVG Version: 6.00 Build 0)  -->
<!DOCTYPE svg PUBLIC "-//W3C//DTD SVG 1.1//EN" "http://www.w3.org/Graphics/SVG/1.1/DTD/svg11.dtd">
<svg version="1.1" id="Layer_1" xmlns="http://www.w3.org/2000/svg" xmlns:xlink="http://www.w3.org/1999/xlink" x="0px" y="0px"
	 width="69.12px" height="103.69px" viewBox="0 0 69.12 103.69" enable-background="new 0 0 69.12 103.69" xml:space="preserve">
<g>
	<path fill="#F2F2F2" d="M69.122,100.967c0,1.502-1.218,2.721-2.721,2.721H2.721c-1.503,0-2.722-1.219-2.722-2.721V2.724
		c0-1.502,1.219-2.721,2.722-2.721h63.681c1.503,0,2.721,1.219,2.721,2.721V100.967z"/>
	<g>
		<path fill="#333333" d="M26.321,28.294c0,2.344-2.104,3.655-4.158,3.349c-1.061-0.159-1.842-0.81-2.475-1.594
			c-0.599-0.738-0.748-0.263-0.666,0.221c0.381,2.234,1.399,3.503,3.295,4.097c0.189,0.062,0.987,0.242,0.26,0.242h-7.551
			c-0.728,0,0.069-0.181,0.257-0.242c1.896-0.594,2.914-1.862,3.295-4.097c0.082-0.483-0.064-0.959-0.664-0.221
			c-0.635,0.784-1.414,1.435-2.476,1.594c-2.053,0.304-4.159-1.005-4.159-3.349v-0.002c0-1.682,1.357-3.552,3.127-3.423
			c0.122,0.01,0.96,0.19,1.22-0.064c0.378-0.368-0.149-0.641-0.188-1.477v-0.002c-0.058-1.993,1.312-3.058,2.841-3.251v0.002
			c0-0.002,0.332-0.043,0.481-0.043c0.272-0.003,0.488,0.038,0.562,0.043v-0.002c1.528,0.193,2.898,1.26,2.84,3.251v0.002
			c-0.039,0.836-0.563,1.108-0.188,1.477c0.259,0.255,1.1,0.072,1.219,0.064c1.77-0.129,3.127,1.741,3.127,3.423V28.294z"/>
		<path fill="#4D4D4D" d="M18.784,20.035c-0.008,0-0.017,0-0.023,0c-0.149,0-0.481,0.041-0.481,0.043v-0.002
			c-1.529,0.193-2.898,1.258-2.841,3.251v0.002c0.038,0.836,0.565,1.108,0.188,1.477c-0.26,0.255-1.098,0.074-1.22,0.064
			c-1.77-0.129-3.127,1.741-3.127,3.423v0.002c0,2.344,2.106,3.652,4.159,3.349c1.062-0.159,1.841-0.81,2.476-1.594
			c0.6-0.738,0.746-0.263,0.664,0.221c-0.381,2.234-1.399,3.503-3.295,4.097c-0.188,0.062-0.984,0.242-0.257,0.242h3.758V20.035z"/>
	</g>
	<g>
		<path fill="#333333" d="M57.778,28.294c0,2.344-2.104,3.655-4.159,3.349c-1.06-0.159-1.842-0.81-2.474-1.594
			c-0.6-0.738-0.749-0.263-0.666,0.221c0.38,2.234,1.398,3.503,3.294,4.097c0.19,0.062,0.987,0.242,0.26,0.242h-7.55
			c-0.729,0,0.069-0.181,0.257-0.242c1.896-0.594,2.913-1.862,3.295-4.097c0.081-0.483-0.065-0.959-0.664-0.221
			c-0.636,0.784-1.414,1.435-2.477,1.594c-2.053,0.304-4.158-1.005-4.158-3.349v-0.002c0-1.682,1.357-3.552,3.127-3.423
			c0.121,0.01,0.959,0.19,1.22-0.064c0.377-0.368-0.15-0.641-0.188-1.477v-0.002c-0.057-1.993,1.312-3.058,2.842-3.251v0.002
			c0-0.002,0.332-0.043,0.48-0.043c0.272-0.003,0.489,0.038,0.563,0.043v-0.002c1.527,0.193,2.898,1.26,2.839,3.251v0.002
			c-0.038,0.836-0.563,1.108-0.188,1.477c0.26,0.255,1.101,0.072,1.219,0.064c1.77-0.129,3.128,1.741,3.128,3.423V28.294z"/>
		<path fill="#4D4D4D" d="M50.24,20.035c-0.008,0-0.016,0-0.023,0c-0.148,0-0.48,0.041-0.48,0.043v-0.002
			c-1.53,0.193-2.898,1.258-2.842,3.251v0.002c0.038,0.836,0.565,1.108,0.188,1.477c-0.261,0.255-1.099,0.074-1.22,0.064
			c-1.77-0.129-3.127,1.741-3.127,3.423v0.002c0,2.344,2.105,3.652,4.158,3.349c1.062-0.159,1.841-0.81,2.477-1.594
			c0.599-0.738,0.745-0.263,0.664,0.221c-0.382,2.234-1.399,3.503-3.295,4.097c-0.188,0.062-0.985,0.242-0.257,0.242h3.757V20.035z"
			/>
	</g>
	<g>
		<path fill="#333333" d="M26.321,77.342c0,2.344-2.104,3.656-4.158,3.35c-1.061-0.16-1.842-0.811-2.475-1.594
			c-0.599-0.738-0.748-0.264-0.666,0.221c0.381,2.234,1.399,3.502,3.295,4.096c0.189,0.062,0.987,0.242,0.26,0.242h-7.551
			c-0.728,0,0.069-0.18,0.257-0.242c1.896-0.594,2.914-1.861,3.295-4.096c0.082-0.484-0.064-0.959-0.664-0.221
			c-0.635,0.783-1.414,1.434-2.476,1.594c-2.053,0.303-4.159-1.006-4.159-3.35V77.34c0-1.682,1.357-3.551,3.127-3.422
			c0.122,0.01,0.96,0.189,1.22-0.064c0.378-0.369-0.149-0.641-0.188-1.477v-0.002c-0.058-1.994,1.312-3.059,2.841-3.252v0.002
			c0-0.002,0.332-0.043,0.481-0.043c0.272-0.002,0.488,0.039,0.562,0.043v-0.002c1.528,0.193,2.898,1.26,2.84,3.252v0.002
			c-0.039,0.836-0.563,1.107-0.188,1.477c0.259,0.254,1.1,0.072,1.219,0.064c1.77-0.129,3.127,1.74,3.127,3.422V77.342z"/>
		<path fill="#4D4D4D" d="M18.784,69.082c-0.008,0-0.017,0-0.023,0c-0.149,0-0.481,0.041-0.481,0.043v-0.002
			c-1.529,0.193-2.898,1.258-2.841,3.252v0.002c0.038,0.836,0.565,1.107,0.188,1.477c-0.26,0.254-1.098,0.074-1.22,0.064
			c-1.77-0.129-3.127,1.74-3.127,3.422v0.002c0,2.344,2.106,3.652,4.159,3.35c1.062-0.16,1.841-0.811,2.476-1.594
			c0.6-0.738,0.746-0.264,0.664,0.221c-0.381,2.234-1.399,3.502-3.295,4.096c-0.188,0.062-0.984,0.242-0.257,0.242h3.758V69.082z"/>
	</g>
	<g>
		<path fill="#333333" d="M57.778,77.342c0,2.344-2.104,3.656-4.159,3.35c-1.06-0.16-1.842-0.811-2.474-1.594
			c-0.6-0.738-0.749-0.264-0.666,0.221c0.38,2.234,1.398,3.502,3.294,4.096c0.19,0.062,0.987,0.242,0.26,0.242h-7.55
			c-0.729,0,0.069-0.18,0.257-0.242c1.896-0.594,2.913-1.861,3.295-4.096c0.081-0.484-0.065-0.959-0.664-0.221
			c-0.636,0.783-1.414,1.434-2.477,1.594c-2.053,0.303-4.158-1.006-4.158-3.35V77.34c0-1.682,1.357-3.551,3.127-3.422
			c0.121,0.01,0.959,0.189,1.22-0.064c0.377-0.369-0.15-0.641-0.188-1.477v-0.002c-0.057-1.994,1.312-3.059,2.842-3.252v0.002
			c0-0.002,0.332-0.043,0.48-0.043c0.272-0.002,0.489,0.039,0.563,0.043v-0.002c1.527,0.193,2.898,1.26,2.839,3.252v0.002
			c-0.038,0.836-0.563,1.107-0.188,1.477c0.26,0.254,1.101,0.072,1.219,0.064c1.77-0.129,3.128,1.74,3.128,3.422V77.342z"/>
		<path fill="#4D4D4D" d="M50.24,69.082c-0.008,0-0.016,0-0.023,0c-0.148,0-0.48,0.041-0.48,0.043v-0.002
			c-1.53,0.193-2.898,1.258-2.842,3.252v0.002c0.038,0.836,0.565,1.107,0.188,1.477c-0.261,0.254-1.099,0.074-1.22,0.064
			c-1.77-0.129-3.127,1.74-3.127,3.422v0.002c0,2.344,2.105,3.652,4.158,3.35c1.062-0.16,1.841-0.811,2.477-1.594
			c0.599-0.738,0.745-0.264,0.664,0.221c-0.382,2.234-1.399,3.502-3.295,4.096c-0.188,0.062-0.985,0.242-0.257,0.242h3.757V69.082z"
			/>
	</g>
	<g>
		<path fill="#333333" d="M57.827,86.926c0-1.213,1.09-1.893,2.154-1.734c0.549,0.084,0.954,0.42,1.281,0.826
			c0.311,0.383,0.388,0.137,0.346-0.113c-0.197-1.158-0.726-1.814-1.707-2.123c-0.099-0.031-0.511-0.125-0.135-0.125h3.911
			c0.377,0-0.036,0.094-0.133,0.125c-0.982,0.309-1.51,0.965-1.707,2.123c-0.042,0.25,0.034,0.496,0.345,0.113
			c0.329-0.406,0.731-0.742,1.282-0.826c1.063-0.156,2.154,0.521,2.154,1.734v0.002c0,0.871-0.704,1.84-1.62,1.773
			c-0.062-0.006-0.497-0.1-0.632,0.033c-0.195,0.189,0.077,0.332,0.098,0.764V89.5c0.029,1.033-0.68,1.584-1.472,1.684v-0.002
			c0,0.002-0.172,0.023-0.249,0.023c-0.142,0.002-0.253-0.02-0.292-0.023v0.002c-0.791-0.1-1.501-0.652-1.471-1.684v-0.002
			c0.02-0.432,0.292-0.574,0.097-0.764c-0.134-0.133-0.569-0.037-0.631-0.033c-0.917,0.066-1.62-0.902-1.62-1.773V86.926z"/>
		<path fill="#4D4D4D" d="M61.731,91.205c0.004,0,0.008,0,0.013,0c0.077,0,0.249-0.021,0.249-0.023v0.002
			c0.792-0.1,1.501-0.65,1.472-1.684v-0.002c-0.021-0.432-0.293-0.574-0.098-0.764c0.135-0.133,0.569-0.039,0.632-0.033
			c0.916,0.066,1.62-0.902,1.62-1.773v-0.002c0-1.213-1.091-1.891-2.154-1.734c-0.551,0.084-0.953,0.42-1.282,0.826
			c-0.311,0.383-0.387,0.137-0.345-0.113c0.197-1.158,0.725-1.814,1.707-2.123c0.097-0.031,0.51-0.125,0.133-0.125h-1.946V91.205z"
			/>
	</g>
	<g>
		<path fill="#333333" d="M11.294,16.764c0,1.214-1.089,1.894-2.153,1.734c-0.549-0.082-0.953-0.419-1.281-0.825
			c-0.311-0.383-0.388-0.137-0.346,0.114c0.197,1.157,0.725,1.814,1.707,2.122c0.099,0.031,0.512,0.125,0.135,0.125H5.444
			c-0.377,0,0.036-0.094,0.133-0.125c0.981-0.308,1.51-0.965,1.707-2.122c0.042-0.251-0.033-0.497-0.344-0.114
			c-0.329,0.406-0.732,0.743-1.283,0.825c-1.062,0.157-2.154-0.521-2.154-1.734v-0.001c0-0.871,0.703-1.84,1.62-1.772
			c0.063,0.005,0.497,0.098,0.632-0.034c0.195-0.19-0.078-0.331-0.098-0.765v-0.001c-0.029-1.032,0.68-1.584,1.472-1.684v0.001
			c0-0.001,0.173-0.022,0.249-0.022c0.142-0.001,0.254,0.021,0.292,0.022v-0.001c0.791,0.1,1.502,0.652,1.471,1.684v0.001
			c-0.021,0.434-0.292,0.574-0.098,0.765c0.135,0.132,0.57,0.038,0.632,0.034C10.591,14.923,11.294,15.892,11.294,16.764
			L11.294,16.764z"/>
		<path fill="#4D4D4D" d="M7.391,12.486c-0.004,0-0.009,0-0.013,0c-0.076,0-0.249,0.021-0.249,0.022v-0.001
			c-0.792,0.1-1.501,0.651-1.472,1.684v0.001c0.02,0.434,0.293,0.574,0.098,0.765c-0.135,0.132-0.568,0.039-0.632,0.034
			c-0.917-0.067-1.62,0.901-1.62,1.772v0.001c0,1.214,1.092,1.892,2.154,1.734c0.551-0.082,0.954-0.419,1.283-0.825
			c0.311-0.383,0.386-0.137,0.344,0.114c-0.197,1.157-0.726,1.814-1.707,2.122c-0.097,0.031-0.51,0.125-0.133,0.125h1.946V12.486z"
			/>
	</g>
	<rect x="2.721" y="2.724" fill="none" width="9.374" height="9.762"/>
	<text transform="matrix(1 0 0 1 4.6157 10.4531)" fill="#333333" font-family="'ChunkFive'" font-size="10.8856">4</text>
	<rect x="57.026" y="91.205" fill="none" width="9.374" height="9.762"/>
	<text transform="matrix(-1 0 0 -1 64.5059 93.2363)" fill="#333333" font-family="'ChunkFive'" font-size="10.8856">4</text>
</g>
</svg>
