<?xml version="1.0" encoding="utf-8"?>
<!-- Generator: Adobe Illustrator 16.0.0, SVG Export Plug-In . SVG Version: 6.00 Build 0)  -->
<!DOCTYPE svg PUBLIC "-//W3C//DTD SVG 1.1//EN" "http://www.w3.org/Graphics/SVG/1.1/DTD/svg11.dtd">
<svg version="1.1" id="Layer_1" xmlns="http://www.w3.org/2000/svg" xmlns:xlink="http://www.w3.org/1999/xlink" x="0px" y="0px"
	 width="69.12px" height="103.69px" viewBox="0 0 69.12 103.69" enable-background="new 0 0 69.12 103.69" xml:space="preserve">
<g>
	<path fill="#F2F2F2" d="M69.121,100.967c0,1.502-1.219,2.721-2.721,2.721H2.72c-1.503,0-2.722-1.219-2.722-2.721V2.724
		c0-1.502,1.219-2.721,2.722-2.721H66.4c1.502,0,2.721,1.219,2.721,2.721V100.967z"/>
	<g>
		<polygon fill="#7A2B2B" points="18.816,34.489 13.545,27.321 18.816,20.153 24.085,27.321 		"/>
		<polygon fill="#943434" points="18.799,20.176 13.545,27.321 18.799,34.467 		"/>
	</g>
	<g>
		<polygon fill="#7A2B2B" points="50.271,34.489 45.002,27.321 50.271,20.153 55.543,27.321 		"/>
		<polygon fill="#943434" points="50.256,20.176 45.002,27.321 50.256,34.467 		"/>
	</g>
	<g>
		<polygon fill="#7A2B2B" points="18.816,83.537 13.545,76.369 18.816,69.201 24.085,76.369 		"/>
		<polygon fill="#943434" points="18.799,69.225 13.545,76.369 18.799,83.516 		"/>
	</g>
	<g>
		<polygon fill="#7A2B2B" points="50.271,83.537 45.002,76.369 50.271,69.201 55.543,76.369 		"/>
		<polygon fill="#943434" points="50.256,69.225 45.002,76.369 50.256,83.516 		"/>
	</g>
	<rect x="2.72" y="2.724" fill="none" width="9.374" height="9.762"/>
	<text transform="matrix(1 0 0 1 4.6147 10.4526)" fill="#7A2B2B" font-family="'ChunkFive'" font-size="10.8856">4</text>
	<rect x="57.025" y="91.205" fill="none" width="9.375" height="9.762"/>
	<text transform="matrix(-1 0 0 -1 64.5039 93.2363)" fill="#7A2B2B" font-family="'ChunkFive'" font-size="10.8856">4</text>
	<g>
		<polygon fill="#7A2B2B" points="61.713,83.537 64.502,87.33 61.713,91.125 58.924,87.33 		"/>
		<polygon fill="#943434" points="61.721,91.113 64.502,87.33 61.721,83.549 		"/>
	</g>
	<g>
		<polygon fill="#7A2B2B" points="7.406,19.974 4.617,16.18 7.406,12.385 10.196,16.18 		"/>
		<polygon fill="#943434" points="7.397,12.397 4.617,16.18 7.397,19.962 		"/>
	</g>
</g>
</svg>
