<?xml version="1.0" encoding="utf-8"?>
<!-- Generator: Adobe Illustrator 16.0.0, SVG Export Plug-In . SVG Version: 6.00 Build 0)  -->
<!DOCTYPE svg PUBLIC "-//W3C//DTD SVG 1.1//EN" "http://www.w3.org/Graphics/SVG/1.1/DTD/svg11.dtd">
<svg version="1.1" id="Layer_1" xmlns="http://www.w3.org/2000/svg" xmlns:xlink="http://www.w3.org/1999/xlink" x="0px" y="0px"
	 width="69.12px" height="103.69px" viewBox="0 0 69.12 103.69" enable-background="new 0 0 69.12 103.69" xml:space="preserve">
<g>
	<path fill="#F2F2F2" d="M69.121,100.967c0,1.502-1.219,2.721-2.721,2.721H2.719c-1.502,0-2.721-1.219-2.721-2.721V2.724
		c0-1.502,1.219-2.721,2.721-2.721H66.4c1.502,0,2.721,1.219,2.721,2.721V100.967z"/>
	<g>
		<g>
			<path fill="#7A2B2B" d="M50.271,34.409l-1.08-1.076c-4.006-3.543-6.625-5.932-6.625-8.862c0-2.385,1.852-4.235,4.236-4.235
				c1.314,0,2.623,1.4,3.469,2.401c0.848-1.001,2.156-2.401,3.469-2.401c2.385,0,4.236,1.851,4.236,4.235
				c0,2.931-2.619,5.319-6.625,8.862L50.271,34.409z M50.271,34.409"/>
			<path fill="#943434" d="M50.256,22.625c-0.848-0.998-2.146-2.382-3.453-2.382c-2.385,0-4.236,1.852-4.236,4.235
				c0,2.931,2.619,5.319,6.625,8.863l1.064,1.06V22.625z"/>
		</g>
	</g>
	<g>
		<g>
			<path fill="#7A2B2B" d="M18.815,83.457l-1.079-1.076c-4.007-3.543-6.625-5.932-6.625-8.863c0-2.385,1.851-4.236,4.235-4.236
				c1.314,0,2.622,1.402,3.469,2.402c0.847-1,2.155-2.402,3.469-2.402c2.385,0,4.236,1.852,4.236,4.236
				c0,2.932-2.618,5.32-6.625,8.863L18.815,83.457z M18.815,83.457"/>
			<path fill="#943434" d="M18.798,71.672c-0.847-0.998-2.146-2.381-3.452-2.381c-2.385,0-4.235,1.85-4.235,4.234
				c0,2.932,2.618,5.318,6.625,8.863l1.062,1.059V71.672z"/>
		</g>
	</g>
	<g>
		<g>
			<path fill="#7A2B2B" d="M18.815,34.409l-1.079-1.076c-4.007-3.543-6.625-5.932-6.625-8.862c0-2.385,1.851-4.235,4.235-4.235
				c1.314,0,2.622,1.4,3.469,2.401c0.847-1.001,2.155-2.401,3.469-2.401c2.385,0,4.236,1.851,4.236,4.235
				c0,2.931-2.618,5.319-6.625,8.862L18.815,34.409z M18.815,34.409"/>
			<path fill="#943434" d="M18.798,22.625c-0.847-0.998-2.146-2.382-3.452-2.382c-2.385,0-4.235,1.852-4.235,4.235
				c0,2.931,2.618,5.319,6.625,8.863l1.062,1.06V22.625z"/>
		</g>
	</g>
	<g>
		<g>
			<path fill="#7A2B2B" d="M50.271,83.457l-1.08-1.076c-4.006-3.543-6.625-5.932-6.625-8.863c0-2.385,1.852-4.236,4.236-4.236
				c1.314,0,2.623,1.402,3.469,2.402c0.848-1,2.156-2.402,3.469-2.402c2.385,0,4.236,1.852,4.236,4.236
				c0,2.932-2.619,5.32-6.625,8.863L50.271,83.457z M50.271,83.457"/>
			<path fill="#943434" d="M50.256,71.672c-0.848-0.998-2.146-2.381-3.453-2.381c-2.385,0-4.236,1.85-4.236,4.234
				c0,2.932,2.619,5.318,6.625,8.863l1.064,1.059V71.672z"/>
		</g>
	</g>
	<rect x="2.719" y="2.724" fill="none" width="9.374" height="9.762"/>
	<text transform="matrix(1 0 0 1 4.6143 10.4531)" fill="#7A2B2B" font-family="'ChunkFive'" font-size="10.8856">4</text>
	<rect x="57.025" y="91.205" fill="none" width="9.373" height="9.762"/>
	<text transform="matrix(-1 0 0 -1 64.5039 93.2363)" fill="#7A2B2B" font-family="'ChunkFive'" font-size="10.8856">4</text>
	<g>
		<path fill="#7A2B2B" d="M7.416,19.965l-0.578-0.576c-2.144-1.896-3.545-3.174-3.545-4.742c0-1.275,0.99-2.266,2.267-2.266
			c0.703,0,1.403,0.749,1.856,1.284c0.453-0.535,1.153-1.284,1.856-1.284c1.275,0,2.266,0.99,2.266,2.266
			c0,1.568-1.4,2.847-3.545,4.742L7.416,19.965z M7.416,19.965"/>
		<path fill="#943434" d="M7.407,13.66c-0.454-0.534-1.148-1.274-1.848-1.274c-1.276,0-2.267,0.99-2.267,2.267
			c0,1.568,1.401,2.846,3.545,4.742l0.569,0.566V13.66z"/>
	</g>
	<g>
		<path fill="#7A2B2B" d="M61.705,83.727l0.576,0.574c2.145,1.896,3.545,3.174,3.545,4.742c0,1.277-0.99,2.268-2.266,2.268
			c-0.703,0-1.404-0.75-1.855-1.285c-0.453,0.535-1.154,1.285-1.857,1.285c-1.275,0-2.266-0.99-2.266-2.268
			c0-1.568,1.4-2.846,3.545-4.742L61.705,83.727z M61.705,83.727"/>
		<path fill="#943434" d="M61.713,90.031c0.453,0.535,1.148,1.273,1.848,1.273c1.275,0,2.266-0.99,2.266-2.266
			c0-1.568-1.4-2.846-3.545-4.742l-0.568-0.566V90.031z"/>
	</g>
</g>
</svg>
