<?xml version="1.0" encoding="utf-8"?>
<!-- Generator: Adobe Illustrator 16.0.0, SVG Export Plug-In . SVG Version: 6.00 Build 0)  -->
<!DOCTYPE svg PUBLIC "-//W3C//DTD SVG 1.1//EN" "http://www.w3.org/Graphics/SVG/1.1/DTD/svg11.dtd">
<svg version="1.1" id="Layer_1" xmlns="http://www.w3.org/2000/svg" xmlns:xlink="http://www.w3.org/1999/xlink" x="0px" y="0px"
	 width="69.12px" height="103.69px" viewBox="0 0 69.12 103.69" enable-background="new 0 0 69.12 103.69" xml:space="preserve">
<g>
	<path fill="#F2F2F2" d="M69.121,100.965c0,1.504-1.218,2.723-2.721,2.723H2.721c-1.503,0-2.722-1.219-2.722-2.723V2.724
		c0-1.503,1.219-2.722,2.722-2.722H66.4c1.503,0,2.721,1.219,2.721,2.722V100.965z"/>
	<g>
		<path fill="#333333" d="M21.758,22.529c-0.873-0.717-1.779-1.457-2.472-2.279c-0.117-0.139-0.29-0.216-0.467-0.216h-0.036
			c-0.181,0-0.353,0.077-0.47,0.216c-0.692,0.822-1.6,1.562-2.473,2.279c-1.852,1.515-3.763,3.083-3.763,5.51
			c0,2.201,1.538,3.739,3.745,3.739c1.065,0,1.994-0.628,2.625-1.201c-0.303,1.296-0.869,2.829-1.938,4.031h4.576
			c-1.069-1.204-1.636-2.74-1.939-4.037c0.631,0.575,1.562,1.207,2.63,1.207c2.203,0,3.744-1.538,3.744-3.739
			C25.521,25.615,23.606,24.046,21.758,22.529z"/>
		<path fill="#4D4D4D" d="M18.783,34.608V20.034l0,0c-0.181,0-0.353,0.077-0.47,0.216c-0.692,0.822-1.6,1.562-2.473,2.279
			c-1.852,1.515-3.763,3.083-3.763,5.51c0,2.201,1.538,3.739,3.745,3.739c1.065,0,1.994-0.628,2.625-1.201
			c-0.303,1.296-0.869,2.829-1.938,4.031H18.783z"/>
	</g>
	<g>
		<path fill="#333333" d="M8.939,13.777c-0.452-0.371-0.922-0.754-1.28-1.18c-0.061-0.072-0.15-0.112-0.242-0.112H7.398
			c-0.093,0-0.182,0.04-0.242,0.112c-0.359,0.426-0.829,0.809-1.281,1.18c-0.959,0.784-1.949,1.598-1.949,2.854
			c0,1.14,0.797,1.937,1.94,1.937c0.552,0,1.032-0.325,1.359-0.622c-0.157,0.671-0.45,1.465-1.004,2.088h2.37
			c-0.555-0.624-0.848-1.419-1.005-2.091c0.327,0.298,0.809,0.625,1.362,0.625c1.141,0,1.939-0.797,1.939-1.937
			C10.889,15.375,9.896,14.563,8.939,13.777z"/>
		<path fill="#4D4D4D" d="M7.399,20.034v-7.549H7.398c-0.093,0-0.182,0.04-0.242,0.112c-0.359,0.426-0.829,0.809-1.281,1.18
			c-0.959,0.784-1.949,1.598-1.949,2.854c0,1.14,0.797,1.937,1.94,1.937c0.552,0,1.032-0.325,1.359-0.622
			c-0.157,0.671-0.45,1.465-1.004,2.088H7.399z"/>
	</g>
	<g>
		<path fill="#333333" d="M60.182,89.912c0.452,0.371,0.921,0.754,1.28,1.18c0.061,0.072,0.149,0.113,0.241,0.113h0.019
			c0.094,0,0.183-0.041,0.243-0.113c0.359-0.426,0.828-0.809,1.281-1.18c0.958-0.785,1.948-1.598,1.948-2.854
			c0-1.141-0.797-1.938-1.939-1.938c-0.552,0-1.033,0.326-1.359,0.623c0.156-0.672,0.45-1.467,1.004-2.088h-2.37
			c0.554,0.623,0.847,1.418,1.004,2.09c-0.326-0.297-0.808-0.625-1.361-0.625c-1.142,0-1.94,0.797-1.94,1.938
			C58.231,88.312,59.224,89.125,60.182,89.912z"/>
		<path fill="#4D4D4D" d="M61.722,83.656v7.549l0,0c0.094,0,0.183-0.041,0.243-0.113c0.359-0.426,0.828-0.809,1.281-1.18
			c0.958-0.785,1.948-1.598,1.948-2.854c0-1.141-0.797-1.938-1.939-1.938c-0.552,0-1.033,0.326-1.359,0.623
			c0.156-0.672,0.45-1.467,1.004-2.088H61.722z"/>
	</g>
	<g>
		<path fill="#333333" d="M53.214,22.529c-0.873-0.717-1.779-1.457-2.472-2.279c-0.116-0.139-0.289-0.216-0.467-0.216h-0.036
			c-0.18,0-0.352,0.077-0.469,0.216c-0.693,0.822-1.6,1.562-2.473,2.279c-1.852,1.515-3.763,3.083-3.763,5.51
			c0,2.201,1.538,3.739,3.744,3.739c1.065,0,1.994-0.628,2.626-1.201c-0.303,1.296-0.869,2.829-1.938,4.031h4.575
			c-1.069-1.204-1.636-2.74-1.938-4.037c0.63,0.575,1.561,1.207,2.629,1.207c2.203,0,3.745-1.538,3.745-3.739
			C56.978,25.615,55.062,24.046,53.214,22.529z"/>
		<path fill="#4D4D4D" d="M50.24,34.608V20.034h-0.001c-0.18,0-0.352,0.077-0.469,0.216c-0.693,0.822-1.6,1.562-2.473,2.279
			c-1.852,1.515-3.763,3.083-3.763,5.51c0,2.201,1.538,3.739,3.744,3.739c1.065,0,1.994-0.628,2.626-1.201
			c-0.303,1.296-0.869,2.829-1.938,4.031H50.24z"/>
	</g>
	<g>
		<path fill="#333333" d="M21.758,71.576c-0.873-0.717-1.779-1.457-2.472-2.279c-0.117-0.139-0.29-0.215-0.467-0.215h-0.036
			c-0.181,0-0.353,0.076-0.47,0.215c-0.692,0.822-1.6,1.562-2.473,2.279c-1.852,1.514-3.763,3.084-3.763,5.51
			c0,2.201,1.538,3.738,3.745,3.738c1.065,0,1.994-0.627,2.625-1.201c-0.303,1.297-0.869,2.83-1.938,4.033h4.576
			c-1.069-1.205-1.636-2.74-1.939-4.037c0.631,0.574,1.562,1.205,2.63,1.205c2.203,0,3.744-1.537,3.744-3.738
			C25.521,74.662,23.606,73.094,21.758,71.576z"/>
		<path fill="#4D4D4D" d="M18.783,83.656V69.082l0,0c-0.181,0-0.353,0.076-0.47,0.215c-0.692,0.822-1.6,1.562-2.473,2.279
			c-1.852,1.514-3.763,3.084-3.763,5.51c0,2.201,1.538,3.738,3.745,3.738c1.065,0,1.994-0.627,2.625-1.201
			c-0.303,1.297-0.869,2.83-1.938,4.033H18.783z"/>
	</g>
	<g>
		<path fill="#333333" d="M53.214,71.576c-0.873-0.717-1.779-1.457-2.472-2.279c-0.116-0.139-0.289-0.215-0.467-0.215h-0.036
			c-0.18,0-0.352,0.076-0.469,0.215c-0.693,0.822-1.6,1.562-2.473,2.279c-1.852,1.514-3.763,3.084-3.763,5.51
			c0,2.201,1.538,3.738,3.744,3.738c1.065,0,1.994-0.627,2.626-1.201c-0.303,1.297-0.869,2.83-1.938,4.033h4.575
			c-1.069-1.205-1.636-2.74-1.938-4.037c0.63,0.574,1.561,1.205,2.629,1.205c2.203,0,3.745-1.537,3.745-3.738
			C56.978,74.662,55.062,73.094,53.214,71.576z"/>
		<path fill="#4D4D4D" d="M50.24,83.656V69.082h-0.001c-0.18,0-0.352,0.076-0.469,0.215c-0.693,0.822-1.6,1.562-2.473,2.279
			c-1.852,1.514-3.763,3.084-3.763,5.51c0,2.201,1.538,3.738,3.744,3.738c1.065,0,1.994-0.627,2.626-1.201
			c-0.303,1.297-0.869,2.83-1.938,4.033H50.24z"/>
	</g>
	<rect x="2.72" y="2.724" fill="none" width="9.375" height="9.761"/>
	<text transform="matrix(1 0 0 1 4.6147 10.4531)" fill="#333333" font-family="'ChunkFive'" font-size="10.8856">4</text>
	<rect x="57.026" y="91.203" fill="none" width="9.374" height="9.762"/>
	<text transform="matrix(-1 0 0 -1 64.5049 93.2373)" fill="#333333" font-family="'ChunkFive'" font-size="10.8856">4</text>
</g>
</svg>
