<?xml version="1.0" encoding="utf-8"?>
<!-- Generator: Adobe Illustrator 16.0.0, SVG Export Plug-In . SVG Version: 6.00 Build 0)  -->
<!DOCTYPE svg PUBLIC "-//W3C//DTD SVG 1.1//EN" "http://www.w3.org/Graphics/SVG/1.1/DTD/svg11.dtd">
<svg version="1.1" id="Layer_1" xmlns="http://www.w3.org/2000/svg" xmlns:xlink="http://www.w3.org/1999/xlink" x="0px" y="0px"
	 width="69.12px" height="103.69px" viewBox="0 0 69.12 103.69" enable-background="new 0 0 69.12 103.69" xml:space="preserve">
<g>
	<g>
		<path fill="#F2F2F2" d="M69.122,100.967c0,1.502-1.219,2.721-2.722,2.721H2.721c-1.503,0-2.722-1.219-2.722-2.721V2.725
			c0-1.503,1.219-2.722,2.722-2.722H66.4c1.503,0,2.722,1.219,2.722,2.722V100.967z"/>
		<g>
			<path fill="#333333" d="M26.321,28.295c0,2.343-2.104,3.654-4.159,3.349c-1.06-0.159-1.842-0.811-2.474-1.595
				c-0.6-0.738-0.749-0.263-0.666,0.222c0.38,2.234,1.398,3.502,3.294,4.096c0.19,0.062,0.987,0.242,0.26,0.242h-7.55
				c-0.729,0,0.068-0.18,0.257-0.242c1.896-0.594,2.913-1.861,3.295-4.096c0.081-0.484-0.065-0.96-0.664-0.222
				c-0.636,0.784-1.415,1.436-2.477,1.595c-2.053,0.303-4.158-1.006-4.158-3.349v-0.003c0-1.682,1.357-3.551,3.127-3.423
				c0.121,0.011,0.959,0.19,1.22-0.064c0.377-0.367-0.15-0.64-0.188-1.476v-0.003c-0.057-1.993,1.312-3.058,2.842-3.25v0.002
				c0-0.002,0.332-0.044,0.48-0.044c0.272-0.002,0.489,0.039,0.563,0.044v-0.002c1.527,0.192,2.898,1.26,2.839,3.25v0.003
				c-0.038,0.836-0.563,1.108-0.188,1.476c0.26,0.255,1.101,0.072,1.219,0.064c1.77-0.128,3.128,1.741,3.128,3.423V28.295z"/>
			<path fill="#4D4D4D" d="M18.783,20.035c-0.008,0-0.016,0-0.023,0c-0.148,0-0.48,0.042-0.48,0.044v-0.002
				c-1.53,0.192-2.898,1.257-2.842,3.25v0.003c0.038,0.836,0.565,1.108,0.188,1.476c-0.261,0.255-1.099,0.074-1.22,0.064
				c-1.77-0.129-3.127,1.741-3.127,3.423v0.003c0,2.343,2.105,3.651,4.158,3.349c1.062-0.16,1.841-0.811,2.477-1.595
				c0.599-0.738,0.745-0.263,0.664,0.222c-0.382,2.234-1.399,3.502-3.295,4.096c-0.188,0.062-0.985,0.242-0.257,0.242h3.757V20.035z
				"/>
		</g>
		<g>
			<path fill="#333333" d="M57.777,28.295c0,2.343-2.104,3.654-4.158,3.349c-1.061-0.159-1.842-0.811-2.475-1.595
				c-0.599-0.738-0.748-0.263-0.666,0.222c0.381,2.234,1.399,3.502,3.295,4.096c0.189,0.062,0.987,0.242,0.26,0.242h-7.551
				c-0.728,0,0.069-0.18,0.257-0.242c1.896-0.594,2.914-1.861,3.295-4.096c0.082-0.484-0.064-0.96-0.664-0.222
				c-0.635,0.784-1.414,1.436-2.477,1.595c-2.053,0.303-4.158-1.006-4.158-3.349v-0.003c0-1.682,1.357-3.551,3.127-3.423
				c0.122,0.011,0.959,0.19,1.22-0.064c0.378-0.367-0.149-0.64-0.188-1.476v-0.003c-0.057-1.993,1.312-3.058,2.842-3.25v0.002
				c0-0.002,0.332-0.044,0.481-0.044c0.271-0.002,0.488,0.039,0.562,0.044v-0.002c1.527,0.192,2.898,1.26,2.84,3.25v0.003
				c-0.039,0.836-0.563,1.108-0.188,1.476c0.259,0.255,1.1,0.072,1.219,0.064c1.769-0.128,3.127,1.741,3.127,3.423V28.295z"/>
			<path fill="#4D4D4D" d="M50.24,20.035c-0.008,0-0.017,0-0.023,0c-0.149,0-0.481,0.042-0.481,0.044v-0.002
				c-1.529,0.192-2.898,1.257-2.842,3.25v0.003c0.039,0.836,0.566,1.108,0.188,1.476c-0.261,0.255-1.098,0.074-1.22,0.064
				c-1.77-0.129-3.127,1.741-3.127,3.423v0.003c0,2.343,2.105,3.651,4.158,3.349c1.062-0.16,1.842-0.811,2.477-1.595
				c0.6-0.738,0.746-0.263,0.664,0.222c-0.381,2.234-1.399,3.502-3.295,4.096c-0.188,0.062-0.984,0.242-0.257,0.242h3.758V20.035z"
				/>
		</g>
		<g>
			<path fill="#333333" d="M26.321,77.344c0,2.342-2.104,3.654-4.159,3.348c-1.06-0.16-1.842-0.811-2.474-1.594
				c-0.6-0.738-0.749-0.264-0.666,0.221c0.38,2.234,1.398,3.502,3.294,4.096c0.19,0.062,0.987,0.242,0.26,0.242h-7.55
				c-0.729,0,0.068-0.18,0.257-0.242c1.896-0.594,2.913-1.861,3.295-4.096c0.081-0.484-0.065-0.959-0.664-0.221
				c-0.636,0.783-1.415,1.434-2.477,1.594c-2.053,0.305-4.158-1.006-4.158-3.348V77.34c0-1.682,1.357-3.551,3.127-3.422
				c0.121,0.01,0.959,0.189,1.22-0.064c0.377-0.369-0.15-0.641-0.188-1.477v-0.002c-0.057-1.994,1.312-3.059,2.842-3.25v0.002
				c0-0.002,0.332-0.045,0.48-0.045c0.272-0.002,0.489,0.039,0.563,0.045v-0.002c1.527,0.191,2.898,1.26,2.839,3.25v0.002
				c-0.038,0.836-0.563,1.107-0.188,1.477c0.26,0.254,1.101,0.072,1.219,0.064c1.77-0.129,3.128,1.74,3.128,3.422V77.344z"/>
			<path fill="#4D4D4D" d="M18.783,69.082c-0.008,0-0.016,0-0.023,0c-0.148,0-0.48,0.043-0.48,0.045v-0.002
				c-1.53,0.191-2.898,1.256-2.842,3.25v0.002c0.038,0.836,0.565,1.107,0.188,1.477c-0.261,0.254-1.099,0.074-1.22,0.064
				c-1.77-0.129-3.127,1.74-3.127,3.422v0.004c0,2.342,2.105,3.652,4.158,3.348c1.062-0.16,1.841-0.811,2.477-1.594
				c0.599-0.738,0.745-0.264,0.664,0.221c-0.382,2.234-1.399,3.502-3.295,4.096c-0.188,0.062-0.985,0.242-0.257,0.242h3.757V69.082z
				"/>
		</g>
		<g>
			<path fill="#333333" d="M57.777,77.344c0,2.342-2.104,3.654-4.158,3.348c-1.061-0.16-1.842-0.811-2.475-1.594
				c-0.599-0.738-0.748-0.264-0.666,0.221c0.381,2.234,1.399,3.502,3.295,4.096c0.189,0.062,0.987,0.242,0.26,0.242h-7.551
				c-0.728,0,0.069-0.18,0.257-0.242c1.896-0.594,2.914-1.861,3.295-4.096c0.082-0.484-0.064-0.959-0.664-0.221
				c-0.635,0.783-1.414,1.434-2.477,1.594c-2.053,0.305-4.158-1.006-4.158-3.348V77.34c0-1.682,1.357-3.551,3.127-3.422
				c0.122,0.01,0.959,0.189,1.22-0.064c0.378-0.369-0.149-0.641-0.188-1.477v-0.002c-0.057-1.994,1.312-3.059,2.842-3.25v0.002
				c0-0.002,0.332-0.045,0.481-0.045c0.271-0.002,0.488,0.039,0.562,0.045v-0.002c1.527,0.191,2.898,1.26,2.84,3.25v0.002
				c-0.039,0.836-0.563,1.107-0.188,1.477c0.259,0.254,1.1,0.072,1.219,0.064c1.769-0.129,3.127,1.74,3.127,3.422V77.344z"/>
			<path fill="#4D4D4D" d="M50.24,69.082c-0.008,0-0.017,0-0.023,0c-0.149,0-0.481,0.043-0.481,0.045v-0.002
				c-1.529,0.191-2.898,1.256-2.842,3.25v0.002c0.039,0.836,0.566,1.107,0.188,1.477c-0.261,0.254-1.098,0.074-1.22,0.064
				c-1.77-0.129-3.127,1.74-3.127,3.422v0.004c0,2.342,2.105,3.652,4.158,3.348c1.062-0.16,1.842-0.811,2.477-1.594
				c0.6-0.738,0.746-0.264,0.664,0.221c-0.381,2.234-1.399,3.502-3.295,4.096c-0.188,0.062-0.984,0.242-0.257,0.242h3.758V69.082z"
				/>
		</g>
		<g>
			<path fill="#333333" d="M57.827,86.928c0-1.215,1.09-1.895,2.153-1.734c0.549,0.082,0.954,0.418,1.281,0.824
				c0.311,0.383,0.389,0.137,0.346-0.113c-0.197-1.158-0.725-1.814-1.706-2.123c-0.099-0.031-0.512-0.125-0.135-0.125h3.911
				c0.376,0-0.036,0.094-0.134,0.125c-0.981,0.309-1.509,0.965-1.706,2.123c-0.043,0.25,0.033,0.496,0.344,0.113
				c0.329-0.406,0.731-0.742,1.282-0.824c1.063-0.158,2.154,0.52,2.154,1.734l0,0c0,0.871-0.703,1.84-1.62,1.773
				c-0.062-0.006-0.497-0.098-0.632,0.033c-0.195,0.191,0.078,0.332,0.098,0.764V89.5c0.029,1.033-0.68,1.584-1.472,1.684l0,0
				c0,0-0.172,0.021-0.249,0.021c-0.142,0.002-0.253-0.02-0.292-0.021l0,0c-0.791-0.1-1.501-0.652-1.471-1.684v-0.002
				c0.021-0.432,0.292-0.572,0.098-0.764c-0.135-0.131-0.57-0.037-0.631-0.033C58.53,88.768,57.827,87.799,57.827,86.928
				L57.827,86.928z"/>
			<path fill="#4D4D4D" d="M61.731,91.205c0.004,0,0.008,0,0.012,0c0.077,0,0.249-0.021,0.249-0.021l0,0
				c0.792-0.1,1.501-0.65,1.472-1.684v-0.002c-0.02-0.432-0.293-0.572-0.098-0.764c0.135-0.131,0.569-0.039,0.632-0.033
				c0.917,0.066,1.62-0.902,1.62-1.773l0,0c0-1.215-1.091-1.893-2.154-1.734c-0.551,0.082-0.953,0.418-1.282,0.824
				c-0.311,0.383-0.387,0.137-0.344-0.113c0.197-1.158,0.725-1.814,1.706-2.123c0.098-0.031,0.51-0.125,0.134-0.125h-1.946V91.205z"
				/>
		</g>
		<g>
			<path fill="#333333" d="M11.294,16.765c0,1.213-1.09,1.893-2.154,1.734c-0.548-0.083-0.953-0.42-1.281-0.826
				c-0.311-0.382-0.388-0.136-0.345,0.114c0.197,1.158,0.725,1.814,1.706,2.122c0.099,0.032,0.512,0.125,0.135,0.125H5.443
				c-0.377,0,0.036-0.093,0.134-0.125c0.981-0.308,1.509-0.964,1.706-2.122c0.043-0.25-0.033-0.496-0.344-0.114
				C6.61,18.08,6.207,18.417,5.656,18.5c-1.062,0.157-2.153-0.521-2.153-1.734v-0.002c0-0.871,0.703-1.839,1.619-1.772
				c0.063,0.005,0.497,0.099,0.632-0.033c0.196-0.19-0.077-0.332-0.098-0.765v-0.002c-0.029-1.032,0.68-1.583,1.473-1.684v0.002
				c0-0.002,0.172-0.023,0.249-0.023c0.141-0.001,0.253,0.021,0.291,0.023v-0.002c0.792,0.101,1.502,0.653,1.471,1.684v0.002
				c-0.02,0.433-0.291,0.574-0.097,0.765c0.134,0.132,0.57,0.037,0.631,0.033c0.917-0.066,1.62,0.901,1.62,1.772V16.765z"/>
			<path fill="#4D4D4D" d="M7.39,12.486c-0.004,0-0.008,0-0.012,0c-0.077,0-0.249,0.021-0.249,0.023v-0.002
				c-0.793,0.1-1.502,0.651-1.473,1.684v0.002c0.021,0.433,0.294,0.574,0.098,0.765c-0.135,0.132-0.568,0.038-0.632,0.033
				c-0.916-0.066-1.619,0.901-1.619,1.772v0.002c0,1.213,1.091,1.892,2.153,1.734c0.551-0.083,0.954-0.42,1.283-0.826
				c0.311-0.382,0.387-0.136,0.344,0.114c-0.197,1.158-0.725,1.814-1.706,2.122c-0.098,0.032-0.511,0.125-0.134,0.125H7.39V12.486z"
				/>
		</g>
		<rect x="2.72" y="2.725" fill="none" width="9.375" height="9.761"/>
		<text transform="matrix(1 0 0 1 4.6157 10.4541)" fill="#333333" font-family="'ChunkFive'" font-size="10.8856">5</text>
		<rect x="57.026" y="91.205" fill="none" width="9.374" height="9.762"/>
		<text transform="matrix(-1 0 0 -1 64.5059 93.2383)" fill="#333333" font-family="'ChunkFive'" font-size="10.8856">5</text>
	</g>
	<g>
		<path fill="#333333" d="M42.099,52.29c0,2.343-2.104,3.654-4.159,3.349c-1.06-0.16-1.842-0.811-2.475-1.596
			c-0.599-0.738-0.748-0.262-0.666,0.221c0.381,2.236,1.399,3.504,3.295,4.098c0.19,0.062,0.987,0.242,0.26,0.242h-7.55
			c-0.729,0,0.068-0.18,0.256-0.242c1.896-0.594,2.914-1.861,3.295-4.098c0.082-0.482-0.064-0.959-0.663-0.221
			c-0.636,0.785-1.415,1.436-2.477,1.596c-2.053,0.303-4.159-1.006-4.159-3.349v-0.003c0-1.682,1.357-3.552,3.127-3.423
			c0.122,0.01,0.96,0.19,1.221-0.064c0.377-0.368-0.15-0.64-0.188-1.477v-0.002c-0.057-1.993,1.312-3.058,2.841-3.251v0.003
			c0-0.003,0.333-0.044,0.481-0.044c0.272-0.002,0.488,0.038,0.563,0.044V44.07c1.527,0.193,2.897,1.261,2.839,3.251v0.002
			c-0.039,0.837-0.563,1.108-0.188,1.477c0.259,0.255,1.101,0.072,1.219,0.064c1.77-0.129,3.128,1.741,3.128,3.423V52.29z"/>
		<path fill="#4D4D4D" d="M34.561,44.029c-0.008,0-0.016,0-0.023,0c-0.148,0-0.481,0.041-0.481,0.044V44.07
			c-1.529,0.193-2.897,1.258-2.841,3.251v0.002c0.038,0.837,0.565,1.108,0.188,1.477c-0.261,0.255-1.099,0.074-1.221,0.064
			c-1.77-0.129-3.127,1.741-3.127,3.423v0.003c0,2.343,2.106,3.652,4.159,3.349c1.062-0.16,1.841-0.811,2.477-1.596
			c0.599-0.738,0.745-0.262,0.663,0.221c-0.381,2.236-1.399,3.504-3.295,4.098c-0.188,0.062-0.984,0.242-0.256,0.242h3.757V44.029z"
			/>
	</g>
</g>
</svg>
