<?xml version="1.0" encoding="utf-8"?>
<!-- Generator: Adobe Illustrator 16.0.0, SVG Export Plug-In . SVG Version: 6.00 Build 0)  -->
<!DOCTYPE svg PUBLIC "-//W3C//DTD SVG 1.1//EN" "http://www.w3.org/Graphics/SVG/1.1/DTD/svg11.dtd">
<svg version="1.1" id="Layer_1" xmlns="http://www.w3.org/2000/svg" xmlns:xlink="http://www.w3.org/1999/xlink" x="0px" y="0px"
	 width="69.12px" height="103.69px" viewBox="0 0 69.12 103.69" enable-background="new 0 0 69.12 103.69" xml:space="preserve">
<g>
	<g>
		<path fill="#F2F2F2" d="M69.122,100.967c0,1.502-1.219,2.721-2.721,2.721H2.721c-1.503,0-2.722-1.219-2.722-2.721V2.725
			c0-1.503,1.219-2.722,2.722-2.722h63.681c1.502,0,2.721,1.219,2.721,2.722V100.967z"/>
		<g>
			<polygon fill="#7A2B2B" points="18.816,34.49 13.546,27.322 18.816,20.154 24.087,27.322 			"/>
			<polygon fill="#943434" points="18.8,20.176 13.546,27.322 18.8,34.467 			"/>
		</g>
		<g>
			<polygon fill="#7A2B2B" points="50.273,34.49 45.003,27.322 50.273,20.154 55.543,27.322 			"/>
			<polygon fill="#943434" points="50.257,20.176 45.003,27.322 50.257,34.467 			"/>
		</g>
		<g>
			<polygon fill="#7A2B2B" points="18.816,83.537 13.546,76.369 18.816,69.201 24.087,76.369 			"/>
			<polygon fill="#943434" points="18.8,69.225 13.546,76.369 18.8,83.516 			"/>
		</g>
		<g>
			<polygon fill="#7A2B2B" points="50.273,83.537 45.003,76.369 50.273,69.201 55.543,76.369 			"/>
			<polygon fill="#943434" points="50.257,69.225 45.003,76.369 50.257,83.516 			"/>
		</g>
		<rect x="2.721" y="2.725" fill="none" width="9.374" height="9.761"/>
		<text transform="matrix(1 0 0 1 4.6152 10.4541)" fill="#7A2B2B" font-family="'ChunkFive'" font-size="10.8856">5</text>
		<rect x="57.026" y="91.205" fill="none" width="9.375" height="9.762"/>
		<text transform="matrix(-1 0 0 -1 64.5049 93.2383)" fill="#7A2B2B" font-family="'ChunkFive'" font-size="10.8856">5</text>
		<g>
			<polygon fill="#7A2B2B" points="61.714,83.537 64.504,87.33 61.714,91.125 58.924,87.33 			"/>
			<polygon fill="#943434" points="61.723,91.113 64.504,87.33 61.723,83.549 			"/>
		</g>
		<g>
			<polygon fill="#7A2B2B" points="7.407,19.975 4.617,16.18 7.407,12.386 10.196,16.18 			"/>
			<polygon fill="#943434" points="7.398,12.398 4.617,16.18 7.398,19.963 			"/>
		</g>
	</g>
	<g>
		<polygon fill="#7A2B2B" points="34.561,59.014 29.291,51.846 34.561,44.678 39.831,51.846 		"/>
		<polygon fill="#943434" points="34.545,44.701 29.291,51.846 34.545,58.99 		"/>
	</g>
</g>
</svg>
