<?xml version="1.0" encoding="utf-8"?>
<!-- Generator: Adobe Illustrator 16.0.0, SVG Export Plug-In . SVG Version: 6.00 Build 0)  -->
<!DOCTYPE svg PUBLIC "-//W3C//DTD SVG 1.1//EN" "http://www.w3.org/Graphics/SVG/1.1/DTD/svg11.dtd">
<svg version="1.1" id="Layer_1" xmlns="http://www.w3.org/2000/svg" xmlns:xlink="http://www.w3.org/1999/xlink" x="0px" y="0px"
	 width="69.12px" height="103.69px" viewBox="0 0 69.12 103.69" enable-background="new 0 0 69.12 103.69" xml:space="preserve">
<g>
	<g>
		<path fill="#F2F2F2" d="M69.122,100.967c0,1.502-1.219,2.721-2.722,2.721H2.721c-1.503,0-2.722-1.219-2.722-2.721V2.725
			c0-1.503,1.219-2.722,2.722-2.722H66.4c1.503,0,2.722,1.219,2.722,2.722V100.967z"/>
		<g>
			<g>
				<path fill="#7A2B2B" d="M50.272,34.409l-1.079-1.075c-4.008-3.543-6.626-5.932-6.626-8.863c0-2.384,1.852-4.235,4.235-4.235
					c1.315,0,2.623,1.401,3.47,2.401c0.847-1,2.155-2.401,3.469-2.401c2.385,0,4.236,1.852,4.236,4.235
					c0,2.932-2.619,5.32-6.625,8.863L50.272,34.409z M50.272,34.409"/>
				<path fill="#943434" d="M50.256,22.625c-0.848-0.999-2.146-2.382-3.453-2.382c-2.384,0-4.235,1.851-4.235,4.235
					c0,2.931,2.618,5.318,6.626,8.862l1.062,1.06V22.625z"/>
			</g>
		</g>
		<g>
			<g>
				<path fill="#7A2B2B" d="M18.815,83.457l-1.079-1.076c-4.007-3.543-6.625-5.932-6.625-8.863c0-2.383,1.852-4.234,4.235-4.234
					c1.314,0,2.623,1.4,3.469,2.4c0.848-1,2.156-2.4,3.469-2.4c2.385,0,4.236,1.852,4.236,4.234c0,2.932-2.618,5.32-6.625,8.863
					L18.815,83.457z M18.815,83.457"/>
				<path fill="#943434" d="M18.8,71.672c-0.848-0.998-2.147-2.381-3.453-2.381c-2.384,0-4.235,1.852-4.235,4.234
					c0,2.932,2.618,5.32,6.625,8.863l1.063,1.061V71.672z"/>
			</g>
		</g>
		<g>
			<g>
				<path fill="#7A2B2B" d="M18.815,34.409l-1.079-1.075c-4.007-3.543-6.625-5.932-6.625-8.863c0-2.384,1.852-4.235,4.235-4.235
					c1.314,0,2.623,1.401,3.469,2.401c0.848-1,2.156-2.401,3.469-2.401c2.385,0,4.236,1.852,4.236,4.235
					c0,2.932-2.618,5.32-6.625,8.863L18.815,34.409z M18.815,34.409"/>
				<path fill="#943434" d="M18.8,22.625c-0.848-0.999-2.147-2.382-3.453-2.382c-2.384,0-4.235,1.851-4.235,4.235
					c0,2.931,2.618,5.318,6.625,8.862l1.063,1.06V22.625z"/>
			</g>
		</g>
		<g>
			<g>
				<path fill="#7A2B2B" d="M50.272,83.457l-1.079-1.076c-4.008-3.543-6.626-5.932-6.626-8.863c0-2.383,1.852-4.234,4.235-4.234
					c1.315,0,2.623,1.4,3.47,2.4c0.847-1,2.155-2.4,3.469-2.4c2.385,0,4.236,1.852,4.236,4.234c0,2.932-2.619,5.32-6.625,8.863
					L50.272,83.457z M50.272,83.457"/>
				<path fill="#943434" d="M50.256,71.672c-0.848-0.998-2.146-2.381-3.453-2.381c-2.384,0-4.235,1.852-4.235,4.234
					c0,2.932,2.618,5.32,6.626,8.863l1.062,1.061V71.672z"/>
			</g>
		</g>
		<rect x="2.721" y="2.725" fill="none" width="9.374" height="9.761"/>
		<text transform="matrix(1 0 0 1 4.6147 10.4541)" fill="#7A2B2B" font-family="'ChunkFive'" font-size="10.8856">5</text>
		<rect x="57.026" y="91.205" fill="none" width="9.374" height="9.762"/>
		<text transform="matrix(-1 0 0 -1 64.5059 93.2383)" fill="#7A2B2B" font-family="'ChunkFive'" font-size="10.8856">5</text>
		<g>
			<path fill="#7A2B2B" d="M7.416,19.965l-0.578-0.576c-2.144-1.896-3.544-3.174-3.544-4.741c0-1.276,0.99-2.267,2.266-2.267
				c0.704,0,1.403,0.75,1.856,1.285c0.453-0.535,1.153-1.285,1.856-1.285c1.275,0,2.266,0.99,2.266,2.267
				c0,1.567-1.4,2.846-3.545,4.741L7.416,19.965z M7.416,19.965"/>
			<path fill="#943434" d="M7.407,13.661c-0.453-0.535-1.148-1.274-1.848-1.274c-1.275,0-2.266,0.99-2.266,2.266
				c0,1.568,1.4,2.847,3.544,4.742l0.569,0.567V13.661z"/>
		</g>
		<g>
			<path fill="#7A2B2B" d="M61.705,83.727l0.578,0.574c2.144,1.896,3.545,3.174,3.545,4.744c0,1.275-0.99,2.266-2.267,2.266
				c-0.703,0-1.403-0.75-1.856-1.285c-0.453,0.535-1.153,1.285-1.855,1.285c-1.276,0-2.267-0.99-2.267-2.266
				c0-1.57,1.4-2.848,3.545-4.744L61.705,83.727z M61.705,83.727"/>
			<path fill="#943434" d="M61.714,90.031c0.454,0.535,1.148,1.273,1.848,1.273c1.276,0,2.267-0.99,2.267-2.266
				c0-1.568-1.401-2.846-3.545-4.742l-0.569-0.566V90.031z"/>
		</g>
	</g>
	<g>
		<g>
			<path fill="#7A2B2B" d="M34.561,58.66l-1.079-1.076c-4.007-3.543-6.626-5.932-6.626-8.863c0-2.383,1.852-4.234,4.235-4.234
				c1.315,0,2.623,1.4,3.47,2.401c0.847-1.001,2.155-2.401,3.469-2.401c2.385,0,4.235,1.851,4.235,4.234
				c0,2.932-2.617,5.32-6.624,8.863L34.561,58.66z M34.561,58.66"/>
			<path fill="#943434" d="M34.544,46.876c-0.848-0.998-2.146-2.382-3.453-2.382c-2.384,0-4.235,1.851-4.235,4.236
				c0,2.93,2.619,5.318,6.626,8.861l1.062,1.061V46.876z"/>
		</g>
	</g>
</g>
</svg>
