<?xml version="1.0" encoding="utf-8"?>
<!-- Generator: Adobe Illustrator 16.0.0, SVG Export Plug-In . SVG Version: 6.00 Build 0)  -->
<!DOCTYPE svg PUBLIC "-//W3C//DTD SVG 1.1//EN" "http://www.w3.org/Graphics/SVG/1.1/DTD/svg11.dtd">
<svg version="1.1" id="Layer_1" xmlns="http://www.w3.org/2000/svg" xmlns:xlink="http://www.w3.org/1999/xlink" x="0px" y="0px"
	 width="69.12px" height="103.69px" viewBox="0 0 69.12 103.69" enable-background="new 0 0 69.12 103.69" xml:space="preserve">
<g>
	<g>
		<path fill="#F2F2F2" d="M69.121,100.967c0,1.502-1.217,2.721-2.721,2.721H2.72c-1.503,0-2.722-1.219-2.722-2.721V2.725
			c0-1.503,1.219-2.722,2.722-2.722H66.4c1.504,0,2.721,1.219,2.721,2.722V100.967z"/>
		<g>
			<path fill="#333333" d="M21.757,22.53c-0.873-0.717-1.779-1.458-2.472-2.279c-0.117-0.14-0.289-0.217-0.467-0.217h-0.036
				c-0.18,0-0.353,0.077-0.47,0.217c-0.692,0.821-1.599,1.562-2.473,2.279c-1.851,1.514-3.763,3.082-3.763,5.509
				c0,2.201,1.539,3.739,3.745,3.739c1.065,0,1.994-0.628,2.626-1.201c-0.304,1.296-0.869,2.829-1.938,4.032h4.575
				c-1.069-1.205-1.636-2.741-1.938-4.038c0.63,0.575,1.561,1.207,2.629,1.207c2.203,0,3.745-1.538,3.745-3.739
				C25.521,25.616,23.606,24.047,21.757,22.53z"/>
			<path fill="#4D4D4D" d="M18.784,34.609V20.034h-0.001c-0.18,0-0.353,0.077-0.47,0.217c-0.692,0.821-1.599,1.562-2.473,2.279
				c-1.851,1.514-3.763,3.082-3.763,5.509c0,2.201,1.539,3.739,3.745,3.739c1.065,0,1.994-0.628,2.626-1.201
				c-0.304,1.296-0.869,2.829-1.938,4.032H18.784z"/>
		</g>
		<g>
			<path fill="#333333" d="M8.939,13.778c-0.452-0.371-0.921-0.755-1.28-1.181c-0.061-0.072-0.149-0.112-0.241-0.112H7.399
				c-0.094,0-0.183,0.04-0.243,0.112c-0.359,0.426-0.829,0.81-1.281,1.181c-0.959,0.784-1.948,1.597-1.948,2.854
				c0,1.14,0.796,1.937,1.939,1.937c0.552,0,1.032-0.325,1.359-0.622c-0.156,0.671-0.45,1.466-1.004,2.088h2.37
				c-0.554-0.624-0.848-1.419-1.004-2.091c0.326,0.298,0.809,0.625,1.361,0.625c1.142,0,1.939-0.797,1.939-1.937
				C10.888,15.377,9.897,14.564,8.939,13.778z"/>
			<path fill="#4D4D4D" d="M7.399,20.034v-7.549l0,0c-0.094,0-0.183,0.04-0.243,0.112c-0.359,0.426-0.829,0.81-1.281,1.181
				c-0.959,0.784-1.948,1.597-1.948,2.854c0,1.14,0.796,1.937,1.939,1.937c0.552,0,1.032-0.325,1.359-0.622
				c-0.156,0.671-0.45,1.466-1.004,2.088H7.399z"/>
		</g>
		<g>
			<path fill="#333333" d="M60.182,89.914c0.451,0.371,0.922,0.754,1.279,1.18c0.061,0.072,0.15,0.111,0.242,0.111h0.02
				c0.092,0,0.182-0.039,0.242-0.111c0.359-0.426,0.828-0.809,1.281-1.18c0.959-0.785,1.949-1.598,1.949-2.854
				c0-1.141-0.797-1.938-1.939-1.938c-0.553,0-1.033,0.324-1.361,0.623c0.158-0.672,0.451-1.467,1.004-2.09h-2.369
				c0.553,0.625,0.848,1.42,1.004,2.092c-0.326-0.299-0.809-0.625-1.361-0.625c-1.141,0-1.939,0.797-1.939,1.938
				C58.232,88.314,59.225,89.127,60.182,89.914z"/>
			<path fill="#4D4D4D" d="M61.723,83.656v7.549l0,0c0.092,0,0.182-0.039,0.242-0.111c0.359-0.426,0.828-0.809,1.281-1.18
				c0.959-0.785,1.949-1.598,1.949-2.854c0-1.141-0.797-1.938-1.939-1.938c-0.553,0-1.033,0.324-1.361,0.623
				c0.158-0.672,0.451-1.467,1.004-2.09H61.723z"/>
		</g>
		<g>
			<path fill="#333333" d="M53.215,22.53c-0.873-0.717-1.779-1.458-2.473-2.279c-0.117-0.14-0.289-0.217-0.467-0.217H50.24
				c-0.182,0-0.354,0.077-0.471,0.217c-0.693,0.821-1.6,1.562-2.473,2.279c-1.852,1.514-3.762,3.082-3.762,5.509
				c0,2.201,1.537,3.739,3.744,3.739c1.066,0,1.994-0.628,2.625-1.201c-0.303,1.296-0.869,2.829-1.938,4.032h4.576
				c-1.07-1.205-1.637-2.741-1.939-4.038c0.631,0.575,1.561,1.207,2.629,1.207c2.203,0,3.744-1.538,3.744-3.739
				C56.977,25.616,55.062,24.047,53.215,22.53z"/>
			<path fill="#4D4D4D" d="M50.24,34.609V20.034l0,0c-0.182,0-0.354,0.077-0.471,0.217c-0.693,0.821-1.6,1.562-2.473,2.279
				c-1.852,1.514-3.762,3.082-3.762,5.509c0,2.201,1.537,3.739,3.744,3.739c1.066,0,1.994-0.628,2.625-1.201
				c-0.303,1.296-0.869,2.829-1.938,4.032H50.24z"/>
		</g>
		<g>
			<path fill="#333333" d="M21.757,71.578c-0.873-0.717-1.779-1.457-2.472-2.279c-0.117-0.139-0.289-0.217-0.467-0.217h-0.036
				c-0.18,0-0.353,0.078-0.47,0.217c-0.692,0.822-1.599,1.562-2.473,2.279c-1.851,1.514-3.763,3.082-3.763,5.51
				c0,2.201,1.539,3.738,3.745,3.738c1.065,0,1.994-0.627,2.626-1.201c-0.304,1.297-0.869,2.83-1.938,4.031h4.575
				c-1.069-1.203-1.636-2.74-1.938-4.037c0.63,0.576,1.561,1.207,2.629,1.207c2.203,0,3.745-1.537,3.745-3.738
				C25.521,74.664,23.606,73.096,21.757,71.578z"/>
			<path fill="#4D4D4D" d="M18.784,83.656V69.082h-0.001c-0.18,0-0.353,0.078-0.47,0.217c-0.692,0.822-1.599,1.562-2.473,2.279
				c-1.851,1.514-3.763,3.082-3.763,5.51c0,2.201,1.539,3.738,3.745,3.738c1.065,0,1.994-0.627,2.626-1.201
				c-0.304,1.297-0.869,2.83-1.938,4.031H18.784z"/>
		</g>
		<g>
			<path fill="#333333" d="M53.215,71.578c-0.873-0.717-1.779-1.457-2.473-2.279c-0.117-0.139-0.289-0.217-0.467-0.217H50.24
				c-0.182,0-0.354,0.078-0.471,0.217c-0.693,0.822-1.6,1.562-2.473,2.279c-1.852,1.514-3.762,3.082-3.762,5.51
				c0,2.201,1.537,3.738,3.744,3.738c1.066,0,1.994-0.627,2.625-1.201c-0.303,1.297-0.869,2.83-1.938,4.031h4.576
				c-1.07-1.203-1.637-2.74-1.939-4.037c0.631,0.576,1.561,1.207,2.629,1.207c2.203,0,3.744-1.537,3.744-3.738
				C56.977,74.664,55.062,73.096,53.215,71.578z"/>
			<path fill="#4D4D4D" d="M50.24,83.656V69.082l0,0c-0.182,0-0.354,0.078-0.471,0.217c-0.693,0.822-1.6,1.562-2.473,2.279
				c-1.852,1.514-3.762,3.082-3.762,5.51c0,2.201,1.537,3.738,3.744,3.738c1.066,0,1.994-0.627,2.625-1.201
				c-0.303,1.297-0.869,2.83-1.938,4.031H50.24z"/>
		</g>
		<rect x="2.72" y="2.725" fill="none" width="9.374" height="9.761"/>
		<text transform="matrix(1 0 0 1 4.6152 10.4536)" fill="#333333" font-family="'ChunkFive'" font-size="10.8856">5</text>
		<rect x="57.025" y="91.205" fill="none" width="9.375" height="9.762"/>
		<text transform="matrix(-1 0 0 -1 64.5059 93.2383)" fill="#333333" font-family="'ChunkFive'" font-size="10.8856">5</text>
	</g>
	<g>
		<path fill="#333333" d="M37.518,47.326c-0.873-0.717-1.779-1.458-2.471-2.279c-0.117-0.14-0.289-0.216-0.467-0.216h-0.036
			c-0.181,0-0.353,0.076-0.47,0.216c-0.692,0.821-1.599,1.562-2.473,2.279c-1.851,1.514-3.763,3.083-3.763,5.509
			c0,2.201,1.539,3.739,3.745,3.739c1.065,0,1.994-0.627,2.626-1.201c-0.304,1.296-0.869,2.83-1.938,4.032h4.575
			c-1.069-1.205-1.635-2.74-1.938-4.037c0.63,0.575,1.561,1.206,2.629,1.206c2.203,0,3.744-1.538,3.744-3.739
			C41.281,50.412,39.367,48.844,37.518,47.326z"/>
		<path fill="#4D4D4D" d="M34.544,59.405V44.831h-0.001c-0.181,0-0.353,0.076-0.47,0.216c-0.692,0.821-1.599,1.562-2.473,2.279
			c-1.851,1.514-3.763,3.083-3.763,5.509c0,2.201,1.539,3.739,3.745,3.739c1.065,0,1.994-0.627,2.626-1.201
			c-0.304,1.296-0.869,2.83-1.938,4.032H34.544z"/>
	</g>
</g>
</svg>
