<?xml version="1.0" encoding="utf-8"?>
<!-- Generator: Adobe Illustrator 16.0.0, SVG Export Plug-In . SVG Version: 6.00 Build 0)  -->
<!DOCTYPE svg PUBLIC "-//W3C//DTD SVG 1.1//EN" "http://www.w3.org/Graphics/SVG/1.1/DTD/svg11.dtd">
<svg version="1.1" id="Layer_1" xmlns="http://www.w3.org/2000/svg" xmlns:xlink="http://www.w3.org/1999/xlink" x="0px" y="0px"
	 width="69.12px" height="103.69px" viewBox="0 0 69.12 103.69" enable-background="new 0 0 69.12 103.69" xml:space="preserve">
<g>
	<path fill="#F2F2F2" d="M69.122,100.963c0,1.502-1.218,2.721-2.721,2.721H2.722c-1.503,0-2.722-1.219-2.722-2.721V2.721
		C0,1.218,1.219,0,2.722,0h63.68c1.503,0,2.721,1.218,2.721,2.721V100.963z"/>
	<g>
		<path fill="#333333" d="M21.759,22.526c-0.873-0.717-1.779-1.458-2.472-2.279c-0.117-0.14-0.29-0.216-0.467-0.216h-0.036
			c-0.181,0-0.353,0.076-0.47,0.216c-0.692,0.821-1.6,1.562-2.473,2.279c-1.852,1.514-3.763,3.083-3.763,5.509
			c0,2.202,1.538,3.739,3.745,3.739c1.065,0,1.994-0.627,2.625-1.201c-0.303,1.296-0.869,2.83-1.938,4.032h4.576
			c-1.069-1.205-1.636-2.74-1.939-4.037c0.631,0.575,1.562,1.206,2.63,1.206c2.203,0,3.744-1.537,3.744-3.739
			C25.521,25.612,23.607,24.044,21.759,22.526z"/>
		<path fill="#4D4D4D" d="M18.784,34.605V20.031l0,0c-0.181,0-0.353,0.076-0.47,0.216c-0.692,0.821-1.6,1.562-2.473,2.279
			c-1.852,1.514-3.763,3.083-3.763,5.509c0,2.202,1.538,3.739,3.745,3.739c1.065,0,1.994-0.627,2.625-1.201
			c-0.303,1.296-0.869,2.83-1.938,4.032H18.784z"/>
	</g>
	<g>
		<path fill="#333333" d="M8.94,13.774c-0.452-0.371-0.922-0.755-1.28-1.18c-0.061-0.072-0.15-0.112-0.242-0.112H7.399
			c-0.093,0-0.182,0.04-0.242,0.112c-0.359,0.425-0.829,0.809-1.281,1.18c-0.959,0.784-1.949,1.597-1.949,2.854
			c0,1.141,0.797,1.937,1.94,1.937c0.552,0,1.032-0.324,1.359-0.622c-0.157,0.672-0.45,1.466-1.004,2.089h2.37
			c-0.555-0.624-0.848-1.42-1.005-2.092c0.327,0.299,0.809,0.625,1.362,0.625c1.141,0,1.939-0.796,1.939-1.937
			C10.89,15.373,9.897,14.561,8.94,13.774z"/>
		<path fill="#4D4D4D" d="M7.4,20.031v-7.549H7.399c-0.093,0-0.182,0.04-0.242,0.112c-0.359,0.425-0.829,0.809-1.281,1.18
			c-0.959,0.784-1.949,1.597-1.949,2.854c0,1.141,0.797,1.937,1.94,1.937c0.552,0,1.032-0.324,1.359-0.622
			c-0.157,0.672-0.45,1.466-1.004,2.089H7.4z"/>
	</g>
	<g>
		<path fill="#333333" d="M60.183,89.908c0.452,0.371,0.921,0.756,1.28,1.182c0.061,0.072,0.149,0.111,0.241,0.111h0.019
			c0.094,0,0.183-0.039,0.243-0.111c0.359-0.426,0.828-0.811,1.281-1.182c0.958-0.783,1.948-1.596,1.948-2.854
			c0-1.141-0.797-1.936-1.939-1.936c-0.552,0-1.033,0.324-1.359,0.621c0.156-0.672,0.45-1.465,1.004-2.088h-2.37
			c0.554,0.623,0.847,1.42,1.004,2.092c-0.326-0.299-0.808-0.625-1.361-0.625c-1.142,0-1.94,0.795-1.94,1.936
			C58.232,88.311,59.225,89.123,60.183,89.908z"/>
		<path fill="#4D4D4D" d="M61.723,83.652v7.549l0,0c0.094,0,0.183-0.039,0.243-0.111c0.359-0.426,0.828-0.811,1.281-1.182
			c0.958-0.783,1.948-1.596,1.948-2.854c0-1.141-0.797-1.936-1.939-1.936c-0.552,0-1.033,0.324-1.359,0.621
			c0.156-0.672,0.45-1.465,1.004-2.088H61.723z"/>
	</g>
	<g>
		<path fill="#333333" d="M53.215,22.526c-0.873-0.717-1.779-1.458-2.472-2.279c-0.116-0.14-0.289-0.216-0.467-0.216H50.24
			c-0.18,0-0.352,0.076-0.469,0.216c-0.693,0.821-1.6,1.562-2.473,2.279c-1.852,1.514-3.763,3.083-3.763,5.509
			c0,2.202,1.538,3.739,3.744,3.739c1.065,0,1.994-0.627,2.626-1.201c-0.303,1.296-0.869,2.83-1.938,4.032h4.575
			c-1.069-1.205-1.636-2.74-1.938-4.037c0.63,0.575,1.561,1.206,2.629,1.206c2.203,0,3.745-1.537,3.745-3.739
			C56.979,25.612,55.063,24.044,53.215,22.526z"/>
		<path fill="#4D4D4D" d="M50.241,34.605V20.031H50.24c-0.18,0-0.352,0.076-0.469,0.216c-0.693,0.821-1.6,1.562-2.473,2.279
			c-1.852,1.514-3.763,3.083-3.763,5.509c0,2.202,1.538,3.739,3.744,3.739c1.065,0,1.994-0.627,2.626-1.201
			c-0.303,1.296-0.869,2.83-1.938,4.032H50.241z"/>
	</g>
	<g>
		<path fill="#333333" d="M21.759,47.05c-0.873-0.717-1.779-1.458-2.472-2.279c-0.117-0.139-0.29-0.216-0.467-0.216h-0.036
			c-0.181,0-0.353,0.077-0.47,0.216c-0.692,0.821-1.6,1.562-2.473,2.279c-1.852,1.514-3.763,3.083-3.763,5.509
			c0,2.201,1.538,3.74,3.745,3.74c1.065,0,1.994-0.629,2.625-1.203c-0.303,1.297-0.869,2.83-1.938,4.033h4.576
			c-1.069-1.205-1.636-2.74-1.939-4.037c0.631,0.574,1.562,1.207,2.63,1.207c2.203,0,3.744-1.539,3.744-3.74
			C25.521,50.136,23.607,48.567,21.759,47.05z"/>
		<path fill="#4D4D4D" d="M18.784,59.129V44.555l0,0c-0.181,0-0.353,0.077-0.47,0.216c-0.692,0.821-1.6,1.562-2.473,2.279
			c-1.852,1.514-3.763,3.083-3.763,5.509c0,2.201,1.538,3.74,3.745,3.74c1.065,0,1.994-0.629,2.625-1.203
			c-0.303,1.297-0.869,2.83-1.938,4.033H18.784z"/>
	</g>
	<g>
		<path fill="#333333" d="M53.215,47.05c-0.873-0.717-1.779-1.458-2.472-2.279c-0.116-0.139-0.289-0.216-0.467-0.216H50.24
			c-0.18,0-0.352,0.077-0.469,0.216c-0.693,0.821-1.6,1.562-2.473,2.279c-1.852,1.514-3.763,3.083-3.763,5.509
			c0,2.201,1.538,3.74,3.744,3.74c1.065,0,1.994-0.629,2.626-1.203c-0.303,1.297-0.869,2.83-1.938,4.033h4.575
			c-1.069-1.205-1.636-2.74-1.938-4.037c0.63,0.574,1.561,1.207,2.629,1.207c2.203,0,3.745-1.539,3.745-3.74
			C56.979,50.136,55.063,48.567,53.215,47.05z"/>
		<path fill="#4D4D4D" d="M50.241,59.129V44.555H50.24c-0.18,0-0.352,0.077-0.469,0.216c-0.693,0.821-1.6,1.562-2.473,2.279
			c-1.852,1.514-3.763,3.083-3.763,5.509c0,2.201,1.538,3.74,3.744,3.74c1.065,0,1.994-0.629,2.626-1.203
			c-0.303,1.297-0.869,2.83-1.938,4.033H50.241z"/>
	</g>
	<g>
		<path fill="#333333" d="M21.759,71.574c-0.873-0.717-1.779-1.459-2.472-2.279c-0.117-0.141-0.29-0.217-0.467-0.217h-0.036
			c-0.181,0-0.353,0.076-0.47,0.217c-0.692,0.82-1.6,1.562-2.473,2.279c-1.852,1.514-3.763,3.082-3.763,5.508
			c0,2.201,1.538,3.74,3.745,3.74c1.065,0,1.994-0.629,2.625-1.201c-0.303,1.295-0.869,2.83-1.938,4.031h4.576
			c-1.069-1.205-1.636-2.74-1.939-4.037c0.631,0.576,1.562,1.207,2.63,1.207c2.203,0,3.744-1.539,3.744-3.74
			C25.521,74.66,23.607,73.092,21.759,71.574z"/>
		<path fill="#4D4D4D" d="M18.784,83.652V69.078l0,0c-0.181,0-0.353,0.076-0.47,0.217c-0.692,0.82-1.6,1.562-2.473,2.279
			c-1.852,1.514-3.763,3.082-3.763,5.508c0,2.201,1.538,3.74,3.745,3.74c1.065,0,1.994-0.629,2.625-1.201
			c-0.303,1.295-0.869,2.83-1.938,4.031H18.784z"/>
	</g>
	<g>
		<path fill="#333333" d="M53.215,71.574c-0.873-0.717-1.779-1.459-2.472-2.279c-0.116-0.141-0.289-0.217-0.467-0.217H50.24
			c-0.18,0-0.352,0.076-0.469,0.217c-0.693,0.82-1.6,1.562-2.473,2.279c-1.852,1.514-3.763,3.082-3.763,5.508
			c0,2.201,1.538,3.74,3.744,3.74c1.065,0,1.994-0.629,2.626-1.201c-0.303,1.295-0.869,2.83-1.938,4.031h4.575
			c-1.069-1.205-1.636-2.74-1.938-4.037c0.63,0.576,1.561,1.207,2.629,1.207c2.203,0,3.745-1.539,3.745-3.74
			C56.979,74.66,55.063,73.092,53.215,71.574z"/>
		<path fill="#4D4D4D" d="M50.241,83.652V69.078H50.24c-0.18,0-0.352,0.076-0.469,0.217c-0.693,0.82-1.6,1.562-2.473,2.279
			c-1.852,1.514-3.763,3.082-3.763,5.508c0,2.201,1.538,3.74,3.744,3.74c1.065,0,1.994-0.629,2.626-1.201
			c-0.303,1.295-0.869,2.83-1.938,4.031H50.241z"/>
	</g>
	<rect x="2.721" y="2.721" fill="none" width="9.375" height="9.762"/>
	<text transform="matrix(1 0 0 1 4.6157 10.4497)" fill="#333333" font-family="'ChunkFive'" font-size="10.8856">6</text>
	<rect x="57.027" y="91.201" fill="none" width="9.374" height="9.762"/>
	<text transform="matrix(-1 0 0 -1 64.5059 93.2344)" fill="#333333" font-family="'ChunkFive'" font-size="10.8856">6</text>
</g>
</svg>
