<?xml version="1.0" encoding="utf-8"?>
<!-- Generator: Adobe Illustrator 16.0.0, SVG Export Plug-In . SVG Version: 6.00 Build 0)  -->
<!DOCTYPE svg PUBLIC "-//W3C//DTD SVG 1.1//EN" "http://www.w3.org/Graphics/SVG/1.1/DTD/svg11.dtd">
<svg version="1.1" id="Layer_1" xmlns="http://www.w3.org/2000/svg" xmlns:xlink="http://www.w3.org/1999/xlink" x="0px" y="0px"
	 width="69.12px" height="103.69px" viewBox="0 0 69.12 103.69" enable-background="new 0 0 69.12 103.69" xml:space="preserve">
<g>
	<g>
		<path fill="#F2F2F2" d="M69.123,100.963c0,1.502-1.219,2.721-2.721,2.721H2.722c-1.502,0-2.722-1.219-2.722-2.721V2.721
			C0,1.218,1.22,0,2.722,0h63.681c1.502,0,2.721,1.218,2.721,2.721V100.963z"/>
		<g>
			<polygon fill="#7A2B2B" points="18.817,34.486 13.547,27.318 18.817,20.15 24.088,27.318 			"/>
			<polygon fill="#943434" points="18.801,20.173 13.547,27.318 18.801,34.464 			"/>
		</g>
		<g>
			<polygon fill="#7A2B2B" points="50.274,34.486 45.004,27.318 50.274,20.15 55.544,27.318 			"/>
			<polygon fill="#943434" points="50.258,20.173 45.004,27.318 50.258,34.464 			"/>
		</g>
		<g>
			<polygon fill="#7A2B2B" points="18.817,59.01 13.547,51.842 18.817,44.674 24.088,51.842 			"/>
			<polygon fill="#943434" points="18.801,44.696 13.547,51.842 18.801,58.986 			"/>
		</g>
		<g>
			<polygon fill="#7A2B2B" points="50.274,59.01 45.004,51.842 50.274,44.674 55.544,51.842 			"/>
			<polygon fill="#943434" points="50.258,44.696 45.004,51.842 50.258,58.986 			"/>
		</g>
		<g>
			<polygon fill="#7A2B2B" points="18.817,83.533 13.547,76.365 18.817,69.197 24.088,76.365 			"/>
			<polygon fill="#943434" points="18.801,69.221 13.547,76.365 18.801,83.512 			"/>
		</g>
		<g>
			<polygon fill="#7A2B2B" points="50.274,83.533 45.004,76.365 50.274,69.197 55.544,76.365 			"/>
			<polygon fill="#943434" points="50.258,69.221 45.004,76.365 50.258,83.512 			"/>
		</g>
		<rect x="2.722" y="2.721" fill="none" width="9.374" height="9.762"/>
		<text transform="matrix(1 0 0 1 4.6162 10.4497)" fill="#7A2B2B" font-family="'ChunkFive'" font-size="10.8856">7</text>
		<rect x="57.027" y="91.201" fill="none" width="9.375" height="9.762"/>
		<text transform="matrix(-1 0 0 -1 64.5078 93.2344)" fill="#7A2B2B" font-family="'ChunkFive'" font-size="10.8856">7</text>
		<g>
			<polygon fill="#7A2B2B" points="61.715,83.531 64.505,87.326 61.715,91.121 58.925,87.326 			"/>
			<polygon fill="#943434" points="61.724,91.109 64.505,87.326 61.724,83.543 			"/>
		</g>
		<g>
			<polygon fill="#7A2B2B" points="7.408,19.971 4.618,16.176 7.408,12.382 10.197,16.176 			"/>
			<polygon fill="#943434" points="7.399,12.394 4.618,16.176 7.399,19.959 			"/>
		</g>
	</g>
	<g>
		<polygon fill="#7A2B2B" points="34.562,45.578 29.292,38.41 34.562,31.242 39.832,38.41 		"/>
		<polygon fill="#943434" points="34.546,31.265 29.292,38.41 34.546,45.556 		"/>
	</g>
</g>
</svg>
