<?xml version="1.0" encoding="utf-8"?>
<!-- Generator: Adobe Illustrator 16.0.0, SVG Export Plug-In . SVG Version: 6.00 Build 0)  -->
<!DOCTYPE svg PUBLIC "-//W3C//DTD SVG 1.1//EN" "http://www.w3.org/Graphics/SVG/1.1/DTD/svg11.dtd">
<svg version="1.1" id="Layer_1" xmlns="http://www.w3.org/2000/svg" xmlns:xlink="http://www.w3.org/1999/xlink" x="0px" y="0px"
	 width="69.12px" height="103.69px" viewBox="0 0 69.12 103.69" enable-background="new 0 0 69.12 103.69" xml:space="preserve">
<g>
	<g>
		<path fill="#F2F2F2" d="M69.123,100.963c0,1.502-1.219,2.721-2.722,2.721H2.722c-1.503,0-2.722-1.219-2.722-2.721V2.721
			C0,1.218,1.219,0,2.722,0h63.68c1.503,0,2.722,1.218,2.722,2.721V100.963z"/>
		<g>
			<g>
				<path fill="#7A2B2B" d="M50.273,34.405l-1.079-1.076c-4.007-3.543-6.625-5.932-6.625-8.863c0-2.384,1.851-4.235,4.234-4.235
					c1.315,0,2.623,1.401,3.47,2.402c0.847-1.001,2.155-2.402,3.469-2.402c2.385,0,4.236,1.852,4.236,4.235
					c0,2.932-2.618,5.32-6.625,8.863L50.273,34.405z M50.273,34.405"/>
				<path fill="#943434" d="M50.257,22.621c-0.848-0.999-2.146-2.382-3.453-2.382c-2.384,0-4.234,1.851-4.234,4.235
					c0,2.931,2.618,5.319,6.625,8.862l1.062,1.061V22.621z"/>
			</g>
		</g>
		<g>
			<g>
				<path fill="#7A2B2B" d="M18.816,83.451l-1.079-1.074c-4.007-3.543-6.625-5.932-6.625-8.863c0-2.385,1.852-4.236,4.235-4.236
					c1.315,0,2.623,1.402,3.469,2.402c0.848-1,2.156-2.402,3.469-2.402c2.385,0,4.236,1.852,4.236,4.236
					c0,2.932-2.618,5.32-6.625,8.863L18.816,83.451z M18.816,83.451"/>
				<path fill="#943434" d="M18.801,71.668c-0.848-0.998-2.146-2.381-3.453-2.381c-2.384,0-4.235,1.85-4.235,4.234
					c0,2.932,2.618,5.318,6.625,8.863l1.063,1.059V71.668z"/>
			</g>
		</g>
		<g>
			<g>
				<path fill="#7A2B2B" d="M18.816,34.405l-1.079-1.076c-4.007-3.543-6.625-5.932-6.625-8.863c0-2.384,1.852-4.235,4.235-4.235
					c1.315,0,2.623,1.401,3.469,2.402c0.848-1.001,2.156-2.402,3.469-2.402c2.385,0,4.236,1.852,4.236,4.235
					c0,2.932-2.618,5.32-6.625,8.863L18.816,34.405z M18.816,34.405"/>
				<path fill="#943434" d="M18.801,22.621c-0.848-0.999-2.146-2.382-3.453-2.382c-2.384,0-4.235,1.851-4.235,4.235
					c0,2.931,2.618,5.319,6.625,8.862l1.063,1.061V22.621z"/>
			</g>
		</g>
		<g>
			<g>
				<path fill="#7A2B2B" d="M50.273,58.928l-1.079-1.076c-4.007-3.543-6.625-5.931-6.625-8.861c0-2.385,1.851-4.235,4.234-4.235
					c1.315,0,2.623,1.4,3.47,2.401c0.847-1.001,2.155-2.401,3.469-2.401c2.385,0,4.236,1.851,4.236,4.235
					c0,2.931-2.618,5.318-6.625,8.861L50.273,58.928z M50.273,58.928"/>
				<path fill="#943434" d="M50.257,47.145c-0.848-0.998-2.146-2.382-3.453-2.382c-2.384,0-4.234,1.852-4.234,4.235
					c0,2.931,2.618,5.318,6.625,8.863l1.062,1.059V47.145z"/>
			</g>
		</g>
		<g>
			<g>
				<path fill="#7A2B2B" d="M18.816,58.928l-1.079-1.076c-4.007-3.543-6.625-5.931-6.625-8.861c0-2.385,1.852-4.235,4.235-4.235
					c1.315,0,2.623,1.4,3.469,2.401c0.848-1.001,2.156-2.401,3.469-2.401c2.385,0,4.236,1.851,4.236,4.235
					c0,2.931-2.618,5.318-6.625,8.861L18.816,58.928z M18.816,58.928"/>
				<path fill="#943434" d="M18.801,47.145c-0.848-0.998-2.146-2.382-3.453-2.382c-2.384,0-4.235,1.852-4.235,4.235
					c0,2.931,2.618,5.318,6.625,8.863l1.063,1.059V47.145z"/>
			</g>
		</g>
		<g>
			<g>
				<path fill="#7A2B2B" d="M50.273,83.451l-1.079-1.074c-4.007-3.543-6.625-5.932-6.625-8.863c0-2.385,1.851-4.236,4.234-4.236
					c1.315,0,2.623,1.402,3.47,2.402c0.847-1,2.155-2.402,3.469-2.402c2.385,0,4.236,1.852,4.236,4.236
					c0,2.932-2.618,5.32-6.625,8.863L50.273,83.451z M50.273,83.451"/>
				<path fill="#943434" d="M50.257,71.668c-0.848-0.998-2.146-2.381-3.453-2.381c-2.384,0-4.234,1.85-4.234,4.234
					c0,2.932,2.618,5.318,6.625,8.863l1.062,1.059V71.668z"/>
			</g>
		</g>
		<rect x="2.722" y="2.721" fill="none" width="9.374" height="9.762"/>
		<text transform="matrix(1 0 0 1 4.6157 10.4497)" fill="#7A2B2B" font-family="'ChunkFive'" font-size="10.8856">7</text>
		<rect x="57.027" y="91.201" fill="none" width="9.374" height="9.762"/>
		<text transform="matrix(-1 0 0 -1 64.5068 93.2344)" fill="#7A2B2B" font-family="'ChunkFive'" font-size="10.8856">7</text>
		<g>
			<path fill="#7A2B2B" d="M7.417,19.962L6.84,19.386c-2.144-1.896-3.545-3.174-3.545-4.742c0-1.275,0.99-2.267,2.266-2.267
				c0.704,0,1.404,0.75,1.856,1.285c0.453-0.535,1.153-1.285,1.856-1.285c1.275,0,2.266,0.991,2.266,2.267
				c0,1.568-1.4,2.847-3.545,4.742L7.417,19.962z M7.417,19.962"/>
			<path fill="#943434" d="M7.408,13.656c-0.453-0.534-1.148-1.274-1.848-1.274c-1.275,0-2.266,0.99-2.266,2.266
				c0,1.568,1.401,2.847,3.545,4.742l0.568,0.567V13.656z"/>
		</g>
		<g>
			<path fill="#7A2B2B" d="M61.706,83.723l0.578,0.574c2.144,1.896,3.545,3.174,3.545,4.742c0,1.275-0.99,2.266-2.267,2.266
				c-0.703,0-1.403-0.748-1.856-1.283c-0.453,0.535-1.153,1.283-1.855,1.283c-1.276,0-2.267-0.99-2.267-2.266
				c0-1.568,1.4-2.846,3.545-4.742L61.706,83.723z M61.706,83.723"/>
			<path fill="#943434" d="M61.715,90.027c0.454,0.533,1.148,1.273,1.848,1.273c1.276,0,2.267-0.99,2.267-2.266
				c0-1.568-1.401-2.846-3.545-4.742l-0.569-0.566V90.027z"/>
		</g>
	</g>
	<g>
		<g>
			<path fill="#7A2B2B" d="M34.562,45.497l-1.079-1.075c-4.007-3.543-6.625-5.932-6.625-8.863c0-2.384,1.851-4.235,4.235-4.235
				c1.314,0,2.622,1.401,3.469,2.401c0.847-1,2.155-2.401,3.469-2.401c2.385,0,4.236,1.852,4.236,4.235
				c0,2.932-2.618,5.32-6.625,8.863L34.562,45.497z M34.562,45.497"/>
			<path fill="#943434" d="M34.546,33.714c-0.848-0.999-2.147-2.382-3.453-2.382c-2.385,0-4.235,1.851-4.235,4.235
				c0,2.931,2.618,5.318,6.625,8.862l1.063,1.06V33.714z"/>
		</g>
	</g>
</g>
</svg>
