<?xml version="1.0" encoding="utf-8"?>
<!-- Generator: Adobe Illustrator 16.0.0, SVG Export Plug-In . SVG Version: 6.00 Build 0)  -->
<!DOCTYPE svg PUBLIC "-//W3C//DTD SVG 1.1//EN" "http://www.w3.org/Graphics/SVG/1.1/DTD/svg11.dtd">
<svg version="1.1" id="Layer_1" xmlns="http://www.w3.org/2000/svg" xmlns:xlink="http://www.w3.org/1999/xlink" x="0px" y="0px"
	 width="69.12px" height="103.69px" viewBox="0 0 69.12 103.69" enable-background="new 0 0 69.12 103.69" xml:space="preserve">
<g>
	<g>
		<path fill="#F2F2F2" d="M69.123,100.963c0,1.502-1.218,2.721-2.722,2.721H2.722c-1.503,0-2.722-1.219-2.722-2.721V2.721
			C0,1.218,1.219,0,2.722,0h63.68c1.504,0,2.722,1.218,2.722,2.721V100.963z"/>
		<g>
			<path fill="#333333" d="M21.759,22.526c-0.873-0.717-1.779-1.458-2.472-2.279c-0.117-0.14-0.289-0.216-0.467-0.216h-0.036
				c-0.18,0-0.353,0.076-0.47,0.216c-0.692,0.821-1.599,1.562-2.473,2.279c-1.851,1.514-3.762,3.083-3.762,5.509
				c0,2.202,1.538,3.739,3.744,3.739c1.065,0,1.994-0.627,2.626-1.201c-0.304,1.296-0.869,2.83-1.938,4.032h4.575
				c-1.069-1.205-1.636-2.74-1.938-4.037c0.63,0.575,1.561,1.206,2.629,1.206c2.203,0,3.745-1.537,3.745-3.739
				C25.522,25.612,23.607,24.044,21.759,22.526z"/>
			<path fill="#4D4D4D" d="M18.785,34.605V20.031h-0.001c-0.18,0-0.353,0.076-0.47,0.216c-0.692,0.821-1.599,1.562-2.473,2.279
				c-1.851,1.514-3.762,3.083-3.762,5.509c0,2.202,1.538,3.739,3.744,3.739c1.065,0,1.994-0.627,2.626-1.201
				c-0.304,1.296-0.869,2.83-1.938,4.032H18.785z"/>
		</g>
		<g>
			<path fill="#333333" d="M8.94,13.774c-0.452-0.371-0.921-0.755-1.28-1.18c-0.061-0.072-0.149-0.112-0.241-0.112H7.4
				c-0.094,0-0.183,0.04-0.243,0.112c-0.359,0.425-0.829,0.809-1.281,1.18c-0.959,0.784-1.948,1.597-1.948,2.854
				c0,1.141,0.796,1.937,1.939,1.937c0.552,0,1.032-0.324,1.359-0.622c-0.156,0.672-0.45,1.466-1.004,2.089h2.37
				c-0.554-0.624-0.848-1.42-1.004-2.092c0.326,0.299,0.809,0.625,1.361,0.625c1.142,0,1.939-0.796,1.939-1.937
				C10.89,15.373,9.898,14.561,8.94,13.774z"/>
			<path fill="#4D4D4D" d="M7.4,20.031v-7.549l0,0c-0.094,0-0.183,0.04-0.243,0.112c-0.359,0.425-0.829,0.809-1.281,1.18
				c-0.959,0.784-1.948,1.597-1.948,2.854c0,1.141,0.796,1.937,1.939,1.937c0.552,0,1.032-0.324,1.359-0.622
				c-0.156,0.672-0.45,1.466-1.004,2.089H7.4z"/>
		</g>
		<g>
			<path fill="#333333" d="M60.183,89.908c0.452,0.371,0.922,0.756,1.28,1.182c0.061,0.072,0.149,0.111,0.241,0.111h0.02
				c0.093,0,0.183-0.039,0.243-0.111c0.358-0.426,0.828-0.811,1.28-1.182c0.959-0.783,1.949-1.596,1.949-2.854
				c0-1.141-0.797-1.936-1.939-1.936c-0.552,0-1.033,0.324-1.36,0.621c0.157-0.672,0.45-1.465,1.004-2.088h-2.37
				c0.555,0.623,0.848,1.42,1.005,2.092c-0.327-0.299-0.809-0.625-1.362-0.625c-1.141,0-1.939,0.795-1.939,1.936
				C58.233,88.311,59.226,89.123,60.183,89.908z"/>
			<path fill="#4D4D4D" d="M61.724,83.652v7.549l0,0c0.093,0,0.183-0.039,0.243-0.111c0.358-0.426,0.828-0.811,1.28-1.182
				c0.959-0.783,1.949-1.596,1.949-2.854c0-1.141-0.797-1.936-1.939-1.936c-0.552,0-1.033,0.324-1.36,0.621
				c0.157-0.672,0.45-1.465,1.004-2.088H61.724z"/>
		</g>
		<g>
			<path fill="#333333" d="M53.216,22.526c-0.873-0.717-1.779-1.458-2.473-2.279c-0.116-0.14-0.289-0.216-0.466-0.216h-0.036
				c-0.181,0-0.353,0.076-0.47,0.216c-0.692,0.821-1.6,1.562-2.473,2.279c-1.852,1.514-3.763,3.083-3.763,5.509
				c0,2.202,1.538,3.739,3.745,3.739c1.065,0,1.994-0.627,2.625-1.201c-0.303,1.296-0.869,2.83-1.938,4.032h4.576
				c-1.07-1.205-1.636-2.74-1.939-4.037c0.631,0.575,1.562,1.206,2.63,1.206c2.203,0,3.744-1.537,3.744-3.739
				C56.979,25.612,55.064,24.044,53.216,22.526z"/>
			<path fill="#4D4D4D" d="M50.241,34.605V20.031l0,0c-0.181,0-0.353,0.076-0.47,0.216c-0.692,0.821-1.6,1.562-2.473,2.279
				c-1.852,1.514-3.763,3.083-3.763,5.509c0,2.202,1.538,3.739,3.745,3.739c1.065,0,1.994-0.627,2.625-1.201
				c-0.303,1.296-0.869,2.83-1.938,4.032H50.241z"/>
		</g>
		<g>
			<path fill="#333333" d="M21.759,47.05c-0.873-0.717-1.779-1.458-2.472-2.279c-0.117-0.139-0.289-0.216-0.467-0.216h-0.036
				c-0.18,0-0.353,0.077-0.47,0.216c-0.692,0.821-1.599,1.562-2.473,2.279c-1.851,1.514-3.762,3.083-3.762,5.51
				c0,2.2,1.538,3.739,3.744,3.739c1.065,0,1.994-0.629,2.626-1.201c-0.304,1.295-0.869,2.828-1.938,4.031h4.575
				c-1.069-1.205-1.636-2.74-1.938-4.037c0.63,0.574,1.561,1.207,2.629,1.207c2.203,0,3.745-1.539,3.745-3.739
				C25.522,50.136,23.607,48.567,21.759,47.05z"/>
			<path fill="#4D4D4D" d="M18.785,59.129V44.555h-0.001c-0.18,0-0.353,0.077-0.47,0.216c-0.692,0.821-1.599,1.562-2.473,2.279
				c-1.851,1.514-3.762,3.083-3.762,5.51c0,2.2,1.538,3.739,3.744,3.739c1.065,0,1.994-0.629,2.626-1.201
				c-0.304,1.295-0.869,2.828-1.938,4.031H18.785z"/>
		</g>
		<g>
			<path fill="#333333" d="M53.216,47.05c-0.873-0.717-1.779-1.458-2.473-2.279c-0.116-0.139-0.289-0.216-0.466-0.216h-0.036
				c-0.181,0-0.353,0.077-0.47,0.216c-0.692,0.821-1.6,1.562-2.473,2.279c-1.852,1.514-3.763,3.083-3.763,5.51
				c0,2.2,1.538,3.739,3.745,3.739c1.065,0,1.994-0.629,2.625-1.201c-0.303,1.295-0.869,2.828-1.938,4.031h4.576
				c-1.07-1.205-1.636-2.74-1.939-4.037c0.631,0.574,1.562,1.207,2.63,1.207c2.203,0,3.744-1.539,3.744-3.739
				C56.979,50.136,55.064,48.567,53.216,47.05z"/>
			<path fill="#4D4D4D" d="M50.241,59.129V44.555l0,0c-0.181,0-0.353,0.077-0.47,0.216c-0.692,0.821-1.6,1.562-2.473,2.279
				c-1.852,1.514-3.763,3.083-3.763,5.51c0,2.2,1.538,3.739,3.745,3.739c1.065,0,1.994-0.629,2.625-1.201
				c-0.303,1.295-0.869,2.828-1.938,4.031H50.241z"/>
		</g>
		<g>
			<path fill="#333333" d="M21.759,71.574c-0.873-0.717-1.779-1.459-2.472-2.279c-0.117-0.141-0.289-0.217-0.467-0.217h-0.036
				c-0.18,0-0.353,0.076-0.47,0.217c-0.692,0.82-1.599,1.562-2.473,2.279c-1.851,1.514-3.762,3.082-3.762,5.508
				c0,2.201,1.538,3.74,3.744,3.74c1.065,0,1.994-0.629,2.626-1.201c-0.304,1.295-0.869,2.83-1.938,4.031h4.575
				c-1.069-1.205-1.636-2.74-1.938-4.037c0.63,0.576,1.561,1.207,2.629,1.207c2.203,0,3.745-1.539,3.745-3.74
				C25.522,74.66,23.607,73.092,21.759,71.574z"/>
			<path fill="#4D4D4D" d="M18.785,83.652V69.078h-0.001c-0.18,0-0.353,0.076-0.47,0.217c-0.692,0.82-1.599,1.562-2.473,2.279
				c-1.851,1.514-3.762,3.082-3.762,5.508c0,2.201,1.538,3.74,3.744,3.74c1.065,0,1.994-0.629,2.626-1.201
				c-0.304,1.295-0.869,2.83-1.938,4.031H18.785z"/>
		</g>
		<g>
			<path fill="#333333" d="M53.216,71.574c-0.873-0.717-1.779-1.459-2.473-2.279c-0.116-0.141-0.289-0.217-0.466-0.217h-0.036
				c-0.181,0-0.353,0.076-0.47,0.217c-0.692,0.82-1.6,1.562-2.473,2.279c-1.852,1.514-3.763,3.082-3.763,5.508
				c0,2.201,1.538,3.74,3.745,3.74c1.065,0,1.994-0.629,2.625-1.201c-0.303,1.295-0.869,2.83-1.938,4.031h4.576
				c-1.07-1.205-1.636-2.74-1.939-4.037c0.631,0.576,1.562,1.207,2.63,1.207c2.203,0,3.744-1.539,3.744-3.74
				C56.979,74.66,55.064,73.092,53.216,71.574z"/>
			<path fill="#4D4D4D" d="M50.241,83.652V69.078l0,0c-0.181,0-0.353,0.076-0.47,0.217c-0.692,0.82-1.6,1.562-2.473,2.279
				c-1.852,1.514-3.763,3.082-3.763,5.508c0,2.201,1.538,3.74,3.745,3.74c1.065,0,1.994-0.629,2.625-1.201
				c-0.303,1.295-0.869,2.83-1.938,4.031H50.241z"/>
		</g>
		<rect x="2.722" y="2.721" fill="none" width="9.374" height="9.762"/>
		<text transform="matrix(1 0 0 1 4.6167 10.4497)" fill="#333333" font-family="'ChunkFive'" font-size="10.8856">7</text>
		<rect x="57.027" y="91.201" fill="none" width="9.374" height="9.762"/>
		<text transform="matrix(-1 0 0 -1 64.5068 93.2344)" fill="#333333" font-family="'ChunkFive'" font-size="10.8856">7</text>
	</g>
	<g>
		<path fill="#333333" d="M37.52,33.619c-0.873-0.717-1.779-1.458-2.472-2.279c-0.117-0.14-0.289-0.217-0.467-0.217h-0.036
			c-0.181,0-0.353,0.077-0.47,0.217c-0.692,0.821-1.599,1.562-2.473,2.279c-1.851,1.514-3.763,3.082-3.763,5.509
			c0,2.201,1.539,3.739,3.745,3.739c1.065,0,1.994-0.628,2.626-1.201c-0.304,1.296-0.869,2.83-1.938,4.032h4.575
			c-1.069-1.205-1.636-2.741-1.938-4.038c0.63,0.576,1.561,1.207,2.629,1.207c2.203,0,3.745-1.538,3.745-3.739
			C41.283,36.705,39.368,35.137,37.52,33.619z"/>
		<path fill="#4D4D4D" d="M34.546,45.698V31.123h-0.001c-0.181,0-0.353,0.077-0.47,0.217c-0.692,0.821-1.599,1.562-2.473,2.279
			c-1.851,1.514-3.763,3.082-3.763,5.509c0,2.201,1.539,3.739,3.745,3.739c1.065,0,1.994-0.628,2.626-1.201
			c-0.304,1.296-0.869,2.83-1.938,4.032H34.546z"/>
	</g>
</g>
</svg>
