<?xml version="1.0" encoding="utf-8"?>
<!-- Generator: Adobe Illustrator 16.0.0, SVG Export Plug-In . SVG Version: 6.00 Build 0)  -->
<!DOCTYPE svg PUBLIC "-//W3C//DTD SVG 1.1//EN" "http://www.w3.org/Graphics/SVG/1.1/DTD/svg11.dtd">
<svg version="1.1" id="Layer_1" xmlns="http://www.w3.org/2000/svg" xmlns:xlink="http://www.w3.org/1999/xlink" x="0px" y="0px"
	 width="69.12px" height="103.69px" viewBox="0 0 69.12 103.69" enable-background="new 0 0 69.12 103.69" xml:space="preserve">
<g>
	<g>
		<path fill="#F2F2F2" d="M69.123,100.963c0,1.504-1.219,2.721-2.722,2.721H2.722c-1.503,0-2.722-1.217-2.722-2.721V2.722
			C0,1.219,1.219,0,2.722,0h63.68c1.503,0,2.722,1.219,2.722,2.722V100.963z"/>
		<g>
			<polygon fill="#7A2B2B" points="18.817,34.486 13.547,27.318 18.817,20.15 24.087,27.318 			"/>
			<polygon fill="#943434" points="18.801,20.173 13.547,27.318 18.801,34.464 			"/>
		</g>
		<g>
			<polygon fill="#7A2B2B" points="50.273,34.486 45.003,27.318 50.273,20.15 55.544,27.318 			"/>
			<polygon fill="#943434" points="50.257,20.173 45.003,27.318 50.257,34.464 			"/>
		</g>
		<g>
			<polygon fill="#7A2B2B" points="18.817,59.01 13.547,51.842 18.817,44.674 24.087,51.842 			"/>
			<polygon fill="#943434" points="18.801,44.697 13.547,51.842 18.801,58.988 			"/>
		</g>
		<g>
			<polygon fill="#7A2B2B" points="50.273,59.01 45.003,51.842 50.273,44.674 55.544,51.842 			"/>
			<polygon fill="#943434" points="50.257,44.697 45.003,51.842 50.257,58.988 			"/>
		</g>
		<g>
			<polygon fill="#7A2B2B" points="18.817,83.535 13.547,76.365 18.817,69.197 24.087,76.365 			"/>
			<polygon fill="#943434" points="18.801,69.221 13.547,76.365 18.801,83.512 			"/>
		</g>
		<g>
			<polygon fill="#7A2B2B" points="50.273,83.535 45.003,76.365 50.273,69.197 55.544,76.365 			"/>
			<polygon fill="#943434" points="50.257,69.221 45.003,76.365 50.257,83.512 			"/>
		</g>
		<rect x="2.721" y="2.722" fill="none" width="9.374" height="9.761"/>
		<text transform="matrix(1 0 0 1 4.6162 10.4507)" fill="#7A2B2B" font-family="'ChunkFive'" font-size="10.8856">8</text>
		<rect x="57.026" y="91.201" fill="none" width="9.375" height="9.762"/>
		<text transform="matrix(-1 0 0 -1 64.5059 93.2344)" fill="#7A2B2B" font-family="'ChunkFive'" font-size="10.8856">8</text>
		<g>
			<polygon fill="#7A2B2B" points="61.715,83.533 64.504,87.328 61.715,91.121 58.925,87.328 			"/>
			<polygon fill="#943434" points="61.723,91.109 64.504,87.328 61.723,83.545 			"/>
		</g>
		<g>
			<polygon fill="#7A2B2B" points="7.407,19.972 4.618,16.177 7.407,12.383 10.197,16.177 			"/>
			<polygon fill="#943434" points="7.398,12.395 4.618,16.177 7.398,19.96 			"/>
		</g>
	</g>
	<g>
		<polygon fill="#7A2B2B" points="34.562,45.579 29.291,38.411 34.562,31.243 39.832,38.411 		"/>
		<polygon fill="#943434" points="34.546,31.266 29.291,38.411 34.546,45.557 		"/>
	</g>
	<g>
		<polygon fill="#7A2B2B" points="34.562,71.611 29.291,64.443 34.562,57.275 39.832,64.443 		"/>
		<polygon fill="#943434" points="34.546,57.297 29.291,64.443 34.546,71.588 		"/>
	</g>
</g>
</svg>
