<?xml version="1.0" encoding="utf-8"?>
<!-- Generator: Adobe Illustrator 16.0.0, SVG Export Plug-In . SVG Version: 6.00 Build 0)  -->
<!DOCTYPE svg PUBLIC "-//W3C//DTD SVG 1.1//EN" "http://www.w3.org/Graphics/SVG/1.1/DTD/svg11.dtd">
<svg version="1.1" id="Layer_1" xmlns="http://www.w3.org/2000/svg" xmlns:xlink="http://www.w3.org/1999/xlink" x="0px" y="0px"
	 width="69.12px" height="103.69px" viewBox="0 0 69.12 103.69" enable-background="new 0 0 69.12 103.69" xml:space="preserve">
<g>
	<path fill="#F2F2F2" d="M69.123,100.963c0,1.504-1.219,2.721-2.721,2.721H2.722c-1.502,0-2.722-1.217-2.722-2.721V2.722
		C0,1.219,1.22,0,2.722,0h63.681c1.502,0,2.721,1.219,2.721,2.722V100.963z"/>
	<g>
		<g>
			<polygon fill="#7A2B2B" points="18.817,29.675 13.547,22.506 18.817,15.338 24.088,22.506 			"/>
			<polygon fill="#943434" points="18.801,15.36 13.547,22.506 18.801,29.652 			"/>
		</g>
		<g>
			<polygon fill="#7A2B2B" points="50.274,29.675 45.004,22.506 50.274,15.338 55.544,22.506 			"/>
			<polygon fill="#943434" points="50.258,15.36 45.004,22.506 50.258,29.652 			"/>
		</g>
	</g>
	<g>
		<g>
			<polygon fill="#7A2B2B" points="18.817,49.202 13.547,42.034 18.817,34.866 24.088,42.034 			"/>
			<polygon fill="#943434" points="18.801,34.889 13.547,42.034 18.801,49.18 			"/>
		</g>
		<g>
			<polygon fill="#7A2B2B" points="50.274,49.202 45.004,42.034 50.274,34.866 55.544,42.034 			"/>
			<polygon fill="#943434" points="50.258,34.889 45.004,42.034 50.258,49.18 			"/>
		</g>
	</g>
	<g>
		<g>
			<polygon fill="#7A2B2B" points="18.817,68.73 13.547,61.561 18.817,54.394 24.088,61.561 			"/>
			<polygon fill="#943434" points="18.801,54.417 13.547,61.561 18.801,68.707 			"/>
		</g>
		<g>
			<polygon fill="#7A2B2B" points="50.274,68.73 45.004,61.561 50.274,54.394 55.544,61.561 			"/>
			<polygon fill="#943434" points="50.258,54.417 45.004,61.561 50.258,68.707 			"/>
		</g>
	</g>
	<g>
		<g>
			<polygon fill="#7A2B2B" points="18.817,88.258 13.547,81.09 18.817,73.922 24.088,81.09 			"/>
			<polygon fill="#943434" points="18.801,73.943 13.547,81.09 18.801,88.234 			"/>
		</g>
		<g>
			<polygon fill="#7A2B2B" points="50.274,88.258 45.004,81.09 50.274,73.922 55.544,81.09 			"/>
			<polygon fill="#943434" points="50.258,73.943 45.004,81.09 50.258,88.234 			"/>
		</g>
	</g>
	<rect x="2.722" y="2.722" fill="none" width="9.374" height="9.761"/>
	<text transform="matrix(1 0 0 1 4.6162 10.4507)" fill="#7A2B2B" font-family="'ChunkFive'" font-size="10.8856">9</text>
	<rect x="57.027" y="91.201" fill="none" width="9.375" height="9.762"/>
	<text transform="matrix(-1 0 0 -1 64.5078 93.2344)" fill="#7A2B2B" font-family="'ChunkFive'" font-size="10.8856">9</text>
	<g>
		<polygon fill="#7A2B2B" points="61.715,83.533 64.505,87.328 61.715,91.121 58.925,87.328 		"/>
		<polygon fill="#943434" points="61.724,91.109 64.505,87.328 61.724,83.545 		"/>
	</g>
	<g>
		<polygon fill="#7A2B2B" points="7.408,19.972 4.618,16.177 7.408,12.383 10.197,16.177 		"/>
		<polygon fill="#943434" points="7.399,12.395 4.618,16.177 7.399,19.96 		"/>
	</g>
	<g>
		<polygon fill="#7A2B2B" points="34.562,59.01 29.292,51.842 34.562,44.674 39.832,51.842 		"/>
		<polygon fill="#943434" points="34.546,44.697 29.292,51.842 34.546,58.986 		"/>
	</g>
</g>
</svg>
