<?xml version="1.0" encoding="utf-8"?>
<!-- Generator: Adobe Illustrator 16.0.0, SVG Export Plug-In . SVG Version: 6.00 Build 0)  -->
<!DOCTYPE svg PUBLIC "-//W3C//DTD SVG 1.1//EN" "http://www.w3.org/Graphics/SVG/1.1/DTD/svg11.dtd">
<svg version="1.1" id="Layer_1" xmlns="http://www.w3.org/2000/svg" xmlns:xlink="http://www.w3.org/1999/xlink" x="0px" y="0px"
	 width="69.12px" height="103.69px" viewBox="0 0 69.12 103.69" enable-background="new 0 0 69.12 103.69" xml:space="preserve">
<g>
	<path fill="#F2F2F2" d="M69.123,100.963c0,1.504-1.219,2.721-2.722,2.721H2.722c-1.503,0-2.722-1.217-2.722-2.721V2.722
		C0,1.219,1.219,0,2.722,0h63.68c1.503,0,2.722,1.219,2.722,2.722V100.963z"/>
	<g>
		<g>
			<g>
				<g>
					<path fill="#7A2B2B" d="M50.29,29.513l-1.079-1.076c-4.008-3.543-6.626-5.932-6.626-8.863c0-2.384,1.852-4.235,4.235-4.235
						c1.315,0,2.623,1.401,3.47,2.401c0.847-1,2.155-2.401,3.469-2.401c2.385,0,4.235,1.852,4.235,4.235
						c0,2.932-2.618,5.32-6.624,8.863L50.29,29.513z M50.29,29.513"/>
					<path fill="#943434" d="M50.273,17.729c-0.848-0.999-2.146-2.382-3.453-2.382c-2.384,0-4.235,1.851-4.235,4.235
						c0,2.931,2.618,5.318,6.626,8.862l1.062,1.06V17.729z"/>
				</g>
			</g>
			<g>
				<g>
					<path fill="#7A2B2B" d="M18.833,29.513l-1.079-1.076c-4.007-3.543-6.625-5.932-6.625-8.863c0-2.384,1.851-4.235,4.235-4.235
						c1.314,0,2.623,1.401,3.469,2.401c0.848-1,2.156-2.401,3.469-2.401c2.385,0,4.236,1.852,4.236,4.235
						c0,2.932-2.618,5.32-6.625,8.863L18.833,29.513z M18.833,29.513"/>
					<path fill="#943434" d="M18.817,17.729c-0.848-0.999-2.147-2.382-3.453-2.382c-2.385,0-4.235,1.851-4.235,4.235
						c0,2.931,2.618,5.318,6.625,8.862l1.063,1.06V17.729z"/>
				</g>
			</g>
		</g>
		<g>
			<g>
				<g>
					<path fill="#7A2B2B" d="M50.29,49.121l-1.079-1.076c-4.008-3.543-6.626-5.932-6.626-8.862c0-2.384,1.852-4.235,4.235-4.235
						c1.315,0,2.623,1.401,3.47,2.401c0.847-1,2.155-2.401,3.469-2.401c2.385,0,4.235,1.852,4.235,4.235
						c0,2.931-2.618,5.319-6.624,8.862L50.29,49.121z M50.29,49.121"/>
					<path fill="#943434" d="M50.273,37.338c-0.848-0.999-2.146-2.382-3.453-2.382c-2.384,0-4.235,1.851-4.235,4.234
						c0,2.931,2.618,5.319,6.626,8.863l1.062,1.06V37.338z"/>
				</g>
			</g>
			<g>
				<g>
					<path fill="#7A2B2B" d="M18.833,49.121l-1.079-1.076c-4.007-3.543-6.625-5.932-6.625-8.862c0-2.384,1.851-4.235,4.235-4.235
						c1.314,0,2.623,1.401,3.469,2.401c0.848-1,2.156-2.401,3.469-2.401c2.385,0,4.236,1.852,4.236,4.235
						c0,2.931-2.618,5.319-6.625,8.862L18.833,49.121z M18.833,49.121"/>
					<path fill="#943434" d="M18.817,37.338c-0.848-0.999-2.147-2.382-3.453-2.382c-2.385,0-4.235,1.851-4.235,4.234
						c0,2.931,2.618,5.319,6.625,8.863l1.063,1.06V37.338z"/>
				</g>
			</g>
		</g>
		<g>
			<g>
				<g>
					<path fill="#7A2B2B" d="M18.833,68.73l-1.079-1.076c-4.007-3.543-6.625-5.932-6.625-8.863c0-2.385,1.851-4.235,4.235-4.235
						c1.314,0,2.623,1.401,3.469,2.401c0.848-1,2.156-2.401,3.469-2.401c2.385,0,4.236,1.851,4.236,4.235
						c0,2.932-2.618,5.32-6.625,8.863L18.833,68.73z M18.833,68.73"/>
					<path fill="#943434" d="M18.817,56.945c-0.848-0.998-2.147-2.381-3.453-2.381c-2.385,0-4.235,1.85-4.235,4.234
						c0,2.932,2.618,5.318,6.625,8.863l1.063,1.059V56.945z"/>
				</g>
			</g>
			<g>
				<g>
					<path fill="#7A2B2B" d="M50.29,68.73l-1.079-1.076c-4.008-3.543-6.626-5.932-6.626-8.863c0-2.385,1.852-4.235,4.235-4.235
						c1.315,0,2.623,1.401,3.47,2.401c0.847-1,2.155-2.401,3.469-2.401c2.385,0,4.235,1.851,4.235,4.235
						c0,2.932-2.618,5.32-6.624,8.863L50.29,68.73z M50.29,68.73"/>
					<path fill="#943434" d="M50.273,56.945c-0.848-0.998-2.146-2.381-3.453-2.381c-2.384,0-4.235,1.85-4.235,4.234
						c0,2.932,2.618,5.318,6.626,8.863l1.062,1.059V56.945z"/>
				</g>
			</g>
		</g>
		<g>
			<g>
				<g>
					<path fill="#7A2B2B" d="M18.833,88.346l-1.079-1.074c-4.007-3.545-6.625-5.934-6.625-8.863c0-2.385,1.851-4.236,4.235-4.236
						c1.314,0,2.623,1.402,3.469,2.402c0.848-1,2.156-2.402,3.469-2.402c2.385,0,4.236,1.852,4.236,4.236
						c0,2.93-2.618,5.318-6.625,8.863L18.833,88.346z M18.833,88.346"/>
					<path fill="#943434" d="M18.817,76.562c-0.848-0.998-2.147-2.381-3.453-2.381c-2.385,0-4.235,1.85-4.235,4.234
						c0,2.932,2.618,5.318,6.625,8.863l1.063,1.059V76.562z"/>
				</g>
			</g>
			<g>
				<g>
					<path fill="#7A2B2B" d="M50.29,88.346l-1.079-1.074c-4.008-3.545-6.626-5.934-6.626-8.863c0-2.385,1.852-4.236,4.235-4.236
						c1.315,0,2.623,1.402,3.47,2.402c0.847-1,2.155-2.402,3.469-2.402c2.385,0,4.235,1.852,4.235,4.236
						c0,2.93-2.618,5.318-6.624,8.863L50.29,88.346z M50.29,88.346"/>
					<path fill="#943434" d="M50.273,76.562c-0.848-0.998-2.146-2.381-3.453-2.381c-2.384,0-4.235,1.85-4.235,4.234
						c0,2.932,2.618,5.318,6.626,8.863l1.062,1.059V76.562z"/>
				</g>
			</g>
		</g>
	</g>
	<rect x="2.722" y="2.722" fill="none" width="9.374" height="9.761"/>
	<text transform="matrix(1 0 0 1 4.6157 10.4507)" fill="#7A2B2B" font-family="'ChunkFive'" font-size="10.8856">9</text>
	<rect x="57.027" y="91.201" fill="none" width="9.374" height="9.762"/>
	<text transform="matrix(-1 0 0 -1 64.5068 93.2344)" fill="#7A2B2B" font-family="'ChunkFive'" font-size="10.8856">9</text>
	<g>
		<path fill="#7A2B2B" d="M7.417,19.962L6.84,19.386c-2.144-1.896-3.545-3.174-3.545-4.741c0-1.275,0.99-2.267,2.266-2.267
			c0.704,0,1.404,0.75,1.856,1.285c0.453-0.535,1.153-1.285,1.856-1.285c1.275,0,2.266,0.991,2.266,2.267
			c0,1.567-1.4,2.846-3.545,4.741L7.417,19.962z M7.417,19.962"/>
		<path fill="#943434" d="M7.408,13.657c-0.453-0.534-1.148-1.274-1.848-1.274c-1.275,0-2.266,0.99-2.266,2.266
			c0,1.568,1.401,2.847,3.545,4.742l0.568,0.567V13.657z"/>
	</g>
	<g>
		<path fill="#7A2B2B" d="M61.706,83.723l0.578,0.576c2.144,1.895,3.545,3.174,3.545,4.742c0,1.275-0.99,2.266-2.267,2.266
			c-0.703,0-1.403-0.75-1.856-1.285c-0.453,0.535-1.153,1.285-1.855,1.285c-1.276,0-2.267-0.99-2.267-2.266
			c0-1.568,1.4-2.848,3.545-4.742L61.706,83.723z M61.706,83.723"/>
		<path fill="#943434" d="M61.715,90.027c0.454,0.535,1.148,1.275,1.848,1.275c1.276,0,2.267-0.99,2.267-2.266
			c0-1.568-1.401-2.848-3.545-4.742l-0.569-0.568V90.027z"/>
	</g>
	<g>
		<g>
			<path fill="#7A2B2B" d="M34.562,58.93l-1.079-1.076c-4.007-3.543-6.626-5.932-6.626-8.863c0-2.384,1.852-4.235,4.235-4.235
				c1.315,0,2.623,1.401,3.47,2.401c0.847-1,2.155-2.401,3.469-2.401c2.385,0,4.236,1.852,4.236,4.235
				c0,2.932-2.618,5.32-6.625,8.863L34.562,58.93z M34.562,58.93"/>
			<path fill="#943434" d="M34.546,47.146c-0.849-0.999-2.147-2.382-3.454-2.382c-2.384,0-4.235,1.851-4.235,4.235
				c0,2.931,2.619,5.318,6.626,8.862l1.063,1.059V47.146z"/>
		</g>
	</g>
</g>
</svg>
