<?xml version="1.0" encoding="utf-8"?>
<!-- Generator: Adobe Illustrator 16.0.0, SVG Export Plug-In . SVG Version: 6.00 Build 0)  -->
<!DOCTYPE svg PUBLIC "-//W3C//DTD SVG 1.1//EN" "http://www.w3.org/Graphics/SVG/1.1/DTD/svg11.dtd">
<svg version="1.1" id="Layer_1" xmlns="http://www.w3.org/2000/svg" xmlns:xlink="http://www.w3.org/1999/xlink" x="0px" y="0px"
	 width="69.12px" height="103.69px" viewBox="0 0 69.12 103.69" enable-background="new 0 0 69.12 103.69" xml:space="preserve">
<g>
	<path fill="#F2F2F2" d="M69.123,100.963c0,1.504-1.218,2.721-2.722,2.721H2.722c-1.503,0-2.722-1.217-2.722-2.721V2.722
		C0,1.219,1.219,0,2.722,0h63.68c1.504,0,2.722,1.219,2.722,2.722V100.963z"/>
	<g>
		<path fill="#333333" d="M8.94,13.775c-0.452-0.371-0.921-0.755-1.28-1.181c-0.061-0.072-0.149-0.112-0.241-0.112H7.4
			c-0.094,0-0.183,0.04-0.243,0.112c-0.359,0.426-0.829,0.81-1.281,1.181c-0.959,0.784-1.948,1.597-1.948,2.854
			c0,1.141,0.796,1.937,1.939,1.937c0.552,0,1.032-0.325,1.359-0.622c-0.156,0.672-0.45,1.466-1.004,2.089h2.37
			c-0.554-0.624-0.848-1.42-1.004-2.092c0.326,0.298,0.809,0.625,1.361,0.625c1.142,0,1.939-0.796,1.939-1.937
			C10.89,15.374,9.898,14.562,8.94,13.775z"/>
		<path fill="#4D4D4D" d="M7.4,20.032v-7.55l0,0c-0.094,0-0.183,0.04-0.243,0.112c-0.359,0.426-0.829,0.81-1.281,1.181
			c-0.959,0.784-1.948,1.597-1.948,2.854c0,1.141,0.796,1.937,1.939,1.937c0.552,0,1.032-0.325,1.359-0.622
			c-0.156,0.672-0.45,1.466-1.004,2.089H7.4z"/>
	</g>
	<g>
		<path fill="#333333" d="M60.183,89.91c0.452,0.371,0.922,0.754,1.28,1.18c0.061,0.072,0.149,0.111,0.241,0.111h0.02
			c0.093,0,0.183-0.039,0.243-0.111c0.358-0.426,0.828-0.809,1.28-1.18c0.959-0.785,1.949-1.598,1.949-2.854
			c0-1.141-0.797-1.938-1.939-1.938c-0.552,0-1.033,0.324-1.36,0.623c0.157-0.672,0.45-1.467,1.004-2.09h-2.37
			c0.555,0.625,0.848,1.42,1.005,2.092c-0.327-0.299-0.809-0.625-1.362-0.625c-1.141,0-1.939,0.797-1.939,1.938
			C58.233,88.311,59.226,89.123,60.183,89.91z"/>
		<path fill="#4D4D4D" d="M61.724,83.652v7.549l0,0c0.093,0,0.183-0.039,0.243-0.111c0.358-0.426,0.828-0.809,1.28-1.18
			c0.959-0.785,1.949-1.598,1.949-2.854c0-1.141-0.797-1.938-1.939-1.938c-0.552,0-1.033,0.324-1.36,0.623
			c0.157-0.672,0.45-1.467,1.004-2.09H61.724z"/>
	</g>
	<g>
		<g>
			<path fill="#333333" d="M21.759,17.834c-0.873-0.717-1.779-1.458-2.472-2.279c-0.117-0.14-0.289-0.217-0.467-0.217h-0.036
				c-0.18,0-0.353,0.077-0.47,0.217c-0.692,0.821-1.599,1.562-2.473,2.279c-1.851,1.514-3.762,3.083-3.762,5.509
				c0,2.201,1.538,3.739,3.744,3.739c1.065,0,1.994-0.628,2.626-1.201c-0.304,1.296-0.869,2.83-1.938,4.032h4.575
				c-1.069-1.205-1.636-2.741-1.938-4.038c0.63,0.576,1.561,1.207,2.629,1.207c2.203,0,3.745-1.538,3.745-3.739
				C25.522,20.92,23.607,19.352,21.759,17.834z"/>
			<path fill="#4D4D4D" d="M18.785,29.913V15.338h-0.001c-0.18,0-0.353,0.077-0.47,0.217c-0.692,0.821-1.599,1.562-2.473,2.279
				c-1.851,1.514-3.762,3.083-3.762,5.509c0,2.201,1.538,3.739,3.744,3.739c1.065,0,1.994-0.628,2.626-1.201
				c-0.304,1.296-0.869,2.83-1.938,4.032H18.785z"/>
		</g>
		<g>
			<path fill="#333333" d="M53.216,17.834c-0.873-0.717-1.779-1.458-2.473-2.279c-0.116-0.14-0.289-0.217-0.466-0.217h-0.036
				c-0.181,0-0.353,0.077-0.47,0.217c-0.692,0.821-1.6,1.562-2.473,2.279c-1.852,1.514-3.763,3.083-3.763,5.509
				c0,2.201,1.538,3.739,3.745,3.739c1.065,0,1.994-0.628,2.625-1.201c-0.303,1.296-0.869,2.83-1.938,4.032h4.576
				c-1.07-1.205-1.636-2.741-1.939-4.038c0.631,0.576,1.562,1.207,2.63,1.207c2.203,0,3.744-1.538,3.744-3.739
				C56.979,20.92,55.064,19.352,53.216,17.834z"/>
			<path fill="#4D4D4D" d="M50.241,29.913V15.338l0,0c-0.181,0-0.353,0.077-0.47,0.217c-0.692,0.821-1.6,1.562-2.473,2.279
				c-1.852,1.514-3.763,3.083-3.763,5.509c0,2.201,1.538,3.739,3.745,3.739c1.065,0,1.994-0.628,2.625-1.201
				c-0.303,1.296-0.869,2.83-1.938,4.032H50.241z"/>
		</g>
	</g>
	<g>
		<g>
			<path fill="#333333" d="M21.759,37.034c-0.873-0.717-1.779-1.458-2.472-2.279c-0.117-0.14-0.289-0.216-0.467-0.216h-0.036
				c-0.18,0-0.353,0.076-0.47,0.216c-0.692,0.821-1.599,1.562-2.473,2.279c-1.851,1.514-3.762,3.083-3.762,5.509
				c0,2.202,1.538,3.739,3.744,3.739c1.065,0,1.994-0.627,2.626-1.201c-0.304,1.296-0.869,2.83-1.938,4.032h4.575
				c-1.069-1.205-1.636-2.74-1.938-4.037c0.63,0.575,1.561,1.206,2.629,1.206c2.203,0,3.745-1.537,3.745-3.739
				C25.522,40.12,23.607,38.552,21.759,37.034z"/>
			<path fill="#4D4D4D" d="M18.785,49.113V34.539h-0.001c-0.18,0-0.353,0.076-0.47,0.216c-0.692,0.821-1.599,1.562-2.473,2.279
				c-1.851,1.514-3.762,3.083-3.762,5.509c0,2.202,1.538,3.739,3.744,3.739c1.065,0,1.994-0.627,2.626-1.201
				c-0.304,1.296-0.869,2.83-1.938,4.032H18.785z"/>
		</g>
		<g>
			<path fill="#333333" d="M53.216,37.034c-0.873-0.717-1.779-1.458-2.473-2.279c-0.116-0.14-0.289-0.216-0.466-0.216h-0.036
				c-0.181,0-0.353,0.076-0.47,0.216c-0.692,0.821-1.6,1.562-2.473,2.279c-1.852,1.514-3.763,3.083-3.763,5.509
				c0,2.202,1.538,3.739,3.745,3.739c1.065,0,1.994-0.627,2.625-1.201c-0.303,1.296-0.869,2.83-1.938,4.032h4.576
				c-1.07-1.205-1.636-2.74-1.939-4.037c0.631,0.575,1.562,1.206,2.63,1.206c2.203,0,3.744-1.537,3.744-3.739
				C56.979,40.12,55.064,38.552,53.216,37.034z"/>
			<path fill="#4D4D4D" d="M50.241,49.113V34.539l0,0c-0.181,0-0.353,0.076-0.47,0.216c-0.692,0.821-1.6,1.562-2.473,2.279
				c-1.852,1.514-3.763,3.083-3.763,5.509c0,2.202,1.538,3.739,3.745,3.739c1.065,0,1.994-0.627,2.625-1.201
				c-0.303,1.296-0.869,2.83-1.938,4.032H50.241z"/>
		</g>
	</g>
	<g>
		<g>
			<path fill="#333333" d="M21.759,56.234c-0.873-0.717-1.779-1.457-2.472-2.279c-0.117-0.139-0.289-0.216-0.467-0.216h-0.036
				c-0.18,0-0.353,0.077-0.47,0.216c-0.692,0.822-1.599,1.562-2.473,2.279c-1.851,1.514-3.762,3.082-3.762,5.51
				c0,2.201,1.538,3.738,3.744,3.738c1.065,0,1.994-0.627,2.626-1.201c-0.304,1.295-0.869,2.83-1.938,4.031h4.575
				c-1.069-1.203-1.636-2.74-1.938-4.037c0.63,0.576,1.561,1.207,2.629,1.207c2.203,0,3.745-1.537,3.745-3.738
				C25.522,59.32,23.607,57.752,21.759,56.234z"/>
			<path fill="#4D4D4D" d="M18.785,68.312V53.739h-0.001c-0.18,0-0.353,0.077-0.47,0.216c-0.692,0.822-1.599,1.562-2.473,2.279
				c-1.851,1.514-3.762,3.082-3.762,5.51c0,2.201,1.538,3.738,3.744,3.738c1.065,0,1.994-0.627,2.626-1.201
				c-0.304,1.295-0.869,2.83-1.938,4.031H18.785z"/>
		</g>
		<g>
			<path fill="#333333" d="M53.216,56.234c-0.873-0.717-1.779-1.457-2.473-2.279c-0.116-0.139-0.289-0.216-0.466-0.216h-0.036
				c-0.181,0-0.353,0.077-0.47,0.216c-0.692,0.822-1.6,1.562-2.473,2.279c-1.852,1.514-3.763,3.082-3.763,5.51
				c0,2.201,1.538,3.738,3.745,3.738c1.065,0,1.994-0.627,2.625-1.201c-0.303,1.295-0.869,2.83-1.938,4.031h4.576
				c-1.07-1.203-1.636-2.74-1.939-4.037c0.631,0.576,1.562,1.207,2.63,1.207c2.203,0,3.744-1.537,3.744-3.738
				C56.979,59.32,55.064,57.752,53.216,56.234z"/>
			<path fill="#4D4D4D" d="M50.241,68.312V53.739l0,0c-0.181,0-0.353,0.077-0.47,0.216c-0.692,0.822-1.6,1.562-2.473,2.279
				c-1.852,1.514-3.763,3.082-3.763,5.51c0,2.201,1.538,3.738,3.745,3.738c1.065,0,1.994-0.627,2.625-1.201
				c-0.303,1.295-0.869,2.83-1.938,4.031H50.241z"/>
		</g>
	</g>
	<g>
		<g>
			<path fill="#333333" d="M21.759,75.436c-0.873-0.719-1.779-1.459-2.472-2.279c-0.117-0.141-0.289-0.217-0.467-0.217h-0.036
				c-0.18,0-0.353,0.076-0.47,0.217c-0.692,0.82-1.599,1.561-2.473,2.279c-1.851,1.514-3.762,3.082-3.762,5.508
				c0,2.201,1.538,3.74,3.744,3.74c1.065,0,1.994-0.629,2.626-1.201c-0.304,1.295-0.869,2.828-1.938,4.031h4.575
				c-1.069-1.205-1.636-2.74-1.938-4.037c0.63,0.574,1.561,1.207,2.629,1.207c2.203,0,3.745-1.539,3.745-3.74
				C25.522,78.521,23.607,76.953,21.759,75.436z"/>
			<path fill="#4D4D4D" d="M18.785,87.514V72.939h-0.001c-0.18,0-0.353,0.076-0.47,0.217c-0.692,0.82-1.599,1.561-2.473,2.279
				c-1.851,1.514-3.762,3.082-3.762,5.508c0,2.201,1.538,3.74,3.744,3.74c1.065,0,1.994-0.629,2.626-1.201
				c-0.304,1.295-0.869,2.828-1.938,4.031H18.785z"/>
		</g>
		<g>
			<path fill="#333333" d="M53.216,75.436c-0.873-0.719-1.779-1.459-2.473-2.279c-0.116-0.141-0.289-0.217-0.466-0.217h-0.036
				c-0.181,0-0.353,0.076-0.47,0.217c-0.692,0.82-1.6,1.561-2.473,2.279c-1.852,1.514-3.763,3.082-3.763,5.508
				c0,2.201,1.538,3.74,3.745,3.74c1.065,0,1.994-0.629,2.625-1.201c-0.303,1.295-0.869,2.828-1.938,4.031h4.576
				c-1.07-1.205-1.636-2.74-1.939-4.037c0.631,0.574,1.562,1.207,2.63,1.207c2.203,0,3.744-1.539,3.744-3.74
				C56.979,78.521,55.064,76.953,53.216,75.436z"/>
			<path fill="#4D4D4D" d="M50.241,87.514V72.939l0,0c-0.181,0-0.353,0.076-0.47,0.217c-0.692,0.82-1.6,1.561-2.473,2.279
				c-1.852,1.514-3.763,3.082-3.763,5.508c0,2.201,1.538,3.74,3.745,3.74c1.065,0,1.994-0.629,2.625-1.201
				c-0.303,1.295-0.869,2.828-1.938,4.031H50.241z"/>
		</g>
	</g>
	<rect x="2.722" y="2.722" fill="none" width="9.374" height="9.761"/>
	<text transform="matrix(1 0 0 1 4.6167 10.4507)" fill="#333333" font-family="'ChunkFive'" font-size="10.8856">9</text>
	<rect x="57.027" y="91.201" fill="none" width="9.374" height="9.762"/>
	<text transform="matrix(-1 0 0 -1 64.5068 93.2344)" fill="#333333" font-family="'ChunkFive'" font-size="10.8856">9</text>
	<g>
		<path fill="#333333" d="M37.52,47.05c-0.873-0.716-1.779-1.457-2.472-2.278c-0.117-0.14-0.289-0.217-0.467-0.217h-0.036
			c-0.181,0-0.353,0.077-0.47,0.217c-0.692,0.821-1.599,1.562-2.473,2.278c-1.851,1.515-3.763,3.083-3.763,5.51
			c0,2.201,1.539,3.739,3.745,3.739c1.065,0,1.994-0.629,2.626-1.201c-0.304,1.295-0.869,2.83-1.938,4.031h4.575
			c-1.069-1.205-1.636-2.74-1.938-4.037c0.63,0.574,1.561,1.207,2.629,1.207c2.203,0,3.745-1.538,3.745-3.739
			C41.283,50.136,39.368,48.567,37.52,47.05z"/>
		<path fill="#4D4D4D" d="M34.546,59.129V44.555h-0.001c-0.181,0-0.353,0.077-0.47,0.217c-0.692,0.821-1.599,1.562-2.473,2.278
			c-1.851,1.515-3.763,3.083-3.763,5.51c0,2.201,1.539,3.739,3.745,3.739c1.065,0,1.994-0.629,2.626-1.201
			c-0.304,1.295-0.869,2.83-1.938,4.031H34.546z"/>
	</g>
</g>
</svg>
