<?xml version="1.0" encoding="utf-8"?>
<!-- Generator: Adobe Illustrator 16.0.0, SVG Export Plug-In . SVG Version: 6.00 Build 0)  -->
<!DOCTYPE svg PUBLIC "-//W3C//DTD SVG 1.1//EN" "http://www.w3.org/Graphics/SVG/1.1/DTD/svg11.dtd">
<svg version="1.1" id="Layer_1" xmlns="http://www.w3.org/2000/svg" xmlns:xlink="http://www.w3.org/1999/xlink" x="0px" y="0px"
	 width="69.12px" height="103.69px" viewBox="0 0 69.12 103.69" enable-background="new 0 0 69.12 103.69" xml:space="preserve">
<g>
	<path fill="#F2F2F2" d="M69.123,100.963c0,1.504-1.218,2.723-2.722,2.723H2.722c-1.503,0-2.722-1.219-2.722-2.723V2.723
		C0,1.219,1.219,0,2.722,0h63.68c1.504,0,2.722,1.219,2.722,2.723V100.963z"/>
	<g>
		<path fill="#333333" d="M54.159,54.379c0,6.105-5.481,9.523-10.835,8.727c-2.761-0.416-4.798-2.111-6.447-4.156
			c-1.561-1.924-1.95-0.684-1.735,0.576c0.992,5.824,3.646,9.127,8.585,10.676c0.496,0.16,2.573,0.629,0.677,0.629H24.729
			c-1.896,0,0.181-0.469,0.669-0.629c4.939-1.549,7.593-4.852,8.585-10.676c0.214-1.26-0.167-2.5-1.729-0.576
			c-1.655,2.045-3.685,3.74-6.454,4.156c-5.348,0.789-10.836-2.621-10.836-8.727v-0.006c0-4.383,3.539-9.254,8.149-8.92
			c0.316,0.027,2.499,0.496,3.178-0.168c0.983-0.957-0.391-1.668-0.491-3.846v-0.008c-0.146-5.193,3.42-7.967,7.405-8.469v0.006
			c0-0.006,0.866-0.113,1.253-0.113c0.71-0.008,1.273,0.1,1.468,0.113v-0.006c3.98,0.502,7.553,3.283,7.398,8.469v0.008
			c-0.101,2.178-1.468,2.889-0.489,3.846c0.677,0.664,2.867,0.188,3.176,0.168c4.611-0.334,8.148,4.537,8.148,8.92V54.379z"/>
		<path fill="#4D4D4D" d="M34.52,32.855c-0.021,0-0.041-0.002-0.062,0c-0.387,0-1.253,0.107-1.253,0.113v-0.006
			c-3.985,0.502-7.552,3.275-7.405,8.469v0.008c0.101,2.178,1.475,2.889,0.491,3.846c-0.679,0.664-2.861,0.195-3.178,0.168
			c-4.61-0.334-8.149,4.537-8.149,8.92v0.006c0,6.105,5.488,9.516,10.836,8.725c2.77-0.416,4.799-2.111,6.454-4.154
			c1.562-1.924,1.942-0.684,1.729,0.576c-0.992,5.824-3.646,9.127-8.585,10.676c-0.488,0.16-2.565,0.629-0.669,0.629h9.791V32.855z"
			/>
	</g>
	<rect x="2.722" y="2.723" fill="none" width="9.374" height="9.76"/>
	<text transform="matrix(1 0 0 1 4.0776 10.4492)" fill="#333333" font-family="'ChunkFive'" font-size="10.8856">A</text>
	<rect x="57.027" y="91.201" fill="none" width="9.374" height="9.762"/>
	<text transform="matrix(-1 0 0 -1 65.0449 93.2344)" fill="#333333" font-family="'ChunkFive'" font-size="10.8856">A</text>
	<g>
		<path fill="#333333" d="M57.786,86.924c0-1.213,1.089-1.893,2.153-1.734c0.549,0.082,0.954,0.42,1.281,0.826
			c0.311,0.381,0.388,0.135,0.346-0.115c-0.197-1.158-0.725-1.814-1.707-2.121c-0.098-0.033-0.511-0.127-0.134-0.127h3.91
			c0.377,0-0.036,0.094-0.133,0.127c-0.982,0.307-1.509,0.963-1.706,2.121c-0.043,0.25,0.033,0.496,0.344,0.115
			c0.329-0.406,0.731-0.744,1.282-0.826c1.063-0.158,2.154,0.521,2.154,1.734l0,0c0,0.873-0.704,1.84-1.62,1.773
			c-0.062-0.006-0.497-0.098-0.632,0.033c-0.195,0.191,0.077,0.332,0.098,0.766l0,0c0.029,1.033-0.68,1.584-1.472,1.684l0,0
			c0,0-0.172,0.023-0.249,0.023c-0.142,0-0.253-0.021-0.292-0.023l0,0c-0.791-0.1-1.501-0.652-1.471-1.684l0,0
			c0.021-0.434,0.292-0.574,0.098-0.766c-0.135-0.131-0.57-0.037-0.632-0.033C58.489,88.764,57.786,87.797,57.786,86.924
			L57.786,86.924z"/>
		<path fill="#4D4D4D" d="M61.689,91.203c0.005,0,0.008,0,0.013,0c0.077,0,0.249-0.023,0.249-0.023l0,0
			c0.792-0.1,1.501-0.65,1.472-1.684l0,0c-0.021-0.434-0.293-0.574-0.098-0.766c0.135-0.131,0.569-0.039,0.632-0.033
			c0.916,0.066,1.62-0.9,1.62-1.773l0,0c0-1.213-1.091-1.893-2.154-1.734c-0.551,0.082-0.953,0.42-1.282,0.826
			c-0.311,0.381-0.387,0.135-0.344-0.115c0.197-1.158,0.724-1.814,1.706-2.121c0.097-0.033,0.51-0.127,0.133-0.127h-1.946V91.203z"
			/>
	</g>
	<g>
		<path fill="#333333" d="M11.253,16.762c0,1.213-1.09,1.893-2.154,1.734c-0.549-0.082-0.953-0.42-1.281-0.826
			c-0.311-0.383-0.388-0.137-0.345,0.115c0.197,1.156,0.724,1.814,1.706,2.121c0.099,0.031,0.512,0.125,0.135,0.125H5.402
			c-0.377,0,0.036-0.094,0.133-0.125c0.982-0.307,1.51-0.965,1.707-2.121c0.042-0.252-0.033-0.498-0.344-0.115
			c-0.329,0.406-0.732,0.744-1.283,0.826c-1.062,0.156-2.153-0.521-2.153-1.734V16.76c0-0.871,0.703-1.84,1.619-1.773
			c0.063,0.006,0.497,0.1,0.632-0.033c0.195-0.189-0.077-0.33-0.098-0.764v-0.002c-0.029-1.031,0.68-1.584,1.473-1.684v0.002
			c0-0.002,0.172-0.023,0.248-0.023c0.142-0.002,0.254,0.02,0.292,0.023v-0.002c0.792,0.1,1.502,0.652,1.471,1.684v0.002
			c-0.021,0.434-0.292,0.574-0.097,0.764c0.134,0.133,0.57,0.039,0.631,0.033c0.916-0.066,1.62,0.902,1.62,1.773V16.762z"/>
		<path fill="#4D4D4D" d="M7.349,12.482c-0.004,0-0.008,0-0.013,0c-0.076,0-0.248,0.021-0.248,0.023v-0.002
			c-0.793,0.1-1.502,0.652-1.473,1.684v0.002c0.021,0.434,0.293,0.574,0.098,0.764c-0.135,0.133-0.568,0.039-0.632,0.033
			c-0.916-0.066-1.619,0.902-1.619,1.773v0.002c0,1.213,1.091,1.891,2.153,1.734c0.551-0.082,0.954-0.42,1.283-0.826
			c0.311-0.383,0.386-0.137,0.344,0.115c-0.197,1.156-0.725,1.814-1.707,2.121c-0.097,0.031-0.51,0.125-0.133,0.125h1.946V12.482z"
			/>
	</g>
</g>
</svg>
