<?xml version="1.0" encoding="utf-8"?>
<!-- Generator: Adobe Illustrator 16.0.0, SVG Export Plug-In . SVG Version: 6.00 Build 0)  -->
<!DOCTYPE svg PUBLIC "-//W3C//DTD SVG 1.1//EN" "http://www.w3.org/Graphics/SVG/1.1/DTD/svg11.dtd">
<svg version="1.1" id="Layer_1" xmlns="http://www.w3.org/2000/svg" xmlns:xlink="http://www.w3.org/1999/xlink" x="0px" y="0px"
	 width="69.12px" height="103.69px" viewBox="0 0 69.12 103.69" enable-background="new 0 0 69.12 103.69" xml:space="preserve">
<g>
	<path fill="#F2F2F2" d="M69.123,100.963c0,1.504-1.219,2.723-2.722,2.723H2.722c-1.503,0-2.722-1.219-2.722-2.723V2.723
		C0,1.219,1.219,0,2.722,0h63.68c1.503,0,2.722,1.219,2.722,2.723V100.963z"/>
	<g>
		<polygon fill="#7A2B2B" points="34.562,71.102 20.402,51.842 34.562,32.584 48.721,51.842 		"/>
		<polygon fill="#943434" points="34.518,32.645 20.402,51.842 34.518,71.041 		"/>
	</g>
	<g>
		<polygon fill="#7A2B2B" points="61.671,83.633 64.46,87.428 61.671,91.223 58.881,87.428 		"/>
		<polygon fill="#943434" points="61.68,91.211 64.46,87.428 61.68,83.645 		"/>
	</g>
	<rect x="2.722" y="2.723" fill="none" width="9.374" height="9.76"/>
	<text transform="matrix(1 0 0 1 4.0776 10.4492)" fill="#7A2B2B" font-family="'ChunkFive'" font-size="10.8856">A</text>
	<rect x="57.027" y="91.201" fill="none" width="9.374" height="9.762"/>
	<text transform="matrix(-1 0 0 -1 65.0459 93.2344)" fill="#7A2B2B" font-family="'ChunkFive'" font-size="10.8856">A</text>
	<g>
		<polygon fill="#7A2B2B" points="7.364,20.072 4.574,16.277 7.364,12.482 10.154,16.277 		"/>
		<polygon fill="#943434" points="7.355,12.494 4.574,16.277 7.355,20.061 		"/>
	</g>
</g>
</svg>
