<?xml version="1.0" encoding="utf-8"?>
<!-- Generator: Adobe Illustrator 16.0.0, SVG Export Plug-In . SVG Version: 6.00 Build 0)  -->
<!DOCTYPE svg PUBLIC "-//W3C//DTD SVG 1.1//EN" "http://www.w3.org/Graphics/SVG/1.1/DTD/svg11.dtd">
<svg version="1.1" id="Layer_1" xmlns="http://www.w3.org/2000/svg" xmlns:xlink="http://www.w3.org/1999/xlink" x="0px" y="0px"
	 width="69.12px" height="103.69px" viewBox="0 0 69.12 103.69" enable-background="new 0 0 69.12 103.69" xml:space="preserve">
<g>
	<path fill="#F2F2F2" d="M69.123,100.963c0,1.502-1.219,2.721-2.722,2.721H2.721c-1.503,0-2.721-1.219-2.721-2.721V2.721
		C0,1.219,1.218,0,2.721,0h63.681c1.503,0,2.722,1.219,2.722,2.721V100.963z"/>
	<g>
		<path fill="#7A2B2B" d="M34.561,69.322l-2.662-2.654c-9.883-8.74-16.34-14.631-16.34-21.861c0-5.879,4.564-10.445,10.445-10.445
			c3.242,0,6.469,3.455,8.557,5.924c2.089-2.469,5.317-5.924,8.556-5.924c5.882,0,10.447,4.566,10.447,10.445
			c0,7.23-6.457,13.121-16.34,21.861L34.561,69.322z M34.561,69.322"/>
		<path fill="#943434" d="M34.52,40.258c-2.089-2.465-5.294-5.877-8.516-5.877c-5.881,0-10.445,4.566-10.445,10.447
			c0,7.229,6.457,13.121,16.34,21.859l2.621,2.615V40.258z"/>
	</g>
	<g>
		<path fill="#7A2B2B" d="M7.372,19.875l-0.577-0.576c-2.144-1.896-3.545-3.174-3.545-4.742c0-1.275,0.99-2.266,2.266-2.266
			c0.704,0,1.404,0.75,1.856,1.285c0.453-0.535,1.154-1.285,1.856-1.285c1.275,0,2.266,0.99,2.266,2.266
			c0,1.568-1.4,2.846-3.544,4.742L7.372,19.875z M7.372,19.875"/>
		<path fill="#943434" d="M7.363,13.57c-0.453-0.535-1.147-1.275-1.848-1.275c-1.275,0-2.266,0.99-2.266,2.266
			c0,1.568,1.401,2.846,3.545,4.742l0.568,0.566V13.57z"/>
	</g>
	<g>
		<path fill="#7A2B2B" d="M61.662,83.635l0.577,0.576c2.144,1.896,3.545,3.174,3.545,4.742c0,1.275-0.99,2.266-2.266,2.266
			c-0.704,0-1.404-0.75-1.856-1.285c-0.453,0.535-1.154,1.285-1.856,1.285c-1.275,0-2.266-0.99-2.266-2.266
			c0-1.568,1.4-2.846,3.544-4.742L61.662,83.635z M61.662,83.635"/>
		<path fill="#943434" d="M61.671,89.939c0.453,0.535,1.147,1.275,1.848,1.275c1.275,0,2.266-0.99,2.266-2.266
			c0-1.568-1.401-2.848-3.545-4.742l-0.568-0.568V89.939z"/>
	</g>
	<rect x="2.721" y="2.721" fill="none" width="9.374" height="9.762"/>
	<text transform="matrix(1 0 0 1 4.0771 10.4492)" fill="#7A2B2B" font-family="'ChunkFive'" font-size="10.8856">A</text>
	<rect x="57.026" y="91.201" fill="none" width="9.374" height="9.762"/>
	<text transform="matrix(-1 0 0 -1 65.0439 93.2334)" fill="#7A2B2B" font-family="'ChunkFive'" font-size="10.8856">A</text>
</g>
</svg>
