<?xml version="1.0" encoding="utf-8"?>
<!-- Generator: Adobe Illustrator 16.0.0, SVG Export Plug-In . SVG Version: 6.00 Build 0)  -->
<!DOCTYPE svg PUBLIC "-//W3C//DTD SVG 1.1//EN" "http://www.w3.org/Graphics/SVG/1.1/DTD/svg11.dtd">
<svg version="1.1" id="Layer_1" xmlns="http://www.w3.org/2000/svg" xmlns:xlink="http://www.w3.org/1999/xlink" x="0px" y="0px"
	 width="69.12px" height="103.69px" viewBox="0 0 69.12 103.69" enable-background="new 0 0 69.12 103.69" xml:space="preserve">
<g>
	<path fill="#F2F2F2" d="M69.122,100.963c0,1.502-1.219,2.721-2.721,2.721H2.721c-1.503,0-2.721-1.219-2.721-2.721V2.721
		C0,1.219,1.218,0,2.721,0h63.681c1.502,0,2.721,1.219,2.721,2.721V100.963z"/>
	<g>
		<path fill="#333333" d="M42.226,39.355c-2.274-1.867-4.637-3.797-6.441-5.939c-0.305-0.361-0.754-0.562-1.216-0.562h-0.094
			c-0.469,0-0.918,0.201-1.224,0.562c-1.806,2.143-4.168,4.072-6.443,5.939c-4.822,3.945-9.804,8.033-9.804,14.355
			c0,5.736,4.008,9.744,9.758,9.744c2.775,0,5.196-1.635,6.841-3.129c-0.79,3.375-2.265,7.371-5.051,10.504h11.923
			c-2.787-3.139-4.262-7.141-5.053-10.52c1.644,1.5,4.068,3.145,6.852,3.145c5.74,0,9.759-4.008,9.759-9.744
			C52.032,47.396,47.043,43.309,42.226,39.355z"/>
		<path fill="#4D4D4D" d="M34.476,70.83V32.854h-0.001c-0.469,0-0.918,0.201-1.224,0.562c-1.806,2.143-4.168,4.072-6.443,5.939
			c-4.822,3.945-9.804,8.033-9.804,14.355c0,5.736,4.008,9.744,9.758,9.744c2.775,0,5.196-1.635,6.841-3.129
			c-0.79,3.375-2.265,7.371-5.051,10.504H34.476z"/>
	</g>
	<g>
		<path fill="#333333" d="M8.94,13.773c-0.452-0.371-0.922-0.754-1.28-1.18c-0.061-0.072-0.15-0.111-0.242-0.111H7.399
			c-0.094,0-0.183,0.039-0.243,0.111c-0.359,0.426-0.828,0.809-1.28,1.18c-0.959,0.785-1.949,1.598-1.949,2.855
			c0,1.139,0.797,1.936,1.939,1.936c0.552,0,1.033-0.324,1.36-0.621c-0.157,0.67-0.45,1.465-1.004,2.088h2.369
			c-0.554-0.625-0.847-1.42-1.004-2.092c0.326,0.299,0.809,0.625,1.361,0.625c1.142,0,1.94-0.797,1.94-1.936
			C10.89,15.373,9.897,14.561,8.94,13.773z"/>
		<path fill="#4D4D4D" d="M7.399,20.031v-7.549l0,0c-0.094,0-0.183,0.039-0.243,0.111c-0.359,0.426-0.828,0.809-1.28,1.18
			c-0.959,0.785-1.949,1.598-1.949,2.855c0,1.139,0.797,1.936,1.939,1.936c0.552,0,1.033-0.324,1.36-0.621
			c-0.157,0.67-0.45,1.465-1.004,2.088H7.399z"/>
	</g>
	<rect x="2.721" y="2.721" fill="none" width="9.374" height="9.762"/>
	<text transform="matrix(1 0 0 1 4.0771 10.4492)" fill="#333333" font-family="'ChunkFive'" font-size="10.8856">A</text>
	<g>
		<path fill="#333333" d="M60.182,89.908c0.452,0.371,0.922,0.756,1.28,1.182c0.061,0.072,0.149,0.111,0.241,0.111h0.019
			c0.094,0,0.184-0.039,0.244-0.111c0.358-0.426,0.828-0.811,1.28-1.182c0.959-0.783,1.949-1.596,1.949-2.854
			c0-1.141-0.797-1.936-1.939-1.936c-0.552,0-1.033,0.324-1.36,0.621c0.157-0.672,0.45-1.465,1.004-2.088h-2.37
			c0.555,0.623,0.848,1.42,1.005,2.092c-0.327-0.299-0.81-0.625-1.362-0.625c-1.141,0-1.939,0.795-1.939,1.936
			C58.232,88.311,59.224,89.123,60.182,89.908z"/>
		<path fill="#4D4D4D" d="M61.722,83.652v7.549l0,0c0.094,0,0.184-0.039,0.244-0.111c0.358-0.426,0.828-0.811,1.28-1.182
			c0.959-0.783,1.949-1.596,1.949-2.854c0-1.141-0.797-1.936-1.939-1.936c-0.552,0-1.033,0.324-1.36,0.621
			c0.157-0.672,0.45-1.465,1.004-2.088H61.722z"/>
	</g>
	<rect x="57.026" y="91.201" fill="none" width="9.374" height="9.762"/>
	<text transform="matrix(-1 0 0 -1 65.0439 93.2334)" fill="#333333" font-family="'ChunkFive'" font-size="10.8856">A</text>
</g>
</svg>
