<?xml version="1.0" encoding="utf-8"?>
<!-- Generator: Adobe Illustrator 16.0.0, SVG Export Plug-In . SVG Version: 6.00 Build 0)  -->
<!DOCTYPE svg PUBLIC "-//W3C//DTD SVG 1.1//EN" "http://www.w3.org/Graphics/SVG/1.1/DTD/svg11.dtd">
<svg version="1.1" id="Layer_1" xmlns="http://www.w3.org/2000/svg" xmlns:xlink="http://www.w3.org/1999/xlink" x="0px" y="0px"
	 width="69.12px" height="103.69px" viewBox="0 0 69.12 103.69" enable-background="new 0 0 69.12 103.69" xml:space="preserve">
<g>
	<g>
		<path fill="#F2F2F2" d="M69.12,100.963c0,1.504-1.219,2.723-2.721,2.723H2.719c-1.503,0-2.721-1.219-2.721-2.723V2.723
			C-0.002,1.219,1.216,0,2.719,0h63.681c1.502,0,2.721,1.219,2.721,2.723V100.963z"/>
		<g>
			<polygon fill="#7A2B2B" points="61.669,83.633 64.458,87.428 61.669,91.223 58.879,87.428 			"/>
			<polygon fill="#943434" points="61.677,91.211 64.458,87.428 61.677,83.645 			"/>
		</g>
		<rect x="2.719" y="2.723" fill="none" width="9.374" height="9.76"/>
		<text transform="matrix(1 0 0 1 5.3916 10.4512)" fill="#7A2B2B" font-family="'ChunkFive'" font-size="10.8856">J</text>
		<rect x="57.024" y="91.203" fill="none" width="9.375" height="9.76"/>
		<text transform="matrix(-1 0 0 -1 63.7256 93.2354)" fill="#7A2B2B" font-family="'ChunkFive'" font-size="10.8856">J</text>
		<g>
			<polygon fill="#7A2B2B" points="7.361,20.072 4.572,16.277 7.361,12.482 10.151,16.277 			"/>
			<polygon fill="#943434" points="7.353,12.494 4.572,16.277 7.353,20.061 			"/>
		</g>
	</g>
	<g>
		<path fill="#AA292E" d="M19.017,73.51c0,0-3.725-1.348-7.191-5.111v-4.609h7.191V73.51z"/>
		<g>
			<path fill="#AA292E" d="M21.973,16.684l-3.857-5.006c0,0,7.525-4.996,9.043-5.082c1.518-0.088,18.672,5.219,18.672,5.219
				l-3.872,6.189L21.973,16.684z"/>
			<path fill="#1F2D6C" d="M41.958,10.631c0,0-2.126,6.803-2.676,7.256c-0.551,0.451-3.349-0.836-3.349-0.836
				s2.158-2.135,3.223-7.26L41.958,10.631z"/>
			<path fill="#AA292E" d="M11.825,61.498V35.629c0,0,3.252-4.146,9.777-4.76C21.603,30.869,21.725,57.072,11.825,61.498z"/>
			<g>
				<rect x="30.917" y="32.291" fill="#0B050F" width="3.328" height="6.109"/>
				<rect x="24.244" y="30.182" fill="#0B050F" width="3.328" height="6.107"/>
				<rect x="34.27" y="29.863" fill="#AA292E" width="3.328" height="6.109"/>
				<rect x="27.589" y="31.855" fill="#AA292E" width="3.328" height="6.109"/>
				<rect x="37.492" y="28.023" fill="#0B050F" width="3.328" height="6.107"/>
				<rect x="40.845" y="27.9" fill="#AA292E" width="3.329" height="3.803"/>
			</g>
			<polygon fill="#AD6E2D" points="24.272,28.01 25.034,30.732 22.476,30.869 			"/>
			<path fill="#0B050F" d="M20.712,30.967c0,0,1.165,17.115-8.887,30.531c0.012,1.182,0.018,1.781,0.018,1.781
				s5.916-2.781,9.282-14.506c3.366-11.727,1.841-17.807,1.841-17.807H20.712z"/>
			<path fill="#1F2D6C" d="M22.249,31.35c0,0,0.309,11.262-2.471,18.01c-2.78,6.748-4.714,11.35-7.953,13.891v5.148
				c0,0,9.132-8.83,12.126-18.775c2.994-9.947,2.435-18.646,2.435-18.646L22.249,31.35z"/>
			<g>
				<ellipse fill="#AA292E" cx="23.994" cy="31.051" rx="1.914" ry="0.766"/>
				
					<ellipse transform="matrix(-0.9986 -0.0526 0.0526 -0.9986 46.4252 66.8885)" fill="#AA292E" cx="24.093" cy="32.833" rx="1.874" ry="0.748"/>
				
					<ellipse transform="matrix(-0.9942 -0.1071 0.1071 -0.9942 44.2868 72.1137)" fill="#AA292E" cx="24.081" cy="34.867" rx="1.841" ry="0.735"/>
				
					<ellipse transform="matrix(-0.9866 -0.1633 0.1633 -0.9866 41.5216 77.6409)" fill="#AA292E" cx="23.951" cy="37.114" rx="1.812" ry="0.724"/>
				
					<ellipse transform="matrix(-0.9754 -0.2204 0.2204 -0.9754 38.1009 83.3173)" fill="#AA292E" cx="23.698" cy="39.533" rx="1.79" ry="0.717"/>
				
					<ellipse transform="matrix(-0.9606 -0.278 0.278 -0.9606 34.0178 88.9972)" fill="#AA292E" cx="23.318" cy="42.087" rx="1.774" ry="0.708"/>
				
					<ellipse transform="matrix(-0.942 -0.3355 0.3355 -0.942 29.2777 94.5268)" fill="#AA292E" cx="22.804" cy="44.734" rx="1.764" ry="0.705"/>
				
					<ellipse transform="matrix(-0.9199 -0.392 0.392 -0.9199 23.9348 99.7565)" fill="#AA292E" cx="22.152" cy="47.435" rx="1.761" ry="0.704"/>
				
					<ellipse transform="matrix(-0.8944 -0.4472 0.4472 -0.8944 18.0312 104.5535)" fill="#AA292E" cx="21.356" cy="50.148" rx="1.764" ry="0.705"/>
				
					<ellipse transform="matrix(-0.8661 -0.4999 0.4999 -0.8661 11.6743 108.7995)" fill="#AA292E" cx="20.411" cy="52.836" rx="1.774" ry="0.708"/>
				
					<ellipse transform="matrix(-0.8348 -0.5505 0.5505 -0.8348 4.9012 112.3866)" fill="#AA292E" cx="19.312" cy="55.458" rx="1.79" ry="0.715"/>
				
					<ellipse transform="matrix(-0.8012 -0.5984 0.5984 -0.8012 -2.1761 115.2243)" fill="#AA292E" cx="18.052" cy="57.974" rx="1.813" ry="0.725"/>
				
					<ellipse transform="matrix(-0.7662 -0.6426 0.6426 -0.7662 -9.4079 117.2667)" fill="#AA292E" cx="16.628" cy="60.345" rx="1.84" ry="0.736"/>
				
					<ellipse transform="matrix(-0.7297 -0.6838 0.6838 -0.7297 -16.7589 118.4349)" fill="#AA292E" cx="15.032" cy="62.53" rx="1.875" ry="0.748"/>
				
					<ellipse transform="matrix(-0.6929 -0.721 0.721 -0.6929 -24.0455 118.7378)" fill="#AA292E" cx="13.262" cy="64.489" rx="1.914" ry="0.765"/>
			</g>
			<rect x="31.142" y="40.09" fill="#3856C8" width="5.29" height="5.854"/>
			<polygon fill="#BF9B4D" points="36.203,45.695 31.142,45.695 31.142,51.004 			"/>
			<rect x="31.052" y="40.9" fill="#BF9B4D" width="5.334" height="4.344"/>
			<polygon fill="#BF9B4D" points="36.386,40.518 31.142,40.518 31.142,39.1 36.386,35.926 			"/>
			<path fill="#AA292E" d="M30.119,51.51l0.203-12.316l-4.341-2.453c0,0-0.854,10.201-1.884,12.033
				C23.066,50.604,30.119,51.51,30.119,51.51z"/>
			<polygon fill="#E8EFFF" points="30.044,51.547 31.333,50.908 31.333,38.303 30.044,38.303 			"/>
			<polygon fill="#0B050F" points="29.628,52.029 30.917,51.391 30.917,38.785 29.628,38.785 			"/>
			<g>
				<path fill="#0B050F" d="M21.194,56.305c0.438-1.104,1.179-2.127,1.726-3.18c0.891-1.717,1.526-3.535,1.818-5.428
					c0.026,0,0.053-0.002,0.079-0.002c2.668,0,4.949,1.652,5.88,3.986c-0.197,0.225-0.39,0.455-0.636,0.662
					c-0.443,0.373-0.966,0.668-1.428,1.021c-1.122,0.861-1.979,2.047-3.234,2.721c-0.946,0.51-1.952,0.861-2.96,1.227
					c-0.432,0.158-0.87,0.314-1.319,0.42c-0.137-0.021-0.271-0.041-0.408-0.061C20.878,57.211,21.021,56.74,21.194,56.305z"/>
				<path fill="#BF9B4D" d="M21.194,56.305c0.438-1.104,1.179-2.127,1.726-3.18c0.812-1.566,1.412-3.217,1.733-4.93
					c0.055,0,0.109-0.004,0.164-0.004c2.545,0,4.709,1.631,5.505,3.904c-0.082,0.086-0.167,0.168-0.261,0.248
					c-0.443,0.373-0.966,0.668-1.428,1.021c-1.122,0.861-1.979,2.047-3.234,2.721c-0.946,0.51-1.952,0.861-2.96,1.227
					c-0.432,0.158-0.87,0.314-1.319,0.42c-0.137-0.021-0.272-0.041-0.408-0.061C20.878,57.211,21.021,56.74,21.194,56.305z"/>
				<path fill="#3856C8" d="M22.92,53.125c0.356-0.689,0.672-1.395,0.941-2.113c0.302-0.096,0.623-0.148,0.956-0.148
					c1.713,0,3.104,1.365,3.155,3.064c-0.828,0.762-1.575,1.621-2.573,2.158c-0.602,0.324-1.228,0.584-1.862,0.824
					c-0.805-0.357-1.431-1.039-1.714-1.881C22.187,54.391,22.589,53.762,22.92,53.125z"/>
			</g>
			<polygon fill="#AA292E" points="42.668,41.564 37.489,44.553 37.227,34.91 42.668,31.914 			"/>
			<rect x="36.203" y="35.346" fill="#E8EFFF" width="1.289" height="9.758"/>
			<path fill="#C9D8F7" d="M47.596,28.98c0,0-2.229-1.252-4.526-1.572l-0.277,13.98c0,0,3.526-1.307,5.11-1.248L47.596,28.98z"/>
			<polygon fill="#715C57" points="47.596,28.98 48.398,29.285 48.398,40.045 47.596,40.045 			"/>
			<path fill="#0B050F" d="M48.398,29.285c0,0,1.188,0.494,1.703,0.891v9.721h-1.703V29.285z"/>
			<path fill="#AA292E" d="M50.102,30.176c0,0,3.725,1.348,7.191,5.111v4.609h-7.191V30.176z"/>
			<rect x="36.682" y="34.91" fill="#0B050F" width="1.29" height="9.758"/>
			<rect x="42.267" y="27.408" fill="#715C57" width="0.803" height="13.715"/>
			<g>
				<path fill="#AA7941" d="M21.761,57.904c0.483,0,1.114-0.096,1.905-0.395c2.622-0.994,5.828-3.73,9.529-8.131
					c4.458-5.301,8.84-7.406,11.73-8.24c3.127-0.902,6.682-0.734,6.703-0.732l0.153-0.861c-0.093-0.018-3.734-0.209-7.041,0.734
					c-3.022,0.861-7.596,3.041-12.216,8.535c-8.314,9.887-11.484,8.088-11.516,8.068l-0.495,0.723
					C20.578,57.65,20.975,57.904,21.761,57.904z"/>
			</g>
			<path fill="#E8EFFF" d="M42.267,31.359c0,0-10.715,6.988-11.727,6.988s-4.048-2.127-4.048-2.127v1.234
				c0,0,3.661,2.441,4.137,2.441c0.477,0,11.638-7.232,11.638-7.232V31.359z"/>
			<path fill="#BF9B4D" d="M41.069,28.01c0,0-9.056,6.656-10.341,6.656s-5.013-3.328-5.013-3.328L41.069,28.01z"/>
			<path fill="#BF9B4D" d="M42.267,30.51c0,0-10.715,7.107-11.727,7.107s-4.048-2.396-4.048-2.396v1.199
				c0,0,3.661,2.365,4.137,2.365c0.477,0,11.638-7.01,11.638-7.01V30.51z"/>
			<path fill="#AA7941" d="M26.784,31.83c0,0,0.025,11.307-2.619,18.764c-2.645,7.459-9.302,17.945-11.259,18.898l-1.081-1.094
				c0,0,4.685-3.861,11.388-18.354c1.745-7.174,1.805-4.07,2.648-18.686C26.704,16.742,26.784,31.83,26.784,31.83z"/>
			<path fill="#DCE3F2" d="M35.116,30.51c0,0-3.704,2.725-4.491,2.725c-0.788,0-2.467-1.533-2.467-1.533s5.127-3.418,6.536-2.936
				C36.103,29.248,35.116,30.51,35.116,30.51z"/>
			<path fill="#D28537" d="M24.802,17.15c0,0-1.748,1.744-1.303,6.273c0.447,4.529,0.824,9.066-2.489,7.682s-0.449-4.914,1.55-3.051
				c0,0-0.011-2.232-0.3-5.172C21.97,19.943,22.182,17.129,24.802,17.15z"/>
			<path fill="#E8EFFF" d="M23.051,17.887c0,0-0.486,2.723,0,3.279c0.486,0.555,0.034,1.416,0,2.08
				c-0.035,0.664-0.73,6.258,3.092,8.273s3.509-0.77,8.2-2.539c0,0,0.729-10.908-2.467-11.811
				C31.876,17.17,25.518,16.621,23.051,17.887z"/>
			<path fill="#A86B2C" d="M38.662,18.586c0,0,1.24,1.016,1.24,3.969c0,2.955,1.531,6.043,3.584,4.939
				c2.052-1.107-0.022-3.203-1.195-1.873c0,0-0.136-1.443-0.136-3.361C42.155,20.344,41.083,18.107,38.662,18.586z"/>
			<path fill="#AD6E2D" d="M37.483,17.898c0,0,1.436,1.176,1.436,4.594s0.771,7.008,3.145,5.729
				c2.375-1.279-0.025-3.707-1.383-2.166c0,0-0.156-1.672-0.156-3.889C40.524,19.947,39.441,17.689,37.483,17.898z"/>
			<path fill="#B3712E" d="M35.934,17.527c0,0,1.361,2.402,1.361,6.08s1.026,6.385,3.581,5.01c2.555-1.377-0.028-3.988-1.487-2.332
				c0,0-0.169-1.795-0.169-4.182S38.039,17.303,35.934,17.527z"/>
			<path fill="#B87530" d="M34.694,17.344c0,0,0.969,1.631,0.969,5.732s0.814,7.979,3.664,6.443
				c2.849-1.533-0.032-4.443-1.659-2.598c0,0-0.188-2.004-0.188-4.664S37.042,17.094,34.694,17.344z"/>
			<path fill="#BD7831" d="M33.052,17.164c0,0,1.837,1.504,1.837,5.879c0,4.377,0.066,8.752,3.106,7.115s-0.033-4.744-1.77-2.771
				c0,0-0.201-2.139-0.201-4.979C36.024,19.57,35.557,16.898,33.052,17.164z"/>
			<path fill="#D28537" d="M31.876,17.17c0,0,1.91,1.562,1.91,6.115c0,4.551,0.069,9.104,3.231,7.4s-0.034-4.934-1.841-2.883
				c0,0-0.209-2.225-0.209-5.178S34.481,16.893,31.876,17.17z"/>
			<path fill="#333333" d="M41.509,19.803c0,0-7.176-3.959-18.846-1.438l-0.69-1.682c0,0,9.045-3.545,19.985,1.32L41.509,19.803z"/>
			<g>
				<path fill="#D28537" d="M25.964,20.8c0,0-0.19-0.038-0.477-0.061c-0.143-0.015-0.31-0.021-0.487-0.022
					c-0.178-0.013-0.364,0.014-0.55,0.026c-0.185,0.019-0.355,0.089-0.521,0.114c-0.153,0.055-0.301,0.093-0.437,0.124
					c-0.22,0.125-0.428,0.196-0.428,0.196l-0.027-0.023c0,0,0.089-0.176,0.317-0.415c0.134-0.073,0.296-0.171,0.483-0.235
					c0.191-0.021,0.397-0.054,0.598-0.04c0.809,0.008,1.538,0.303,1.538,0.303L25.964,20.8z"/>
			</g>
			<g>
				<path fill="#D28537" d="M29.16,20.767c0,0,0.73-0.295,1.538-0.303c0.2-0.014,0.406,0.02,0.599,0.04
					c0.187,0.064,0.349,0.162,0.483,0.235c0.229,0.239,0.317,0.415,0.317,0.415l-0.027,0.023c0,0-0.208-0.071-0.428-0.196
					c-0.136-0.031-0.283-0.069-0.437-0.124c-0.166-0.025-0.337-0.096-0.522-0.114c-0.186-0.013-0.372-0.039-0.55-0.026
					c-0.178,0.002-0.345,0.008-0.487,0.022C29.36,20.762,29.17,20.8,29.17,20.8L29.16,20.767z"/>
			</g>
			<g>
				<path fill="#2A3757" d="M28.17,22.091c0,0,0.189,0.162,0.522,0.312c0.079,0.043,0.178,0.063,0.274,0.1
					c0.099,0.031,0.197,0.076,0.311,0.088c0.222,0.042,0.454,0.086,0.693,0.064c0.237,0.011,0.469-0.039,0.685-0.089
					c0.22-0.025,0.427-0.045,0.599-0.104c0.351-0.08,0.614-0.096,0.614-0.096l0.016,0.031c0,0-0.2,0.154-0.545,0.33
					c-0.169,0.097-0.382,0.17-0.625,0.199c-0.24,0.042-0.498,0.052-0.756,0.009c-0.259-0.006-0.507-0.079-0.736-0.149
					c-0.229-0.066-0.424-0.185-0.588-0.275c-0.321-0.203-0.487-0.394-0.487-0.394L28.17,22.091z"/>
			</g>
			<g>
				<path fill="#2A3757" d="M25.876,22.116c0,0.001-0.119,0.139-0.348,0.291c-0.112,0.077-0.255,0.155-0.415,0.222
					c-0.165,0.051-0.34,0.129-0.528,0.141c-0.187,0.038-0.377,0.061-0.554,0.03c-0.178-0.021-0.338-0.064-0.461-0.14
					c-0.251-0.136-0.387-0.264-0.387-0.264l0.014-0.031c0,0,0.2-0.012,0.451,0.027c0.124,0.037,0.273,0.027,0.426,0.045
					c0.152,0.039,0.316,0.057,0.484,0.053c0.17,0.017,0.333-0.031,0.492-0.055c0.152-0.041,0.299-0.085,0.418-0.136
					c0.243-0.1,0.384-0.209,0.384-0.209L25.876,22.116z"/>
			</g>
			<g>
				<path fill="#2A3757" d="M26.542,21.545c0,0,0.071,0.512,0.057,1.286c-0.007,0.388-0.042,0.84-0.135,1.321
					c-0.047,0.239-0.132,0.481-0.2,0.731c-0.108,0.229-0.219,0.464-0.329,0.697c-0.11,0.238-0.08,0.383,0.064,0.54
					c0.146,0.136,0.354,0.224,0.565,0.271c0.212,0.048,0.427,0.061,0.629,0.046c0.2-0.012,0.395-0.049,0.548-0.126
					c0.157-0.067,0.301-0.152,0.387-0.263c0.109-0.098,0.146-0.22,0.205-0.312c0.063-0.202,0.085-0.333,0.085-0.333h0.035
					c0,0,0.012,0.128-0.004,0.364c-0.032,0.113-0.053,0.268-0.162,0.402c-0.086,0.147-0.236,0.291-0.42,0.389
					c-0.181,0.111-0.402,0.176-0.637,0.213c-0.236,0.044-0.49,0.021-0.748-0.024c-0.254-0.069-0.521-0.179-0.729-0.407
					c-0.045-0.064-0.091-0.131-0.13-0.198l-0.057-0.239c0.006-0.17,0.047-0.348,0.113-0.44c0.12-0.224,0.241-0.448,0.359-0.669
					c0.075-0.233,0.168-0.458,0.226-0.688c0.11-0.46,0.178-0.9,0.211-1.281c0.066-0.764,0.03-1.276,0.03-1.276L26.542,21.545z"/>
			</g>
			<g>
				<path fill="#2A3757" d="M29.443,28.027c0,0-1.043,0.077-2.085,0.123c-0.521,0.045-1.042,0.059-1.434-0.002
					c-0.391-0.045-0.651-0.121-0.651-0.121v-0.035c0,0,0.261-0.076,0.651-0.121c0.392-0.061,0.912-0.047,1.434-0.002
					c1.042,0.046,2.085,0.123,2.085,0.123V28.027z"/>
			</g>
			<g>
				<path fill="#2A3757" d="M27.88,28.998c0,0-0.374,0.077-0.747,0.123c-0.187,0.045-0.373,0.059-0.514-0.002
					c-0.14-0.045-0.233-0.121-0.233-0.121v-0.035c0,0,0.094-0.076,0.233-0.121c0.141-0.061,0.327-0.047,0.514-0.002
					c0.373,0.046,0.747,0.123,0.747,0.123V28.998z"/>
			</g>
		</g>
		<path fill="#AA292E" d="M47.146,87.004l3.857,5.006c0,0-7.525,4.994-9.043,5.082s-18.672-5.221-18.672-5.221l3.873-6.189
			L47.146,87.004z"/>
		<path fill="#1F2D6C" d="M27.161,93.055c0,0,2.125-6.803,2.675-7.256c0.551-0.451,3.349,0.836,3.349,0.836s-2.157,2.137-3.223,7.26
			L27.161,93.055z"/>
		<path fill="#AA292E" d="M57.293,42.189v25.869c0,0-3.252,4.145-9.777,4.758C47.516,72.816,47.395,46.613,57.293,42.189z"/>
		<g>
			<rect x="34.874" y="65.287" fill="#0B050F" width="3.327" height="6.107"/>
			<rect x="41.546" y="67.396" fill="#0B050F" width="3.328" height="6.109"/>
			<rect x="31.521" y="67.713" fill="#AA292E" width="3.328" height="6.109"/>
			<rect x="38.201" y="65.721" fill="#AA292E" width="3.329" height="6.109"/>
			<rect x="28.298" y="69.555" fill="#0B050F" width="3.328" height="6.109"/>
			<rect x="24.944" y="71.982" fill="#AA292E" width="3.329" height="3.803"/>
		</g>
		<polygon fill="#AD6E2D" points="44.846,75.676 44.084,72.955 46.643,72.816 		"/>
		<path fill="#0B050F" d="M48.406,72.719c0,0-1.165-17.115,8.887-30.529c-0.012-1.184-0.018-1.783-0.018-1.783
			s-5.917,2.781-9.283,14.508c-3.365,11.725-1.84,17.805-1.84,17.805H48.406z"/>
		<path fill="#1F2D6C" d="M46.869,72.336c0,0-0.309-11.262,2.471-18.01s4.714-11.35,7.953-13.891v-5.148
			c0,0-4.997,1.016-12.125,18.775c-2.995,9.947-2.436,18.646-2.436,18.646L46.869,72.336z"/>
		<g>
			<ellipse fill="#AA292E" cx="45.124" cy="72.635" rx="1.914" ry="0.766"/>
			
				<ellipse transform="matrix(0.9986 0.0526 -0.0526 0.9986 3.7902 -2.2708)" fill="#AA292E" cx="45.024" cy="70.853" rx="1.875" ry="0.748"/>
			
				<ellipse transform="matrix(0.9942 0.1071 -0.1071 0.9942 7.6328 -4.4293)" fill="#AA292E" cx="45.038" cy="68.82" rx="1.841" ry="0.737"/>
			
				<ellipse transform="matrix(0.9866 0.1632 -0.1632 0.9866 11.4718 -6.4795)" fill="#AA292E" cx="45.167" cy="66.573" rx="1.813" ry="0.725"/>
			
				<ellipse transform="matrix(0.9754 0.2205 -0.2205 0.9754 15.26 -8.4346)" fill="#AA292E" cx="45.419" cy="64.152" rx="1.79" ry="0.715"/>
			
				<ellipse transform="matrix(0.9606 0.278 -0.278 0.9606 18.9291 -10.3039)" fill="#AA292E" cx="45.8" cy="61.599" rx="1.774" ry="0.709"/>
			
				<ellipse transform="matrix(0.942 0.3355 -0.3355 0.942 22.4634 -12.1218)" fill="#AA292E" cx="46.314" cy="58.951" rx="1.764" ry="0.705"/>
			
				<ellipse transform="matrix(0.9199 0.392 -0.392 0.9199 25.8127 -13.9096)" fill="#AA292E" cx="46.966" cy="56.251" rx="1.761" ry="0.704"/>
			
				<ellipse transform="matrix(0.8946 0.4468 -0.4468 0.8946 28.951 -15.6982)" fill="#AA292E" cx="47.762" cy="53.538" rx="1.764" ry="0.704"/>
			
				<ellipse transform="matrix(0.8661 0.4999 -0.4999 0.8661 31.9447 -17.5396)" fill="#AA292E" cx="48.707" cy="50.85" rx="1.774" ry="0.708"/>
			
				<ellipse transform="matrix(0.8348 0.5505 -0.5505 0.8348 34.7788 -19.4543)" fill="#AA292E" cx="49.808" cy="48.228" rx="1.79" ry="0.714"/>
			
				<ellipse transform="matrix(0.8011 0.5985 -0.5985 0.8011 37.5173 -21.4728)" fill="#AA292E" cx="51.066" cy="45.712" rx="1.813" ry="0.724"/>
			
				<ellipse transform="matrix(0.7662 0.6426 -0.6426 0.7662 40.1216 -23.5976)" fill="#AA292E" cx="52.491" cy="43.341" rx="1.84" ry="0.735"/>
			
				<ellipse transform="matrix(0.7299 0.6835 -0.6835 0.7299 42.7401 -25.8542)" fill="#AA292E" cx="54.086" cy="41.156" rx="1.874" ry="0.749"/>
			
				<ellipse transform="matrix(0.6929 0.721 -0.721 0.6929 45.4121 -28.2367)" fill="#AA292E" cx="55.856" cy="39.196" rx="1.914" ry="0.765"/>
		</g>
		<rect x="32.687" y="57.744" fill="#3856C8" width="5.29" height="5.852"/>
		<polygon fill="#BF9B4D" points="32.915,57.99 37.977,57.99 37.977,52.682 		"/>
		<rect x="32.732" y="58.441" fill="#BF9B4D" width="5.335" height="4.344"/>
		<polygon fill="#BF9B4D" points="32.732,63.168 37.977,63.168 37.977,64.586 32.732,67.76 		"/>
		<path fill="#AA292E" d="M38.999,52.176l-0.203,12.316l4.341,2.453c0,0,0.853-10.201,1.884-12.031
			C46.052,53.082,38.999,52.176,38.999,52.176z"/>
		<polygon fill="#E8EFFF" points="39.075,52.139 37.785,52.777 37.785,65.383 39.075,65.383 		"/>
		<polygon fill="#0B050F" points="39.491,51.656 38.201,52.295 38.201,64.9 39.491,64.9 		"/>
		<g>
			<path fill="#0B050F" d="M47.924,47.383c-0.438,1.102-1.179,2.125-1.726,3.18c-0.891,1.717-1.526,3.535-1.818,5.426
				c-0.026,0-0.052,0.002-0.079,0.002c-2.668,0-4.948-1.65-5.88-3.986c0.197-0.225,0.391-0.455,0.637-0.662
				c0.442-0.373,0.965-0.668,1.427-1.021c1.122-0.859,1.979-2.045,3.234-2.721c0.946-0.508,1.952-0.861,2.96-1.227
				c0.432-0.158,0.87-0.314,1.319-0.42c0.137,0.021,0.272,0.041,0.408,0.061C48.241,46.475,48.098,46.945,47.924,47.383z"/>
			<path fill="#BF9B4D" d="M47.924,47.383c-0.438,1.102-1.179,2.125-1.726,3.18c-0.812,1.564-1.412,3.215-1.732,4.928
				c-0.055,0.002-0.11,0.004-0.165,0.004c-2.546,0-4.708-1.631-5.505-3.904c0.082-0.086,0.167-0.168,0.262-0.248
				c0.442-0.373,0.965-0.668,1.427-1.021c1.122-0.859,1.979-2.045,3.234-2.721c0.946-0.508,1.952-0.861,2.96-1.227
				c0.432-0.158,0.87-0.314,1.319-0.42c0.137,0.021,0.272,0.041,0.408,0.061C48.241,46.475,48.098,46.945,47.924,47.383z"/>
			<path fill="#3856C8" d="M46.198,50.562c-0.357,0.688-0.672,1.393-0.941,2.111c-0.302,0.096-0.623,0.148-0.956,0.148
				c-1.713,0-3.104-1.365-3.154-3.064c0.827-0.762,1.574-1.621,2.572-2.158c0.603-0.324,1.229-0.584,1.863-0.824
				c0.804,0.357,1.43,1.039,1.713,1.881C46.931,49.297,46.53,49.924,46.198,50.562z"/>
		</g>
		<polygon fill="#AA292E" points="26.45,62.121 31.629,59.133 31.892,68.775 26.45,71.771 		"/>
		<rect x="31.626" y="58.582" fill="#E8EFFF" width="1.289" height="9.758"/>
		<path fill="#C9D8F7" d="M21.522,74.705c0,0,2.229,1.252,4.526,1.572l0.278-13.98c0,0-3.526,1.309-5.111,1.248L21.522,74.705z"/>
		<polygon fill="#715C57" points="21.522,74.705 20.72,74.4 20.72,63.641 21.522,63.641 		"/>
		<path fill="#0B050F" d="M20.72,74.4c0,0-1.188-0.494-1.703-0.891v-9.721h1.703V74.4z"/>
		<rect x="31.147" y="59.018" fill="#0B050F" width="1.288" height="9.758"/>
		<rect x="26.049" y="62.564" fill="#715C57" width="0.803" height="13.713"/>
		<g>
			<path fill="#AA7941" d="M47.357,45.781c-0.483,0-1.114,0.096-1.905,0.396c-2.623,0.992-5.828,3.729-9.53,8.129
				c-4.457,5.301-8.839,7.408-11.729,8.242c-3.127,0.902-6.526,0.484-6.548,0.48l-0.153,0.863c0.092,0.018,3.579,0.457,6.887-0.486
				c3.021-0.861,7.595-3.041,12.215-8.535c8.314-9.887,11.484-8.086,11.516-8.068l0.495-0.723
				C48.54,46.035,48.144,45.781,47.357,45.781z"/>
		</g>
		<path fill="#E8EFFF" d="M26.852,72.326c0,0,10.715-6.988,11.727-6.988s4.048,2.127,4.048,2.127v-1.236
			c0,0-3.661-2.439-4.137-2.439c-0.477,0-11.638,7.232-11.638,7.232V72.326z"/>
		<path fill="#BF9B4D" d="M28.05,75.676c0,0,9.055-6.656,10.34-6.656s5.013,3.328,5.013,3.328L28.05,75.676z"/>
		<path fill="#BF9B4D" d="M26.852,73.176c0,0,10.715-7.107,11.727-7.107s4.048,2.396,4.048,2.396v-1.199
			c0,0-3.661-2.365-4.137-2.365c-0.477,0-11.638,7.01-11.638,7.01V73.176z"/>
		<path fill="#AA7941" d="M42.334,71.855c0,0-0.025-11.307,2.619-18.764c2.646-7.457,8.692-17.832,11.406-18.758l0.934,0.953
			c-2.344,1.186-9.964,12.717-11.388,18.354c-1.745,7.174-1.805,4.07-2.647,18.686C42.414,86.943,42.334,71.855,42.334,71.855z"/>
		<path fill="#DCE3F2" d="M34.002,73.176c0,0,3.704-2.725,4.492-2.725c0.787,0,2.467,1.533,2.467,1.533s-5.128,3.418-6.536,2.936
			C33.016,74.438,34.002,73.176,34.002,73.176z"/>
		<path fill="#D28537" d="M44.316,86.535c0,0,1.748-1.744,1.303-6.273c-0.447-4.529-0.824-9.066,2.49-7.682
			c3.313,1.385,0.448,4.914-1.55,3.051c0,0,0.01,2.232,0.299,5.172C47.148,83.742,46.937,86.557,44.316,86.535z"/>
		<path fill="#E8EFFF" d="M46.068,85.799c0,0,0.486-2.723,0-3.277c-0.486-0.557-0.035-1.418,0-2.082
			c0.034-0.664,0.729-6.258-3.093-8.273s-3.509,0.77-8.2,2.539c0,0-0.729,10.908,2.467,11.811
			C37.242,86.516,43.602,87.064,46.068,85.799z"/>
		<path fill="#A86B2C" d="M30.457,85.1c0,0-1.24-1.014-1.24-3.969s-1.532-6.043-3.585-4.938c-2.052,1.105,0.023,3.203,1.195,1.871
			c0,0,0.137,1.443,0.137,3.361C26.964,83.342,28.035,85.578,30.457,85.1z"/>
		<path fill="#AD6E2D" d="M31.635,85.787c0,0-1.436-1.176-1.436-4.594s-0.771-7.006-3.146-5.729
			c-2.374,1.279,0.026,3.707,1.384,2.166c0,0,0.156,1.67,0.156,3.889S29.677,85.996,31.635,85.787z"/>
		<path fill="#B3712E" d="M33.185,86.158c0,0-1.361-2.402-1.361-6.08s-1.026-6.385-3.581-5.008c-2.555,1.375,0.028,3.986,1.487,2.33
			c0,0,0.169,1.795,0.169,4.182S31.079,86.383,33.185,86.158z"/>
		<path fill="#B87530" d="M34.425,86.344c0,0-0.97-1.633-0.97-5.734s-0.814-7.979-3.664-6.443c-2.849,1.533,0.031,4.445,1.659,2.598
			c0,0,0.188,2.004,0.188,4.664S32.077,86.594,34.425,86.344z"/>
		<path fill="#BD7831" d="M36.066,86.521c0,0-1.837-1.504-1.837-5.879c0-4.377-0.066-8.752-3.106-7.115s0.033,4.744,1.771,2.771
			c0,0,0.2,2.139,0.2,4.979C33.094,84.115,33.562,86.789,36.066,86.521z"/>
		<path fill="#D28537" d="M37.242,86.516c0,0-1.91-1.562-1.91-6.115c0-4.551-0.07-9.104-3.231-7.4
			c-3.162,1.703,0.034,4.934,1.841,2.885c0,0,0.209,2.223,0.209,5.176C34.15,84.016,34.637,86.795,37.242,86.516z"/>
		<path fill="#333333" d="M27.609,83.883c0,0,7.176,3.959,18.846,1.438l0.69,1.684c0,0-9.045,3.543-19.984-1.322L27.609,83.883z"/>
		<g>
			<path fill="#D28537" d="M43.154,82.886c0,0,0.19,0.038,0.477,0.061c0.143,0.015,0.31,0.021,0.487,0.022
				c0.178,0.014,0.364-0.014,0.55-0.026c0.186-0.018,0.355-0.088,0.522-0.113c0.152-0.055,0.301-0.093,0.437-0.124
				c0.22-0.124,0.428-0.195,0.428-0.195l0.027,0.023c0,0-0.089,0.176-0.318,0.414c-0.134,0.073-0.296,0.172-0.483,0.235
				c-0.191,0.021-0.397,0.053-0.598,0.04c-0.809-0.009-1.538-0.304-1.538-0.304L43.154,82.886z"/>
		</g>
		<g>
			<path fill="#D28537" d="M39.958,82.919c0,0-0.729,0.295-1.538,0.304c-0.2,0.013-0.406-0.02-0.598-0.04
				c-0.188-0.063-0.35-0.162-0.483-0.235c-0.229-0.238-0.318-0.414-0.318-0.414l0.027-0.023c0,0,0.208,0.071,0.429,0.195
				c0.135,0.031,0.283,0.069,0.436,0.124c0.167,0.025,0.337,0.096,0.522,0.113c0.186,0.013,0.372,0.04,0.55,0.026
				c0.178-0.002,0.345-0.008,0.487-0.022c0.286-0.022,0.477-0.061,0.477-0.061L39.958,82.919z"/>
		</g>
		<g>
			<path fill="#2A3757" d="M40.949,81.595c0,0-0.189-0.161-0.522-0.311c-0.08-0.043-0.179-0.064-0.275-0.1
				c-0.099-0.031-0.197-0.077-0.311-0.088c-0.221-0.042-0.454-0.086-0.693-0.064c-0.237-0.011-0.469,0.038-0.685,0.089
				c-0.219,0.024-0.427,0.045-0.599,0.104c-0.351,0.08-0.614,0.096-0.614,0.096l-0.016-0.031c0,0,0.2-0.154,0.545-0.329
				c0.169-0.097,0.382-0.17,0.625-0.199c0.24-0.043,0.498-0.052,0.756-0.009c0.26,0.006,0.507,0.079,0.736,0.149
				c0.229,0.065,0.425,0.185,0.588,0.274c0.322,0.203,0.488,0.394,0.488,0.394L40.949,81.595z"/>
		</g>
		<g>
			<path fill="#2A3757" d="M43.242,81.569c0-0.001,0.119-0.139,0.348-0.291c0.112-0.077,0.255-0.155,0.415-0.222
				c0.165-0.051,0.34-0.129,0.528-0.141c0.187-0.038,0.377-0.061,0.554-0.03c0.178,0.021,0.338,0.065,0.461,0.14
				c0.251,0.136,0.387,0.264,0.388,0.264L45.92,81.32c0.001,0-0.199,0.012-0.45-0.027c-0.124-0.037-0.273-0.027-0.426-0.045
				c-0.152-0.039-0.315-0.057-0.484-0.053c-0.17-0.017-0.333,0.031-0.492,0.055c-0.152,0.041-0.299,0.085-0.419,0.136
				c-0.242,0.1-0.383,0.209-0.383,0.209L43.242,81.569z"/>
		</g>
		<g>
			<path fill="#2A3757" d="M42.576,82.141c0,0-0.071-0.512-0.057-1.286c0.007-0.388,0.042-0.84,0.135-1.32
				c0.047-0.24,0.132-0.481,0.199-0.731c0.109-0.23,0.22-0.464,0.33-0.698c0.11-0.238,0.08-0.382-0.064-0.539
				c-0.146-0.136-0.354-0.224-0.565-0.271c-0.212-0.047-0.427-0.06-0.629-0.046c-0.2,0.013-0.395,0.049-0.548,0.127
				c-0.157,0.066-0.301,0.151-0.387,0.262c-0.109,0.098-0.146,0.221-0.205,0.312c-0.063,0.202-0.085,0.333-0.085,0.333h-0.035
				c0,0-0.012-0.128,0.004-0.364c0.032-0.113,0.053-0.267,0.162-0.402c0.086-0.147,0.236-0.29,0.42-0.388
				c0.181-0.112,0.402-0.176,0.638-0.213c0.235-0.044,0.489-0.021,0.747,0.024c0.254,0.068,0.521,0.179,0.729,0.406
				c0.045,0.065,0.091,0.131,0.13,0.199l0.057,0.239c-0.006,0.17-0.047,0.348-0.113,0.439c-0.12,0.225-0.241,0.448-0.359,0.669
				c-0.075,0.233-0.168,0.459-0.226,0.688c-0.11,0.46-0.178,0.9-0.211,1.282c-0.066,0.763-0.03,1.275-0.03,1.275L42.576,82.141z"/>
		</g>
		<g>
			<path fill="#2A3757" d="M39.675,75.658c0,0,1.042-0.077,2.085-0.123c0.521-0.045,1.043-0.059,1.434,0.002
				c0.391,0.045,0.651,0.121,0.651,0.121v0.035c0,0-0.261,0.076-0.651,0.121c-0.391,0.061-0.912,0.047-1.434,0.002
				c-1.043-0.046-2.085-0.123-2.085-0.123V75.658z"/>
		</g>
		<g>
			<path fill="#2A3757" d="M41.238,74.688c0,0,0.373-0.077,0.747-0.123c0.187-0.045,0.374-0.059,0.514,0.002
				c0.14,0.045,0.233,0.121,0.233,0.121v0.035c0,0-0.094,0.076-0.233,0.121c-0.14,0.061-0.327,0.047-0.514,0.002
				c-0.374-0.046-0.747-0.123-0.747-0.123V74.688z"/>
		</g>
	</g>
</g>
</svg>
