<?xml version="1.0" encoding="utf-8"?>
<!-- Generator: Adobe Illustrator 16.0.0, SVG Export Plug-In . SVG Version: 6.00 Build 0)  -->
<!DOCTYPE svg PUBLIC "-//W3C//DTD SVG 1.1//EN" "http://www.w3.org/Graphics/SVG/1.1/DTD/svg11.dtd">
<svg version="1.1" id="Layer_1" xmlns="http://www.w3.org/2000/svg" xmlns:xlink="http://www.w3.org/1999/xlink" x="0px" y="0px"
	 width="69.12px" height="103.69px" viewBox="0 0 69.12 103.69" enable-background="new 0 0 69.12 103.69" xml:space="preserve">
<g>
	<g>
		<path fill="#F2F2F2" d="M69.123,100.963c0,1.502-1.219,2.721-2.721,2.721H2.722c-1.503,0-2.722-1.219-2.722-2.721V2.721
			C0,1.219,1.219,0,2.722,0h63.681c1.502,0,2.721,1.219,2.721,2.721V100.963z"/>
		<g>
			<path fill="#7A2B2B" d="M7.373,19.875l-0.577-0.576c-2.144-1.896-3.545-3.174-3.545-4.742c0-1.275,0.99-2.266,2.266-2.266
				c0.704,0,1.404,0.75,1.856,1.285c0.453-0.535,1.153-1.285,1.856-1.285c1.275,0,2.266,0.99,2.266,2.266
				c0,1.568-1.4,2.846-3.545,4.742L7.373,19.875z M7.373,19.875"/>
			<path fill="#943434" d="M7.364,13.57c-0.453-0.535-1.148-1.275-1.848-1.275c-1.275,0-2.266,0.99-2.266,2.266
				c0,1.568,1.401,2.848,3.545,4.742l0.568,0.568V13.57z"/>
		</g>
		<g>
			<path fill="#7A2B2B" d="M61.662,83.635l0.578,0.576c2.144,1.896,3.545,3.174,3.545,4.742c0,1.275-0.99,2.266-2.267,2.266
				c-0.703,0-1.403-0.748-1.856-1.283c-0.452,0.535-1.153,1.283-1.855,1.283c-1.276,0-2.267-0.99-2.267-2.266
				c0-1.568,1.4-2.846,3.545-4.742L61.662,83.635z M61.662,83.635"/>
			<path fill="#943434" d="M61.671,89.941c0.454,0.533,1.148,1.273,1.848,1.273c1.276,0,2.267-0.99,2.267-2.266
				c0-1.568-1.401-2.846-3.545-4.742l-0.569-0.566V89.941z"/>
		</g>
		<rect x="2.722" y="2.721" fill="none" width="9.374" height="9.762"/>
		<text transform="matrix(1 0 0 1 5.3945 10.4502)" fill="#7A2B2B" font-family="'ChunkFive'" font-size="10.8856">J</text>
		<rect x="57.027" y="91.201" fill="none" width="9.374" height="9.762"/>
		<text transform="matrix(-1 0 0 -1 63.7285 93.2324)" fill="#7A2B2B" font-family="'ChunkFive'" font-size="10.8856">J</text>
	</g>
	<g>
		<path fill="#AA292E" d="M50.104,73.51c0,0,3.725-1.348,7.191-5.111v-4.611h-7.191V73.51z"/>
		<g>
			<path fill="#AA292E" d="M47.148,16.682l3.857-5.006c0,0-7.525-4.994-9.043-5.082s-18.672,5.219-18.672,5.219l3.872,6.189
				L47.148,16.682z"/>
			<path fill="#1F2D6C" d="M27.163,10.631c0,0,2.126,6.803,2.676,7.254c0.551,0.453,3.349-0.834,3.349-0.834
				s-2.158-2.137-3.223-7.26L27.163,10.631z"/>
			<path fill="#AA292E" d="M57.296,61.496V35.627c0,0-3.252-4.145-9.778-4.758C47.518,30.869,47.396,57.07,57.296,61.496z"/>
			<g>
				<rect x="34.876" y="32.289" fill="#0B050F" width="3.328" height="6.109"/>
				<rect x="41.549" y="30.18" fill="#0B050F" width="3.328" height="6.109"/>
				<rect x="31.523" y="29.863" fill="#AA292E" width="3.328" height="6.107"/>
				<rect x="38.204" y="31.855" fill="#AA292E" width="3.328" height="6.109"/>
				<rect x="28.3" y="28.021" fill="#0B050F" width="3.329" height="6.109"/>
				<rect x="24.947" y="27.9" fill="#AA292E" width="3.328" height="3.803"/>
			</g>
			<polygon fill="#AD6E2D" points="44.849,28.01 44.087,30.73 46.646,30.869 			"/>
			<path fill="#0B050F" d="M48.409,30.967c0,0-1.165,17.113,8.887,30.529c-0.012,1.182-0.019,1.781-0.019,1.781
				s-5.915-2.779-9.281-14.506c-3.366-11.725-1.841-17.805-1.841-17.805H48.409z"/>
			<path fill="#1F2D6C" d="M46.872,31.348c0,0-0.309,11.264,2.471,18.012s4.714,11.348,7.953,13.889v5.15
				c0,0-9.132-8.83-12.126-18.775c-2.994-9.947-2.435-18.646-2.435-18.646L46.872,31.348z"/>
			<g>
				<ellipse fill="#AA292E" cx="45.127" cy="31.051" rx="1.914" ry="0.764"/>
				
					<ellipse transform="matrix(0.9986 -0.0526 0.0526 0.9986 -1.6654 2.4152)" fill="#AA292E" cx="45.028" cy="32.831" rx="1.874" ry="0.75"/>
				
					<ellipse transform="matrix(0.9942 -0.1072 0.1072 0.9942 -3.4771 5.0277)" fill="#AA292E" cx="45.04" cy="34.865" rx="1.841" ry="0.737"/>
				
					<ellipse transform="matrix(0.9866 -0.1633 0.1633 0.9866 -5.453 7.8725)" fill="#AA292E" cx="45.17" cy="37.112" rx="1.812" ry="0.726"/>
				
					<ellipse transform="matrix(0.9754 -0.2204 0.2204 0.9754 -7.596 10.9831)" fill="#AA292E" cx="45.423" cy="39.533" rx="1.79" ry="0.715"/>
				
					<ellipse transform="matrix(0.9606 -0.278 0.278 0.9606 -9.8944 14.3917)" fill="#AA292E" cx="45.803" cy="42.087" rx="1.774" ry="0.708"/>
				
					<ellipse transform="matrix(0.9421 -0.3354 0.3354 0.9421 -12.3211 18.1271)" fill="#AA292E" cx="46.316" cy="44.732" rx="1.764" ry="0.705"/>
				
					<ellipse transform="matrix(0.9199 -0.392 0.392 0.9199 -14.8357 22.211)" fill="#AA292E" cx="46.969" cy="47.433" rx="1.761" ry="0.704"/>
				
					<ellipse transform="matrix(0.8946 -0.4468 0.4468 0.8946 -17.3723 26.6229)" fill="#AA292E" cx="47.765" cy="50.147" rx="1.764" ry="0.704"/>
				
					<ellipse transform="matrix(0.8661 -0.4999 0.4999 0.8661 -19.8903 31.428)" fill="#AA292E" cx="48.71" cy="52.836" rx="1.774" ry="0.708"/>
				
					<ellipse transform="matrix(0.8346 -0.5509 0.5509 0.8346 -22.3118 36.6159)" fill="#AA292E" cx="49.81" cy="55.457" rx="1.79" ry="0.716"/>
				
					<ellipse transform="matrix(0.8012 -0.5984 0.5984 0.8012 -24.5389 42.0853)" fill="#AA292E" cx="51.069" cy="57.974" rx="1.813" ry="0.725"/>
				
					<ellipse transform="matrix(0.766 -0.6429 0.6429 0.766 -26.5089 47.8706)" fill="#AA292E" cx="52.493" cy="60.344" rx="1.841" ry="0.737"/>
				
					<ellipse transform="matrix(0.7299 -0.6835 0.6835 0.7299 -28.1326 53.8605)" fill="#AA292E" cx="54.089" cy="62.529" rx="1.874" ry="0.749"/>
				
					<ellipse transform="matrix(0.6929 -0.721 0.721 0.6929 -29.3443 60.077)" fill="#AA292E" cx="55.859" cy="64.489" rx="1.914" ry="0.765"/>
			</g>
			<rect x="32.689" y="40.09" fill="#3856C8" width="5.29" height="5.852"/>
			<polygon fill="#BF9B4D" points="32.918,45.695 37.979,45.695 37.979,51.002 			"/>
			<rect x="32.734" y="40.9" fill="#BF9B4D" width="5.335" height="4.344"/>
			<polygon fill="#BF9B4D" points="32.734,40.518 37.979,40.518 37.979,39.1 32.734,35.926 			"/>
			<path fill="#AA292E" d="M39.002,51.51l-0.203-12.316l4.341-2.453c0,0,0.854,10.199,1.884,12.031
				C46.055,50.604,39.002,51.51,39.002,51.51z"/>
			<polygon fill="#E8EFFF" points="39.077,51.547 37.788,50.908 37.788,38.303 39.077,38.303 			"/>
			<polygon fill="#0B050F" points="39.493,52.029 38.204,51.391 38.204,38.785 39.493,38.785 			"/>
			<g>
				<path fill="#0B050F" d="M47.927,56.303c-0.438-1.104-1.179-2.125-1.726-3.18c-0.892-1.717-1.526-3.535-1.818-5.428
					c-0.026,0-0.053-0.002-0.079-0.002c-2.668,0-4.949,1.652-5.88,3.988c0.197,0.225,0.39,0.455,0.636,0.662
					c0.443,0.373,0.966,0.668,1.428,1.021c1.122,0.859,1.979,2.045,3.234,2.721c0.946,0.508,1.952,0.861,2.96,1.227
					c0.432,0.156,0.87,0.314,1.319,0.418c0.137-0.02,0.271-0.039,0.408-0.059C48.243,57.211,48.101,56.74,47.927,56.303z"/>
				<path fill="#BF9B4D" d="M47.927,56.303c-0.438-1.104-1.179-2.125-1.726-3.18c-0.812-1.564-1.412-3.215-1.733-4.928
					c-0.055-0.002-0.109-0.004-0.164-0.004c-2.545,0-4.709,1.631-5.505,3.904c0.082,0.084,0.166,0.168,0.261,0.248
					c0.443,0.373,0.966,0.668,1.428,1.021c1.122,0.859,1.979,2.045,3.234,2.721c0.946,0.508,1.952,0.861,2.96,1.227
					c0.432,0.156,0.87,0.314,1.319,0.418c0.137-0.02,0.272-0.039,0.408-0.059C48.243,57.211,48.101,56.74,47.927,56.303z"/>
				<path fill="#3856C8" d="M46.201,53.123c-0.356-0.688-0.672-1.393-0.941-2.111c-0.302-0.096-0.623-0.148-0.956-0.148
					c-1.713,0-3.104,1.363-3.155,3.064c0.828,0.762,1.575,1.621,2.573,2.158c0.602,0.322,1.228,0.584,1.862,0.824
					c0.805-0.357,1.431-1.041,1.714-1.881C46.935,54.389,46.532,53.762,46.201,53.123z"/>
			</g>
			<polygon fill="#AA292E" points="26.453,41.562 31.632,44.553 31.895,34.91 26.453,31.912 			"/>
			<rect x="31.629" y="35.344" fill="#E8EFFF" width="1.289" height="9.758"/>
			<path fill="#C9D8F7" d="M21.525,28.98c0,0,2.229-1.252,4.526-1.574l0.277,13.982c0,0-3.526-1.309-5.111-1.248L21.525,28.98z"/>
			<polygon fill="#715C57" points="21.525,28.98 20.723,29.285 20.723,40.045 21.525,40.045 			"/>
			<path fill="#0B050F" d="M20.723,29.285c0,0-1.188,0.494-1.703,0.891v9.721h1.703V29.285z"/>
			<path fill="#AA292E" d="M19.02,30.176c0,0-3.725,1.346-7.191,5.111v4.609h7.191V30.176z"/>
			<rect x="31.149" y="34.91" fill="#0B050F" width="1.29" height="9.758"/>
			<rect x="26.052" y="27.406" fill="#715C57" width="0.803" height="13.715"/>
			<g>
				<path fill="#AA7941" d="M47.36,57.904c-0.484,0-1.114-0.096-1.905-0.396c-2.622-0.994-5.829-3.729-9.529-8.129
					c-4.458-5.301-8.84-7.408-11.731-8.242c-3.127-0.902-6.681-0.734-6.702-0.73l-0.153-0.863c0.093-0.016,3.734-0.207,7.041,0.734
					c3.022,0.863,7.596,3.043,12.216,8.537c8.314,9.887,11.484,8.086,11.516,8.066l0.495,0.723
					C48.543,57.65,48.146,57.904,47.36,57.904z"/>
			</g>
			<path fill="#E8EFFF" d="M26.854,31.357c0,0,10.715,6.988,11.727,6.988s4.048-2.127,4.048-2.127v1.236
				c0,0-3.661,2.441-4.138,2.441c-0.476,0-11.637-7.232-11.637-7.232V31.357z"/>
			<path fill="#BF9B4D" d="M28.052,28.01c0,0,9.056,6.656,10.341,6.656s5.013-3.328,5.013-3.328L28.052,28.01z"/>
			<path fill="#BF9B4D" d="M26.854,30.51c0,0,10.715,7.107,11.727,7.107s4.048-2.396,4.048-2.396v1.197c0,0-3.661,2.367-4.138,2.367
				c-0.476,0-11.637-7.012-11.637-7.012V30.51z"/>
			<path fill="#AA7941" d="M42.337,31.83c0,0-0.025,11.305,2.619,18.764c2.645,7.457,9.302,17.945,11.259,18.896l1.081-1.092
				c0,0-4.685-3.863-11.388-18.354c-1.745-7.174-1.805-4.072-2.648-18.688C42.417,16.742,42.337,31.83,42.337,31.83z"/>
			<path fill="#DCE3F2" d="M34.005,30.51c0,0,3.704,2.725,4.491,2.725s2.467-1.533,2.467-1.533s-5.127-3.418-6.536-2.936
				C33.019,29.246,34.005,30.51,34.005,30.51z"/>
			<path fill="#D28537" d="M44.319,17.15c0,0,1.748,1.742,1.302,6.271c-0.446,4.531-0.823,9.068,2.49,7.684s0.449-4.914-1.55-3.051
				c0,0,0.011-2.234,0.3-5.172C47.151,19.943,46.939,17.129,44.319,17.15z"/>
			<path fill="#E8EFFF" d="M46.07,17.885c0,0,0.486,2.725,0,3.279c-0.486,0.557-0.034,1.418,0,2.082
				c0.035,0.664,0.73,6.258-3.092,8.273s-3.51-0.77-8.2-2.539c0,0-0.729-10.908,2.467-11.811
				C37.245,17.17,43.604,16.621,46.07,17.885z"/>
			<path fill="#A86B2C" d="M30.459,18.586c0,0-1.24,1.014-1.24,3.969c0,2.953-1.531,6.043-3.584,4.938s0.022-3.203,1.195-1.871
				c0,0,0.136-1.443,0.136-3.361C26.966,20.344,28.038,18.107,30.459,18.586z"/>
			<path fill="#AD6E2D" d="M31.637,17.898c0,0-1.435,1.174-1.435,4.594c0,3.418-0.771,7.006-3.146,5.727
				c-2.374-1.277,0.026-3.705,1.384-2.166c0,0,0.156-1.67,0.156-3.889C28.597,19.947,29.68,17.689,31.637,17.898z"/>
			<path fill="#B3712E" d="M33.188,17.527c0,0-1.361,2.402-1.361,6.08c0,3.676-1.026,6.383-3.581,5.008s0.028-3.986,1.487-2.33
				c0,0,0.169-1.797,0.169-4.182C29.901,19.717,31.082,17.303,33.188,17.527z"/>
			<path fill="#B87530" d="M34.427,17.342c0,0-0.969,1.633-0.969,5.734c0,4.1-0.814,7.977-3.664,6.443
				c-2.849-1.533,0.032-4.445,1.659-2.598c0,0,0.188-2.004,0.188-4.664C31.642,19.596,32.079,17.092,34.427,17.342z"/>
			<path fill="#BD7831" d="M36.069,17.164c0,0-1.837,1.504-1.837,5.879s-0.066,8.752-3.106,7.115s0.033-4.744,1.77-2.773
				c0,0,0.201-2.137,0.201-4.977S33.564,16.896,36.069,17.164z"/>
			<path fill="#D28537" d="M37.245,17.17c0,0-1.911,1.562-1.911,6.115c0,4.551-0.068,9.104-3.23,7.4s0.034-4.934,1.841-2.885
				c0,0,0.209-2.223,0.209-5.176C34.153,19.67,34.64,16.891,37.245,17.17z"/>
			<path fill="#333333" d="M27.612,19.803c0,0,7.176-3.959,18.846-1.438l0.69-1.684c0,0-9.045-3.543-19.985,1.32L27.612,19.803z"/>
			<g>
				<path fill="#D28537" d="M43.147,20.767c0,0,0.729-0.295,1.537-0.304c0.2-0.013,0.406,0.02,0.599,0.04
					c0.187,0.063,0.349,0.162,0.482,0.235c0.229,0.239,0.318,0.414,0.318,0.414l-0.027,0.023c0,0-0.208-0.071-0.428-0.195
					c-0.136-0.031-0.283-0.069-0.437-0.124c-0.166-0.025-0.337-0.096-0.522-0.113c-0.185-0.013-0.372-0.04-0.549-0.026
					c-0.178,0.002-0.345,0.008-0.487,0.022c-0.286,0.022-0.477,0.061-0.477,0.061L43.147,20.767z"/>
			</g>
			<g>
				<path fill="#D28537" d="M39.95,20.8c0,0-0.19-0.038-0.477-0.061c-0.143-0.015-0.31-0.021-0.487-0.022
					c-0.177-0.014-0.364,0.014-0.549,0.026c-0.186,0.018-0.356,0.088-0.522,0.113c-0.153,0.055-0.301,0.093-0.437,0.124
					c-0.22,0.124-0.428,0.195-0.428,0.195l-0.027-0.023c0,0,0.089-0.175,0.318-0.414c0.134-0.073,0.296-0.172,0.482-0.235
					c0.192-0.021,0.398-0.053,0.599-0.04c0.808,0.009,1.537,0.304,1.537,0.304L39.95,20.8z"/>
			</g>
			<g>
				<path fill="#2A3757" d="M40.975,22.116c0,0-0.166,0.19-0.487,0.394c-0.164,0.09-0.359,0.209-0.589,0.274
					c-0.229,0.07-0.477,0.144-0.735,0.149c-0.258,0.044-0.516,0.033-0.756-0.009c-0.243-0.029-0.456-0.103-0.625-0.199
					c-0.345-0.175-0.545-0.329-0.545-0.329l0.016-0.031c0,0,0.264,0.016,0.614,0.096c0.172,0.059,0.379,0.079,0.599,0.104
					c0.216,0.051,0.447,0.1,0.685,0.089c0.239,0.021,0.472-0.022,0.692-0.064c0.114-0.011,0.213-0.057,0.312-0.088
					c0.096-0.035,0.195-0.057,0.274-0.1c0.333-0.149,0.522-0.311,0.522-0.311L40.975,22.116z"/>
			</g>
			<g>
				<path fill="#2A3757" d="M43.268,22.091c0,0,0.142,0.109,0.384,0.209c0.119,0.051,0.266,0.095,0.419,0.136
					c0.158,0.023,0.321,0.071,0.492,0.055c0.168,0.004,0.332-0.014,0.484-0.053c0.152-0.018,0.302-0.008,0.426-0.045
					c0.251-0.039,0.451-0.027,0.451-0.027l0.014,0.031c0,0-0.136,0.128-0.387,0.264c-0.123,0.075-0.283,0.119-0.461,0.14
					c-0.178,0.03-0.367,0.007-0.554-0.03c-0.188-0.012-0.363-0.09-0.528-0.141c-0.16-0.066-0.303-0.145-0.416-0.222
					c-0.229-0.152-0.348-0.29-0.348-0.291L43.268,22.091z"/>
			</g>
			<g>
				<path fill="#2A3757" d="M42.613,21.549c0,0-0.035,0.513,0.03,1.275c0.033,0.382,0.102,0.821,0.211,1.282
					c0.058,0.229,0.15,0.453,0.226,0.688c0.118,0.221,0.239,0.444,0.359,0.669c0.066,0.092,0.107,0.27,0.113,0.439l-0.057,0.239
					c-0.039,0.068-0.084,0.134-0.129,0.198c-0.208,0.229-0.476,0.339-0.729,0.407c-0.258,0.046-0.512,0.068-0.748,0.024
					c-0.234-0.037-0.456-0.101-0.637-0.213c-0.184-0.098-0.334-0.24-0.42-0.388c-0.109-0.136-0.13-0.289-0.162-0.402
					c-0.016-0.236-0.004-0.364-0.004-0.364h0.035c0,0,0.021,0.131,0.085,0.333c0.059,0.091,0.096,0.214,0.205,0.311
					c0.086,0.111,0.229,0.196,0.387,0.263c0.153,0.078,0.348,0.114,0.548,0.127c0.201,0.014,0.417,0.001,0.629-0.046
					c0.211-0.048,0.419-0.136,0.564-0.271c0.145-0.157,0.176-0.301,0.064-0.539c-0.11-0.234-0.221-0.468-0.329-0.698
					c-0.068-0.25-0.152-0.491-0.2-0.731c-0.092-0.48-0.128-0.933-0.135-1.32c-0.014-0.774,0.057-1.286,0.057-1.286L42.613,21.549z"
					/>
			</g>
			<g>
				<path fill="#2A3757" d="M39.678,27.992c0,0,1.043-0.077,2.085-0.123c0.521-0.045,1.042-0.059,1.434,0.002
					c0.391,0.045,0.651,0.121,0.651,0.121v0.035c0,0-0.261,0.076-0.651,0.121c-0.392,0.061-0.912,0.047-1.434,0.002
					c-1.042-0.046-2.085-0.123-2.085-0.123V27.992z"/>
			</g>
			<g>
				<path fill="#2A3757" d="M41.241,28.963c0,0,0.374-0.077,0.747-0.123c0.187-0.045,0.373-0.059,0.514,0.002
					c0.14,0.045,0.233,0.121,0.233,0.121v0.035c0,0-0.094,0.076-0.233,0.121c-0.141,0.061-0.327,0.047-0.514,0.002
					c-0.373-0.046-0.747-0.123-0.747-0.123V28.963z"/>
			</g>
		</g>
		<path fill="#AA292E" d="M21.976,87.002l-3.857,5.006c0,0,7.525,4.994,9.043,5.082s18.672-5.219,18.672-5.219l-3.873-6.189
			L21.976,87.002z"/>
		<path fill="#1F2D6C" d="M41.96,93.053c0,0-2.125-6.803-2.675-7.254c-0.551-0.451-3.349,0.836-3.349,0.836s2.157,2.135,3.223,7.26
			L41.96,93.053z"/>
		<path fill="#AA292E" d="M11.828,42.188v25.869c0,0,3.252,4.146,9.777,4.76C21.605,72.816,21.727,46.613,11.828,42.188z"/>
		<g>
			<rect x="30.92" y="65.285" fill="#0B050F" width="3.327" height="6.109"/>
			<rect x="24.247" y="67.395" fill="#0B050F" width="3.328" height="6.109"/>
			<rect x="34.272" y="67.713" fill="#AA292E" width="3.328" height="6.109"/>
			<rect x="27.591" y="65.721" fill="#AA292E" width="3.329" height="6.109"/>
			<rect x="37.495" y="69.555" fill="#0B050F" width="3.328" height="6.107"/>
			<rect x="40.848" y="71.98" fill="#AA292E" width="3.329" height="3.805"/>
		</g>
		<polygon fill="#AD6E2D" points="24.275,75.676 25.037,72.953 22.479,72.816 		"/>
		<path fill="#0B050F" d="M20.715,72.719c0,0,1.165-17.115-8.887-30.531c0.012-1.182,0.018-1.781,0.018-1.781
			s5.917,2.781,9.283,14.506c3.365,11.725,1.84,17.807,1.84,17.807H20.715z"/>
		<path fill="#1F2D6C" d="M22.252,72.336c0,0,0.309-11.262-2.471-18.01s-4.714-11.35-7.953-13.891v-5.148
			c0,0,4.997,1.014,12.125,18.775c2.995,9.945,2.436,18.645,2.436,18.645L22.252,72.336z"/>
		<g>
			<ellipse fill="#AA292E" cx="23.997" cy="72.635" rx="1.914" ry="0.766"/>
			
				<ellipse transform="matrix(-0.9986 0.0526 -0.0526 -0.9986 51.8878 140.3391)" fill="#AA292E" cx="24.097" cy="70.853" rx="1.875" ry="0.748"/>
			
				<ellipse transform="matrix(-0.9942 0.1071 -0.1071 -0.9942 55.4017 134.6602)" fill="#AA292E" cx="24.083" cy="68.818" rx="1.841" ry="0.735"/>
			
				<ellipse transform="matrix(-0.9866 0.1632 -0.1632 -0.9866 58.4517 128.3401)" fill="#AA292E" cx="23.954" cy="66.571" rx="1.813" ry="0.724"/>
			
				<ellipse transform="matrix(-0.9754 0.2204 -0.2204 -0.9754 60.9584 121.5036)" fill="#AA292E" cx="23.701" cy="64.152" rx="1.79" ry="0.717"/>
			
				<ellipse transform="matrix(-0.9606 0.278 -0.278 -0.9606 62.8472 114.2862)" fill="#AA292E" cx="23.321" cy="61.599" rx="1.774" ry="0.709"/>
			
				<ellipse transform="matrix(-0.942 0.3355 -0.3355 -0.942 64.0711 106.8332)" fill="#AA292E" cx="22.807" cy="58.951" rx="1.764" ry="0.705"/>
			
				<ellipse transform="matrix(-0.9199 0.3921 -0.3921 -0.9199 64.5936 99.3086)" fill="#AA292E" cx="22.155" cy="56.251" rx="1.761" ry="0.703"/>
			
				<ellipse transform="matrix(-0.8944 0.4472 -0.4472 -0.8944 64.4063 91.87)" fill="#AA292E" cx="21.359" cy="53.537" rx="1.764" ry="0.705"/>
			
				<ellipse transform="matrix(-0.8658 0.5005 -0.5005 -0.8658 63.5346 84.6551)" fill="#AA292E" cx="20.414" cy="50.849" rx="1.774" ry="0.709"/>
			
				<ellipse transform="matrix(-0.8346 0.5509 -0.5509 -0.8346 62.0006 77.8343)" fill="#AA292E" cx="19.313" cy="48.227" rx="1.79" ry="0.713"/>
			
				<ellipse transform="matrix(-0.8014 0.5982 -0.5982 -0.8014 59.8666 71.5416)" fill="#AA292E" cx="18.055" cy="45.711" rx="1.812" ry="0.724"/>
			
				<ellipse transform="matrix(-0.766 0.6429 -0.6429 -0.766 57.2305 65.845)" fill="#AA292E" cx="16.63" cy="43.34" rx="1.841" ry="0.735"/>
			
				<ellipse transform="matrix(-0.7297 0.6838 -0.6838 -0.7297 54.1484 60.9029)" fill="#AA292E" cx="15.035" cy="41.155" rx="1.875" ry="0.748"/>
			
				<ellipse transform="matrix(-0.6929 0.721 -0.721 -0.6929 50.7167 56.793)" fill="#AA292E" cx="13.265" cy="39.196" rx="1.914" ry="0.765"/>
		</g>
		<rect x="31.145" y="57.742" fill="#3856C8" width="5.29" height="5.854"/>
		<polygon fill="#BF9B4D" points="36.206,57.99 31.145,57.99 31.145,52.682 		"/>
		<rect x="31.054" y="58.439" fill="#BF9B4D" width="5.335" height="4.346"/>
		<polygon fill="#BF9B4D" points="36.389,63.168 31.145,63.168 31.145,64.586 36.389,67.76 		"/>
		<path fill="#AA292E" d="M30.122,52.174l0.203,12.316l-4.342,2.453c0,0-0.852-10.199-1.883-12.031S30.122,52.174,30.122,52.174z"/>
		<polygon fill="#E8EFFF" points="30.046,52.137 31.336,52.777 31.336,65.381 30.046,65.381 		"/>
		<polygon fill="#0B050F" points="29.63,51.656 30.92,52.295 30.92,64.9 29.63,64.9 		"/>
		<g>
			<path fill="#0B050F" d="M21.197,47.381c0.438,1.104,1.178,2.125,1.726,3.18c0.891,1.717,1.526,3.535,1.817,5.428
				c0.027,0,0.053,0.002,0.08,0.002c2.668,0,4.948-1.652,5.88-3.988c-0.198-0.223-0.391-0.453-0.637-0.66
				c-0.442-0.375-0.965-0.668-1.427-1.021c-1.122-0.861-1.979-2.047-3.234-2.723c-0.946-0.508-1.953-0.861-2.96-1.225
				c-0.432-0.158-0.871-0.314-1.319-0.42c-0.137,0.021-0.272,0.041-0.408,0.061C20.88,46.475,21.023,46.945,21.197,47.381z"/>
			<path fill="#BF9B4D" d="M21.197,47.381c0.438,1.104,1.178,2.125,1.726,3.18c0.812,1.566,1.412,3.215,1.732,4.93
				c0.055,0,0.109,0.004,0.165,0.004c2.546,0,4.708-1.631,5.505-3.904c-0.082-0.086-0.167-0.17-0.262-0.248
				c-0.442-0.375-0.965-0.668-1.427-1.021c-1.122-0.861-1.979-2.047-3.234-2.723c-0.946-0.508-1.953-0.861-2.96-1.225
				c-0.432-0.158-0.871-0.314-1.319-0.42c-0.137,0.021-0.272,0.041-0.408,0.059C20.88,46.473,21.023,46.943,21.197,47.381z"/>
			<path fill="#3856C8" d="M22.923,50.561c0.357,0.688,0.672,1.393,0.941,2.111c0.302,0.096,0.623,0.148,0.956,0.148
				c1.713,0,3.104-1.363,3.154-3.064c-0.828-0.76-1.574-1.621-2.572-2.158c-0.603-0.322-1.229-0.582-1.863-0.822
				c-0.804,0.355-1.43,1.039-1.713,1.881C22.189,49.295,22.591,49.922,22.923,50.561z"/>
		</g>
		<polygon fill="#AA292E" points="42.671,62.121 37.492,59.133 37.229,68.775 42.671,71.771 		"/>
		<rect x="36.206" y="58.582" fill="#E8EFFF" width="1.289" height="9.758"/>
		<path fill="#C9D8F7" d="M47.599,74.705c0,0-2.229,1.25-4.526,1.572l-0.278-13.98c0,0,3.526,1.307,5.111,1.248L47.599,74.705z"/>
		<polygon fill="#715C57" points="47.599,74.705 48.4,74.4 48.4,63.641 47.599,63.641 		"/>
		<path fill="#0B050F" d="M48.4,74.4c0,0,1.188-0.496,1.704-0.891v-9.723H48.4V74.4z"/>
		<rect x="36.685" y="59.016" fill="#0B050F" width="1.289" height="9.76"/>
		<rect x="42.27" y="62.562" fill="#715C57" width="0.803" height="13.715"/>
		<g>
			<path fill="#AA7941" d="M21.764,45.779c0.483,0,1.114,0.098,1.905,0.396c2.623,0.994,5.828,3.729,9.53,8.131
				c4.457,5.301,8.839,7.406,11.729,8.24c3.127,0.902,6.526,0.486,6.548,0.482l0.153,0.863c-0.092,0.016-3.579,0.455-6.887-0.486
				c-3.021-0.861-7.595-3.041-12.215-8.537c-8.314-9.885-11.485-8.086-11.516-8.066l-0.495-0.723
				C20.581,46.035,20.977,45.779,21.764,45.779z"/>
		</g>
		<path fill="#E8EFFF" d="M42.27,72.326c0,0-10.715-6.988-11.727-6.988s-4.048,2.127-4.048,2.127v-1.236
			c0,0,3.661-2.441,4.137-2.441c0.477,0,11.638,7.234,11.638,7.234V72.326z"/>
		<path fill="#BF9B4D" d="M41.071,75.676c0,0-9.055-6.658-10.341-6.658c-1.285,0-5.012,3.328-5.012,3.328L41.071,75.676z"/>
		<path fill="#BF9B4D" d="M42.27,73.176c0,0-10.715-7.107-11.727-7.107s-4.048,2.395-4.048,2.395v-1.197
			c0,0,3.661-2.365,4.137-2.365c0.477,0,11.638,7.01,11.638,7.01V73.176z"/>
		<path fill="#AA7941" d="M26.787,71.855c0,0,0.024-11.307-2.619-18.764c-2.646-7.459-8.692-17.834-11.407-18.758l-0.933,0.953
			c2.344,1.184,9.964,12.717,11.388,18.354c1.745,7.172,1.805,4.07,2.647,18.686C26.707,86.941,26.787,71.855,26.787,71.855z"/>
		<path fill="#DCE3F2" d="M35.118,73.176c0,0-3.703-2.727-4.491-2.727c-0.787,0-2.467,1.535-2.467,1.535s5.128,3.416,6.536,2.936
			C36.105,74.438,35.118,73.176,35.118,73.176z"/>
		<path fill="#D28537" d="M24.805,86.535c0,0-1.748-1.744-1.303-6.273c0.446-4.529,0.824-9.066-2.49-7.682
			c-3.313,1.385-0.449,4.914,1.55,3.051c0,0-0.01,2.232-0.3,5.172C21.973,83.742,22.184,86.557,24.805,86.535z"/>
		<path fill="#E8EFFF" d="M23.053,85.799c0,0-0.486-2.723,0-3.279c0.486-0.555,0.035-1.418,0-2.082
			c-0.034-0.662-0.729-6.256,3.092-8.271c3.823-2.016,3.51,0.77,8.201,2.539c0,0,0.729,10.906-2.467,11.811
			C31.879,86.516,25.52,87.062,23.053,85.799z"/>
		<path fill="#A86B2C" d="M38.664,85.1c0,0,1.24-1.016,1.24-3.969c0-2.955,1.532-6.043,3.585-4.939
			c2.052,1.105-0.023,3.203-1.195,1.873c0,0-0.137,1.443-0.137,3.359C42.157,83.342,41.086,85.578,38.664,85.1z"/>
		<path fill="#AD6E2D" d="M37.486,85.785c0,0,1.436-1.174,1.436-4.592s0.77-7.008,3.146-5.729c2.374,1.279-0.026,3.705-1.384,2.166
			c0,0-0.156,1.67-0.156,3.889S39.444,85.994,37.486,85.785z"/>
		<path fill="#B3712E" d="M35.937,86.158c0,0,1.361-2.404,1.361-6.08c0-3.678,1.025-6.385,3.581-5.01
			c2.555,1.377-0.028,3.986-1.488,2.33c0,0-0.168,1.797-0.168,4.184C39.223,83.967,38.041,86.383,35.937,86.158z"/>
		<path fill="#B87530" d="M34.696,86.342c0,0,0.97-1.633,0.97-5.732c0-4.102,0.814-7.979,3.664-6.445
			c2.849,1.535-0.031,4.445-1.659,2.6c0,0-0.188,2.002-0.188,4.664C37.482,84.088,37.044,86.592,34.696,86.342z"/>
		<path fill="#BD7831" d="M33.054,86.52c0,0,1.838-1.502,1.838-5.879c0-4.375,0.066-8.752,3.106-7.113
			c3.04,1.635-0.033,4.742-1.771,2.771c0,0-0.2,2.139-0.2,4.977C36.027,84.115,35.56,86.787,33.054,86.52z"/>
		<path fill="#D28537" d="M31.879,86.516c0,0,1.91-1.564,1.91-6.115s0.07-9.104,3.231-7.4c3.162,1.703-0.034,4.934-1.841,2.883
			c0,0-0.209,2.225-0.209,5.178S34.484,86.793,31.879,86.516z"/>
		<path fill="#333333" d="M41.512,83.883c0,0-7.176,3.957-18.846,1.438l-0.69,1.682c0,0,9.045,3.543,19.984-1.32L41.512,83.883z"/>
		<g>
			<path fill="#D28537" d="M25.977,82.919c0,0-0.73,0.295-1.538,0.303c-0.2,0.014-0.406-0.02-0.599-0.04
				c-0.187-0.064-0.349-0.162-0.483-0.235c-0.229-0.239-0.317-0.415-0.317-0.415l0.027-0.023c0,0,0.208,0.071,0.428,0.196
				c0.136,0.031,0.284,0.069,0.437,0.124c0.166,0.025,0.337,0.096,0.522,0.114c0.186,0.013,0.372,0.039,0.55,0.026
				c0.178-0.002,0.345-0.008,0.487-0.022c0.286-0.022,0.477-0.061,0.477-0.061L25.977,82.919z"/>
		</g>
		<g>
			<path fill="#D28537" d="M29.173,82.886c0,0,0.19,0.038,0.477,0.061c0.143,0.015,0.31,0.021,0.487,0.022
				c0.178,0.013,0.364-0.014,0.55-0.026c0.186-0.019,0.356-0.089,0.522-0.114c0.152-0.055,0.301-0.093,0.437-0.124
				c0.22-0.125,0.428-0.196,0.428-0.196l0.027,0.023c0,0-0.089,0.176-0.317,0.415c-0.135,0.073-0.297,0.171-0.483,0.235
				c-0.192,0.021-0.398,0.054-0.599,0.04c-0.808-0.008-1.538-0.303-1.538-0.303L29.173,82.886z"/>
		</g>
		<g>
			<path fill="#2A3757" d="M28.148,81.569c0,0,0.166-0.19,0.487-0.394c0.164-0.091,0.359-0.209,0.589-0.275
				c0.229-0.07,0.477-0.144,0.736-0.149c0.258-0.043,0.516-0.033,0.756,0.009c0.243,0.029,0.456,0.103,0.625,0.199
				c0.345,0.176,0.545,0.33,0.545,0.33l-0.016,0.031c0,0-0.264-0.016-0.614-0.096c-0.172-0.06-0.38-0.079-0.599-0.104
				c-0.216-0.05-0.447-0.1-0.685-0.089c-0.24-0.021-0.473,0.022-0.693,0.064c-0.113,0.012-0.213,0.057-0.312,0.088
				c-0.096,0.036-0.195,0.057-0.274,0.1c-0.333,0.149-0.522,0.312-0.522,0.312L28.148,81.569z"/>
		</g>
		<g>
			<path fill="#2A3757" d="M25.855,81.595c0,0-0.141-0.109-0.384-0.209c-0.119-0.051-0.266-0.095-0.418-0.136
				c-0.159-0.023-0.322-0.071-0.492-0.055c-0.169-0.004-0.333,0.014-0.484,0.053c-0.153,0.018-0.303,0.008-0.426,0.045
				c-0.252,0.039-0.452,0.027-0.452,0.027l-0.014-0.031c0,0,0.136-0.128,0.387-0.264c0.123-0.074,0.283-0.119,0.461-0.14
				c0.178-0.03,0.367-0.008,0.554,0.03c0.188,0.012,0.363,0.09,0.528,0.141c0.16,0.065,0.304,0.145,0.416,0.222
				c0.229,0.152,0.348,0.29,0.348,0.291L25.855,81.595z"/>
		</g>
		<g>
			<path fill="#2A3757" d="M26.51,82.137c0,0,0.036-0.513-0.03-1.276c-0.033-0.381-0.101-0.821-0.211-1.281
				c-0.058-0.229-0.15-0.454-0.226-0.688c-0.118-0.221-0.239-0.445-0.359-0.669c-0.066-0.093-0.107-0.271-0.113-0.44l0.057-0.239
				c0.039-0.067,0.085-0.134,0.13-0.198c0.207-0.229,0.475-0.338,0.729-0.407c0.258-0.046,0.512-0.068,0.748-0.024
				c0.234,0.037,0.456,0.102,0.637,0.213c0.184,0.098,0.334,0.241,0.42,0.389c0.109,0.135,0.13,0.289,0.162,0.402
				c0.016,0.236,0.004,0.364,0.004,0.364h-0.035c0,0-0.021-0.131-0.085-0.333c-0.059-0.092-0.096-0.214-0.205-0.312
				c-0.086-0.11-0.229-0.195-0.387-0.263c-0.153-0.077-0.348-0.114-0.548-0.126c-0.202-0.015-0.417-0.002-0.63,0.046
				c-0.21,0.047-0.418,0.135-0.564,0.271c-0.145,0.157-0.175,0.302-0.064,0.54c0.11,0.233,0.221,0.468,0.33,0.697
				c0.067,0.25,0.152,0.492,0.199,0.731c0.093,0.481,0.128,0.934,0.135,1.321c0.015,0.774-0.057,1.286-0.057,1.286L26.51,82.137z"/>
		</g>
		<g>
			<path fill="#2A3757" d="M29.446,75.693c0,0-1.042,0.077-2.085,0.123c-0.521,0.045-1.043,0.059-1.434-0.002
				c-0.391-0.045-0.651-0.121-0.651-0.121v-0.035c0,0,0.261-0.076,0.651-0.121c0.391-0.061,0.912-0.047,1.434-0.002
				c1.043,0.046,2.085,0.123,2.085,0.123V75.693z"/>
		</g>
		<g>
			<path fill="#2A3757" d="M27.883,74.723c0,0-0.373,0.077-0.747,0.123c-0.187,0.045-0.374,0.059-0.514-0.002
				c-0.14-0.045-0.233-0.121-0.233-0.121v-0.035c0,0,0.094-0.076,0.233-0.121c0.14-0.061,0.327-0.047,0.514-0.002
				c0.374,0.046,0.747,0.123,0.747,0.123V74.723z"/>
		</g>
	</g>
</g>
</svg>
