<?xml version="1.0" encoding="utf-8"?>
<!-- Generator: Adobe Illustrator 16.0.0, SVG Export Plug-In . SVG Version: 6.00 Build 0)  -->
<!DOCTYPE svg PUBLIC "-//W3C//DTD SVG 1.1//EN" "http://www.w3.org/Graphics/SVG/1.1/DTD/svg11.dtd">
<svg version="1.1" id="Layer_1" xmlns="http://www.w3.org/2000/svg" xmlns:xlink="http://www.w3.org/1999/xlink" x="0px" y="0px"
	 width="69.12px" height="103.69px" viewBox="0 0 69.12 103.69" enable-background="new 0 0 69.12 103.69" xml:space="preserve">
<g>
	<g>
		<path fill="#F2F2F2" d="M69.123,100.963c0,1.502-1.219,2.721-2.722,2.721H2.722c-1.503,0-2.722-1.219-2.722-2.721V2.721
			C0,1.219,1.219,0,2.722,0h63.68c1.503,0,2.722,1.219,2.722,2.721V100.963z"/>
		<g>
			<path fill="#333333" d="M8.94,13.773c-0.452-0.369-0.922-0.754-1.28-1.18c-0.061-0.072-0.149-0.111-0.241-0.111H7.4
				c-0.094,0-0.184,0.039-0.244,0.111c-0.358,0.426-0.828,0.811-1.28,1.18c-0.959,0.785-1.949,1.598-1.949,2.855
				c0,1.139,0.797,1.936,1.939,1.936c0.552,0,1.033-0.324,1.36-0.621c-0.157,0.67-0.45,1.465-1.004,2.088h2.37
				c-0.555-0.623-0.848-1.42-1.005-2.092c0.327,0.299,0.81,0.625,1.362,0.625c1.141,0,1.939-0.797,1.939-1.936
				C10.89,15.373,9.898,14.561,8.94,13.773z"/>
			<path fill="#4D4D4D" d="M7.4,20.031v-7.549l0,0c-0.094,0-0.184,0.039-0.244,0.111c-0.358,0.426-0.828,0.811-1.28,1.18
				c-0.959,0.785-1.949,1.598-1.949,2.855c0,1.139,0.797,1.936,1.939,1.936c0.552,0,1.033-0.324,1.36-0.621
				c-0.157,0.67-0.45,1.465-1.004,2.088H7.4z"/>
		</g>
		<rect x="2.722" y="2.721" fill="none" width="9.374" height="9.762"/>
		<text transform="matrix(1 0 0 1 5.3945 10.4492)" fill="#333333" font-family="'ChunkFive'" font-size="10.8856">J</text>
		<g>
			<path fill="#333333" d="M60.182,89.908c0.452,0.371,0.923,0.756,1.28,1.182c0.061,0.072,0.15,0.111,0.242,0.111h0.019
				c0.094,0,0.183-0.039,0.243-0.111c0.359-0.426,0.828-0.811,1.281-1.182c0.958-0.783,1.948-1.596,1.948-2.854
				c0-1.139-0.796-1.936-1.939-1.936c-0.552,0-1.033,0.324-1.36,0.621c0.158-0.67,0.451-1.465,1.005-2.088h-2.37
				c0.554,0.623,0.847,1.42,1.004,2.092c-0.326-0.299-0.809-0.625-1.361-0.625c-1.142,0-1.94,0.797-1.94,1.936
				C58.232,88.311,59.225,89.123,60.182,89.908z"/>
			<path fill="#4D4D4D" d="M61.723,83.652v7.549l0,0c0.094,0,0.183-0.039,0.243-0.111c0.359-0.426,0.828-0.811,1.281-1.182
				c0.958-0.783,1.948-1.596,1.948-2.854c0-1.139-0.796-1.936-1.939-1.936c-0.552,0-1.033,0.324-1.36,0.621
				c0.158-0.67,0.451-1.465,1.005-2.088H61.723z"/>
		</g>
		<rect x="57.027" y="91.201" fill="none" width="9.374" height="9.762"/>
		<text transform="matrix(-1 0 0 -1 63.7285 93.2324)" fill="#333333" font-family="'ChunkFive'" font-size="10.8856">J </text>
	</g>
	<g>
		<path fill="#333333" d="M50.104,73.508c0,0,3.724-1.346,7.191-5.111v-4.609h-7.191V73.508z"/>
		<g>
			<path fill="#333333" d="M47.147,16.682l3.858-5.006c0,0-7.525-4.994-9.043-5.082c-1.519-0.088-18.673,5.219-18.673,5.219
				l3.873,6.189L47.147,16.682z"/>
			<path fill="#AA292E" d="M27.163,10.631c0,0,2.126,6.803,2.676,7.254s3.349-0.834,3.349-0.834s-2.158-2.137-3.224-7.26
				L27.163,10.631z"/>
			<path fill="#333333" d="M57.296,61.496V35.627c0,0-3.252-4.145-9.778-4.76C47.518,30.867,47.396,57.07,57.296,61.496z"/>
			<g>
				<rect x="34.876" y="32.289" fill="#0B050F" width="3.328" height="6.109"/>
				<rect x="41.548" y="30.18" fill="#0B050F" width="3.329" height="6.109"/>
				<rect x="31.523" y="29.861" fill="#AA292E" width="3.327" height="6.109"/>
				<rect x="38.204" y="31.855" fill="#AA292E" width="3.328" height="6.109"/>
				<rect x="28.3" y="28.021" fill="#0B050F" width="3.328" height="6.109"/>
				<rect x="24.947" y="27.898" fill="#AA292E" width="3.328" height="3.805"/>
			</g>
			<polygon fill="#AD6E2D" points="44.849,28.01 44.087,30.73 46.646,30.867 			"/>
			<path fill="#0B050F" d="M48.409,30.967c0,0-1.165,17.113,8.887,30.529c-0.012,1.182-0.019,1.781-0.019,1.781
				s-5.916-2.781-9.282-14.506c-3.365-11.725-1.84-17.805-1.84-17.805H48.409z"/>
			<path fill="#1F2D6C" d="M46.872,31.348c0,0-0.309,11.262,2.471,18.01s4.714,11.35,7.953,13.891v5.148
				c0,0-9.132-8.828-12.126-18.775c-2.994-9.945-2.435-18.645-2.435-18.645L46.872,31.348z"/>
			<g>
				<ellipse fill="#AA292E" cx="45.126" cy="31.051" rx="1.914" ry="0.764"/>
				
					<ellipse transform="matrix(0.9986 -0.0526 0.0526 0.9986 -1.665 2.4145)" fill="#AA292E" cx="45.027" cy="32.831" rx="1.875" ry="0.75"/>
				
					<ellipse transform="matrix(0.9942 -0.1072 0.1072 0.9942 -3.4771 5.0277)" fill="#AA292E" cx="45.04" cy="34.865" rx="1.841" ry="0.735"/>
				
					<ellipse transform="matrix(0.9866 -0.1633 0.1633 0.9866 -5.453 7.8725)" fill="#AA292E" cx="45.17" cy="37.112" rx="1.812" ry="0.725"/>
				
					<ellipse transform="matrix(0.9754 -0.2204 0.2204 0.9754 -7.596 10.9831)" fill="#AA292E" cx="45.423" cy="39.533" rx="1.79" ry="0.715"/>
				
					<ellipse transform="matrix(0.9606 -0.278 0.278 0.9606 -9.8944 14.3917)" fill="#AA292E" cx="45.803" cy="42.087" rx="1.774" ry="0.708"/>
				
					<ellipse transform="matrix(0.942 -0.3355 0.3355 0.942 -12.3236 18.1324)" fill="#AA292E" cx="46.316" cy="44.732" rx="1.764" ry="0.705"/>
				
					<ellipse transform="matrix(0.9199 -0.392 0.392 0.9199 -14.8357 22.211)" fill="#AA292E" cx="46.969" cy="47.433" rx="1.761" ry="0.704"/>
				
					<ellipse transform="matrix(0.8944 -0.4472 0.4472 0.8944 -17.3835 26.6551)" fill="#AA292E" cx="47.765" cy="50.146" rx="1.764" ry="0.705"/>
				
					<ellipse transform="matrix(0.8658 -0.5003 0.5003 0.8658 -19.9002 31.4601)" fill="#AA292E" cx="48.709" cy="52.835" rx="1.774" ry="0.709"/>
				
					<ellipse transform="matrix(0.8346 -0.5509 0.5509 0.8346 -22.3118 36.6159)" fill="#AA292E" cx="49.81" cy="55.457" rx="1.79" ry="0.716"/>
				
					<ellipse transform="matrix(0.8011 -0.5985 0.5985 0.8011 -24.5415 42.0972)" fill="#AA292E" cx="51.068" cy="57.974" rx="1.813" ry="0.723"/>
				
					<ellipse transform="matrix(0.766 -0.6429 0.6429 0.766 -26.5089 47.8706)" fill="#AA292E" cx="52.493" cy="60.344" rx="1.841" ry="0.735"/>
				
					<ellipse transform="matrix(0.7298 -0.6837 0.6837 0.7298 -28.1343 53.8748)" fill="#AA292E" cx="54.088" cy="62.529" rx="1.874" ry="0.749"/>
				
					<ellipse transform="matrix(0.6925 -0.7214 0.7214 0.6925 -29.3461 60.1221)" fill="#AA292E" cx="55.859" cy="64.488" rx="1.914" ry="0.765"/>
			</g>
			<rect x="32.689" y="40.09" fill="#3856C8" width="5.29" height="5.852"/>
			<polygon fill="#BF9B4D" points="32.917,45.693 37.979,45.693 37.979,51.002 			"/>
			<rect x="32.734" y="40.9" fill="#BF9B4D" width="5.335" height="4.344"/>
			<polygon fill="#BF9B4D" points="32.734,40.518 37.979,40.518 37.979,39.1 32.734,35.924 			"/>
			<path fill="#333333" d="M39.002,51.51l-0.203-12.316l4.341-2.453c0,0,0.854,10.199,1.884,12.031
				C46.055,50.604,39.002,51.51,39.002,51.51z"/>
			<polygon fill="#E8EFFF" points="39.077,51.547 37.788,50.908 37.788,38.303 39.077,38.303 			"/>
			<polygon fill="#0B050F" points="39.493,52.029 38.204,51.391 38.204,38.785 39.493,38.785 			"/>
			<g>
				<path fill="#0B050F" d="M47.927,56.303c-0.438-1.104-1.179-2.125-1.727-3.18c-0.891-1.717-1.526-3.535-1.817-5.428
					c-0.026,0-0.053-0.002-0.08-0.002c-2.667,0-4.948,1.652-5.879,3.988c0.197,0.223,0.39,0.453,0.636,0.662
					c0.443,0.373,0.965,0.668,1.428,1.021c1.121,0.859,1.979,2.045,3.234,2.721c0.946,0.508,1.952,0.861,2.959,1.227
					c0.433,0.156,0.871,0.314,1.32,0.418c0.136-0.02,0.271-0.041,0.408-0.059C48.243,57.209,48.101,56.74,47.927,56.303z"/>
				<path fill="#BF9B4D" d="M47.927,56.303c-0.438-1.104-1.179-2.125-1.727-3.18c-0.812-1.564-1.412-3.215-1.732-4.928
					c-0.055-0.002-0.109-0.006-0.165-0.006c-2.545,0-4.708,1.633-5.504,3.906c0.082,0.084,0.166,0.168,0.261,0.248
					c0.443,0.373,0.965,0.668,1.428,1.021c1.121,0.859,1.979,2.045,3.234,2.721c0.946,0.508,1.952,0.861,2.959,1.227
					c0.433,0.156,0.871,0.314,1.32,0.418c0.136-0.02,0.272-0.041,0.408-0.059C48.243,57.211,48.101,56.74,47.927,56.303z"/>
				<path fill="#3856C8" d="M46.2,53.123c-0.356-0.688-0.672-1.393-0.94-2.111c-0.302-0.096-0.623-0.148-0.957-0.148
					c-1.712,0-3.104,1.363-3.154,3.064c0.828,0.762,1.575,1.621,2.573,2.158c0.602,0.322,1.228,0.584,1.862,0.824
					c0.805-0.357,1.431-1.041,1.713-1.881C46.935,54.389,46.532,53.762,46.2,53.123z"/>
			</g>
			<polygon fill="#333333" points="26.453,41.562 31.632,44.551 31.895,34.91 26.453,31.912 			"/>
			<rect x="31.628" y="35.344" fill="#E8EFFF" width="1.289" height="9.758"/>
			<path fill="#C9D8F7" d="M21.525,28.98c0,0,2.228-1.252,4.526-1.574l0.277,13.982c0,0-3.526-1.309-5.111-1.248L21.525,28.98z"/>
			<polygon fill="#715C57" points="21.525,28.98 20.723,29.283 20.723,40.043 21.525,40.043 			"/>
			<path fill="#0B050F" d="M20.723,29.283c0,0-1.188,0.496-1.703,0.893v9.721h1.703V29.283z"/>
			<path fill="#333333" d="M19.02,30.176c0,0-3.725,1.346-7.192,5.109v4.611h7.192V30.176z"/>
			<rect x="31.149" y="34.91" fill="#0B050F" width="1.29" height="9.758"/>
			<rect x="26.052" y="27.406" fill="#715C57" width="0.803" height="13.715"/>
			<g>
				<path fill="#AA7941" d="M47.36,57.904c-0.484,0-1.114-0.096-1.906-0.396c-2.622-0.994-5.828-3.729-9.529-8.131
					c-4.457-5.299-8.839-7.406-11.73-8.24c-3.127-0.902-6.681-0.734-6.702-0.73l-0.153-0.863c0.092-0.016,3.734-0.207,7.041,0.734
					c3.022,0.861,7.595,3.043,12.216,8.537c8.314,9.887,11.484,8.086,11.516,8.066l0.495,0.723
					C48.543,57.648,48.146,57.904,47.36,57.904z"/>
			</g>
			<path fill="#E8EFFF" d="M26.854,31.357c0,0,10.715,6.988,11.727,6.988c1.011,0,4.047-2.127,4.047-2.127v1.236
				c0,0-3.66,2.441-4.137,2.441c-0.476,0-11.637-7.234-11.637-7.234V31.357z"/>
			<path fill="#BF9B4D" d="M28.052,28.01c0,0,9.056,6.656,10.341,6.656s5.013-3.328,5.013-3.328L28.052,28.01z"/>
			<path fill="#BF9B4D" d="M26.854,30.51c0,0,10.715,7.105,11.727,7.105c1.011,0,4.047-2.395,4.047-2.395v1.197
				c0,0-3.66,2.367-4.137,2.367c-0.476,0-11.637-7.012-11.637-7.012V30.51z"/>
			<path fill="#AA7941" d="M42.337,31.83c0,0-0.026,11.305,2.619,18.764c2.645,7.457,9.301,17.945,11.258,18.896l1.082-1.094
				c0,0-4.685-3.861-11.388-18.354c-1.745-7.172-1.805-4.07-2.648-18.686C42.417,16.742,42.337,31.83,42.337,31.83z"/>
			<path fill="#DCE3F2" d="M34.005,30.51c0,0,3.703,2.725,4.491,2.725c0.787,0,2.467-1.533,2.467-1.533s-5.128-3.418-6.536-2.936
				C33.018,29.246,34.005,30.51,34.005,30.51z"/>
			<path fill="#D28537" d="M44.319,17.15c0,0,1.748,1.742,1.302,6.271c-0.446,4.531-0.823,9.066,2.49,7.684
				c3.313-1.385,0.449-4.914-1.55-3.053c0,0,0.011-2.232,0.3-5.172C47.151,19.941,46.939,17.129,44.319,17.15z"/>
			<path fill="#E8EFFF" d="M46.07,17.885c0,0,0.486,2.725,0,3.279c-0.486,0.557-0.034,1.418,0,2.082
				c0.035,0.664,0.729,6.258-3.092,8.273c-3.822,2.014-3.51-0.77-8.2-2.539c0,0-0.729-10.908,2.467-11.812
				C37.245,17.168,43.604,16.621,46.07,17.885z"/>
			<path fill="#A86B2C" d="M30.459,18.584c0,0-1.24,1.016-1.24,3.971c0,2.953-1.531,6.043-3.584,4.938s0.022-3.203,1.195-1.873
				c0,0,0.136-1.443,0.136-3.359C26.966,20.342,28.037,18.107,30.459,18.584z"/>
			<path fill="#AD6E2D" d="M31.637,17.898c0,0-1.435,1.174-1.435,4.594c0,3.418-0.771,7.006-3.146,5.727s0.026-3.705,1.383-2.166
				c0,0,0.157-1.67,0.157-3.889C28.597,19.947,29.68,17.689,31.637,17.898z"/>
			<path fill="#B3712E" d="M33.188,17.527c0,0-1.361,2.402-1.361,6.08c0,3.676-1.026,6.383-3.581,5.008s0.027-3.986,1.487-2.33
				c0,0,0.169-1.797,0.169-4.182C29.901,19.717,31.082,17.301,33.188,17.527z"/>
			<path fill="#B87530" d="M34.427,17.342c0,0-0.969,1.633-0.969,5.734c0,4.1-0.814,7.977-3.664,6.443
				c-2.849-1.533,0.031-4.445,1.659-2.598c0,0,0.188-2.004,0.188-4.664C31.642,19.596,32.079,17.092,34.427,17.342z"/>
			<path fill="#BD7831" d="M36.069,17.164c0,0-1.838,1.504-1.838,5.879s-0.065,8.752-3.105,7.115s0.033-4.744,1.77-2.773
				c0,0,0.201-2.137,0.201-4.977S33.564,16.896,36.069,17.164z"/>
			<path fill="#D28537" d="M37.245,17.168c0,0-1.911,1.564-1.911,6.115c0,4.553-0.069,9.104-3.23,7.402
				c-3.162-1.703,0.034-4.936,1.841-2.885c0,0,0.208-2.223,0.208-5.178C34.152,19.67,34.639,16.891,37.245,17.168z"/>
			<path fill="#333333" d="M27.612,19.803c0,0,7.176-3.959,18.845-1.438l0.69-1.684c0,0-9.045-3.543-19.984,1.32L27.612,19.803z"/>
			<g>
				<path fill="#D28537" d="M43.146,20.765c0,0,0.73-0.295,1.538-0.303c0.2-0.014,0.406,0.02,0.599,0.04
					c0.187,0.064,0.349,0.162,0.483,0.235c0.229,0.239,0.317,0.415,0.317,0.415l-0.027,0.023c0,0-0.208-0.071-0.428-0.196
					c-0.136-0.031-0.283-0.069-0.437-0.124c-0.166-0.025-0.337-0.096-0.522-0.114c-0.186-0.013-0.372-0.039-0.55-0.026
					c-0.178,0.002-0.345,0.008-0.487,0.022c-0.286,0.022-0.477,0.061-0.477,0.061L43.146,20.765z"/>
			</g>
			<g>
				<path fill="#D28537" d="M39.95,20.798c0,0-0.19-0.038-0.477-0.061c-0.143-0.015-0.31-0.021-0.487-0.022
					c-0.178-0.013-0.364,0.014-0.55,0.026c-0.185,0.019-0.355,0.089-0.521,0.114c-0.153,0.055-0.301,0.093-0.437,0.124
					c-0.22,0.125-0.428,0.196-0.428,0.196l-0.027-0.023c0,0,0.089-0.176,0.317-0.415c0.134-0.073,0.296-0.171,0.483-0.235
					c0.191-0.021,0.397-0.054,0.598-0.04c0.809,0.008,1.538,0.303,1.538,0.303L39.95,20.798z"/>
			</g>
			<g>
				<path fill="#2A3757" d="M40.975,22.116c0,0-0.166,0.19-0.487,0.394c-0.164,0.09-0.359,0.209-0.589,0.274
					c-0.229,0.07-0.477,0.144-0.735,0.149c-0.258,0.044-0.516,0.033-0.756-0.009c-0.243-0.029-0.456-0.103-0.625-0.199
					c-0.345-0.175-0.545-0.329-0.545-0.329l0.016-0.031c0,0,0.264,0.016,0.614,0.096c0.172,0.059,0.379,0.079,0.599,0.104
					c0.216,0.051,0.447,0.1,0.685,0.089c0.239,0.021,0.472-0.022,0.692-0.064c0.114-0.011,0.213-0.057,0.312-0.088
					c0.096-0.035,0.195-0.057,0.274-0.1c0.333-0.149,0.522-0.311,0.522-0.311L40.975,22.116z"/>
			</g>
			<g>
				<path fill="#2A3757" d="M43.268,22.091c0,0,0.142,0.109,0.384,0.209c0.119,0.051,0.266,0.095,0.419,0.136
					c0.158,0.023,0.321,0.071,0.492,0.055c0.168,0.004,0.332-0.014,0.484-0.053c0.152-0.018,0.302-0.008,0.426-0.045
					c0.251-0.039,0.451-0.027,0.451-0.027l0.014,0.031c0,0-0.136,0.128-0.387,0.264c-0.123,0.075-0.283,0.119-0.461,0.14
					c-0.178,0.03-0.367,0.007-0.554-0.03c-0.188-0.012-0.363-0.09-0.528-0.141c-0.16-0.066-0.303-0.145-0.416-0.222
					c-0.229-0.152-0.348-0.29-0.348-0.291L43.268,22.091z"/>
			</g>
			<g>
				<path fill="#2A3757" d="M42.613,21.549c0,0-0.036,0.513,0.03,1.275c0.033,0.381,0.101,0.821,0.211,1.281
					c0.057,0.229,0.15,0.454,0.226,0.688c0.118,0.221,0.238,0.445,0.359,0.669c0.066,0.093,0.107,0.27,0.113,0.439l-0.057,0.239
					c-0.039,0.068-0.084,0.134-0.129,0.199c-0.208,0.229-0.476,0.338-0.729,0.406c-0.258,0.047-0.512,0.068-0.748,0.025
					c-0.234-0.038-0.456-0.102-0.637-0.213c-0.184-0.098-0.334-0.24-0.42-0.388c-0.109-0.136-0.131-0.289-0.163-0.402
					c-0.016-0.236-0.004-0.364-0.004-0.364h0.035c0,0,0.021,0.131,0.086,0.333c0.058,0.091,0.096,0.214,0.204,0.311
					c0.086,0.11,0.229,0.195,0.388,0.263c0.153,0.077,0.348,0.113,0.548,0.126c0.201,0.015,0.417,0.001,0.629-0.046
					c0.211-0.048,0.419-0.135,0.564-0.271c0.145-0.156,0.176-0.3,0.063-0.539c-0.11-0.233-0.221-0.468-0.329-0.697
					c-0.067-0.25-0.152-0.492-0.199-0.731c-0.093-0.48-0.128-0.934-0.135-1.32c-0.015-0.774,0.057-1.286,0.057-1.286L42.613,21.549z
					"/>
			</g>
			<g>
				<path fill="#2A3757" d="M39.677,27.992c0,0,1.042-0.077,2.085-0.123c0.521-0.045,1.043-0.059,1.434,0.002
					c0.391,0.045,0.651,0.121,0.651,0.121v0.035c0,0-0.261,0.076-0.651,0.121c-0.391,0.061-0.912,0.047-1.434,0.002
					c-1.043-0.046-2.085-0.123-2.085-0.123V27.992z"/>
			</g>
			<g>
				<path fill="#2A3757" d="M41.241,28.963c0,0,0.374-0.077,0.747-0.123c0.187-0.045,0.373-0.059,0.514,0.002
					c0.14,0.045,0.233,0.121,0.233,0.121v0.035c0,0-0.094,0.076-0.233,0.121c-0.141,0.061-0.327,0.047-0.514,0.002
					c-0.373-0.046-0.747-0.123-0.747-0.123V28.963z"/>
			</g>
		</g>
		<path fill="#333333" d="M21.976,87.002l-3.857,5.006c0,0,7.524,4.994,9.042,5.082c1.519,0.088,18.673-5.219,18.673-5.219
			l-3.873-6.189L21.976,87.002z"/>
		<path fill="#AA292E" d="M41.96,93.053c0,0-2.125-6.803-2.676-7.254c-0.55-0.451-3.349,0.834-3.349,0.834s2.158,2.137,3.224,7.262
			L41.96,93.053z"/>
		<path fill="#333333" d="M11.827,42.188v25.869c0,0,3.252,4.146,9.777,4.758C21.604,72.814,21.727,46.613,11.827,42.188z"/>
		<g>
			<rect x="30.919" y="65.285" fill="#0B050F" width="3.328" height="6.109"/>
			<rect x="24.247" y="67.395" fill="#0B050F" width="3.328" height="6.109"/>
			<rect x="34.272" y="67.713" fill="#AA292E" width="3.328" height="6.109"/>
			<rect x="27.591" y="65.721" fill="#AA292E" width="3.328" height="6.107"/>
			<rect x="37.495" y="69.553" fill="#0B050F" width="3.328" height="6.109"/>
			<rect x="40.848" y="71.98" fill="#AA292E" width="3.328" height="3.805"/>
		</g>
		<polygon fill="#AD6E2D" points="24.275,75.676 25.036,72.953 22.479,72.814 		"/>
		<path fill="#0B050F" d="M20.714,72.717c0,0,1.165-17.113-8.887-30.529c0.012-1.182,0.019-1.781,0.019-1.781
			s5.916,2.781,9.282,14.506s1.841,17.805,1.841,17.805H20.714z"/>
		<path fill="#1F2D6C" d="M22.251,72.336c0,0,0.31-11.262-2.47-18.01c-2.78-6.75-4.715-11.35-7.954-13.891v-5.15
			c0,0,4.998,1.016,12.126,18.777c2.995,9.945,2.435,18.645,2.435,18.645L22.251,72.336z"/>
		<g>
			<ellipse fill="#AA292E" cx="23.997" cy="72.635" rx="1.914" ry="0.766"/>
			
				<ellipse transform="matrix(-0.9986 0.0526 -0.0526 -0.9986 51.8878 140.3388)" fill="#AA292E" cx="24.096" cy="70.853" rx="1.874" ry="0.748"/>
			
				<ellipse transform="matrix(-0.9942 0.1072 -0.1072 -0.9942 55.4026 134.6594)" fill="#AA292E" cx="24.083" cy="68.818" rx="1.841" ry="0.735"/>
			
				<ellipse transform="matrix(-0.9866 0.1632 -0.1632 -0.9866 58.4517 128.3401)" fill="#AA292E" cx="23.954" cy="66.571" rx="1.813" ry="0.724"/>
			
				<ellipse transform="matrix(-0.9754 0.2204 -0.2204 -0.9754 60.958 121.4998)" fill="#AA292E" cx="23.701" cy="64.15" rx="1.79" ry="0.715"/>
			
				<ellipse transform="matrix(-0.9606 0.278 -0.278 -0.9606 62.8453 114.2864)" fill="#AA292E" cx="23.32" cy="61.599" rx="1.774" ry="0.71"/>
			
				<ellipse transform="matrix(-0.942 0.3355 -0.3355 -0.942 64.0711 106.8332)" fill="#AA292E" cx="22.807" cy="58.951" rx="1.764" ry="0.705"/>
			
				<ellipse transform="matrix(-0.9199 0.392 -0.392 -0.9199 64.588 99.3134)" fill="#AA292E" cx="22.154" cy="56.251" rx="1.761" ry="0.704"/>
			
				<ellipse transform="matrix(-0.8944 0.4473 -0.4473 -0.8944 64.4101 91.8648)" fill="#AA292E" cx="21.359" cy="53.537" rx="1.764" ry="0.705"/>
			
				<ellipse transform="matrix(-0.8658 0.5005 -0.5005 -0.8658 63.5346 84.6551)" fill="#AA292E" cx="20.414" cy="50.849" rx="1.774" ry="0.709"/>
			
				<ellipse transform="matrix(-0.8346 0.5509 -0.5509 -0.8346 62.0006 77.8343)" fill="#AA292E" cx="19.313" cy="48.227" rx="1.79" ry="0.716"/>
			
				<ellipse transform="matrix(-0.8014 0.5982 -0.5982 -0.8014 59.8666 71.5416)" fill="#AA292E" cx="18.055" cy="45.711" rx="1.812" ry="0.724"/>
			
				<ellipse transform="matrix(-0.766 0.6429 -0.6429 -0.766 57.2305 65.845)" fill="#AA292E" cx="16.63" cy="43.34" rx="1.841" ry="0.736"/>
			
				<ellipse transform="matrix(-0.7297 0.6838 -0.6838 -0.7297 54.1484 60.9029)" fill="#AA292E" cx="15.035" cy="41.155" rx="1.875" ry="0.75"/>
			
				<ellipse transform="matrix(-0.6927 0.7212 -0.7212 -0.6927 50.7222 56.7781)" fill="#AA292E" cx="13.265" cy="39.195" rx="1.915" ry="0.765"/>
		</g>
		<rect x="31.145" y="57.742" fill="#3856C8" width="5.289" height="5.854"/>
		<polygon fill="#BF9B4D" points="36.206,57.99 31.145,57.99 31.145,52.682 		"/>
		<rect x="31.054" y="58.439" fill="#BF9B4D" width="5.335" height="4.346"/>
		<polygon fill="#BF9B4D" points="36.389,63.168 31.145,63.168 31.145,64.586 36.389,67.76 		"/>
		<path fill="#333333" d="M30.122,52.174l0.203,12.316l-4.342,2.453c0,0-0.853-10.199-1.884-12.031S30.122,52.174,30.122,52.174z"/>
		<polygon fill="#E8EFFF" points="30.046,52.137 31.336,52.775 31.336,65.381 30.046,65.381 		"/>
		<polygon fill="#0B050F" points="29.63,51.654 30.919,52.293 30.919,64.898 29.63,64.898 		"/>
		<g>
			<path fill="#0B050F" d="M21.196,47.381c0.438,1.104,1.179,2.125,1.727,3.18c0.891,1.717,1.526,3.535,1.817,5.428
				c0.026,0,0.053,0.002,0.08,0.002c2.668,0,4.948-1.652,5.88-3.988c-0.198-0.225-0.391-0.453-0.637-0.662
				c-0.442-0.373-0.965-0.666-1.427-1.021c-1.122-0.859-1.98-2.045-3.235-2.721c-0.945-0.508-1.952-0.861-2.959-1.227
				c-0.433-0.156-0.871-0.312-1.32-0.418c-0.136,0.02-0.271,0.041-0.408,0.059C20.88,46.473,21.022,46.943,21.196,47.381z"/>
			<path fill="#BF9B4D" d="M21.196,47.381c0.438,1.104,1.179,2.125,1.727,3.18c0.812,1.566,1.412,3.215,1.732,4.928
				c0.055,0.002,0.109,0.006,0.165,0.006c2.545,0,4.708-1.631,5.505-3.906c-0.082-0.084-0.167-0.168-0.262-0.248
				c-0.442-0.373-0.965-0.666-1.427-1.021c-1.122-0.859-1.98-2.045-3.235-2.721c-0.945-0.508-1.952-0.861-2.959-1.227
				c-0.433-0.156-0.871-0.312-1.32-0.418c-0.136,0.02-0.271,0.041-0.408,0.059C20.88,46.473,21.022,46.943,21.196,47.381z"/>
			<path fill="#3856C8" d="M22.923,50.561c0.357,0.688,0.672,1.393,0.941,2.111c0.302,0.096,0.623,0.148,0.956,0.148
				c1.712,0,3.104-1.363,3.154-3.064c-0.828-0.762-1.575-1.621-2.573-2.158c-0.602-0.322-1.228-0.582-1.862-0.824
				c-0.804,0.357-1.431,1.041-1.713,1.883C22.189,49.295,22.591,49.922,22.923,50.561z"/>
		</g>
		<polygon fill="#333333" points="42.67,62.121 37.491,59.133 37.229,68.775 42.67,71.771 		"/>
		<rect x="36.206" y="58.582" fill="#E8EFFF" width="1.289" height="9.758"/>
		<path fill="#C9D8F7" d="M47.598,74.705c0,0-2.228,1.25-4.526,1.572l-0.277-13.98c0,0,3.526,1.307,5.111,1.248L47.598,74.705z"/>
		<polygon fill="#715C57" points="47.598,74.705 48.4,74.4 48.4,63.641 47.598,63.641 		"/>
		<path fill="#0B050F" d="M48.4,74.4c0,0,1.188-0.496,1.704-0.893v-9.721H48.4V74.4z"/>
		<rect x="36.685" y="59.016" fill="#0B050F" width="1.289" height="9.76"/>
		<rect x="42.269" y="62.562" fill="#715C57" width="0.803" height="13.715"/>
		<g>
			<path fill="#AA7941" d="M21.764,45.779c0.483,0,1.114,0.098,1.905,0.396c2.622,0.994,5.828,3.729,9.529,8.131
				c4.458,5.299,8.84,7.406,11.73,8.24c3.127,0.902,6.526,0.486,6.547,0.482l0.153,0.863c-0.092,0.016-3.578,0.455-6.886-0.486
				c-3.022-0.861-7.595-3.041-12.216-8.537c-8.314-9.885-11.484-8.086-11.515-8.066l-0.496-0.723
				C20.581,46.035,20.977,45.779,21.764,45.779z"/>
		</g>
		<path fill="#E8EFFF" d="M42.269,72.326c0,0-10.715-6.988-11.726-6.988c-1.012,0-4.048,2.127-4.048,2.127v-1.236
			c0,0,3.66-2.441,4.137-2.441s11.637,7.234,11.637,7.234V72.326z"/>
		<path fill="#BF9B4D" d="M41.071,75.676c0,0-9.056-6.658-10.341-6.658s-5.012,3.328-5.012,3.328L41.071,75.676z"/>
		<path fill="#BF9B4D" d="M42.269,73.176c0,0-10.715-7.107-11.726-7.107c-1.012,0-4.048,2.395-4.048,2.395v-1.197
			c0,0,3.66-2.367,4.137-2.367s11.637,7.012,11.637,7.012V73.176z"/>
		<path fill="#AA7941" d="M26.787,71.854c0,0,0.024-11.305-2.62-18.764c-2.645-7.457-8.691-17.832-11.406-18.756l-0.934,0.951
			c2.345,1.186,9.965,12.719,11.389,18.354c1.745,7.174,1.805,4.072,2.647,18.688S26.787,71.854,26.787,71.854z"/>
		<path fill="#DCE3F2" d="M35.118,73.176c0,0-3.703-2.727-4.491-2.727c-0.787,0-2.467,1.533-2.467,1.533s5.128,3.418,6.536,2.938
			C36.105,74.438,35.118,73.176,35.118,73.176z"/>
		<path fill="#D28537" d="M24.804,86.535c0,0-1.748-1.744-1.302-6.273c0.446-4.531,0.824-9.066-2.49-7.684
			c-3.313,1.385-0.449,4.914,1.55,3.051c0,0-0.011,2.234-0.3,5.174S22.184,86.555,24.804,86.535z"/>
		<path fill="#E8EFFF" d="M23.053,85.799c0,0-0.486-2.723,0-3.279s0.034-1.418,0-2.082c-0.034-0.662-0.729-6.258,3.092-8.271
			c3.823-2.016,3.51,0.77,8.2,2.539c0,0,0.73,10.906-2.467,11.811C31.878,86.516,25.52,87.062,23.053,85.799z"/>
		<path fill="#A86B2C" d="M38.664,85.1c0,0,1.24-1.016,1.24-3.969c0-2.955,1.532-6.045,3.585-4.939
			c2.052,1.105-0.023,3.203-1.195,1.873c0,0-0.137,1.443-0.137,3.359C42.157,83.342,41.086,85.578,38.664,85.1z"/>
		<path fill="#AD6E2D" d="M37.486,85.785c0,0,1.436-1.174,1.436-4.592c0-3.42,0.77-7.008,3.146-5.729
			c2.374,1.279-0.027,3.705-1.384,2.166c0,0-0.157,1.67-0.157,3.889S39.444,85.994,37.486,85.785z"/>
		<path fill="#B3712E" d="M35.936,86.158c0,0,1.361-2.404,1.361-6.082c0-3.676,1.026-6.383,3.582-5.008
			c2.554,1.375-0.028,3.986-1.488,2.33c0,0-0.168,1.797-0.168,4.184C39.223,83.967,38.041,86.383,35.936,86.158z"/>
		<path fill="#B87530" d="M34.696,86.342c0,0,0.969-1.633,0.969-5.732c0-4.102,0.815-7.979,3.665-6.445
			c2.848,1.535-0.032,4.445-1.66,2.598c0,0-0.188,2.004-0.188,4.666C37.482,84.088,37.044,86.592,34.696,86.342z"/>
		<path fill="#BD7831" d="M33.054,86.52c0,0,1.837-1.502,1.837-5.879c0-4.375,0.067-8.752,3.107-7.113
			c3.039,1.635-0.034,4.742-1.771,2.771c0,0-0.201,2.139-0.201,4.977C36.026,84.115,35.56,86.787,33.054,86.52z"/>
		<path fill="#D28537" d="M31.878,86.516c0,0,1.911-1.564,1.911-6.115c0-4.553,0.069-9.104,3.231-7.4
			c3.162,1.701-0.035,4.934-1.842,2.883c0,0-0.209,2.225-0.209,5.178S34.483,86.793,31.878,86.516z"/>
		<path fill="#333333" d="M41.511,83.883c0,0-7.176,3.957-18.845,1.436l-0.69,1.684c0,0,9.045,3.543,19.984-1.32L41.511,83.883z"/>
		<g>
			<path fill="#D28537" d="M25.977,82.919c0,0-0.73,0.295-1.538,0.303c-0.2,0.014-0.406-0.02-0.599-0.04
				c-0.187-0.064-0.349-0.162-0.483-0.235c-0.229-0.239-0.317-0.415-0.317-0.415l0.027-0.023c0,0,0.208,0.071,0.428,0.196
				c0.136,0.031,0.283,0.069,0.437,0.124c0.166,0.025,0.337,0.096,0.522,0.114c0.186,0.013,0.372,0.039,0.55,0.026
				c0.178-0.002,0.345-0.008,0.487-0.022c0.286-0.022,0.477-0.061,0.477-0.061L25.977,82.919z"/>
		</g>
		<g>
			<path fill="#D28537" d="M29.173,82.886c0,0,0.19,0.038,0.477,0.061c0.143,0.015,0.31,0.021,0.487,0.022
				c0.178,0.013,0.364-0.014,0.55-0.026c0.186-0.019,0.356-0.089,0.522-0.114c0.152-0.055,0.301-0.093,0.437-0.124
				c0.22-0.125,0.428-0.196,0.428-0.196l0.027,0.023c0,0-0.089,0.176-0.317,0.415c-0.135,0.073-0.297,0.171-0.483,0.235
				c-0.192,0.021-0.398,0.054-0.599,0.04c-0.809-0.008-1.538-0.303-1.538-0.303L29.173,82.886z"/>
		</g>
		<g>
			<path fill="#2A3757" d="M28.148,81.569c0,0,0.166-0.19,0.487-0.394c0.164-0.091,0.358-0.209,0.588-0.275
				c0.229-0.07,0.478-0.145,0.736-0.149c0.258-0.044,0.516-0.034,0.756,0.008c0.243,0.029,0.456,0.103,0.625,0.199
				c0.345,0.175,0.545,0.329,0.545,0.329l-0.016,0.031c0,0-0.264-0.016-0.614-0.096c-0.172-0.059-0.379-0.078-0.599-0.104
				c-0.216-0.05-0.447-0.1-0.685-0.088c-0.239-0.022-0.473,0.021-0.693,0.064c-0.113,0.011-0.212,0.057-0.311,0.088
				c-0.097,0.036-0.195,0.057-0.274,0.1c-0.333,0.149-0.522,0.312-0.522,0.312L28.148,81.569z"/>
		</g>
		<g>
			<path fill="#2A3757" d="M25.855,81.595c0,0-0.141-0.109-0.384-0.21c-0.119-0.05-0.266-0.095-0.418-0.136
				c-0.159-0.023-0.322-0.071-0.492-0.056c-0.169-0.004-0.332,0.015-0.484,0.053c-0.153,0.018-0.303,0.008-0.426,0.045
				c-0.252,0.039-0.452,0.027-0.452,0.027l-0.014-0.031c0,0,0.136-0.128,0.387-0.264c0.123-0.075,0.283-0.118,0.462-0.14
				c0.177-0.03,0.367-0.007,0.553,0.03c0.189,0.013,0.364,0.091,0.529,0.142c0.16,0.066,0.303,0.145,0.415,0.222
				c0.229,0.153,0.348,0.291,0.348,0.292L25.855,81.595z"/>
		</g>
		<g>
			<path fill="#2A3757" d="M26.509,82.135c0,0,0.036-0.513-0.03-1.275c-0.032-0.382-0.101-0.821-0.21-1.281
				c-0.058-0.229-0.15-0.454-0.226-0.688c-0.119-0.22-0.239-0.444-0.36-0.668c-0.065-0.092-0.107-0.271-0.112-0.44l0.058-0.239
				l0.129-0.198c0.208-0.229,0.476-0.338,0.729-0.406c0.258-0.046,0.513-0.068,0.748-0.024c0.234,0.037,0.456,0.102,0.637,0.214
				c0.185,0.098,0.334,0.24,0.42,0.388c0.109,0.136,0.13,0.289,0.162,0.402c0.016,0.236,0.004,0.364,0.004,0.364h-0.035
				c0,0-0.021-0.131-0.085-0.333c-0.059-0.091-0.096-0.214-0.205-0.312c-0.085-0.11-0.229-0.195-0.387-0.262
				c-0.153-0.078-0.348-0.115-0.548-0.127c-0.201-0.015-0.417-0.002-0.629,0.045c-0.21,0.048-0.419,0.136-0.564,0.271
				c-0.146,0.156-0.176,0.301-0.065,0.539c0.11,0.233,0.221,0.467,0.329,0.697c0.068,0.25,0.152,0.492,0.2,0.731
				c0.092,0.48,0.128,0.933,0.135,1.32c0.014,0.774-0.058,1.286-0.058,1.286L26.509,82.135z"/>
		</g>
		<g>
			<path fill="#2A3757" d="M29.446,75.693c0,0-1.042,0.077-2.085,0.123c-0.521,0.045-1.043,0.059-1.434-0.002
				c-0.391-0.045-0.651-0.121-0.651-0.121v-0.035c0,0,0.261-0.076,0.651-0.121c0.391-0.061,0.912-0.047,1.434-0.002
				c1.043,0.046,2.085,0.123,2.085,0.123V75.693z"/>
		</g>
		<g>
			<path fill="#2A3757" d="M27.882,74.723c0,0-0.374,0.077-0.747,0.123c-0.187,0.045-0.373,0.059-0.514-0.002
				c-0.14-0.045-0.233-0.121-0.233-0.121v-0.035c0,0,0.094-0.076,0.233-0.121c0.141-0.061,0.327-0.047,0.514-0.002
				c0.373,0.046,0.747,0.123,0.747,0.123V74.723z"/>
		</g>
	</g>
</g>
</svg>
