<?xml version="1.0" encoding="utf-8"?>
<!-- Generator: Adobe Illustrator 16.0.0, SVG Export Plug-In . SVG Version: 6.00 Build 0)  -->
<!DOCTYPE svg PUBLIC "-//W3C//DTD SVG 1.1//EN" "http://www.w3.org/Graphics/SVG/1.1/DTD/svg11.dtd">
<svg version="1.1" id="Layer_1" xmlns="http://www.w3.org/2000/svg" xmlns:xlink="http://www.w3.org/1999/xlink" x="0px" y="0px"
	 width="69.12px" height="103.69px" viewBox="0 0 69.12 103.69" enable-background="new 0 0 69.12 103.69" xml:space="preserve">
<g>
	<g>
		<path fill="#F2F2F2" d="M69.123,100.963c0,1.504-1.219,2.723-2.721,2.723H2.722c-1.503,0-2.722-1.219-2.722-2.723V2.723
			C0,1.219,1.219,0,2.722,0h63.681c1.502,0,2.721,1.219,2.721,2.723V100.963z"/>
		<g>
			<polygon fill="#7A2B2B" points="61.672,83.633 64.461,87.428 61.672,91.223 58.882,87.428 			"/>
			<polygon fill="#943434" points="61.68,91.211 64.461,87.428 61.68,83.645 			"/>
		</g>
		<rect x="2.722" y="2.723" fill="none" width="9.374" height="9.76"/>
		<text transform="matrix(1 0 0 1 4.459 10.4502)" fill="#7A2B2B" font-family="'ChunkFive'" font-size="10.8856">K</text>
		<rect x="57.027" y="91.201" fill="none" width="9.375" height="9.762"/>
		<text transform="matrix(-1 0 0 -1 64.665 93.2344)" fill="#7A2B2B" font-family="'ChunkFive'" font-size="10.8856">K</text>
		<g>
			<polygon fill="#7A2B2B" points="7.364,20.072 4.575,16.277 7.364,12.482 10.154,16.277 			"/>
			<polygon fill="#943434" points="7.355,12.494 4.575,16.277 7.355,20.061 			"/>
		</g>
	</g>
	<g>
		<g>
			<path fill="#AA292E" d="M51.478,75.408c0,0,4.053-1.467,7.827-5.562v-5.018h-7.827V75.408z"/>
			<path fill="#AA292E" d="M59.305,62.334V34.18c0,0-3.54-4.512-10.643-5.18C48.662,29,48.53,57.518,59.305,62.334z"/>
			<g>
				<rect x="34.904" y="30.547" fill="#0B050F" width="3.622" height="6.648"/>
				<rect x="42.166" y="28.252" fill="#0B050F" width="3.622" height="6.648"/>
				<rect x="31.256" y="27.906" fill="#AA292E" width="3.621" height="6.648"/>
				<rect x="38.526" y="30.074" fill="#AA292E" width="3.622" height="6.648"/>
				<rect x="27.747" y="25.902" fill="#0B050F" width="3.622" height="6.648"/>
				<rect x="24.098" y="25.77" fill="#AA292E" width="3.623" height="4.139"/>
			</g>
			<path fill="#0B050F" d="M49.633,29.107c0,0-1.268,18.625,9.672,33.227c-0.014,1.287-0.021,1.939-0.021,1.939
				s-6.438-3.027-10.102-15.789c-3.664-12.76-2.003-19.377-2.003-19.377H49.633z"/>
			<path fill="#F2F2F2" d="M47.959,29.523c0,0-0.335,12.256,2.689,19.602c3.025,7.344,5.131,12.352,8.656,15.117v5.604
				c0,0-9.938-9.609-13.198-20.434c-3.258-10.826-2.649-20.293-2.649-20.293L47.959,29.523z"/>
			<g>
				<ellipse fill="#AA292E" cx="46.06" cy="29.199" rx="2.083" ry="0.832"/>
				
					<ellipse transform="matrix(0.9986 -0.0527 0.0527 0.9986 -1.5759 2.463)" fill="#AA292E" cx="45.952" cy="31.137" rx="2.04" ry="0.816"/>
				
					<ellipse transform="matrix(0.9942 -0.1072 0.1072 0.9942 -3.3118 5.1221)" fill="#AA292E" cx="45.966" cy="33.352" rx="2.003" ry="0.799"/>
				
					<ellipse transform="matrix(0.9866 -0.1634 0.1634 0.9866 -5.2283 8.0127)" fill="#AA292E" cx="46.107" cy="35.797" rx="1.973" ry="0.788"/>
				
					<ellipse transform="matrix(0.9755 -0.2201 0.2201 0.9755 -7.3216 11.152)" fill="#AA292E" cx="46.382" cy="38.431" rx="1.948" ry="0.778"/>
				
					<ellipse transform="matrix(0.9607 -0.2777 0.2777 0.9607 -9.6042 14.6176)" fill="#AA292E" cx="46.796" cy="41.21" rx="1.93" ry="0.771"/>
				
					<ellipse transform="matrix(0.9421 -0.3353 0.3353 0.9421 -12.0429 18.4318)" fill="#AA292E" cx="47.355" cy="44.091" rx="1.919" ry="0.766"/>
				
					<ellipse transform="matrix(0.92 -0.3919 0.3919 0.92 -14.5845 22.5957)" fill="#AA292E" cx="48.065" cy="47.028" rx="1.916" ry="0.765"/>
				
					<ellipse transform="matrix(0.8945 -0.4471 0.4471 0.8945 -17.1849 27.152)" fill="#AA292E" cx="48.931" cy="49.983" rx="1.92" ry="0.765"/>
				
					<ellipse transform="matrix(0.8659 -0.5002 0.5002 0.8659 -19.7655 32.0858)" fill="#AA292E" cx="49.96" cy="52.907" rx="1.931" ry="0.772"/>
				
					<ellipse transform="matrix(0.8348 -0.5505 0.5505 0.8348 -22.2481 37.3744)" fill="#AA292E" cx="51.157" cy="55.762" rx="1.948" ry="0.779"/>
				
					<ellipse transform="matrix(0.8012 -0.5985 0.5985 0.8012 -24.5656 43.0675)" fill="#AA292E" cx="52.527" cy="58.501" rx="1.973" ry="0.787"/>
				
					<ellipse transform="matrix(0.7662 -0.6426 0.6426 0.7662 -26.6069 49.031)" fill="#AA292E" cx="54.078" cy="61.08" rx="2.003" ry="0.801"/>
				
					<ellipse transform="matrix(0.7297 -0.6838 0.6838 0.7297 -28.3041 55.316)" fill="#AA292E" cx="55.813" cy="63.458" rx="2.041" ry="0.815"/>
				
					<ellipse transform="matrix(0.6927 -0.7213 0.7213 0.6927 -29.5624 61.8036)" fill="#AA292E" cx="57.74" cy="65.591" rx="2.084" ry="0.833"/>
			</g>
			<rect x="32.524" y="39.035" fill="#3856C8" width="5.757" height="6.371"/>
			<polygon fill="#BF9B4D" points="32.772,45.137 38.281,45.137 38.281,50.914 			"/>
			<rect x="32.573" y="39.918" fill="#BF9B4D" width="5.806" height="4.729"/>
			<polygon fill="#BF9B4D" points="32.573,39.502 38.281,39.502 38.281,37.957 32.573,34.504 			"/>
			<path fill="#AA292E" d="M39.395,51.465l-0.222-13.404l4.725-2.67c0,0,0.929,11.102,2.051,13.094
				C47.07,50.48,39.395,51.465,39.395,51.465z"/>
			<polygon fill="#E8EFFF" points="39.477,51.506 38.072,50.811 38.072,37.092 39.477,37.092 			"/>
			<polygon fill="#0B050F" points="39.929,52.031 38.526,51.334 38.526,37.617 39.929,37.617 			"/>
			<g>
				<path fill="#0B050F" d="M49.107,56.682c-0.477-1.199-1.282-2.312-1.878-3.459c-0.971-1.869-1.662-3.848-1.979-5.908
					c-0.029,0-0.058-0.002-0.087-0.002c-2.903,0-5.386,1.799-6.399,4.34c0.215,0.244,0.425,0.494,0.692,0.721
					c0.482,0.406,1.051,0.727,1.554,1.111c1.221,0.936,2.154,2.227,3.521,2.961c1.029,0.555,2.124,0.938,3.221,1.336
					c0.471,0.17,0.947,0.342,1.437,0.455c0.147-0.023,0.296-0.043,0.444-0.064C49.452,57.67,49.296,57.158,49.107,56.682z"/>
				<path fill="#BF9B4D" d="M49.107,56.682c-0.477-1.199-1.282-2.312-1.878-3.459c-0.884-1.705-1.537-3.5-1.887-5.365
					c-0.06-0.002-0.119-0.004-0.179-0.004c-2.77,0-5.125,1.775-5.991,4.25c0.089,0.092,0.182,0.182,0.284,0.27
					c0.482,0.406,1.051,0.727,1.554,1.111c1.221,0.936,2.154,2.227,3.521,2.961c1.029,0.555,2.124,0.938,3.221,1.336
					c0.471,0.17,0.947,0.342,1.437,0.455c0.147-0.023,0.296-0.043,0.444-0.064C49.452,57.67,49.296,57.158,49.107,56.682z"/>
				<path fill="#3856C8" d="M47.229,53.223c-0.389-0.75-0.731-1.518-1.024-2.299c-0.328-0.105-0.678-0.162-1.041-0.162
					c-1.864,0-3.378,1.484-3.434,3.334c0.901,0.83,1.714,1.766,2.801,2.35c0.654,0.352,1.335,0.635,2.027,0.896
					c0.875-0.389,1.556-1.131,1.864-2.047C48.027,54.6,47.59,53.916,47.229,53.223z"/>
			</g>
			<polygon fill="#AA292E" points="25.737,40.641 31.373,43.893 31.659,33.398 25.737,30.137 			"/>
			<rect x="31.369" y="33.871" fill="#E8EFFF" width="1.403" height="10.621"/>
			<path fill="#C9D8F7" d="M20.374,26.945c0,0,2.425-1.361,4.926-1.713l0.302,15.217c0,0-3.837-1.424-5.562-1.357L20.374,26.945z"/>
			<polygon fill="#715C57" points="20.374,26.945 19.5,27.277 19.5,38.986 20.374,38.986 			"/>
			<path fill="#0B050F" d="M19.5,27.277c0,0-1.293,0.539-1.854,0.969v10.58H19.5V27.277z"/>
			<path fill="#AA292E" d="M17.646,28.246c0,0-4.054,1.467-7.827,5.562v5.018h7.827V28.246z"/>
			<rect x="30.849" y="33.398" fill="#0B050F" width="1.403" height="10.621"/>
			<rect x="25.3" y="25.232" fill="#715C57" width="0.874" height="14.928"/>
			<g>
				<path fill="#AA7941" d="M48.49,58.424c-0.526,0-1.212-0.104-2.073-0.43c-2.854-1.082-6.343-4.059-10.371-8.85
					c-4.852-5.768-9.62-8.061-12.767-8.969c-3.403-0.982-7.271-0.799-7.295-0.795l-0.166-0.939c0.1-0.018,4.063-0.227,7.662,0.801
					c3.29,0.938,8.267,3.311,13.295,9.289c9.049,10.76,12.499,8.803,12.533,8.781l0.539,0.785
					C49.777,58.146,49.347,58.424,48.49,58.424z"/>
			</g>
			<path fill="#E8EFFF" d="M26.174,29.533c0,0,11.661,7.605,12.763,7.605c1.101,0,4.405-2.314,4.405-2.314v1.346
				c0,0-3.984,2.656-4.503,2.656s-12.665-7.871-12.665-7.871V29.533z"/>
			<path fill="#BF9B4D" d="M27.477,25.889c0,0,9.856,7.246,11.254,7.246c1.399,0,5.455-3.623,5.455-3.623L27.477,25.889z"/>
			<path fill="#BF9B4D" d="M26.174,28.609c0,0,11.661,7.736,12.763,7.736c1.101,0,4.405-2.607,4.405-2.607v1.303
				c0,0-3.984,2.576-4.503,2.576s-12.665-7.631-12.665-7.631V28.609z"/>
			<path fill="#AA7941" d="M43.023,30.047c0,0-0.027,12.305,2.851,20.422c2.878,8.115,10.123,19.529,12.254,20.566l1.177-1.189
				c0,0-5.099-4.203-12.395-19.975c-1.899-7.807-1.964-4.432-2.882-20.338S43.023,30.047,43.023,30.047z"/>
			<path fill="#AA292E" d="M9.819,41.32v28.154c0,0,3.539,4.512,10.642,5.18C20.461,74.654,20.593,46.137,9.819,41.32z"/>
			<g>
				<rect x="30.598" y="66.459" fill="#0B050F" width="3.622" height="6.648"/>
				<rect x="23.336" y="68.754" fill="#0B050F" width="3.622" height="6.648"/>
				<rect x="34.247" y="69.1" fill="#AA292E" width="3.621" height="6.648"/>
				<rect x="26.976" y="66.932" fill="#AA292E" width="3.622" height="6.648"/>
				<rect x="37.754" y="71.104" fill="#0B050F" width="3.623" height="6.648"/>
				<rect x="41.403" y="73.744" fill="#AA292E" width="3.622" height="4.141"/>
			</g>
			<path fill="#0B050F" d="M19.491,74.547c0,0,1.268-18.627-9.672-33.227c0.013-1.287,0.02-1.939,0.02-1.939
				s6.439,3.027,10.103,15.787c3.663,12.762,2.003,19.379,2.003,19.379H19.491z"/>
			<path fill="#F2F2F2" d="M21.164,74.131c0,0,0.336-12.256-2.688-19.6c-3.025-7.346-5.131-12.354-8.656-15.119v-5.604
				c0,0,5.438,1.105,13.197,20.436c3.259,10.824,2.649,20.291,2.649,20.291L21.164,74.131z"/>
			<g>
				<ellipse fill="#AA292E" cx="23.063" cy="74.455" rx="2.083" ry="0.832"/>
				
					<ellipse transform="matrix(-0.9986 0.0527 -0.0527 -0.9986 50.1303 143.7143)" fill="#AA292E" cx="23.172" cy="72.518" rx="2.04" ry="0.816"/>
				
					<ellipse transform="matrix(-0.9942 0.1072 -0.1072 -0.9942 53.7216 137.7164)" fill="#AA292E" cx="23.158" cy="70.303" rx="2.003" ry="0.8"/>
				
					<ellipse transform="matrix(-0.9866 0.1634 -0.1634 -0.9866 56.8089 131.0434)" fill="#AA292E" cx="23.017" cy="67.857" rx="1.973" ry="0.788"/>
				
					<ellipse transform="matrix(-0.9755 0.2201 -0.2201 -0.9755 59.2823 123.8418)" fill="#AA292E" cx="22.742" cy="65.224" rx="1.948" ry="0.778"/>
				
					<ellipse transform="matrix(-0.9607 0.2777 -0.2777 -0.9607 61.1203 116.231)" fill="#AA292E" cx="22.328" cy="62.444" rx="1.93" ry="0.772"/>
				
					<ellipse transform="matrix(-0.942 0.3357 -0.3357 -0.942 62.2692 108.365)" fill="#AA292E" cx="21.769" cy="59.564" rx="1.92" ry="0.767"/>
				
					<ellipse transform="matrix(-0.9198 0.3923 -0.3923 -0.9198 62.6435 100.4498)" fill="#AA292E" cx="21.059" cy="56.625" rx="1.917" ry="0.766"/>
				
					<ellipse transform="matrix(-0.8943 0.4475 -0.4475 -0.8943 62.27 92.6326)" fill="#AA292E" cx="20.193" cy="53.672" rx="1.92" ry="0.768"/>
				
					<ellipse transform="matrix(-0.8661 0.4998 -0.4998 -0.8661 61.1273 85.1193)" fill="#AA292E" cx="19.164" cy="50.746" rx="1.93" ry="0.771"/>
				
					<ellipse transform="matrix(-0.8346 0.5509 -0.5509 -0.8346 59.3451 77.9674)" fill="#AA292E" cx="17.967" cy="47.894" rx="1.948" ry="0.779"/>
				
					<ellipse transform="matrix(-0.8014 0.5981 -0.5981 -0.8014 56.9047 71.4139)" fill="#AA292E" cx="16.596" cy="45.154" rx="1.972" ry="0.788"/>
				
					<ellipse transform="matrix(-0.7662 0.6426 -0.6426 -0.7662 53.9332 65.5257)" fill="#AA292E" cx="15.046" cy="42.574" rx="2.003" ry="0.801"/>
				
					<ellipse transform="matrix(-0.7296 0.6839 -0.6839 -0.7296 50.5106 60.4205)" fill="#AA292E" cx="13.31" cy="40.196" rx="2.041" ry="0.815"/>
				
					<ellipse transform="matrix(-0.6925 0.7214 -0.7214 -0.6925 46.7247 56.2126)" fill="#AA292E" cx="11.383" cy="38.063" rx="2.083" ry="0.833"/>
			</g>
			<rect x="30.843" y="58.248" fill="#3856C8" width="5.757" height="6.371"/>
			<polygon fill="#BF9B4D" points="36.352,58.518 30.843,58.518 30.843,52.74 			"/>
			<rect x="30.744" y="59.008" fill="#BF9B4D" width="5.807" height="4.729"/>
			<polygon fill="#BF9B4D" points="36.551,64.152 30.843,64.152 30.843,65.695 36.551,69.15 			"/>
			<path fill="#AA292E" d="M29.729,52.189l0.222,13.404l-4.725,2.67c0,0-0.928-11.102-2.051-13.096
				C22.054,53.176,29.729,52.189,29.729,52.189z"/>
			<polygon fill="#E8EFFF" points="29.647,52.148 31.051,52.844 31.051,66.562 29.647,66.562 			"/>
			<polygon fill="#0B050F" points="29.194,51.623 30.598,52.318 30.598,66.039 29.194,66.039 			"/>
			<g>
				<path fill="#0B050F" d="M20.017,46.973c0.477,1.199,1.282,2.312,1.878,3.461c0.97,1.867,1.662,3.846,1.979,5.906
					c0.029,0,0.058,0.002,0.087,0.002c2.903,0,5.386-1.797,6.399-4.34c-0.215-0.244-0.425-0.494-0.692-0.721
					c-0.482-0.406-1.051-0.727-1.554-1.111c-1.221-0.936-2.155-2.227-3.521-2.961c-1.03-0.553-2.125-0.938-3.221-1.336
					c-0.471-0.17-0.947-0.342-1.437-0.455c-0.148,0.023-0.296,0.045-0.444,0.064C19.671,45.984,19.827,46.496,20.017,46.973z"/>
				<path fill="#BF9B4D" d="M20.017,46.973c0.477,1.199,1.282,2.312,1.878,3.461c0.884,1.703,1.537,3.498,1.887,5.363
					c0.059,0.002,0.118,0.004,0.179,0.004c2.771,0,5.124-1.775,5.991-4.25c-0.09-0.092-0.182-0.182-0.284-0.27
					c-0.482-0.406-1.051-0.727-1.554-1.111c-1.221-0.936-2.155-2.227-3.521-2.961c-1.03-0.553-2.125-0.938-3.221-1.336
					c-0.471-0.17-0.947-0.342-1.437-0.455c-0.148,0.023-0.296,0.045-0.444,0.064C19.671,45.984,19.827,46.496,20.017,46.973z"/>
				<path fill="#3856C8" d="M21.895,50.434c0.389,0.748,0.731,1.516,1.024,2.297c0.329,0.104,0.678,0.162,1.041,0.162
					c1.864,0,3.378-1.484,3.433-3.336c-0.901-0.828-1.714-1.764-2.8-2.348c-0.655-0.352-1.336-0.635-2.027-0.898
					c-0.874,0.391-1.557,1.133-1.864,2.049C21.097,49.055,21.534,49.738,21.895,50.434z"/>
			</g>
			<polygon fill="#AA292E" points="43.387,63.014 37.751,59.762 37.466,70.256 43.387,73.518 			"/>
			<rect x="36.352" y="59.162" fill="#E8EFFF" width="1.402" height="10.621"/>
			<path fill="#C9D8F7" d="M48.75,76.709c0,0-2.425,1.361-4.926,1.711l-0.303-15.215c0,0,3.838,1.422,5.562,1.357L48.75,76.709z"/>
			<polygon fill="#715C57" points="48.75,76.709 49.623,76.379 49.623,64.666 48.75,64.666 			"/>
			<path fill="#0B050F" d="M49.623,76.379c0,0,1.294-0.539,1.854-0.971v-10.58h-1.854V76.379z"/>
			<rect x="36.873" y="59.635" fill="#0B050F" width="1.402" height="10.621"/>
			<rect x="42.95" y="63.494" fill="#715C57" width="0.874" height="14.926"/>
			<g>
				<path fill="#AA7941" d="M20.633,45.23c0.526,0,1.213,0.104,2.074,0.43c2.854,1.082,6.343,4.059,10.371,8.848
					c4.852,5.77,9.62,8.062,12.767,8.971c3.403,0.982,7.103,0.529,7.126,0.523l0.167,0.939c-0.101,0.018-3.895,0.496-7.495-0.529
					c-3.289-0.938-8.266-3.309-13.295-9.289c-9.049-10.76-12.498-8.801-12.532-8.781l-0.539-0.785
					C19.346,45.508,19.777,45.23,20.633,45.23z"/>
			</g>
			<path fill="#E8EFFF" d="M42.95,74.121c0,0-11.661-7.605-12.763-7.605c-1.101,0-4.405,2.314-4.405,2.314v-1.346
				c0,0,3.984-2.656,4.503-2.656s12.665,7.871,12.665,7.871V74.121z"/>
			<path fill="#BF9B4D" d="M41.646,77.766c0,0-9.855-7.244-11.254-7.244s-5.455,3.621-5.455,3.621L41.646,77.766z"/>
			<path fill="#BF9B4D" d="M42.95,75.045c0,0-11.661-7.734-12.763-7.734c-1.101,0-4.405,2.605-4.405,2.605v-1.303
				c0,0,3.984-2.574,4.503-2.574s12.665,7.629,12.665,7.629V75.045z"/>
			<path fill="#AA7941" d="M26.101,73.607c0,0,0.027-12.305-2.851-20.422c-2.879-8.115-9.46-19.408-12.415-20.412l-1.016,1.035
				c2.552,1.291,10.845,13.84,12.395,19.975c1.898,7.807,1.964,4.432,2.881,20.338C26.014,90.027,26.101,73.607,26.101,73.607z"/>
		</g>
		<g>
			<path fill="#E6E6E6" d="M44.45,12.988c0,0-0.626,5.834,0,7.031c0.627,1.195,1.822,3.842,1.822,3.842s-2.591-0.939-2.647,1.736
				c-0.058,2.676,2.135,2.533,2.932,2.533c0.798,0,3.104-0.938,1.595-4.639s-1.778-2.221-2.014-4.896s0-5.438,0-5.438L44.45,12.988z
				"/>
			<path fill="#F2F2F2" d="M45.275,11.273c0,0-0.625,5.836,0,7.031c0.627,1.195,1.822,3.842,1.822,3.842s-2.591-0.938-2.647,1.738
				s2.135,2.533,2.932,2.533c0.798,0,3.104-0.939,1.595-4.641s-1.778-2.221-2.013-4.896c-0.236-2.676,0-5.438,0-5.438L45.275,11.273
				z"/>
			<path fill="#E6E6E6" d="M46.369,19.672c0,0,4.476,17.039-5.683,17.039c-10.159,0-8.952-13.002-5.778-17.58
				C38.083,14.553,46.369,19.672,46.369,19.672z"/>
			<path fill="#E8EFFF" d="M46.149,12.57c0,0,0.748,2.836,0.295,3.742s0.008,2.463-0.075,3.359
				c-0.082,0.896-1.304,2.432-3.962,0.619c0,0-6.854,3.664-6.914-1.062C35.435,14.5,35.77,11.98,35.77,11.98
				S44.042,11.055,46.149,12.57z"/>
			<path fill="#666666" d="M27.562,10.477c0,0,0.627,5.836,0,7.031c-0.626,1.195-1.821,3.842-1.821,3.842s2.591-0.938,2.647,1.738
				s-2.136,2.533-2.933,2.533s-3.103-0.939-1.594-4.641s1.777-2.221,2.013-4.896s0-5.438,0-5.438L27.562,10.477z"/>
			<path fill="#808080" d="M28.358,11.273c0,0,0.627,5.836,0,7.031c-0.626,1.195-1.821,3.842-1.821,3.842s2.591-0.938,2.647,1.738
				c0.058,2.676-2.135,2.533-2.933,2.533c-0.797,0-3.103-0.939-1.594-4.641s1.777-2.221,2.014-4.896c0.235-2.676,0-5.438,0-5.438
				L28.358,11.273z"/>
			<path fill="#999999" d="M29.525,12.1c0,0,0.627,5.834,0,7.031c-0.625,1.195-1.821,3.842-1.821,3.842s2.591-0.939,2.647,1.736
				s-2.135,2.533-2.932,2.533c-0.798,0-3.104-0.938-1.595-4.639s1.777-2.221,2.014-4.896c0.235-2.676,0-5.438,0-5.438L29.525,12.1z"
				/>
			<path fill="#B3B3B3" d="M31.224,12.355c0,0,0.626,5.836,0,7.031s-1.821,3.844-1.821,3.844s2.59-0.941,2.647,1.736
				c0.057,2.676-2.136,2.533-2.933,2.533s-3.103-0.939-1.594-4.641s1.777-2.221,2.013-4.896s0-5.438,0-5.438L31.224,12.355z"/>
			<path fill="#CCCCCC" d="M32.875,12.1c0,0,0.626,5.834,0,7.031c-0.627,1.195-1.822,3.842-1.822,3.842s2.591-0.939,2.647,1.736
				c0.058,2.676-2.135,2.533-2.932,2.533c-0.798,0-3.104-0.938-1.595-4.639s1.778-2.221,2.014-4.896s0-5.438,0-5.438L32.875,12.1z"
				/>
			<path fill="#E6E6E6" d="M34.555,11.871c0,0,0.626,5.836,0,7.031c-0.627,1.195-1.822,3.844-1.822,3.844s2.591-0.939,2.647,1.736
				c0.058,2.676-2.135,2.533-2.933,2.533c-0.797,0-3.103-0.939-1.594-4.641c1.509-3.699,1.777-2.221,2.014-4.896
				c0.235-2.676,0-5.436,0-5.436L34.555,11.871z"/>
			<path fill="#F2F2F2" d="M36.062,11.559c0,0,0.627,5.834,0,7.031c-0.625,1.195-1.821,3.842-1.821,3.842s2.591-0.939,2.647,1.736
				c0.057,2.678-2.135,2.535-2.933,2.535c-0.797,0-3.103-0.939-1.594-4.641s1.777-2.221,2.014-4.896c0.235-2.676,0-5.438,0-5.438
				L36.062,11.559z"/>
			<path fill="#F2F2F2" d="M42.407,20.291c0,0,2.741,0.24,3.73,1.91c0,0-1.453,1.402-3.571,0.357c0,0-2.399,0.918-4.595,0.279
				C37.972,22.838,39.491,20.527,42.407,20.291z"/>
			<path fill="#BF9B4D" d="M24.356,4.602l3.337-0.695l0.675,3.246c0.842-0.197,1.729-0.357,2.644-0.488L30.633,3.57l3.54-0.434
				l0.388,3.164c1.008-0.068,2.012-0.109,2.986-0.133V2.922h3.613v3.242c1.096,0.021,2.084,0.061,2.908,0.102l0.547-3.256
				l3.888,0.654l-1.313,7.811l-0.723-0.121l-0.009,0.348l-19.436,0.748l-0.034-0.307l-1.021,0.213L24.356,4.602z"/>
			<path fill="#0B050F" d="M46.964,12.797c0,0-10.004-1.527-20.987,1.066L25.874,12.1c0,0,13.768-3.215,21.37-0.826L46.964,12.797z"
				/>
			<g>
				<path fill="#808080" d="M43.506,15.225c0,0,0.664-0.269,1.399-0.276c0.182-0.011,0.371,0.016,0.543,0.044
					c0.172,0.05,0.32,0.141,0.442,0.208c0.208,0.218,0.288,0.377,0.288,0.377l-0.023,0.021c0,0-0.19-0.065-0.391-0.179
					c-0.123-0.028-0.258-0.061-0.396-0.12c-0.153-0.013-0.308-0.081-0.477-0.097c-0.337-0.037-0.685-0.028-0.944-0.003
					c-0.261,0.02-0.435,0.056-0.435,0.056L43.506,15.225z"/>
			</g>
			<g>
				<path fill="#808080" d="M40.596,15.256c0,0-0.174-0.036-0.435-0.056c-0.26-0.025-0.607-0.034-0.944,0.003
					c-0.169,0.016-0.323,0.084-0.477,0.097c-0.138,0.06-0.272,0.092-0.396,0.12c-0.2,0.113-0.391,0.179-0.391,0.179l-0.023-0.021
					c0,0,0.08-0.159,0.288-0.377c0.122-0.067,0.271-0.158,0.442-0.208c0.172-0.028,0.361-0.055,0.543-0.044
					c0.735,0.008,1.399,0.276,1.399,0.276L40.596,15.256z"/>
			</g>
			<g>
				<path fill="#2A3757" d="M41.528,16.453c0,0-0.151,0.173-0.444,0.358c-0.148,0.082-0.326,0.19-0.535,0.25
					c-0.209,0.064-0.435,0.132-0.67,0.137c-0.235,0.039-0.471,0.034-0.688-0.016c-0.223-0.017-0.417-0.085-0.57-0.173
					c-0.314-0.159-0.496-0.3-0.496-0.3l0.014-0.029c0,0,0.24,0.015,0.56,0.087c0.157,0.054,0.346,0.07,0.544,0.102
					c0.198,0.035,0.408,0.085,0.625,0.074c0.218,0.02,0.43-0.021,0.631-0.06c0.2-0.037,0.379-0.113,0.533-0.171
					c0.304-0.136,0.476-0.283,0.476-0.283L41.528,16.453z"/>
			</g>
			<g>
				<path fill="#2A3757" d="M43.616,16.43c0,0,0.128,0.1,0.349,0.19c0.221,0.086,0.521,0.185,0.829,0.175
					c0.154,0.005,0.302-0.017,0.442-0.041c0.138-0.025,0.273-0.015,0.387-0.048c0.229-0.036,0.41-0.025,0.41-0.025l0.014,0.029
					c0,0-0.124,0.116-0.353,0.239c-0.112,0.068-0.258,0.11-0.421,0.12c-0.16,0.038-0.334,0.013-0.503-0.021
					c-0.172-0.011-0.331-0.082-0.481-0.128c-0.146-0.061-0.275-0.132-0.378-0.202c-0.208-0.14-0.316-0.266-0.316-0.266L43.616,16.43
					z"/>
			</g>
			<g>
				<path fill="#2A3757" d="M43.02,15.937c0,0-0.032,0.468,0.028,1.163c0.03,0.347,0.092,0.747,0.192,1.166
					c0.052,0.209,0.137,0.414,0.205,0.627c0.108,0.2,0.218,0.404,0.328,0.608c0.06,0.084,0.098,0.247,0.102,0.401
					c-0.017,0.152-0.074,0.288-0.169,0.398c-0.188,0.209-0.436,0.304-0.665,0.362c-0.233,0.045-0.465,0.071-0.68,0.03
					c-0.214-0.034-0.415-0.093-0.58-0.194c-0.167-0.089-0.305-0.219-0.382-0.354c-0.101-0.123-0.119-0.264-0.148-0.366
					c-0.014-0.216-0.003-0.332-0.003-0.332h0.031c0,0,0.021,0.119,0.078,0.303c0.053,0.084,0.087,0.195,0.187,0.284
					c0.078,0.101,0.209,0.178,0.352,0.239c0.141,0.07,0.317,0.104,0.5,0.115s0.379,0.006,0.574-0.035
					c0.192-0.047,0.379-0.132,0.513-0.254c0.132-0.143,0.159-0.273,0.059-0.49c-0.101-0.213-0.2-0.426-0.3-0.636
					c-0.062-0.228-0.139-0.448-0.182-0.666c-0.084-0.438-0.117-0.85-0.123-1.202c-0.013-0.706,0.052-1.171,0.052-1.171L43.02,15.937
					z"/>
			</g>
		</g>
		<g>
			<path fill="#E6E6E6" d="M24.673,90.699c0,0,0.627-5.836,0-7.033c-0.626-1.195-1.821-3.842-1.821-3.842s2.59,0.939,2.647-1.738
				c0.057-2.674-2.135-2.533-2.933-2.533c-0.797,0-3.103,0.939-1.594,4.641s1.777,2.221,2.013,4.896c0.236,2.676,0,5.438,0,5.438
				L24.673,90.699z"/>
			<path fill="#F2F2F2" d="M23.848,92.412c0,0,0.626-5.836,0-7.031s-1.821-3.844-1.821-3.844s2.59,0.939,2.647-1.736
				c0.057-2.676-2.135-2.533-2.933-2.533c-0.797,0-3.103,0.939-1.594,4.641s1.777,2.221,2.013,4.896s0,5.438,0,5.438L23.848,92.412z
				"/>
			<path fill="#E6E6E6" d="M22.755,84.014c0,0-4.476-17.039,5.683-17.039s8.952,13.002,5.777,17.58
				C31.041,89.133,22.755,84.014,22.755,84.014z"/>
			<path fill="#E8EFFF" d="M22.975,91.115c0,0-0.748-2.838-0.295-3.742c0.453-0.906-0.008-2.463,0.075-3.359
				c0.082-0.895,1.303-2.432,3.962-0.619c0,0,6.854-3.664,6.914,1.062c0.059,4.727-0.276,7.248-0.276,7.248
				S25.082,92.631,22.975,91.115z"/>
			<path fill="#666666" d="M41.562,93.209c0,0-0.626-5.836,0-7.031c0.627-1.195,1.822-3.842,1.822-3.842s-2.591,0.939-2.647-1.738
				c-0.057-2.676,2.135-2.533,2.933-2.533c0.797,0,3.103,0.939,1.594,4.641s-1.778,2.221-2.014,4.896s0,5.438,0,5.438L41.562,93.209
				z"/>
			<path fill="#808080" d="M40.765,92.412c0,0-0.626-5.836,0-7.031c0.627-1.195,1.822-3.844,1.822-3.844s-2.591,0.939-2.647-1.736
				c-0.058-2.676,2.135-2.533,2.932-2.533c0.798,0,3.104,0.939,1.595,4.641s-1.778,2.221-2.014,4.896s0,5.438,0,5.438L40.765,92.412
				z"/>
			<path fill="#999999" d="M39.598,91.586c0,0-0.626-5.836,0-7.031s1.822-3.842,1.822-3.842s-2.591,0.939-2.647-1.736
				c-0.058-2.676,2.135-2.535,2.932-2.535s3.104,0.939,1.594,4.641c-1.508,3.701-1.777,2.221-2.013,4.896s0,5.438,0,5.438
				L39.598,91.586z"/>
			<path fill="#B3B3B3" d="M37.9,91.33c0,0-0.627-5.836,0-7.031c0.626-1.195,1.821-3.844,1.821-3.844s-2.591,0.941-2.647-1.736
				c-0.057-2.676,2.135-2.533,2.933-2.533c0.797,0,3.103,0.939,1.594,4.641s-1.778,2.221-2.013,4.896c-0.236,2.676,0,5.438,0,5.438
				L37.9,91.33z"/>
			<path fill="#CCCCCC" d="M36.249,91.586c0,0-0.626-5.836,0-7.031s1.821-3.842,1.821-3.842s-2.59,0.939-2.647-1.736
				c-0.057-2.676,2.136-2.535,2.933-2.535s3.103,0.939,1.594,4.641s-1.777,2.221-2.014,4.896c-0.234,2.676,0,5.438,0,5.438
				L36.249,91.586z"/>
			<path fill="#E6E6E6" d="M34.569,91.814c0,0-0.626-5.836,0-7.031s1.822-3.844,1.822-3.844s-2.591,0.939-2.647-1.736
				c-0.058-2.676,2.135-2.533,2.932-2.533s3.104,0.939,1.595,4.641c-1.509,3.699-1.778,2.221-2.014,4.896s0,5.436,0,5.436
				L34.569,91.814z"/>
			<path fill="#F2F2F2" d="M33.061,92.127c0,0-0.626-5.836,0-7.031s1.822-3.842,1.822-3.842s-2.591,0.938-2.647-1.736
				c-0.058-2.676,2.135-2.533,2.932-2.533c0.798,0,3.104,0.938,1.595,4.639s-1.778,2.221-2.014,4.896s0,5.438,0,5.438L33.061,92.127
				z"/>
			<path fill="#F2F2F2" d="M26.717,83.395c0,0-2.741-0.24-3.731-1.91c0,0,1.454-1.402,3.572-0.357c0,0,2.399-0.918,4.594-0.279
				C31.151,80.848,29.633,83.158,26.717,83.395z"/>
			<path fill="#BF9B4D" d="M44.768,99.084l-3.337,0.693l-0.675-3.244c-0.842,0.197-1.729,0.357-2.644,0.488l0.378,3.094
				l-3.539,0.434l-0.388-3.164c-1.008,0.068-2.012,0.109-2.987,0.133v3.246h-3.612v-3.242c-1.096-0.021-2.084-0.061-2.908-0.102
				l-0.548,3.256l-3.887-0.654l1.312-7.811l0.724,0.123l0.009-0.348l19.436-0.75l0.034,0.307l1.021-0.213L44.768,99.084z"/>
			<path fill="#0B050F" d="M22.16,90.889c0,0,10.003,1.527,20.986-1.064l0.103,1.762c0,0-13.768,3.215-21.369,0.826L22.16,90.889z"
				/>
			<g>
				<path fill="#808080" d="M25.617,88.461c0,0-0.664,0.269-1.399,0.276c-0.182,0.011-0.371-0.016-0.543-0.044
					c-0.172-0.05-0.32-0.141-0.442-0.208c-0.208-0.218-0.288-0.377-0.288-0.377l0.023-0.021c0,0,0.19,0.065,0.391,0.179
					c0.123,0.028,0.258,0.061,0.396,0.12c0.153,0.013,0.308,0.081,0.477,0.097c0.337,0.037,0.685,0.028,0.944,0.003
					c0.261-0.02,0.435-0.056,0.435-0.056L25.617,88.461z"/>
			</g>
			<g>
				<path fill="#808080" d="M28.528,88.43c0,0,0.174,0.036,0.435,0.056c0.26,0.025,0.607,0.034,0.944-0.003
					c0.169-0.016,0.322-0.084,0.477-0.097c0.138-0.06,0.272-0.092,0.396-0.12c0.2-0.113,0.391-0.179,0.391-0.179l0.023,0.021
					c0,0-0.08,0.159-0.288,0.377c-0.122,0.067-0.271,0.158-0.442,0.208c-0.172,0.028-0.361,0.055-0.543,0.044
					c-0.735-0.008-1.399-0.276-1.399-0.276L28.528,88.43z"/>
			</g>
			<g>
				<path fill="#2A3757" d="M27.596,87.232c0,0,0.151-0.173,0.444-0.358c0.148-0.082,0.326-0.19,0.535-0.25
					c0.209-0.064,0.435-0.132,0.67-0.137c0.235-0.039,0.471-0.034,0.688,0.016c0.223,0.017,0.417,0.085,0.57,0.173
					c0.314,0.159,0.496,0.3,0.496,0.3l-0.014,0.029c0,0-0.24-0.015-0.56-0.087c-0.157-0.054-0.346-0.07-0.544-0.102
					c-0.198-0.035-0.408-0.085-0.625-0.074c-0.218-0.02-0.43,0.021-0.631,0.06c-0.2,0.037-0.379,0.113-0.533,0.171
					c-0.304,0.136-0.476,0.283-0.476,0.283L27.596,87.232z"/>
			</g>
			<g>
				<path fill="#2A3757" d="M25.508,87.256c0,0-0.128-0.1-0.349-0.19c-0.221-0.086-0.521-0.185-0.829-0.175
					c-0.154-0.004-0.302,0.017-0.442,0.041c-0.138,0.025-0.273,0.015-0.387,0.048c-0.229,0.036-0.41,0.025-0.41,0.025l-0.014-0.029
					c0,0,0.124-0.116,0.353-0.239c0.112-0.068,0.258-0.11,0.421-0.12c0.16-0.038,0.334-0.013,0.503,0.021
					c0.172,0.011,0.331,0.082,0.481,0.128c0.146,0.061,0.275,0.132,0.378,0.202c0.208,0.14,0.316,0.266,0.316,0.266L25.508,87.256z"
					/>
			</g>
			<g>
				<path fill="#2A3757" d="M26.104,87.749c0,0,0.032-0.468-0.028-1.162c-0.03-0.347-0.092-0.748-0.192-1.167
					c-0.052-0.208-0.137-0.413-0.205-0.626c-0.107-0.201-0.218-0.405-0.327-0.608c-0.061-0.084-0.098-0.246-0.104-0.401
					c0.018-0.152,0.075-0.288,0.17-0.398c0.188-0.21,0.435-0.304,0.664-0.362c0.233-0.045,0.465-0.071,0.68-0.03
					c0.213,0.034,0.415,0.092,0.58,0.194c0.167,0.089,0.304,0.219,0.382,0.353c0.1,0.124,0.119,0.264,0.147,0.366
					c0.015,0.216,0.004,0.332,0.004,0.332h-0.031c0,0-0.021-0.119-0.078-0.303c-0.053-0.084-0.088-0.195-0.187-0.283
					c-0.078-0.101-0.209-0.179-0.353-0.239c-0.14-0.071-0.316-0.104-0.499-0.115c-0.183-0.012-0.379-0.006-0.574,0.034
					c-0.192,0.047-0.379,0.133-0.512,0.255c-0.132,0.143-0.16,0.273-0.059,0.49c0.101,0.213,0.201,0.426,0.3,0.636
					c0.062,0.228,0.139,0.447,0.182,0.666c0.084,0.438,0.117,0.85,0.123,1.202c0.013,0.705-0.052,1.17-0.052,1.17L26.104,87.749z"/>
			</g>
		</g>
	</g>
</g>
</svg>
