<?xml version="1.0" encoding="utf-8"?>
<!-- Generator: Adobe Illustrator 16.0.0, SVG Export Plug-In . SVG Version: 6.00 Build 0)  -->
<!DOCTYPE svg PUBLIC "-//W3C//DTD SVG 1.1//EN" "http://www.w3.org/Graphics/SVG/1.1/DTD/svg11.dtd">
<svg version="1.1" id="Layer_1" xmlns="http://www.w3.org/2000/svg" xmlns:xlink="http://www.w3.org/1999/xlink" x="0px" y="0px"
	 width="69.12px" height="103.69px" viewBox="0 0 69.12 103.69" enable-background="new 0 0 69.12 103.69" xml:space="preserve">
<g>
	<g>
		<path fill="#F2F2F2" d="M69.123,100.963c0,1.504-1.219,2.721-2.722,2.721H2.722c-1.503,0-2.722-1.217-2.722-2.721V2.721
			C0,1.219,1.219,0,2.722,0h63.68c1.503,0,2.722,1.219,2.722,2.721V100.963z"/>
		<g>
			<path fill="#7A2B2B" d="M7.373,19.875l-0.577-0.576c-2.145-1.896-3.545-3.174-3.545-4.742c0-1.275,0.99-2.266,2.266-2.266
				c0.704,0,1.403,0.748,1.856,1.285c0.453-0.537,1.153-1.285,1.856-1.285c1.275,0,2.266,0.99,2.266,2.266
				c0,1.568-1.4,2.846-3.545,4.742L7.373,19.875z M7.373,19.875"/>
			<path fill="#943434" d="M7.364,13.57c-0.453-0.535-1.148-1.275-1.848-1.275c-1.275,0-2.266,0.99-2.266,2.266
				c0,1.568,1.4,2.846,3.545,4.742l0.568,0.566V13.57z"/>
		</g>
		<g>
			<path fill="#7A2B2B" d="M61.662,83.635l0.578,0.576c2.144,1.896,3.544,3.174,3.544,4.742c0,1.275-0.99,2.266-2.266,2.266
				c-0.703,0-1.403-0.75-1.856-1.285c-0.453,0.535-1.153,1.285-1.856,1.285c-1.275,0-2.266-0.99-2.266-2.266
				c0-1.568,1.4-2.846,3.545-4.742L61.662,83.635z M61.662,83.635"/>
			<path fill="#943434" d="M61.671,89.939c0.453,0.535,1.148,1.275,1.848,1.275c1.275,0,2.266-0.99,2.266-2.266
				c0-1.568-1.4-2.848-3.544-4.742l-0.569-0.568V89.939z"/>
		</g>
		<rect x="2.722" y="2.721" fill="none" width="9.374" height="9.762"/>
		<text transform="matrix(1 0 0 1 4.4585 10.4502)" fill="#7A2B2B" font-family="'ChunkFive'" font-size="10.8856">K</text>
		<rect x="57.027" y="91.201" fill="none" width="9.374" height="9.762"/>
		<text transform="matrix(-1 0 0 -1 64.6641 93.2344)" fill="#7A2B2B" font-family="'ChunkFive'" font-size="10.8856">K</text>
	</g>
	<g>
		<g>
			<path fill="#AA292E" d="M17.646,75.406c0,0-4.054-1.465-7.827-5.562v-5.016h7.827V75.406z"/>
			<path fill="#AA292E" d="M9.819,62.334V34.18c0,0,3.539-4.512,10.642-5.18C20.461,29,20.593,57.518,9.819,62.334z"/>
			<g>
				<rect x="30.598" y="30.547" fill="#0B050F" width="3.622" height="6.648"/>
				<rect x="23.335" y="28.25" fill="#0B050F" width="3.623" height="6.648"/>
				<rect x="34.247" y="27.904" fill="#AA292E" width="3.621" height="6.648"/>
				<rect x="26.976" y="30.074" fill="#AA292E" width="3.622" height="6.648"/>
				<rect x="37.754" y="25.902" fill="#0B050F" width="3.622" height="6.648"/>
				<rect x="41.403" y="25.768" fill="#AA292E" width="3.622" height="4.141"/>
			</g>
			<path fill="#0B050F" d="M19.491,29.105c0,0,1.268,18.627-9.672,33.229c0.013,1.287,0.02,1.938,0.02,1.938
				s6.438-3.025,10.103-15.787c3.663-12.76,2.003-19.379,2.003-19.379H19.491z"/>
			<path fill="#F2F2F2" d="M21.164,29.523c0,0,0.336,12.256-2.688,19.6c-3.026,7.346-5.131,12.352-8.656,15.117v5.604
				c0,0,9.938-9.609,13.197-20.434s2.649-20.293,2.649-20.293L21.164,29.523z"/>
			<g>
				<ellipse fill="#AA292E" cx="23.063" cy="29.197" rx="2.083" ry="0.832"/>
				
					<ellipse transform="matrix(-0.9986 -0.0527 0.0527 -0.9986 44.67 63.4504)" fill="#AA292E" cx="23.171" cy="31.137" rx="2.04" ry="0.816"/>
				
					<ellipse transform="matrix(-0.9943 -0.1068 0.1068 -0.9943 42.6224 68.983)" fill="#AA292E" cx="23.158" cy="33.351" rx="2.003" ry="0.8"/>
				
					<ellipse transform="matrix(-0.9866 -0.1629 0.1629 -0.9866 39.8957 74.8626)" fill="#AA292E" cx="23.017" cy="35.796" rx="1.973" ry="0.789"/>
				
					<ellipse transform="matrix(-0.9754 -0.2205 0.2205 -0.9754 36.4473 80.9285)" fill="#AA292E" cx="22.741" cy="38.43" rx="1.948" ry="0.779"/>
				
					<ellipse transform="matrix(-0.9607 -0.2777 0.2777 -0.9607 32.3356 86.9952)" fill="#AA292E" cx="22.328" cy="41.208" rx="1.931" ry="0.772"/>
				
					<ellipse transform="matrix(-0.9421 -0.3352 0.3352 -0.9421 27.497 92.9241)" fill="#AA292E" cx="21.769" cy="44.089" rx="1.92" ry="0.768"/>
				
					<ellipse transform="matrix(-0.92 -0.3919 0.3919 -0.92 22.0037 98.5474)" fill="#AA292E" cx="21.058" cy="47.028" rx="1.916" ry="0.765"/>
				
					<ellipse transform="matrix(-0.8945 -0.4471 0.4471 -0.8945 15.9077 103.7172)" fill="#AA292E" cx="20.193" cy="49.981" rx="1.92" ry="0.768"/>
				
					<ellipse transform="matrix(-0.8659 -0.5002 0.5002 -0.8659 9.293 108.3058)" fill="#AA292E" cx="19.164" cy="52.907" rx="1.931" ry="0.772"/>
				
					<ellipse transform="matrix(-0.8346 -0.5509 0.5509 -0.8346 2.2443 112.1954)" fill="#AA292E" cx="17.967" cy="55.761" rx="1.948" ry="0.778"/>
				
					<ellipse transform="matrix(-0.8012 -0.5985 0.5985 -0.8012 -5.1167 115.298)" fill="#AA292E" cx="16.596" cy="58.499" rx="1.973" ry="0.788"/>
				
					<ellipse transform="matrix(-0.7661 -0.6428 0.6428 -0.7661 -12.6878 117.5404)" fill="#AA292E" cx="15.046" cy="61.079" rx="2.004" ry="0.8"/>
				
					<ellipse transform="matrix(-0.7299 -0.6835 0.6835 -0.7299 -20.3488 118.8741)" fill="#AA292E" cx="13.31" cy="63.457" rx="2.04" ry="0.815"/>
				
					<ellipse transform="matrix(-0.6929 -0.721 0.721 -0.6929 -28.0223 119.2446)" fill="#AA292E" cx="11.383" cy="65.59" rx="2.083" ry="0.834"/>
			</g>
			<rect x="30.843" y="39.035" fill="#3856C8" width="5.757" height="6.369"/>
			<polygon fill="#BF9B4D" points="36.352,45.135 30.843,45.135 30.843,50.914 			"/>
			<rect x="30.744" y="39.916" fill="#BF9B4D" width="5.806" height="4.729"/>
			<polygon fill="#BF9B4D" points="36.55,39.5 30.843,39.5 30.843,37.957 36.55,34.502 			"/>
			<path fill="#AA292E" d="M29.729,51.465l0.221-13.404l-4.725-2.67c0,0-0.928,11.1-2.05,13.094S29.729,51.465,29.729,51.465z"/>
			<polygon fill="#E8EFFF" points="29.647,51.506 31.051,50.809 31.051,37.092 29.647,37.092 			"/>
			<polygon fill="#0B050F" points="29.194,52.029 30.598,51.334 30.598,37.615 29.194,37.615 			"/>
			<g>
				<path fill="#0B050F" d="M20.017,56.682c0.476-1.201,1.281-2.314,1.878-3.461c0.97-1.869,1.661-3.848,1.979-5.906
					c0.029,0,0.057-0.002,0.087-0.002c2.903,0,5.386,1.797,6.398,4.34c-0.215,0.242-0.424,0.494-0.692,0.721
					c-0.481,0.404-1.05,0.727-1.553,1.111c-1.222,0.936-2.155,2.227-3.521,2.961c-1.03,0.553-2.125,0.938-3.221,1.336
					c-0.471,0.17-0.948,0.34-1.438,0.455c-0.147-0.023-0.295-0.045-0.443-0.064C19.671,57.668,19.827,57.156,20.017,56.682z"/>
				<path fill="#BF9B4D" d="M20.017,56.682c0.476-1.201,1.281-2.314,1.878-3.461c0.884-1.703,1.537-3.5,1.886-5.363
					c0.06-0.002,0.119-0.004,0.18-0.004c2.77,0,5.124,1.773,5.99,4.248c-0.089,0.094-0.181,0.184-0.284,0.271
					c-0.481,0.404-1.05,0.727-1.553,1.111c-1.222,0.936-2.155,2.227-3.521,2.961c-1.03,0.553-2.125,0.938-3.221,1.336
					c-0.471,0.17-0.948,0.34-1.438,0.455c-0.147-0.023-0.296-0.045-0.443-0.064C19.671,57.67,19.827,57.156,20.017,56.682z"/>
				<path fill="#3856C8" d="M21.895,53.221c0.389-0.748,0.731-1.516,1.024-2.299c0.327-0.104,0.678-0.16,1.041-0.16
					c1.863,0,3.378,1.484,3.433,3.334c-0.9,0.83-1.714,1.766-2.8,2.35c-0.655,0.352-1.336,0.635-2.027,0.896
					c-0.875-0.389-1.557-1.133-1.864-2.047C21.096,54.598,21.533,53.916,21.895,53.221z"/>
			</g>
			<polygon fill="#AA292E" points="43.387,40.641 37.751,43.893 37.465,33.398 43.387,30.137 			"/>
			<rect x="36.352" y="33.871" fill="#E8EFFF" width="1.402" height="10.621"/>
			<path fill="#C9D8F7" d="M48.749,26.943c0,0-2.425-1.361-4.926-1.711l-0.302,15.217c0,0,3.838-1.424,5.562-1.359L48.749,26.943z"
				/>
			<polygon fill="#715C57" points="48.749,26.943 49.623,27.275 49.623,38.986 48.749,38.986 			"/>
			<path fill="#0B050F" d="M49.623,27.275c0,0,1.294,0.539,1.854,0.971v10.58h-1.854V27.275z"/>
			<path fill="#AA292E" d="M51.478,28.246c0,0,4.053,1.465,7.826,5.562v5.018h-7.826V28.246z"/>
			<rect x="36.872" y="33.398" fill="#0B050F" width="1.403" height="10.619"/>
			<rect x="42.95" y="25.232" fill="#715C57" width="0.873" height="14.926"/>
			<g>
				<path fill="#AA7941" d="M20.633,58.424c0.526,0,1.213-0.105,2.074-0.432c2.854-1.08,6.343-4.057,10.371-8.848
					c4.852-5.768,9.62-8.061,12.767-8.969c3.403-0.982,7.271-0.799,7.294-0.795l0.167-0.939c-0.101-0.018-4.063-0.227-7.663,0.799
					c-3.289,0.938-8.266,3.311-13.295,9.291c-9.049,10.76-12.499,8.801-12.532,8.779l-0.539,0.787
					C19.346,58.146,19.776,58.424,20.633,58.424z"/>
			</g>
			<path fill="#E8EFFF" d="M42.95,29.533c0,0-11.662,7.605-12.763,7.605s-4.405-2.314-4.405-2.314v1.344
				c0,0,3.984,2.658,4.503,2.658c0.518,0,12.665-7.873,12.665-7.873V29.533z"/>
			<path fill="#BF9B4D" d="M41.646,25.889c0,0-9.855,7.244-11.254,7.244c-1.399,0-5.455-3.621-5.455-3.621L41.646,25.889z"/>
			<path fill="#BF9B4D" d="M42.95,28.609c0,0-11.662,7.734-12.763,7.734s-4.405-2.607-4.405-2.607v1.305
				c0,0,3.984,2.574,4.503,2.574c0.518,0,12.665-7.629,12.665-7.629V28.609z"/>
			<path fill="#AA7941" d="M26.1,30.047c0,0,0.028,12.305-2.851,20.42c-2.878,8.117-10.123,19.531-12.253,20.566l-1.177-1.189
				c0,0,5.098-4.203,12.394-19.975c1.899-7.807,1.964-4.43,2.882-20.336S26.1,30.047,26.1,30.047z"/>
			<path fill="#AA292E" d="M59.304,41.318v28.156c0,0-3.539,4.512-10.641,5.178C48.663,74.652,48.53,46.137,59.304,41.318z"/>
			<g>
				<rect x="34.904" y="66.457" fill="#0B050F" width="3.621" height="6.648"/>
				<rect x="42.165" y="68.754" fill="#0B050F" width="3.623" height="6.648"/>
				<rect x="31.255" y="69.1" fill="#AA292E" width="3.622" height="6.648"/>
				<rect x="38.525" y="66.93" fill="#AA292E" width="3.623" height="6.65"/>
				<rect x="27.747" y="71.102" fill="#0B050F" width="3.622" height="6.65"/>
				<rect x="24.098" y="73.744" fill="#AA292E" width="3.623" height="4.141"/>
			</g>
			<path fill="#0B050F" d="M49.633,74.547c0,0-1.269-18.627,9.671-33.229c-0.013-1.285-0.02-1.938-0.02-1.938
				s-6.439,3.025-10.103,15.787c-3.663,12.76-2.003,19.379-2.003,19.379H49.633z"/>
			<path fill="#F2F2F2" d="M47.959,74.131c0,0-0.336-12.258,2.689-19.602c3.024-7.344,5.13-12.352,8.655-15.117v-5.604
				c0,0-5.438,1.104-13.196,20.434c-3.26,10.826-2.65,20.293-2.65,20.293L47.959,74.131z"/>
			<g>
				<ellipse fill="#AA292E" cx="46.06" cy="74.455" rx="2.083" ry="0.832"/>
				
					<ellipse transform="matrix(0.9986 0.0526 -0.0526 0.9986 3.8814 -2.3186)" fill="#AA292E" cx="45.952" cy="72.516" rx="2.04" ry="0.816"/>
				
					<ellipse transform="matrix(0.9942 0.1072 -0.1072 0.9942 7.8029 -4.5232)" fill="#AA292E" cx="45.966" cy="70.303" rx="2.004" ry="0.801"/>
				
					<ellipse transform="matrix(0.9866 0.1633 -0.1633 0.9866 11.7012 -6.6189)" fill="#AA292E" cx="46.107" cy="67.857" rx="1.973" ry="0.788"/>
				
					<ellipse transform="matrix(0.9754 0.2205 -0.2205 0.9754 15.5261 -8.6231)" fill="#AA292E" cx="46.382" cy="65.223" rx="1.948" ry="0.779"/>
				
					<ellipse transform="matrix(0.9607 0.2777 -0.2777 0.9607 19.1782 -10.5378)" fill="#AA292E" cx="46.795" cy="62.444" rx="1.931" ry="0.772"/>
				
					<ellipse transform="matrix(0.9421 0.3352 -0.3352 0.9421 22.7084 -12.4284)" fill="#AA292E" cx="47.354" cy="59.563" rx="1.92" ry="0.768"/>
				
					<ellipse transform="matrix(0.92 0.3919 -0.3919 0.92 26.0325 -14.3062)" fill="#AA292E" cx="48.065" cy="56.624" rx="1.916" ry="0.765"/>
				
					<ellipse transform="matrix(0.8945 0.447 -0.447 0.8945 29.1522 -16.2118)" fill="#AA292E" cx="48.931" cy="53.671" rx="1.92" ry="0.767"/>
				
					<ellipse transform="matrix(0.8658 0.5003 -0.5003 0.8658 32.092 -18.188)" fill="#AA292E" cx="49.959" cy="50.745" rx="1.93" ry="0.77"/>
				
					<ellipse transform="matrix(0.8347 0.5508 -0.5508 0.8347 34.835 -20.2569)" fill="#AA292E" cx="51.157" cy="47.892" rx="1.949" ry="0.778"/>
				
					<ellipse transform="matrix(0.8012 0.5985 -0.5985 0.8012 37.4668 -22.4565)" fill="#AA292E" cx="52.527" cy="45.153" rx="1.973" ry="0.788"/>
				
					<ellipse transform="matrix(0.7662 0.6426 -0.6426 0.7662 40.0017 -24.7966)" fill="#AA292E" cx="54.078" cy="42.574" rx="2.003" ry="0.801"/>
				
					<ellipse transform="matrix(0.7299 0.6835 -0.6835 0.7299 42.5469 -27.294)" fill="#AA292E" cx="55.813" cy="40.195" rx="2.04" ry="0.814"/>
				
					<ellipse transform="matrix(0.6929 0.721 -0.721 0.6929 45.1761 -29.9436)" fill="#AA292E" cx="57.74" cy="38.062" rx="2.083" ry="0.832"/>
			</g>
			<rect x="32.523" y="58.248" fill="#3856C8" width="5.758" height="6.369"/>
			<polygon fill="#BF9B4D" points="32.772,58.518 38.281,58.518 38.281,52.74 			"/>
			<rect x="32.573" y="59.008" fill="#BF9B4D" width="5.807" height="4.729"/>
			<polygon fill="#BF9B4D" points="32.573,64.152 38.281,64.152 38.281,65.695 32.573,69.15 			"/>
			<path fill="#AA292E" d="M39.394,52.188l-0.221,13.404l4.725,2.67c0,0,0.928-11.1,2.05-13.094S39.394,52.188,39.394,52.188z"/>
			<polygon fill="#E8EFFF" points="39.476,52.148 38.072,52.844 38.072,66.562 39.476,66.562 			"/>
			<polygon fill="#0B050F" points="39.929,51.623 38.525,52.318 38.525,66.037 39.929,66.037 			"/>
			<g>
				<path fill="#0B050F" d="M49.107,46.973c-0.477,1.199-1.282,2.312-1.879,3.459c-0.969,1.869-1.661,3.848-1.978,5.906
					c-0.029,0-0.058,0.002-0.087,0.002c-2.903,0-5.386-1.797-6.399-4.338c0.215-0.244,0.425-0.496,0.692-0.721
					c0.481-0.406,1.051-0.727,1.554-1.111c1.221-0.936,2.154-2.227,3.521-2.963c1.029-0.553,2.124-0.938,3.221-1.334
					c0.471-0.172,0.947-0.342,1.437-0.455c0.147,0.021,0.295,0.043,0.444,0.064C49.452,45.984,49.297,46.496,49.107,46.973z"/>
				<path fill="#BF9B4D" d="M49.107,46.973c-0.477,1.199-1.282,2.312-1.879,3.459c-0.884,1.703-1.536,3.5-1.886,5.363
					c-0.06,0.002-0.119,0.006-0.179,0.006c-2.771,0-5.125-1.775-5.991-4.25c0.089-0.092,0.182-0.184,0.284-0.27
					c0.481-0.406,1.051-0.727,1.554-1.111c1.221-0.936,2.154-2.227,3.521-2.963c1.029-0.553,2.124-0.938,3.221-1.334
					c0.471-0.172,0.947-0.342,1.437-0.455c0.147,0.021,0.296,0.043,0.444,0.064C49.452,45.984,49.297,46.496,49.107,46.973z"/>
				<path fill="#3856C8" d="M47.229,50.432c-0.389,0.75-0.73,1.516-1.024,2.299c-0.328,0.104-0.678,0.16-1.04,0.16
					c-1.864,0-3.378-1.482-3.434-3.334c0.901-0.83,1.714-1.766,2.801-2.35c0.654-0.352,1.336-0.635,2.026-0.896
					c0.875,0.389,1.557,1.133,1.864,2.049C48.027,49.055,47.59,49.736,47.229,50.432z"/>
			</g>
			<polygon fill="#AA292E" points="25.736,63.012 31.373,59.762 31.658,70.254 25.736,73.516 			"/>
			<rect x="31.369" y="59.162" fill="#E8EFFF" width="1.403" height="10.619"/>
			<path fill="#C9D8F7" d="M20.374,76.709c0,0,2.425,1.361,4.926,1.711l0.303-15.217c0,0-3.839,1.424-5.563,1.359L20.374,76.709z"/>
			<polygon fill="#715C57" points="20.374,76.709 19.5,76.377 19.5,64.666 20.374,64.666 			"/>
			<path fill="#0B050F" d="M19.5,76.377c0,0-1.293-0.539-1.854-0.971V64.828H19.5V76.377z"/>
			<rect x="30.848" y="59.635" fill="#0B050F" width="1.403" height="10.619"/>
			<rect x="25.3" y="63.494" fill="#715C57" width="0.873" height="14.926"/>
			<g>
				<path fill="#AA7941" d="M48.49,45.229c-0.525,0-1.212,0.105-2.073,0.432c-2.854,1.08-6.343,4.059-10.372,8.848
					c-4.851,5.77-9.62,8.062-12.767,8.969c-3.402,0.982-7.103,0.529-7.125,0.525l-0.167,0.939c0.1,0.018,3.895,0.496,7.494-0.529
					c3.289-0.938,8.267-3.311,13.295-9.291c9.049-10.758,12.499-8.801,12.532-8.779l0.539-0.787
					C49.777,45.506,49.347,45.229,48.49,45.229z"/>
			</g>
			<path fill="#E8EFFF" d="M26.173,74.119c0,0,11.662-7.605,12.763-7.605s4.405,2.316,4.405,2.316v-1.346
				c0,0-3.984-2.656-4.502-2.656c-0.519,0-12.666,7.871-12.666,7.871V74.119z"/>
			<path fill="#BF9B4D" d="M27.477,77.764c0,0,9.855-7.244,11.255-7.244c1.398,0,5.454,3.623,5.454,3.623L27.477,77.764z"/>
			<path fill="#BF9B4D" d="M26.173,75.045c0,0,11.662-7.736,12.763-7.736s4.405,2.607,4.405,2.607v-1.305
				c0,0-3.984-2.574-4.502-2.574c-0.519,0-12.666,7.631-12.666,7.631V75.045z"/>
			<path fill="#AA7941" d="M43.023,73.607c0,0-0.027-12.307,2.851-20.422c2.879-8.117,9.46-19.408,12.414-20.414l1.016,1.037
				c-2.551,1.289-10.844,13.84-12.394,19.975c-1.899,7.807-1.964,4.43-2.881,20.336C43.11,90.027,43.023,73.607,43.023,73.607z"/>
		</g>
		<g>
			<path fill="#E6E6E6" d="M24.673,12.986c0,0,0.627,5.836,0,7.031c-0.626,1.195-1.821,3.844-1.821,3.844s2.59-0.939,2.647,1.736
				c0.057,2.676-2.135,2.533-2.933,2.533c-0.797,0-3.103-0.939-1.594-4.639c1.509-3.701,1.777-2.221,2.013-4.898
				c0.236-2.676,0-5.436,0-5.436L24.673,12.986z"/>
			<path fill="#F2F2F2" d="M23.848,11.273c0,0,0.626,5.834,0,7.029c-0.626,1.197-1.821,3.844-1.821,3.844s2.59-0.939,2.646,1.736
				c0.058,2.676-2.135,2.533-2.932,2.533s-3.103-0.938-1.594-4.639c1.508-3.701,1.777-2.221,2.013-4.896s0-5.438,0-5.438
				L23.848,11.273z"/>
			<path fill="#E6E6E6" d="M22.754,19.67c0,0-4.475,17.039,5.684,17.039s8.952-13.002,5.777-17.578
				C31.04,14.553,22.754,19.67,22.754,19.67z"/>
			<path fill="#E8EFFF" d="M22.975,12.57c0,0-0.749,2.836-0.296,3.742s-0.007,2.463,0.075,3.357
				c0.083,0.896,1.304,2.434,3.963,0.621c0,0,6.854,3.664,6.913-1.064c0.06-4.727-0.275-7.248-0.275-7.248
				S25.082,11.053,22.975,12.57z"/>
			<path fill="#666666" d="M41.562,10.475c0,0-0.626,5.836,0,7.033c0.626,1.195,1.822,3.842,1.822,3.842s-2.591-0.939-2.647,1.736
				c-0.058,2.676,2.135,2.533,2.932,2.533c0.798,0,3.104-0.939,1.595-4.639c-1.509-3.701-1.777-2.221-2.014-4.896
				c-0.235-2.676,0-5.438,0-5.438L41.562,10.475z"/>
			<path fill="#808080" d="M40.765,11.273c0,0-0.626,5.834,0,7.029c0.626,1.197,1.822,3.844,1.822,3.844s-2.591-0.939-2.648,1.736
				c-0.057,2.676,2.136,2.533,2.933,2.533s3.103-0.938,1.594-4.639s-1.777-2.221-2.013-4.896c-0.236-2.676,0-5.438,0-5.438
				L40.765,11.273z"/>
			<path fill="#999999" d="M39.598,12.098c0,0-0.626,5.836,0,7.031s1.821,3.844,1.821,3.844s-2.59-0.939-2.646,1.736
				c-0.058,2.676,2.135,2.533,2.932,2.533s3.103-0.939,1.594-4.639c-1.509-3.701-1.777-2.221-2.013-4.896
				c-0.235-2.678,0-5.438,0-5.438L39.598,12.098z"/>
			<path fill="#B3B3B3" d="M37.899,12.354c0,0-0.626,5.836,0,7.033c0.627,1.195,1.822,3.842,1.822,3.842s-2.591-0.939-2.647,1.736
				s2.135,2.533,2.933,2.533c0.797,0,3.103-0.939,1.594-4.639c-1.509-3.701-1.778-2.221-2.014-4.896s0-5.438,0-5.438L37.899,12.354z
				"/>
			<path fill="#CCCCCC" d="M36.249,12.098c0,0-0.627,5.836,0,7.031c0.626,1.195,1.821,3.844,1.821,3.844s-2.59-0.939-2.647,1.736
				c-0.057,2.676,2.135,2.533,2.932,2.533c0.798,0,3.104-0.939,1.595-4.639c-1.509-3.701-1.777-2.221-2.014-4.896
				c-0.235-2.678,0-5.438,0-5.438L36.249,12.098z"/>
			<path fill="#E6E6E6" d="M34.569,11.871c0,0-0.626,5.836,0,7.031s1.822,3.842,1.822,3.842s-2.591-0.939-2.648,1.738
				c-0.057,2.676,2.136,2.533,2.933,2.533s3.103-0.939,1.594-4.641s-1.777-2.221-2.013-4.896s0-5.438,0-5.438L34.569,11.871z"/>
			<path fill="#F2F2F2" d="M33.061,11.557c0,0-0.626,5.836,0,7.031s1.822,3.844,1.822,3.844s-2.591-0.939-2.647,1.736
				c-0.058,2.676,2.135,2.533,2.932,2.533s3.103-0.939,1.594-4.639c-1.509-3.701-1.777-2.221-2.013-4.896s0-5.438,0-5.438
				L33.061,11.557z"/>
			<path fill="#F2F2F2" d="M26.717,20.291c0,0-2.741,0.24-3.731,1.908c0,0,1.454,1.404,3.572,0.357c0,0,2.399,0.92,4.595,0.281
				C31.152,22.838,29.632,20.525,26.717,20.291z"/>
			<path fill="#BF9B4D" d="M44.767,4.6L41.43,3.906L40.756,7.15c-0.842-0.195-1.73-0.357-2.644-0.486l0.378-3.096l-3.54-0.432
				l-0.387,3.164c-1.008-0.068-2.013-0.111-2.987-0.133V2.92h-3.612v3.244c-1.097,0.021-2.084,0.061-2.908,0.102L24.508,3.01
				l-3.887,0.652l1.313,7.811l0.723-0.121l0.009,0.348l19.436,0.75l0.034-0.307l1.02,0.211L44.767,4.6z"/>
			<path fill="#0B050F" d="M22.16,12.797c0,0,10.004-1.527,20.986,1.064l0.103-1.764c0,0-13.768-3.213-21.369-0.824L22.16,12.797z"
				/>
			<g>
				<path fill="#808080" d="M25.609,15.254c0,0-0.174-0.035-0.435-0.055c-0.26-0.025-0.608-0.034-0.944,0.004
					c-0.169,0.016-0.322,0.084-0.477,0.097c-0.138,0.059-0.272,0.092-0.396,0.12c-0.2,0.113-0.391,0.179-0.391,0.179l-0.023-0.021
					c0,0,0.08-0.159,0.288-0.377c0.122-0.067,0.27-0.158,0.442-0.208c0.171-0.029,0.36-0.055,0.542-0.044
					c0.736,0.007,1.4,0.274,1.4,0.274L25.609,15.254z"/>
			</g>
			<g>
				<path fill="#808080" d="M28.52,15.223c0,0,0.664-0.268,1.4-0.274c0.182-0.012,0.371,0.015,0.542,0.044
					c0.173,0.049,0.32,0.141,0.442,0.207c0.208,0.219,0.288,0.378,0.288,0.378l-0.023,0.021c0,0-0.19-0.065-0.391-0.179
					c-0.123-0.028-0.258-0.062-0.396-0.12c-0.153-0.013-0.308-0.081-0.477-0.097c-0.336-0.038-0.685-0.029-0.944-0.004
					c-0.261,0.02-0.435,0.055-0.435,0.055L28.52,15.223z"/>
			</g>
			<g>
				<path fill="#2A3757" d="M27.617,16.43c0,0,0.172,0.147,0.476,0.283c0.154,0.058,0.333,0.134,0.533,0.171
					c0.201,0.039,0.413,0.079,0.631,0.06c0.217,0.011,0.426-0.039,0.624-0.074c0.199-0.031,0.387-0.048,0.544-0.102
					c0.319-0.072,0.56-0.087,0.56-0.087l0.014,0.029c0,0-0.182,0.141-0.496,0.3c-0.153,0.088-0.348,0.156-0.57,0.173
					c-0.217,0.05-0.452,0.055-0.687,0.016c-0.236-0.005-0.462-0.072-0.67-0.137c-0.209-0.06-0.387-0.168-0.535-0.25
					c-0.293-0.186-0.444-0.358-0.444-0.358L27.617,16.43z"/>
			</g>
			<g>
				<path fill="#2A3757" d="M25.529,16.453c0,0-0.108,0.126-0.316,0.266c-0.103,0.07-0.232,0.142-0.378,0.202
					c-0.15,0.046-0.31,0.117-0.481,0.128c-0.169,0.033-0.343,0.059-0.503,0.021c-0.163-0.01-0.309-0.052-0.421-0.12
					c-0.229-0.123-0.353-0.239-0.353-0.239l0.014-0.029c0,0,0.182-0.011,0.41,0.025c0.112,0.033,0.249,0.022,0.387,0.048
					c0.141,0.024,0.288,0.045,0.442,0.041c0.308,0.01,0.608-0.089,0.829-0.175c0.221-0.091,0.349-0.19,0.349-0.19L25.529,16.453z"/>
			</g>
			<g>
				<path fill="#2A3757" d="M26.136,15.935c0,0,0.064,0.465,0.052,1.17c-0.006,0.353-0.039,0.765-0.123,1.202
					c-0.043,0.219-0.12,0.438-0.182,0.666c-0.099,0.21-0.199,0.423-0.3,0.636c-0.102,0.217-0.073,0.348,0.059,0.49
					c0.133,0.122,0.319,0.208,0.512,0.255c0.195,0.04,0.392,0.046,0.574,0.034c0.183-0.011,0.359-0.044,0.499-0.115
					c0.144-0.061,0.274-0.139,0.353-0.239c0.099-0.088,0.134-0.199,0.187-0.283c0.059-0.184,0.078-0.303,0.078-0.303h0.031
					c0,0,0.011,0.116-0.004,0.332c-0.028,0.103-0.048,0.242-0.147,0.366c-0.078,0.134-0.215,0.264-0.382,0.353
					c-0.165,0.103-0.367,0.16-0.58,0.194c-0.215,0.041-0.446,0.015-0.68-0.03c-0.229-0.059-0.477-0.152-0.664-0.362
					c-0.095-0.11-0.152-0.246-0.17-0.398c0.006-0.155,0.043-0.317,0.104-0.401c0.109-0.203,0.219-0.407,0.327-0.608
					c0.068-0.213,0.153-0.418,0.205-0.626c0.101-0.419,0.162-0.82,0.192-1.167c0.061-0.694,0.028-1.162,0.028-1.162L26.136,15.935z"
					/>
			</g>
		</g>
		<g>
			<path fill="#E6E6E6" d="M44.45,90.697c0,0-0.626-5.836,0-7.031c0.627-1.195,1.822-3.844,1.822-3.844s-2.591,0.939-2.647-1.736
				s2.135-2.533,2.932-2.533c0.798,0,3.104,0.939,1.595,4.641c-1.509,3.699-1.778,2.221-2.014,4.896s0,5.438,0,5.438L44.45,90.697z"
				/>
			<path fill="#F2F2F2" d="M45.275,92.412c0,0-0.626-5.836,0-7.031c0.626-1.197,1.822-3.844,1.822-3.844s-2.591,0.939-2.647-1.736
				c-0.058-2.676,2.135-2.533,2.932-2.533c0.798,0,3.104,0.939,1.595,4.639c-1.509,3.701-1.777,2.221-2.014,4.896
				c-0.235,2.676,0,5.438,0,5.438L45.275,92.412z"/>
			<path fill="#E6E6E6" d="M46.369,84.014c0,0,4.476-17.039-5.683-17.039c-10.159,0-8.952,13.002-5.778,17.58
				C38.083,89.131,46.369,84.014,46.369,84.014z"/>
			<path fill="#E8EFFF" d="M46.148,91.113c0,0,0.749-2.836,0.296-3.742s0.008-2.463-0.075-3.357
				c-0.082-0.896-1.304-2.434-3.963-0.621c0,0-6.854-3.662-6.913,1.064c-0.059,4.727,0.275,7.248,0.275,7.248
				S44.041,92.631,46.148,91.113z"/>
			<path fill="#666666" d="M27.562,93.209c0,0,0.626-5.836,0-7.031s-1.822-3.844-1.822-3.844s2.591,0.939,2.647-1.736
				c0.058-2.676-2.135-2.533-2.932-2.533s-3.104,0.939-1.594,4.639c1.509,3.701,1.777,2.221,2.013,4.898
				c0.235,2.676,0,5.436,0,5.436L27.562,93.209z"/>
			<path fill="#808080" d="M28.358,92.412c0,0,0.627-5.836,0-7.031c-0.626-1.197-1.821-3.844-1.821-3.844s2.59,0.939,2.647-1.736
				c0.057-2.676-2.135-2.533-2.933-2.533c-0.797,0-3.103,0.939-1.594,4.639c1.509,3.701,1.777,2.221,2.014,4.896
				c0.235,2.676,0,5.438,0,5.438L28.358,92.412z"/>
			<path fill="#999999" d="M29.526,91.586c0,0,0.625-5.836,0-7.031c-0.627-1.195-1.822-3.844-1.822-3.844s2.59,0.939,2.647-1.736
				c0.057-2.676-2.135-2.533-2.932-2.533c-0.798,0-3.104,0.939-1.595,4.641c1.509,3.699,1.777,2.221,2.014,4.896
				c0.235,2.676,0,5.438,0,5.438L29.526,91.586z"/>
			<path fill="#B3B3B3" d="M31.224,91.33c0,0,0.626-5.836,0-7.031s-1.822-3.844-1.822-3.844s2.591,0.939,2.648-1.736
				c0.057-2.676-2.136-2.533-2.933-2.533s-3.104,0.939-1.595,4.641c1.509,3.699,1.778,2.219,2.014,4.896
				c0.236,2.676,0,5.436,0,5.436L31.224,91.33z"/>
			<path fill="#CCCCCC" d="M32.875,91.586c0,0,0.626-5.836,0-7.031c-0.627-1.195-1.822-3.844-1.822-3.844s2.591,0.939,2.647-1.736
				c0.058-2.676-2.135-2.533-2.932-2.533c-0.798,0-3.104,0.939-1.595,4.641c1.509,3.699,1.778,2.221,2.014,4.896s0,5.438,0,5.438
				L32.875,91.586z"/>
			<path fill="#E6E6E6" d="M34.554,91.814c0,0,0.627-5.836,0-7.033c-0.626-1.195-1.821-3.842-1.821-3.842s2.591,0.939,2.647-1.736
				s-2.135-2.533-2.933-2.533c-0.797,0-3.103,0.938-1.594,4.639s1.778,2.221,2.014,4.896s0,5.438,0,5.438L34.554,91.814z"/>
			<path fill="#F2F2F2" d="M36.062,92.127c0,0,0.627-5.836,0-7.031c-0.626-1.195-1.821-3.844-1.821-3.844s2.59,0.939,2.647-1.736
				c0.057-2.676-2.135-2.533-2.933-2.533c-0.797,0-3.103,0.939-1.594,4.641s1.777,2.221,2.013,4.896c0.236,2.676,0,5.438,0,5.438
				L36.062,92.127z"/>
			<path fill="#F2F2F2" d="M42.406,83.393c0,0,2.741-0.24,3.731-1.908c0,0-1.453-1.404-3.572-0.357c0,0-2.398-0.92-4.594-0.281
				C37.972,80.846,39.491,83.158,42.406,83.393z"/>
			<path fill="#BF9B4D" d="M24.356,99.084l3.337,0.693l0.674-3.244c0.842,0.195,1.73,0.357,2.645,0.488l-0.379,3.094l3.54,0.434
				l0.387-3.166c1.008,0.068,2.013,0.111,2.987,0.133v3.248h3.612V97.52c1.097-0.021,2.085-0.059,2.909-0.102l0.547,3.256
				l3.888-0.652l-1.313-7.811l-0.724,0.121l-0.009-0.348l-19.435-0.748l-0.034,0.305l-1.021-0.211L24.356,99.084z"/>
			<path fill="#0B050F" d="M46.963,90.887c0,0-10.003,1.527-20.986-1.064l-0.103,1.764c0,0,13.768,3.213,21.37,0.826L46.963,90.887z
				"/>
			<g>
				<path fill="#808080" d="M43.514,88.43c0,0,0.174,0.036,0.435,0.056c0.26,0.025,0.607,0.034,0.944-0.003
					c0.169-0.016,0.322-0.084,0.477-0.097c0.138-0.06,0.272-0.092,0.396-0.12c0.2-0.113,0.391-0.179,0.391-0.179l0.023,0.021
					c0,0-0.08,0.159-0.288,0.377c-0.122,0.067-0.271,0.158-0.442,0.208c-0.172,0.028-0.361,0.055-0.543,0.044
					c-0.735-0.008-1.399-0.276-1.399-0.276L43.514,88.43z"/>
			</g>
			<g>
				<path fill="#808080" d="M40.604,88.461c0,0-0.664,0.269-1.399,0.276c-0.183,0.011-0.371-0.016-0.543-0.044
					c-0.172-0.05-0.32-0.141-0.442-0.208c-0.208-0.218-0.288-0.377-0.288-0.377l0.023-0.021c0,0,0.19,0.065,0.391,0.179
					c0.123,0.028,0.258,0.061,0.396,0.12c0.153,0.013,0.308,0.081,0.477,0.097c0.337,0.037,0.685,0.028,0.944,0.003
					c0.261-0.02,0.435-0.056,0.435-0.056L40.604,88.461z"/>
			</g>
			<g>
				<path fill="#2A3757" d="M41.506,87.254c0,0-0.172-0.147-0.476-0.283c-0.154-0.058-0.333-0.134-0.533-0.171
					c-0.201-0.038-0.413-0.079-0.631-0.059c-0.217-0.011-0.426,0.038-0.625,0.074c-0.198,0.031-0.386,0.048-0.543,0.102
					c-0.319,0.073-0.56,0.088-0.56,0.088l-0.014-0.029c0,0,0.182-0.141,0.496-0.3c0.153-0.088,0.348-0.156,0.57-0.174
					c0.216-0.05,0.452-0.055,0.687-0.016c0.235,0.005,0.461,0.071,0.67,0.136c0.209,0.06,0.387,0.168,0.535,0.25
					c0.293,0.186,0.444,0.358,0.444,0.358L41.506,87.254z"/>
			</g>
			<g>
				<path fill="#2A3757" d="M43.594,87.23c0,0,0.108-0.126,0.316-0.265c0.104-0.07,0.233-0.142,0.379-0.202
					c0.15-0.046,0.31-0.117,0.481-0.128c0.169-0.033,0.343-0.058,0.503-0.02c0.163,0.01,0.309,0.052,0.42,0.12
					c0.229,0.123,0.354,0.239,0.354,0.239l-0.014,0.029c0,0-0.182,0.011-0.41-0.025c-0.113-0.033-0.249-0.023-0.388-0.049
					c-0.14-0.023-0.288-0.045-0.441-0.04c-0.308-0.011-0.609,0.088-0.829,0.173c-0.221,0.091-0.35,0.19-0.35,0.19L43.594,87.23z"/>
			</g>
			<g>
				<path fill="#2A3757" d="M42.988,87.749c0,0-0.065-0.465-0.053-1.17c0.007-0.353,0.039-0.765,0.123-1.202
					c0.043-0.219,0.12-0.438,0.183-0.666c0.099-0.209,0.199-0.422,0.3-0.635c0.1-0.217,0.073-0.349-0.06-0.491
					c-0.134-0.122-0.32-0.207-0.513-0.254c-0.195-0.04-0.391-0.046-0.574-0.034c-0.183,0.012-0.359,0.045-0.499,0.116
					c-0.144,0.061-0.273,0.138-0.353,0.239c-0.099,0.088-0.133,0.2-0.186,0.283c-0.058,0.184-0.078,0.303-0.078,0.303h-0.031
					c0,0-0.011-0.116,0.003-0.332c0.029-0.103,0.048-0.243,0.148-0.366c0.077-0.134,0.214-0.265,0.382-0.354
					c0.164-0.102,0.366-0.16,0.579-0.194c0.215-0.041,0.446-0.015,0.68,0.03c0.229,0.059,0.477,0.152,0.665,0.362
					c0.095,0.11,0.152,0.245,0.17,0.397c-0.005,0.154-0.042,0.317-0.103,0.401c-0.11,0.204-0.22,0.408-0.328,0.608
					c-0.068,0.213-0.152,0.418-0.205,0.626c-0.101,0.419-0.162,0.82-0.192,1.167c-0.06,0.694-0.027,1.162-0.027,1.162L42.988,87.749
					z"/>
			</g>
		</g>
	</g>
</g>
</svg>
