<?xml version="1.0" encoding="utf-8"?>
<!-- Generator: Adobe Illustrator 16.0.0, SVG Export Plug-In . SVG Version: 6.00 Build 0)  -->
<!DOCTYPE svg PUBLIC "-//W3C//DTD SVG 1.1//EN" "http://www.w3.org/Graphics/SVG/1.1/DTD/svg11.dtd">
<svg version="1.1" id="Layer_1" xmlns="http://www.w3.org/2000/svg" xmlns:xlink="http://www.w3.org/1999/xlink" x="0px" y="0px"
	 width="69.12px" height="103.69px" viewBox="0 0 69.12 103.69" enable-background="new 0 0 69.12 103.69" xml:space="preserve">
<g>
	<g>
		<path fill="#F2F2F2" d="M69.123,100.963c0,1.502-1.219,2.721-2.722,2.721H2.722c-1.503,0-2.722-1.219-2.722-2.721V2.721
			C0,1.219,1.219,0,2.722,0h63.68c1.503,0,2.722,1.219,2.722,2.721V100.963z"/>
		<g>
			<path fill="#333333" d="M8.94,13.775c-0.452-0.373-0.921-0.756-1.28-1.182c-0.061-0.072-0.149-0.111-0.241-0.111H7.4
				c-0.094,0-0.184,0.039-0.244,0.111c-0.358,0.426-0.828,0.809-1.28,1.182c-0.959,0.783-1.948,1.596-1.948,2.854
				c0,1.139,0.796,1.936,1.939,1.936c0.552,0,1.032-0.324,1.359-0.621c-0.156,0.67-0.45,1.465-1.004,2.088h2.37
				c-0.554-0.625-0.848-1.42-1.004-2.092c0.326,0.299,0.809,0.625,1.361,0.625c1.142,0,1.939-0.797,1.939-1.936
				C10.89,15.373,9.898,14.561,8.94,13.775z"/>
			<path fill="#4D4D4D" d="M7.4,20.031v-7.549l0,0c-0.094,0-0.184,0.039-0.244,0.111c-0.358,0.426-0.828,0.809-1.28,1.182
				c-0.959,0.783-1.948,1.596-1.948,2.854c0,1.139,0.796,1.936,1.939,1.936c0.552,0,1.032-0.324,1.359-0.621
				c-0.156,0.67-0.45,1.465-1.004,2.088H7.4z"/>
		</g>
		<rect x="2.722" y="2.721" fill="none" width="9.374" height="9.762"/>
		<text transform="matrix(1 0 0 1 4.459 10.4492)" fill="#333333" font-family="'ChunkFive'" font-size="10.8856">K</text>
		<g>
			<path fill="#333333" d="M60.183,89.908c0.451,0.373,0.922,0.756,1.28,1.182c0.06,0.072,0.149,0.111,0.241,0.111h0.02
				c0.093,0,0.182-0.039,0.242-0.111c0.359-0.426,0.829-0.809,1.281-1.182c0.958-0.783,1.948-1.596,1.948-2.854
				c0-1.141-0.796-1.936-1.939-1.936c-0.552,0-1.032,0.324-1.36,0.621c0.158-0.672,0.451-1.465,1.005-2.088h-2.37
				c0.554,0.623,0.847,1.42,1.004,2.092c-0.326-0.299-0.809-0.625-1.361-0.625c-1.142,0-1.939,0.795-1.939,1.936
				C58.233,88.311,59.225,89.123,60.183,89.908z"/>
			<path fill="#4D4D4D" d="M61.723,83.652v7.549h0.001c0.093,0,0.182-0.039,0.242-0.111c0.359-0.426,0.829-0.809,1.281-1.182
				c0.958-0.783,1.948-1.596,1.948-2.854c0-1.141-0.796-1.936-1.939-1.936c-0.552,0-1.032,0.324-1.36,0.621
				c0.158-0.672,0.451-1.465,1.005-2.088H61.723z"/>
		</g>
		<rect x="57.027" y="91.201" fill="none" width="9.374" height="9.762"/>
		<text transform="matrix(-1 0 0 -1 64.6641 93.2344)" fill="#333333" font-family="'ChunkFive'" font-size="10.8856">K</text>
	</g>
	<g>
		<g>
			<path fill="#333333" d="M17.646,75.406c0,0-4.054-1.465-7.827-5.562v-5.018h7.827V75.406z"/>
			<path fill="#333333" d="M9.819,62.334V34.18c0,0,3.539-4.512,10.642-5.18C20.461,29,20.593,57.518,9.819,62.334z"/>
			<g>
				<rect x="30.598" y="30.547" fill="#0B050F" width="3.621" height="6.648"/>
				<rect x="23.335" y="28.25" fill="#0B050F" width="3.623" height="6.648"/>
				<rect x="34.247" y="27.904" fill="#AA292E" width="3.621" height="6.648"/>
				<rect x="26.975" y="30.072" fill="#AA292E" width="3.623" height="6.65"/>
				<rect x="37.754" y="25.9" fill="#0B050F" width="3.622" height="6.65"/>
				<rect x="41.402" y="25.768" fill="#AA292E" width="3.623" height="4.141"/>
			</g>
			<path fill="#0B050F" d="M19.49,29.105c0,0,1.269,18.627-9.671,33.229c0.013,1.285,0.02,1.938,0.02,1.938
				s6.438-3.025,10.102-15.787c3.664-12.76,2.004-19.379,2.004-19.379H19.49z"/>
			<path fill="#F2F2F2" d="M21.164,29.523c0,0,0.336,12.256-2.689,19.6s-5.13,12.352-8.655,15.117v5.604
				c0,0,9.938-9.609,13.197-20.434s2.649-20.293,2.649-20.293L21.164,29.523z"/>
			<g>
				<ellipse fill="#AA292E" cx="23.063" cy="29.197" rx="2.083" ry="0.832"/>
				
					<ellipse transform="matrix(-0.9986 -0.0527 0.0527 -0.9986 44.67 63.4504)" fill="#AA292E" cx="23.171" cy="31.137" rx="2.04" ry="0.816"/>
				
					<ellipse transform="matrix(-0.9942 -0.1072 0.1072 -0.9942 42.6052 68.9905)" fill="#AA292E" cx="23.158" cy="33.35" rx="2.003" ry="0.801"/>
				
					<ellipse transform="matrix(-0.9866 -0.1633 0.1633 -0.9866 39.8773 74.8681)" fill="#AA292E" cx="23.016" cy="35.795" rx="1.973" ry="0.788"/>
				
					<ellipse transform="matrix(-0.9754 -0.2205 0.2205 -0.9754 36.4473 80.9285)" fill="#AA292E" cx="22.741" cy="38.43" rx="1.948" ry="0.779"/>
				
					<ellipse transform="matrix(-0.9607 -0.2777 0.2777 -0.9607 32.3356 86.9952)" fill="#AA292E" cx="22.328" cy="41.208" rx="1.931" ry="0.772"/>
				
					<ellipse transform="matrix(-0.9421 -0.3352 0.3352 -0.9421 27.497 92.9241)" fill="#AA292E" cx="21.769" cy="44.089" rx="1.92" ry="0.768"/>
				
					<ellipse transform="matrix(-0.92 -0.3919 0.3919 -0.92 22.0037 98.5474)" fill="#AA292E" cx="21.058" cy="47.028" rx="1.916" ry="0.765"/>
				
					<ellipse transform="matrix(-0.8945 -0.447 0.447 -0.8945 15.9128 103.7175)" fill="#AA292E" cx="20.192" cy="49.981" rx="1.92" ry="0.767"/>
				
					<ellipse transform="matrix(-0.8659 -0.5002 0.5002 -0.8659 9.293 108.3058)" fill="#AA292E" cx="19.164" cy="52.907" rx="1.931" ry="0.771"/>
				
					<ellipse transform="matrix(-0.8347 -0.5508 0.5508 -0.8347 2.2512 112.1973)" fill="#AA292E" cx="17.966" cy="55.761" rx="1.949" ry="0.778"/>
				
					<ellipse transform="matrix(-0.8012 -0.5985 0.5985 -0.8012 -5.1167 115.298)" fill="#AA292E" cx="16.596" cy="58.499" rx="1.973" ry="0.788"/>
				
					<ellipse transform="matrix(-0.766 -0.6429 0.6429 -0.766 -12.6975 117.5357)" fill="#AA292E" cx="15.045" cy="61.079" rx="2.004" ry="0.8"/>
				
					<ellipse transform="matrix(-0.7299 -0.6835 0.6835 -0.7299 -20.3488 118.8741)" fill="#AA292E" cx="13.31" cy="63.457" rx="2.04" ry="0.815"/>
				
					<ellipse transform="matrix(-0.6929 -0.721 0.721 -0.6929 -28.0223 119.2446)" fill="#AA292E" cx="11.383" cy="65.59" rx="2.083" ry="0.832"/>
			</g>
			<rect x="30.843" y="39.035" fill="#3856C8" width="5.757" height="6.369"/>
			<polygon fill="#BF9B4D" points="36.351,45.135 30.843,45.135 30.843,50.912 			"/>
			<rect x="30.744" y="39.916" fill="#BF9B4D" width="5.806" height="4.729"/>
			<polygon fill="#BF9B4D" points="36.55,39.5 30.843,39.5 30.843,37.957 36.55,34.502 			"/>
			<path fill="#333333" d="M29.729,51.465l0.221-13.404l-4.725-2.672c0,0-0.929,11.102-2.05,13.096
				C22.054,50.479,29.729,51.465,29.729,51.465z"/>
			<polygon fill="#E8EFFF" points="29.646,51.504 31.051,50.809 31.051,37.092 29.646,37.092 			"/>
			<polygon fill="#0B050F" points="29.194,52.029 30.598,51.334 30.598,37.615 29.194,37.615 			"/>
			<g>
				<path fill="#0B050F" d="M20.017,56.68c0.476-1.199,1.281-2.312,1.878-3.459c0.97-1.869,1.661-3.848,1.978-5.906
					c0.029,0,0.058-0.004,0.088-0.004c2.902,0,5.386,1.799,6.398,4.342c-0.215,0.242-0.424,0.494-0.692,0.719
					c-0.481,0.406-1.05,0.727-1.553,1.111c-1.222,0.938-2.155,2.229-3.521,2.963c-1.029,0.553-2.124,0.938-3.22,1.334
					c-0.471,0.172-0.948,0.342-1.438,0.455c-0.147-0.021-0.295-0.043-0.444-0.064C19.671,57.668,19.827,57.156,20.017,56.68z"/>
				<path fill="#BF9B4D" d="M20.017,56.68c0.476-1.199,1.281-2.312,1.878-3.459c0.884-1.703,1.537-3.5,1.886-5.363
					c0.06-0.002,0.119-0.006,0.18-0.006c2.77,0,5.124,1.775,5.99,4.25c-0.089,0.092-0.181,0.184-0.284,0.27
					c-0.481,0.406-1.05,0.727-1.553,1.111c-1.222,0.938-2.155,2.229-3.521,2.963c-1.029,0.553-2.124,0.938-3.22,1.334
					c-0.471,0.172-0.948,0.342-1.438,0.455c-0.147-0.021-0.296-0.043-0.444-0.062C19.671,57.668,19.827,57.156,20.017,56.68z"/>
				<path fill="#3856C8" d="M21.895,53.221c0.388-0.75,0.731-1.516,1.024-2.299c0.327-0.104,0.678-0.16,1.041-0.16
					c1.863,0,3.378,1.482,3.433,3.334c-0.9,0.83-1.714,1.766-2.801,2.35c-0.654,0.352-1.335,0.635-2.026,0.896
					c-0.875-0.389-1.557-1.133-1.864-2.049C21.096,54.598,21.533,53.916,21.895,53.221z"/>
			</g>
			<polygon fill="#333333" points="43.386,40.639 37.751,43.893 37.465,33.398 43.386,30.137 			"/>
			<rect x="36.351" y="33.871" fill="#E8EFFF" width="1.403" height="10.619"/>
			<path fill="#C9D8F7" d="M48.749,26.943c0,0-2.425-1.361-4.926-1.711l-0.302,15.217c0,0,3.838-1.424,5.562-1.359L48.749,26.943z"
				/>
			<polygon fill="#715C57" points="48.749,26.943 49.623,27.275 49.623,38.986 48.749,38.986 			"/>
			<path fill="#0B050F" d="M49.623,27.275c0,0,1.293,0.539,1.854,0.971v10.58h-1.854V27.275z"/>
			<path fill="#333333" d="M51.478,28.246c0,0,4.053,1.465,7.826,5.562v5.018h-7.826V28.246z"/>
			<rect x="36.871" y="33.398" fill="#0B050F" width="1.404" height="10.619"/>
			<rect x="42.95" y="25.232" fill="#715C57" width="0.873" height="14.926"/>
			<g>
				<path fill="#AA7941" d="M20.633,58.424c0.526,0,1.212-0.105,2.074-0.432c2.854-1.08,6.343-4.059,10.371-8.848
					c4.851-5.768,9.62-8.061,12.767-8.969c3.403-0.982,7.271-0.799,7.295-0.795l0.166-0.939c-0.1-0.018-4.063-0.227-7.662,0.799
					c-3.29,0.938-8.267,3.311-13.296,9.291c-9.049,10.76-12.499,8.801-12.532,8.779l-0.539,0.787
					C19.346,58.146,19.776,58.424,20.633,58.424z"/>
			</g>
			<path fill="#E8EFFF" d="M42.95,29.533c0,0-11.662,7.605-12.763,7.605s-4.405-2.314-4.405-2.314v1.344
				c0,0,3.984,2.658,4.503,2.658c0.518,0,12.665-7.873,12.665-7.873V29.533z"/>
			<path fill="#BF9B4D" d="M41.646,25.889c0,0-9.856,7.244-11.254,7.244c-1.399,0-5.455-3.623-5.455-3.623L41.646,25.889z"/>
			<path fill="#BF9B4D" d="M42.95,28.607c0,0-11.662,7.736-12.763,7.736s-4.405-2.607-4.405-2.607v1.305
				c0,0,3.984,2.574,4.503,2.574c0.518,0,12.665-7.629,12.665-7.629V28.607z"/>
			<path fill="#AA7941" d="M26.101,30.045c0,0,0.027,12.305-2.852,20.422c-2.878,8.117-10.123,19.531-12.253,20.566l-1.177-1.189
				c0,0,5.098-4.203,12.394-19.975c1.899-7.807,1.964-4.43,2.882-20.336C26.013,13.625,26.101,30.045,26.101,30.045z"/>
			<path fill="#333333" d="M59.304,41.318v28.154c0,0-3.539,4.512-10.641,5.18C48.663,74.652,48.53,46.135,59.304,41.318z"/>
			<g>
				<rect x="34.903" y="66.457" fill="#0B050F" width="3.622" height="6.648"/>
				<rect x="42.165" y="68.754" fill="#0B050F" width="3.623" height="6.648"/>
				<rect x="31.255" y="69.1" fill="#AA292E" width="3.622" height="6.648"/>
				<rect x="38.525" y="66.93" fill="#AA292E" width="3.622" height="6.648"/>
				<rect x="27.747" y="71.102" fill="#0B050F" width="3.622" height="6.648"/>
				<rect x="24.098" y="73.744" fill="#AA292E" width="3.622" height="4.139"/>
			</g>
			<path fill="#0B050F" d="M49.632,74.547c0,0-1.268-18.627,9.672-33.229c-0.013-1.285-0.02-1.938-0.02-1.938
				s-6.439,3.025-10.103,15.787c-3.663,12.76-2.003,19.379-2.003,19.379H49.632z"/>
			<path fill="#F2F2F2" d="M47.959,74.129c0,0-0.335-12.256,2.688-19.6c3.025-7.346,5.131-12.352,8.656-15.117v-5.604
				c0,0-5.438,1.104-13.196,20.434c-3.26,10.826-2.65,20.293-2.65,20.293L47.959,74.129z"/>
			<g>
				<ellipse fill="#AA292E" cx="46.06" cy="74.455" rx="2.083" ry="0.832"/>
				
					<ellipse transform="matrix(0.9986 0.0527 -0.0527 0.9986 3.8824 -2.3191)" fill="#AA292E" cx="45.951" cy="72.516" rx="2.04" ry="0.816"/>
				
					<ellipse transform="matrix(0.9942 0.1072 -0.1072 0.9942 7.8029 -4.5232)" fill="#AA292E" cx="45.966" cy="70.303" rx="2.004" ry="0.801"/>
				
					<ellipse transform="matrix(0.9866 0.1629 -0.1629 0.9866 11.6677 -6.6034)" fill="#AA292E" cx="46.106" cy="67.856" rx="1.973" ry="0.789"/>
				
					<ellipse transform="matrix(0.9754 0.2206 -0.2206 0.9754 15.5301 -8.6247)" fill="#AA292E" cx="46.381" cy="65.223" rx="1.948" ry="0.779"/>
				
					<ellipse transform="matrix(0.9605 0.2782 -0.2782 0.9605 19.2185 -10.5531)" fill="#AA292E" cx="46.795" cy="62.443" rx="1.931" ry="0.771"/>
				
					<ellipse transform="matrix(0.9421 0.3352 -0.3352 0.9421 22.7084 -12.4284)" fill="#AA292E" cx="47.354" cy="59.563" rx="1.92" ry="0.768"/>
				
					<ellipse transform="matrix(0.92 0.3919 -0.3919 0.92 26.0325 -14.3062)" fill="#AA292E" cx="48.065" cy="56.624" rx="1.916" ry="0.765"/>
				
					<ellipse transform="matrix(0.8945 0.4471 -0.4471 0.8945 29.1601 -16.2138)" fill="#AA292E" cx="48.93" cy="53.671" rx="1.92" ry="0.768"/>
				
					<ellipse transform="matrix(0.8658 0.5003 -0.5003 0.8658 32.092 -18.188)" fill="#AA292E" cx="49.959" cy="50.745" rx="1.93" ry="0.772"/>
				
					<ellipse transform="matrix(0.8347 0.5508 -0.5508 0.8347 34.835 -20.2569)" fill="#AA292E" cx="51.157" cy="47.892" rx="1.949" ry="0.778"/>
				
					<ellipse transform="matrix(0.8012 0.5985 -0.5985 0.8012 37.4668 -22.4565)" fill="#AA292E" cx="52.527" cy="45.153" rx="1.973" ry="0.788"/>
				
					<ellipse transform="matrix(0.766 0.6429 -0.6429 0.766 40.0262 -24.802)" fill="#AA292E" cx="54.078" cy="42.573" rx="2.004" ry="0.802"/>
				
					<ellipse transform="matrix(0.7299 0.6835 -0.6835 0.7299 42.5469 -27.294)" fill="#AA292E" cx="55.813" cy="40.195" rx="2.04" ry="0.815"/>
				
					<ellipse transform="matrix(0.6929 0.721 -0.721 0.6929 45.1761 -29.9436)" fill="#AA292E" cx="57.74" cy="38.062" rx="2.083" ry="0.832"/>
			</g>
			<rect x="32.523" y="58.248" fill="#3856C8" width="5.758" height="6.369"/>
			<polygon fill="#BF9B4D" points="32.772,58.518 38.281,58.518 38.281,52.74 			"/>
			<rect x="32.573" y="59.008" fill="#BF9B4D" width="5.806" height="4.727"/>
			<polygon fill="#BF9B4D" points="32.573,64.152 38.281,64.152 38.281,65.695 32.573,69.15 			"/>
			<path fill="#333333" d="M39.394,52.188l-0.221,13.404l4.725,2.67c0,0,0.928-11.102,2.05-13.094
				C47.069,53.174,39.394,52.188,39.394,52.188z"/>
			<polygon fill="#E8EFFF" points="39.476,52.146 38.072,52.842 38.072,66.562 39.476,66.562 			"/>
			<polygon fill="#0B050F" points="39.929,51.623 38.525,52.318 38.525,66.037 39.929,66.037 			"/>
			<g>
				<path fill="#0B050F" d="M49.107,46.971c-0.477,1.201-1.282,2.312-1.879,3.461c-0.97,1.869-1.661,3.848-1.979,5.906
					c-0.029,0-0.058,0.002-0.086,0.002c-2.903,0-5.386-1.797-6.399-4.34c0.215-0.242,0.425-0.494,0.692-0.719
					c0.481-0.406,1.051-0.727,1.554-1.111c1.221-0.938,2.154-2.227,3.52-2.963c1.03-0.553,2.125-0.938,3.222-1.334
					c0.47-0.172,0.947-0.342,1.437-0.457c0.147,0.023,0.295,0.045,0.443,0.066C49.452,45.984,49.297,46.496,49.107,46.971z"/>
				<path fill="#BF9B4D" d="M49.107,46.971c-0.477,1.201-1.282,2.312-1.879,3.461c-0.884,1.703-1.536,3.498-1.886,5.363
					c-0.06,0.002-0.119,0.006-0.179,0.006c-2.771,0-5.125-1.775-5.991-4.25c0.089-0.092,0.182-0.184,0.284-0.27
					c0.481-0.406,1.051-0.727,1.554-1.111c1.221-0.938,2.154-2.227,3.52-2.963c1.03-0.553,2.125-0.938,3.222-1.334
					c0.47-0.172,0.947-0.342,1.437-0.457c0.147,0.023,0.296,0.045,0.443,0.066C49.452,45.984,49.297,46.496,49.107,46.971z"/>
				<path fill="#3856C8" d="M47.229,50.432c-0.389,0.748-0.73,1.516-1.024,2.299c-0.329,0.104-0.678,0.16-1.04,0.16
					c-1.864,0-3.378-1.484-3.434-3.334c0.901-0.83,1.714-1.766,2.8-2.35c0.655-0.352,1.337-0.635,2.027-0.896
					c0.875,0.389,1.557,1.133,1.864,2.047C48.027,49.055,47.59,49.736,47.229,50.432z"/>
			</g>
			<polygon fill="#333333" points="25.736,63.012 31.373,59.76 31.657,70.254 25.736,73.516 			"/>
			<rect x="31.369" y="59.162" fill="#E8EFFF" width="1.403" height="10.619"/>
			<path fill="#C9D8F7" d="M20.373,76.707c0,0,2.426,1.363,4.927,1.713l0.303-15.217c0,0-3.839,1.424-5.563,1.359L20.373,76.707z"/>
			<polygon fill="#715C57" points="20.373,76.707 19.5,76.377 19.5,64.666 20.373,64.666 			"/>
			<path fill="#0B050F" d="M19.5,76.377c0,0-1.294-0.539-1.854-0.971v-10.58H19.5V76.377z"/>
			<rect x="30.849" y="59.635" fill="#0B050F" width="1.402" height="10.619"/>
			<rect x="25.3" y="63.494" fill="#715C57" width="0.873" height="14.926"/>
			<g>
				<path fill="#AA7941" d="M48.49,45.229c-0.526,0-1.212,0.105-2.073,0.432c-2.854,1.08-6.343,4.057-10.372,8.848
					c-4.852,5.77-9.62,8.062-12.767,8.969c-3.403,0.982-7.103,0.529-7.126,0.525l-0.166,0.939c0.1,0.018,3.895,0.496,7.494-0.531
					c3.289-0.936,8.266-3.309,13.295-9.289c9.049-10.76,12.499-8.801,12.532-8.779l0.539-0.787
					C49.778,45.506,49.347,45.229,48.49,45.229z"/>
			</g>
			<path fill="#E8EFFF" d="M26.173,74.119c0,0,11.662-7.605,12.763-7.605s4.405,2.314,4.405,2.314v-1.344
				c0,0-3.984-2.658-4.502-2.658c-0.519,0-12.666,7.873-12.666,7.873V74.119z"/>
			<path fill="#BF9B4D" d="M27.477,77.764c0,0,9.855-7.244,11.255-7.244c1.398,0,5.454,3.623,5.454,3.623L27.477,77.764z"/>
			<path fill="#BF9B4D" d="M26.173,75.045c0,0,11.662-7.736,12.763-7.736s4.405,2.607,4.405,2.607v-1.305
				c0,0-3.984-2.574-4.502-2.574c-0.519,0-12.666,7.631-12.666,7.631V75.045z"/>
			<path fill="#AA7941" d="M43.023,73.605c0,0-0.028-12.305,2.851-20.42c2.879-8.117,9.46-19.408,12.414-20.414l1.016,1.037
				c-2.551,1.289-10.844,13.84-12.395,19.975c-1.898,7.807-1.964,4.43-2.88,20.336C43.11,90.027,43.023,73.605,43.023,73.605z"/>
		</g>
		<g>
			<path fill="#E6E6E6" d="M24.673,12.986c0,0,0.626,5.836,0,7.031s-1.822,3.844-1.822,3.844s2.591-0.939,2.648,1.736
				c0.057,2.676-2.135,2.533-2.933,2.533c-0.797,0-3.103-0.939-1.594-4.641c1.509-3.699,1.777-2.221,2.014-4.896
				c0.235-2.676,0-5.436,0-5.436L24.673,12.986z"/>
			<path fill="#F2F2F2" d="M23.848,11.271c0,0,0.626,5.836,0,7.031c-0.626,1.197-1.821,3.844-1.821,3.844s2.59-0.939,2.646,1.736
				c0.058,2.676-2.135,2.533-2.932,2.533s-3.104-0.939-1.594-4.639c1.508-3.701,1.777-2.221,2.013-4.896s0-5.438,0-5.438
				L23.848,11.271z"/>
			<path fill="#E6E6E6" d="M22.754,19.67c0,0-4.475,17.039,5.684,17.039s8.951-13.002,5.777-17.58
				C31.041,14.553,22.754,19.67,22.754,19.67z"/>
			<path fill="#E8EFFF" d="M22.975,12.57c0,0-0.749,2.836-0.296,3.742c0.453,0.904-0.007,2.463,0.075,3.357
				c0.083,0.896,1.304,2.432,3.963,0.621c0,0,6.854,3.664,6.913-1.064c0.06-4.727-0.275-7.248-0.275-7.248
				S25.082,11.053,22.975,12.57z"/>
			<path fill="#666666" d="M41.562,10.475c0,0-0.626,5.836,0,7.031c0.626,1.197,1.822,3.844,1.822,3.844s-2.591-0.939-2.647,1.736
				c-0.058,2.676,2.135,2.533,2.933,2.533c0.796,0,3.102-0.939,1.593-4.641c-1.508-3.699-1.776-2.219-2.013-4.896
				c-0.235-2.674,0-5.436,0-5.436L41.562,10.475z"/>
			<path fill="#808080" d="M40.765,11.271c0,0-0.627,5.836,0,7.031c0.626,1.197,1.821,3.844,1.821,3.844s-2.59-0.939-2.647,1.736
				c-0.057,2.676,2.136,2.533,2.933,2.533c0.798,0,3.103-0.939,1.594-4.639c-1.509-3.701-1.777-2.221-2.013-4.896s0-5.438,0-5.438
				L40.765,11.271z"/>
			<path fill="#999999" d="M39.598,12.098c0,0-0.626,5.836,0,7.031s1.821,3.844,1.821,3.844s-2.59-0.939-2.646,1.736
				c-0.058,2.676,2.134,2.533,2.932,2.533c0.797,0,3.103-0.939,1.594-4.641s-1.777-2.219-2.014-4.896c-0.235-2.676,0-5.436,0-5.436
				L39.598,12.098z"/>
			<path fill="#B3B3B3" d="M37.899,12.354c0,0-0.626,5.836,0,7.031c0.627,1.197,1.822,3.844,1.822,3.844s-2.591-0.939-2.647,1.736
				c-0.058,2.676,2.135,2.533,2.932,2.533c0.798,0,3.103-0.939,1.595-4.641c-1.51-3.699-1.778-2.219-2.013-4.896
				c-0.236-2.674,0-5.436,0-5.436L37.899,12.354z"/>
			<path fill="#CCCCCC" d="M36.248,12.098c0,0-0.626,5.836,0,7.031c0.627,1.195,1.822,3.844,1.822,3.844s-2.591-0.939-2.647,1.736
				s2.135,2.533,2.932,2.533c0.798,0,3.104-0.939,1.595-4.641s-1.777-2.219-2.013-4.896c-0.236-2.676,0-5.436,0-5.436L36.248,12.098
				z"/>
			<path fill="#E6E6E6" d="M34.569,11.871c0,0-0.627,5.834,0,7.029c0.626,1.197,1.821,3.844,1.821,3.844s-2.591-0.939-2.647,1.736
				s2.136,2.533,2.933,2.533s3.103-0.939,1.594-4.639c-1.509-3.701-1.777-2.221-2.013-4.896s0-5.438,0-5.438L34.569,11.871z"/>
			<path fill="#F2F2F2" d="M33.061,11.557c0,0-0.626,5.836,0,7.031s1.822,3.844,1.822,3.844s-2.591-0.939-2.647,1.736
				c-0.058,2.676,2.135,2.533,2.932,2.533s3.103-0.939,1.594-4.639c-1.509-3.701-1.777-2.221-2.013-4.898
				c-0.235-2.676,0-5.436,0-5.436L33.061,11.557z"/>
			<path fill="#F2F2F2" d="M26.717,20.291c0,0-2.741,0.24-3.73,1.908c0,0,1.453,1.404,3.571,0.357c0,0,2.398,0.92,4.594,0.281
				C31.151,22.838,29.632,20.525,26.717,20.291z"/>
			<path fill="#BF9B4D" d="M44.768,4.6L41.43,3.906L40.756,7.15c-0.842-0.195-1.73-0.357-2.644-0.488l0.378-3.094l-3.54-0.434
				l-0.387,3.164c-1.008-0.066-2.013-0.109-2.987-0.131V2.92h-3.612v3.244c-1.097,0.021-2.084,0.061-2.908,0.102L24.508,3.01
				L20.62,3.662l1.314,7.811l0.723-0.121l0.009,0.348l19.435,0.75l0.035-0.307l1.02,0.211L44.768,4.6z"/>
			<path fill="#0B050F" d="M22.16,12.797c0,0,10.004-1.527,20.986,1.064l0.103-1.764c0,0-13.768-3.213-21.37-0.826L22.16,12.797z"/>
			<g>
				<path fill="#808080" d="M25.609,15.254c0,0-0.174-0.035-0.435-0.055c-0.26-0.025-0.607-0.034-0.943,0.003
					c-0.17,0.016-0.323,0.084-0.478,0.097c-0.138,0.059-0.272,0.092-0.396,0.12c-0.2,0.112-0.391,0.178-0.391,0.178l-0.023-0.021
					c0,0,0.08-0.159,0.289-0.377c0.122-0.066,0.27-0.158,0.441-0.207c0.172-0.029,0.361-0.055,0.543-0.044
					c0.735,0.008,1.399,0.275,1.399,0.275L25.609,15.254z"/>
			</g>
			<g>
				<path fill="#808080" d="M28.52,15.223c0,0,0.664-0.268,1.399-0.275c0.182-0.011,0.371,0.015,0.543,0.044
					c0.172,0.049,0.319,0.141,0.441,0.207c0.209,0.218,0.289,0.377,0.289,0.377l-0.023,0.021c0,0-0.19-0.065-0.391-0.179
					c-0.123-0.027-0.258-0.061-0.396-0.119c-0.154-0.013-0.308-0.081-0.478-0.097c-0.336-0.037-0.684-0.028-0.943-0.003
					c-0.261,0.02-0.435,0.055-0.435,0.055L28.52,15.223z"/>
			</g>
			<g>
				<path fill="#2A3757" d="M27.617,16.43c0,0,0.172,0.147,0.476,0.283c0.154,0.058,0.333,0.134,0.533,0.171
					c0.201,0.038,0.413,0.079,0.631,0.059c0.217,0.011,0.426-0.038,0.625-0.074c0.198-0.031,0.386-0.048,0.543-0.102
					c0.319-0.073,0.56-0.088,0.56-0.088l0.014,0.029c0,0-0.182,0.141-0.496,0.3c-0.153,0.088-0.348,0.156-0.57,0.174
					c-0.216,0.05-0.452,0.055-0.687,0.016c-0.235-0.005-0.461-0.071-0.67-0.136c-0.209-0.06-0.387-0.168-0.535-0.25
					c-0.293-0.186-0.444-0.358-0.444-0.358L27.617,16.43z"/>
			</g>
			<g>
				<path fill="#2A3757" d="M25.529,16.453c0,0-0.108,0.126-0.316,0.265c-0.103,0.07-0.232,0.142-0.379,0.202
					c-0.149,0.046-0.31,0.117-0.48,0.128c-0.17,0.033-0.344,0.058-0.503,0.02c-0.163-0.01-0.31-0.052-0.421-0.12
					c-0.229-0.123-0.353-0.239-0.353-0.239l0.014-0.029c0,0,0.182-0.011,0.41,0.025c0.112,0.033,0.248,0.023,0.387,0.049
					c0.141,0.023,0.288,0.045,0.442,0.04c0.307,0.011,0.608-0.088,0.829-0.173c0.22-0.091,0.349-0.19,0.349-0.19L25.529,16.453z"/>
			</g>
			<g>
				<path fill="#2A3757" d="M26.136,15.935c0,0,0.064,0.465,0.052,1.17c-0.006,0.353-0.039,0.765-0.123,1.202
					c-0.043,0.219-0.12,0.438-0.182,0.666c-0.099,0.21-0.199,0.423-0.3,0.636c-0.102,0.217-0.073,0.348,0.059,0.49
					c0.133,0.122,0.319,0.208,0.512,0.255c0.195,0.04,0.392,0.046,0.574,0.034c0.183-0.011,0.359-0.044,0.499-0.115
					c0.144-0.061,0.274-0.139,0.353-0.239c0.099-0.088,0.134-0.199,0.187-0.283c0.059-0.184,0.078-0.303,0.078-0.303h0.031
					c0,0,0.011,0.116-0.004,0.332c-0.028,0.103-0.048,0.242-0.147,0.366c-0.078,0.134-0.215,0.264-0.382,0.353
					c-0.165,0.103-0.367,0.16-0.58,0.194c-0.215,0.041-0.446,0.015-0.68-0.03c-0.229-0.059-0.477-0.152-0.664-0.362
					c-0.095-0.11-0.152-0.246-0.17-0.398c0.006-0.155,0.043-0.317,0.104-0.401c0.109-0.203,0.219-0.407,0.327-0.608
					c0.068-0.213,0.153-0.418,0.205-0.626c0.101-0.419,0.162-0.82,0.192-1.167c0.061-0.694,0.028-1.162,0.028-1.162L26.136,15.935z"
					/>
			</g>
		</g>
		<g>
			<path fill="#E6E6E6" d="M44.45,90.697c0,0-0.626-5.836,0-7.031s1.822-3.844,1.822-3.844s-2.591,0.939-2.647-1.736
				s2.135-2.533,2.932-2.533c0.798,0,3.104,0.939,1.594,4.641c-1.508,3.699-1.777,2.221-2.013,4.896s0,5.438,0,5.438L44.45,90.697z"
				/>
			<path fill="#F2F2F2" d="M45.275,92.412c0,0-0.626-5.836,0-7.033c0.626-1.195,1.822-3.842,1.822-3.842s-2.591,0.939-2.647-1.736
				c-0.058-2.676,2.135-2.533,2.932-2.533c0.798,0,3.103,0.939,1.595,4.639c-1.509,3.701-1.777,2.221-2.014,4.896
				c-0.235,2.676,0,5.438,0,5.438L45.275,92.412z"/>
			<path fill="#E6E6E6" d="M46.369,84.012c0,0,4.475-17.039-5.683-17.039c-10.159,0-8.953,13.004-5.778,17.58
				C38.083,89.131,46.369,84.012,46.369,84.012z"/>
			<path fill="#E8EFFF" d="M46.148,91.113c0,0,0.749-2.836,0.296-3.742s0.007-2.463-0.075-3.359
				c-0.082-0.895-1.304-2.432-3.963-0.619c0,0-6.854-3.662-6.913,1.064s0.275,7.248,0.275,7.248S44.041,92.631,46.148,91.113z"/>
			<path fill="#666666" d="M27.562,93.209c0,0,0.626-5.836,0-7.031s-1.822-3.844-1.822-3.844s2.591,0.939,2.648-1.736
				c0.057-2.676-2.136-2.533-2.933-2.533s-3.104,0.939-1.595,4.639c1.51,3.701,1.778,2.221,2.014,4.896s0,5.438,0,5.438
				L27.562,93.209z"/>
			<path fill="#808080" d="M28.358,92.412c0,0,0.626-5.836,0-7.033c-0.626-1.195-1.822-3.842-1.822-3.842s2.591,0.939,2.648-1.736
				c0.057-2.676-2.135-2.533-2.933-2.533c-0.797,0-3.103,0.939-1.594,4.639c1.509,3.701,1.778,2.221,2.014,4.896s0,5.438,0,5.438
				L28.358,92.412z"/>
			<path fill="#999999" d="M29.525,91.586c0,0,0.626-5.836,0-7.031s-1.821-3.844-1.821-3.844s2.59,0.939,2.647-1.736
				c0.057-2.676-2.135-2.533-2.933-2.533c-0.797,0-3.103,0.939-1.594,4.641c1.509,3.699,1.777,2.221,2.013,4.896
				c0.236,2.676,0,5.438,0,5.438L29.525,91.586z"/>
			<path fill="#B3B3B3" d="M31.224,91.33c0,0,0.626-5.836,0-7.031s-1.822-3.844-1.822-3.844s2.591,0.939,2.648-1.736
				c0.056-2.676-2.136-2.533-2.933-2.533c-0.798,0-3.104,0.939-1.595,4.639c1.509,3.701,1.778,2.221,2.014,4.896s0,5.438,0,5.438
				L31.224,91.33z"/>
			<path fill="#CCCCCC" d="M32.874,91.586c0,0,0.627-5.836,0-7.031c-0.626-1.195-1.821-3.844-1.821-3.844s2.591,0.939,2.647-1.736
				s-2.135-2.533-2.932-2.533c-0.798,0-3.104,0.939-1.595,4.641c1.509,3.699,1.778,2.221,2.014,4.896s0,5.438,0,5.438L32.874,91.586
				z"/>
			<path fill="#E6E6E6" d="M34.554,91.812c0,0,0.626-5.834,0-7.031c-0.626-1.195-1.822-3.842-1.822-3.842s2.591,0.939,2.648-1.736
				c0.057-2.676-2.135-2.533-2.933-2.533c-0.797,0-3.103,0.938-1.594,4.639s1.778,2.221,2.014,4.896s0,5.438,0,5.438L34.554,91.812z
				"/>
			<path fill="#F2F2F2" d="M36.062,92.127c0,0,0.627-5.836,0-7.031c-0.626-1.197-1.821-3.844-1.821-3.844s2.59,0.939,2.647-1.736
				c0.057-2.676-2.135-2.533-2.933-2.533c-0.797,0-3.103,0.939-1.594,4.641c1.509,3.699,1.777,2.219,2.013,4.896
				c0.236,2.676,0,5.436,0,5.436L36.062,92.127z"/>
			<path fill="#F2F2F2" d="M42.406,83.393c0,0,2.741-0.24,3.731-1.908c0,0-1.453-1.404-3.572-0.357c0,0-2.399-0.92-4.594-0.281
				C37.972,80.846,39.491,83.158,42.406,83.393z"/>
			<path fill="#BF9B4D" d="M24.356,99.084l3.337,0.693l0.674-3.244c0.843,0.195,1.73,0.357,2.645,0.486l-0.379,3.096l3.54,0.432
				l0.387-3.164c1.008,0.068,2.013,0.111,2.987,0.133v3.248h3.612V97.52c1.097-0.021,2.085-0.061,2.909-0.102l0.547,3.256
				l3.888-0.652l-1.313-7.811l-0.724,0.121l-0.009-0.348l-19.436-0.75l-0.034,0.307l-1.02-0.211L24.356,99.084z"/>
			<path fill="#0B050F" d="M46.963,90.887c0,0-10.003,1.527-20.986-1.064l-0.103,1.764c0,0,13.768,3.213,21.37,0.826L46.963,90.887z
				"/>
			<g>
				<path fill="#808080" d="M43.514,88.43c0,0,0.174,0.035,0.435,0.055c0.26,0.025,0.607,0.034,0.943-0.003
					c0.17-0.016,0.323-0.084,0.478-0.097c0.138-0.059,0.272-0.092,0.396-0.12c0.2-0.112,0.391-0.178,0.391-0.178l0.023,0.021
					c0,0-0.08,0.159-0.289,0.377c-0.122,0.066-0.27,0.158-0.441,0.207c-0.172,0.029-0.361,0.055-0.543,0.044
					c-0.735-0.008-1.399-0.275-1.399-0.275L43.514,88.43z"/>
			</g>
			<g>
				<path fill="#808080" d="M40.604,88.461c0,0-0.664,0.268-1.399,0.275c-0.182,0.011-0.371-0.015-0.543-0.044
					c-0.172-0.049-0.319-0.141-0.441-0.207c-0.209-0.218-0.289-0.377-0.289-0.377l0.023-0.021c0,0,0.19,0.065,0.391,0.179
					c0.123,0.027,0.258,0.061,0.396,0.119c0.154,0.013,0.308,0.081,0.478,0.097c0.336,0.037,0.684,0.028,0.943,0.003
					c0.261-0.02,0.435-0.055,0.435-0.055L40.604,88.461z"/>
			</g>
			<g>
				<path fill="#2A3757" d="M41.506,87.254c0,0-0.172-0.147-0.476-0.283c-0.154-0.058-0.333-0.134-0.533-0.171
					c-0.201-0.039-0.413-0.079-0.631-0.06c-0.216-0.011-0.426,0.039-0.624,0.074c-0.199,0.031-0.387,0.048-0.544,0.102
					c-0.319,0.072-0.56,0.087-0.56,0.087l-0.014-0.029c0,0,0.182-0.141,0.496-0.3c0.153-0.088,0.348-0.156,0.57-0.173
					c0.217-0.05,0.452-0.055,0.687-0.016c0.236,0.005,0.462,0.072,0.67,0.137c0.209,0.06,0.387,0.168,0.535,0.25
					c0.293,0.186,0.444,0.358,0.444,0.358L41.506,87.254z"/>
			</g>
			<g>
				<path fill="#2A3757" d="M43.594,87.23c0,0,0.108-0.126,0.316-0.265c0.103-0.07,0.232-0.142,0.379-0.202
					c0.15-0.046,0.31-0.117,0.48-0.128c0.17-0.033,0.344-0.059,0.504-0.021c0.162,0.01,0.309,0.051,0.42,0.119
					c0.229,0.123,0.354,0.239,0.354,0.239l-0.014,0.029c0,0-0.182,0.011-0.41-0.025c-0.113-0.032-0.249-0.022-0.388-0.048
					c-0.14-0.023-0.288-0.045-0.441-0.04c-0.308-0.01-0.609,0.088-0.83,0.174c-0.22,0.091-0.349,0.19-0.349,0.19L43.594,87.23z"/>
			</g>
			<g>
				<path fill="#2A3757" d="M42.988,87.749c0,0-0.065-0.465-0.053-1.17c0.007-0.353,0.039-0.765,0.123-1.202
					c0.043-0.219,0.12-0.438,0.182-0.666c0.099-0.209,0.199-0.422,0.3-0.635c0.102-0.218,0.073-0.349-0.058-0.491
					c-0.134-0.122-0.32-0.207-0.513-0.254c-0.195-0.041-0.391-0.046-0.574-0.034c-0.183,0.011-0.359,0.044-0.499,0.114
					c-0.144,0.062-0.274,0.139-0.353,0.239c-0.099,0.088-0.134,0.2-0.187,0.283c-0.059,0.184-0.078,0.303-0.078,0.303h-0.031
					c0,0-0.011-0.116,0.004-0.332c0.028-0.103,0.048-0.242,0.147-0.366c0.078-0.134,0.215-0.264,0.382-0.353
					c0.165-0.102,0.367-0.16,0.58-0.193c0.215-0.041,0.446-0.015,0.68,0.029c0.229,0.06,0.477,0.153,0.665,0.363
					c0.095,0.11,0.151,0.246,0.169,0.398c-0.005,0.155-0.043,0.316-0.104,0.4c-0.109,0.204-0.219,0.408-0.327,0.608
					c-0.068,0.213-0.153,0.418-0.205,0.626c-0.101,0.419-0.162,0.82-0.192,1.167c-0.06,0.694-0.027,1.162-0.027,1.162L42.988,87.749
					z"/>
			</g>
		</g>
	</g>
</g>
</svg>
