<?xml version="1.0" encoding="utf-8"?>
<!-- Generator: Adobe Illustrator 16.0.0, SVG Export Plug-In . SVG Version: 6.00 Build 0)  -->
<!DOCTYPE svg PUBLIC "-//W3C//DTD SVG 1.1//EN" "http://www.w3.org/Graphics/SVG/1.1/DTD/svg11.dtd">
<svg version="1.1" id="Layer_1" xmlns="http://www.w3.org/2000/svg" xmlns:xlink="http://www.w3.org/1999/xlink" x="0px" y="0px"
	 width="69.12px" height="103.69px" viewBox="0 0 69.12 103.69" enable-background="new 0 0 69.12 103.69" xml:space="preserve">
<g>
	<g>
		<path fill="#F2F2F2" d="M69.123,100.963c0,1.504-1.219,2.723-2.722,2.723H2.722c-1.503,0-2.722-1.219-2.722-2.723V2.723
			C0,1.219,1.219,0,2.722,0h63.68c1.503,0,2.722,1.219,2.722,2.723V100.963z"/>
		<g>
			<polygon fill="#7A2B2B" points="61.671,83.633 64.461,87.428 61.671,91.223 58.881,87.428 			"/>
			<polygon fill="#943434" points="61.68,91.211 64.461,87.428 61.68,83.645 			"/>
		</g>
		<rect x="2.721" y="2.723" fill="none" width="9.374" height="9.76"/>
		<text transform="matrix(1 0 0 1 3.6587 10.4512)" fill="#7A2B2B" font-family="'ChunkFive'" font-size="10.8856">Q</text>
		<rect x="57.026" y="91.201" fill="none" width="9.375" height="9.762"/>
		<text transform="matrix(-1 0 0 -1 65.4639 93.2354)" fill="#7A2B2B" font-family="'ChunkFive'" font-size="10.8856">Q</text>
		<g>
			<polygon fill="#7A2B2B" points="7.364,20.072 4.574,16.277 7.364,12.482 10.153,16.277 			"/>
			<polygon fill="#943434" points="7.355,12.494 4.574,16.277 7.355,20.061 			"/>
		</g>
	</g>
	<g>
		<rect x="35.141" y="44.479" fill="#1F2D6C" width="4.062" height="1.377"/>
		<rect x="34.787" y="43.104" fill="#AA292E" width="4.062" height="1.375"/>
		<rect x="34.187" y="41.729" fill="#1F2D6C" width="4.062" height="1.375"/>
		<rect x="33.833" y="40.354" fill="#AA292E" width="4.062" height="1.375"/>
		<rect x="33.232" y="38.977" fill="#1F2D6C" width="4.063" height="1.377"/>
		<rect x="32.879" y="37.602" fill="#AA292E" width="4.063" height="1.375"/>
		<rect x="32.279" y="36.227" fill="#1F2D6C" width="4.062" height="1.375"/>
		<polygon fill="#AA292E" points="34.787,45.912 31.813,38.209 24.104,37.666 28.519,46.49 		"/>
		<polygon fill="#AA292E" points="44.379,45.42 45.457,36.9 37.604,37.258 37.476,40.396 40.179,45.984 		"/>
		<path fill="#0B050F" d="M35.429,36.738l3.486,9.021l2.56-0.34c0,0-3.583-4.715-3.023-6.506s4.702-0.705,4.702-0.705l1.775-3.176
			L35.429,36.738z"/>
		<path fill="#0B050F" d="M35.989,45.984l-3.408-9.15l-8.701-0.65l1.149,2.602c0,0,4.737-0.895,6.112,0.225
			c1.376,1.119,2.688,6.846,2.688,6.846L35.989,45.984z"/>
		<path fill="#0B050F" d="M27.594,49.221c7.104,0.309,17.335-0.617,17.335-0.617V45.42c0,0-10.231,0.924-17.335,0.615"/>
		<path fill="none" stroke="#AA7941" stroke-width="0.7677" stroke-miterlimit="10" d="M44.929,45.42c0,0-10.231,0.924-17.335,0.615
			"/>
		<path fill="none" stroke="#AA7941" stroke-width="0.7677" stroke-miterlimit="10" d="M44.929,48.604
			c0,0-10.231,0.926-17.335,0.617"/>
		<path fill="#DCE3F2" d="M50.561,39.025l-4.893-4.492c0,0-3.861,1.996-3.397,5.965c0.464,3.971,2.604,5.357,2.604,5.357
			L50.561,39.025z"/>
		<path fill="#0B050F" d="M50.561,39.029l-4.352-3.996c0,0-3.435,1.775-3.021,5.305c0.413,3.531,2.317,4.766,2.317,4.766
			L50.561,39.029z"/>
		<path fill="#1F2D6C" d="M50.561,39.035l-3.633-3.336c0,0-2.865,1.482-2.521,4.428c0.345,2.947,1.934,3.977,1.934,3.977
			L50.561,39.035z"/>
		<g>
			<rect x="29.92" y="57.83" fill="#1F2D6C" width="4.062" height="1.375"/>
			<rect x="30.273" y="59.205" fill="#AA292E" width="4.062" height="1.377"/>
			<rect x="30.874" y="60.582" fill="#1F2D6C" width="4.062" height="1.375"/>
			<rect x="31.228" y="61.957" fill="#AA292E" width="4.062" height="1.375"/>
			<rect x="31.828" y="63.332" fill="#1F2D6C" width="4.062" height="1.375"/>
			<rect x="32.182" y="64.707" fill="#AA292E" width="4.062" height="1.375"/>
			<rect x="32.781" y="66.082" fill="#1F2D6C" width="4.062" height="1.377"/>
			<polygon fill="#AA292E" points="34.336,57.773 37.31,65.475 45.019,66.02 40.604,57.195 			"/>
			<polygon fill="#AA292E" points="24.744,58.266 23.666,66.785 31.52,66.426 31.647,63.289 28.944,57.701 			"/>
			<path fill="#0B050F" d="M33.694,66.947l-3.486-9.021l-2.56,0.34c0,0,3.583,4.715,3.023,6.506s-4.702,0.703-4.702,0.703
				l-1.775,3.176L33.694,66.947z"/>
			<path fill="#0B050F" d="M33.134,57.701l3.407,9.148l8.701,0.652L44.094,64.9c0,0-4.737,0.895-6.112-0.225
				c-1.376-1.119-2.688-6.846-2.688-6.846L33.134,57.701z"/>
			<path fill="#0B050F" d="M41.529,54.465c-7.104-0.309-17.335,0.617-17.335,0.617v3.184c0,0,10.231-0.926,17.335-0.617"/>
			<path fill="none" stroke="#AA7941" stroke-width="0.7677" stroke-miterlimit="10" d="M24.194,58.266
				c0,0,10.231-0.926,17.335-0.617"/>
			<path fill="none" stroke="#AA7941" stroke-width="0.7677" stroke-miterlimit="10" d="M24.194,55.082
				c0,0,10.231-0.926,17.335-0.617"/>
			<path fill="#E8EFFF" d="M59.843,71.145c-1.404,0.453-2.89,0.697-4.428,0.697c-8.633,0-15.631-7.656-15.631-17.1
				s6.998-17.1,15.631-17.1c1.538,0,3.023,0.244,4.428,0.697V71.145z"/>
			<path fill="#DCE3F2" d="M59.843,70.398c-1.399,0.473-2.887,0.729-4.428,0.729c-8.272,0-14.978-7.336-14.978-16.385
				s6.705-16.385,14.978-16.385c1.541,0,3.028,0.256,4.428,0.729V70.398z"/>
			<path fill="#AA7941" d="M59.843,66.84c-1.37,0.602-2.862,0.934-4.428,0.934c-6.579,0-11.913-5.834-11.913-13.031
				s5.334-13.031,11.913-13.031c1.565,0,3.058,0.332,4.428,0.934V66.84z"/>
			<path fill="#BF9B4D" d="M59.843,65.463c-1.351,0.67-2.849,1.045-4.428,1.045c-5.939,0-10.755-5.268-10.755-11.766
				s4.815-11.766,10.755-11.766c1.579,0,3.077,0.375,4.428,1.045V65.463z"/>
			<path fill="#E8EFFF" d="M59.843,61.471c-1.246,0.982-2.774,1.564-4.428,1.564c-4.187,0-7.581-3.713-7.581-8.293
				s3.395-8.293,7.581-8.293c1.653,0,3.182,0.582,4.428,1.564V61.471z"/>
			<path fill="#AA292E" d="M59.843,60.943c-1.221,1.045-2.758,1.67-4.428,1.67c-3.974,0-7.194-3.525-7.194-7.871
				s3.221-7.871,7.194-7.871c1.67,0,3.207,0.625,4.428,1.67V60.943z"/>
			<path fill="#AA7941" d="M59.843,55.941c-0.251,0.164-0.497,0.334-0.738,0.512l0,0c-0.244,0.182-0.484,0.369-0.719,0.562
				l-0.001,0.002c-0.233,0.193-0.46,0.393-0.682,0.6c-0.002,0.002-0.004,0.002-0.006,0.004c-0.218,0.205-0.431,0.414-0.638,0.631
				c-0.005,0.004-0.01,0.01-0.015,0.014c-0.027-0.223-0.06-0.445-0.098-0.666c-0.007-0.039-0.015-0.078-0.021-0.115
				c-0.032-0.178-0.064-0.354-0.102-0.527c-0.001-0.006-0.003-0.012-0.004-0.016c-0.013-0.064-0.029-0.127-0.044-0.191
				c-0.031-0.135-0.063-0.271-0.098-0.404c-0.007-0.027-0.014-0.053-0.021-0.08c-0.017-0.062-0.035-0.125-0.053-0.189
				c-0.035-0.127-0.071-0.256-0.11-0.383c-0.007-0.025-0.016-0.051-0.023-0.074c-0.02-0.064-0.041-0.127-0.062-0.191
				c-0.041-0.129-0.083-0.258-0.128-0.385c-0.029-0.082-0.062-0.164-0.093-0.246c-0.045-0.123-0.092-0.244-0.14-0.365
				c-0.034-0.084-0.07-0.168-0.105-0.25c-0.05-0.117-0.101-0.234-0.152-0.35c-0.038-0.086-0.079-0.168-0.118-0.252
				c-0.054-0.111-0.107-0.225-0.164-0.336c-0.042-0.084-0.086-0.166-0.131-0.248c-0.049-0.096-0.1-0.189-0.151-0.281
				c-0.01-0.02-0.02-0.039-0.031-0.057c-0.043-0.08-0.089-0.156-0.134-0.234c-0.048-0.082-0.096-0.162-0.145-0.242
				c-0.027-0.045-0.055-0.092-0.083-0.135c-0.037-0.061-0.075-0.121-0.112-0.18c-0.056-0.088-0.112-0.172-0.169-0.258
				c-0.041-0.061-0.082-0.121-0.123-0.182c-0.023-0.033-0.047-0.068-0.07-0.102c-0.067-0.096-0.136-0.191-0.205-0.285
				c-0.066-0.092-0.134-0.182-0.203-0.27c-0.063-0.086-0.129-0.168-0.195-0.252c-0.031-0.039-0.063-0.076-0.095-0.117
				c-0.057-0.068-0.114-0.137-0.171-0.205c-0.049-0.059-0.099-0.117-0.148-0.174c-0.049-0.057-0.098-0.111-0.146-0.168
				c-0.08-0.09-0.162-0.178-0.244-0.266c-0.014-0.016-0.028-0.031-0.043-0.047c-0.064-0.068-0.129-0.137-0.195-0.203
				c-0.101-0.104-0.203-0.205-0.307-0.307c-0.055-0.051-0.107-0.105-0.163-0.156c-0.041-0.039-0.084-0.076-0.126-0.117
				c-0.094-0.086-0.188-0.17-0.283-0.256c-0.023-0.02-0.047-0.041-0.07-0.062c-0.068-0.059-0.138-0.117-0.207-0.174
				c-0.107-0.092-0.216-0.18-0.325-0.268c-0.081-0.064-0.163-0.129-0.245-0.191c-0.077-0.059-0.155-0.119-0.233-0.176
				c-0.096-0.07-0.193-0.141-0.291-0.207c-0.079-0.057-0.158-0.113-0.238-0.166c-0.1-0.068-0.201-0.133-0.303-0.199
				c-0.08-0.051-0.161-0.104-0.242-0.152c-0.104-0.064-0.209-0.127-0.314-0.188c-0.081-0.049-0.163-0.098-0.245-0.143
				c-0.108-0.061-0.218-0.119-0.328-0.178c-0.082-0.043-0.163-0.086-0.246-0.129c-0.113-0.059-0.229-0.111-0.344-0.168
				c-0.081-0.037-0.161-0.078-0.243-0.115c-0.122-0.055-0.246-0.107-0.369-0.16c-0.077-0.033-0.152-0.066-0.23-0.098
				c-0.137-0.057-0.276-0.107-0.415-0.158c-0.065-0.025-0.13-0.053-0.196-0.074c-0.178-0.064-0.359-0.123-0.54-0.182
				c-0.027-0.008-0.055-0.018-0.082-0.027c-0.212-0.064-0.425-0.125-0.639-0.182c-0.032-0.008-0.064-0.016-0.097-0.023
				c-0.182-0.047-0.363-0.09-0.548-0.131c-0.066-0.014-0.135-0.025-0.201-0.039c-0.15-0.029-0.301-0.061-0.453-0.086
				c-0.078-0.014-0.159-0.023-0.239-0.037c-0.377-0.057-0.757-0.104-1.142-0.133c2.844-4.254,7.438-7.016,12.623-7.016
				c1.532,0,3.013,0.242,4.413,0.693V55.941z"/>
			<path fill="#BF9B4D" d="M59.843,54.762c-0.161,0.52-0.38,0.92-0.681,1.141c-0.562,0.607-1.323,1.07-1.904,1.678
				c-0.825-6.646-6.472-12.994-13.164-13.508c3.747-5.602,15.308-9.918,15.749-0.844V54.762z"/>
			<path fill="#0B050F" d="M31.171,86.141c0,0-5.178-11.443-4.377-15.131c0.802-3.686,8.172,6.75,8.172,6.75L31.171,86.141z"/>
			<path fill="#AA292E" d="M35.62,96.619c0,0-8.227-1.971-12.001-13.359c-3.775-11.387-2.048-15.758-2.048-15.758l5.734,4.012
				c0,0-0.525,5.381,3.409,14.689c3.934,9.309,4.905,8.459,4.905,8.459V96.619z"/>
			<path fill="#BF9B4D" d="M40.334,95.621c0,0-8.227-1.971-12.001-13.359c-3.774-11.387-1.963-13.443-1.963-13.443l1.663,0.367
				c0,0-2.1,3.703,1.835,13.014c3.935,9.309,10.466,11.465,10.466,11.465V95.621z"/>
			<polygon fill="#1F2D6C" points="59.843,55.275 59.843,66.432 54.099,71.75 48.249,68.412 			"/>
			<path fill="#0B050F" d="M46.993,68.146c0,0,12.544-14.441,12.85-14.602v2.234L49.337,68.412L46.993,68.146z"/>
			<path fill="#AA7941" d="M27.713,72.477l-5.118-3.902c0,0,14.842-5.402,32.18,1.248l-4.149,5.117L27.713,72.477z"/>
			<path fill="#BF9B4D" d="M28.736,73.281l-5.117-3.904c0,0,13.817-5.109,31.155,1.539l-4.149,5.119L28.736,73.281z"/>
			<path fill="#DCE3F2" d="M32.363,77.709c0-0.102-0.939-2.83-3.627-4.428c0,0,13.518-2.438,21.889,1.66
				c0,0-1.288,8.299-5.319,6.582C41.276,79.807,32.363,77.709,32.363,77.709z"/>
			<path fill="#E8EFFF" d="M30.862,88.307c0,0-0.34-3.027,0-3.477c0.34-0.447,0.404-0.799,0.276-1.537
				c-0.129-0.736-0.129-4.291,0.448-5.061c0.576-0.768,3.011-5.412,4.677-5.445c1.665-0.031,8.68,2.852,8.776,6.6
				c0,0,0.512-0.674,1.185-0.289s0.769,3.17,0.769,3.17s-5.738,12.525-11.373,11.98C35.62,94.248,30.843,90.822,30.862,88.307z"/>
			<path fill="#0B050F" d="M35.62,96.619c0,0,5.959,1.598,10.602-3.348c4.642-4.945,9.74-16.816,13.621-18.109V70.26
				c0,0-9.436,4.824-11.719,12.283C45.841,90,35.62,96.619,35.62,96.619z"/>
			<path fill="#D28537" d="M35.62,94c0,0,1.526-6.715,8.07-6.943C45.517,88.807,39.509,94,39.509,94s-1.239,0.984-3.889,0.662V94z"
				/>
			<path fill="#AA292E" d="M35.62,94.662c0,0,6.33-1.625,11.578-14.541c8.914-14.4,12.645-13.689,12.645-13.689v3.828
				c0,0-6.468,5.205-10.425,12.359c-3.957,7.152-6.594,14-13.798,14V94.662z"/>
			<path fill="#BF9B4D" d="M35.62,96.619c0,0-8.227-1.971-12.001-13.359c-3.775-11.387-2.048-15.758-2.048-15.758l1.512,0.91
				c0,0-1.863,5.475,2.071,14.785c3.935,9.309,10.466,11.465,10.466,11.465V96.619z"/>
			<path fill="#BD7831" d="M35.62,94c0,0-1.012-4.324-4.916-5.754c0,0-1.221,7.043,4.916,6.416V94z"/>
			<path fill="#DCE3F2" d="M18.563,64.658l4.893,4.494c0,0,3.86-1.996,3.396-5.965c-0.464-3.971-2.604-5.357-2.604-5.357
				L18.563,64.658z"/>
			<path fill="#0B050F" d="M18.563,64.656l4.352,3.994c0,0,3.434-1.773,3.021-5.305c-0.413-3.529-2.316-4.764-2.316-4.764
				L18.563,64.656z"/>
			<path fill="#1F2D6C" d="M18.563,64.65l3.632,3.334c0,0,2.865-1.48,2.521-4.426c-0.345-2.947-1.934-3.977-1.934-3.977
				L18.563,64.65z"/>
			<g>
				<path fill="#D28537" d="M30.845,85.281c0,0,0.769,0.203,1.54,0.175c0.192-0.013,0.382-0.021,0.558-0.05
					c0.175-0.019,0.346,0.014,0.488-0.006c0.287-0.009,0.502,0.032,0.502,0.032l0.011,0.037c0,0-0.171,0.12-0.463,0.231
					c-0.29,0.115-0.71,0.136-1.112,0.062c-0.403-0.048-0.796-0.145-1.078-0.251c-0.283-0.102-0.459-0.195-0.459-0.195L30.845,85.281
					z"/>
			</g>
			<g>
				<path fill="#D28537" d="M40.341,85.481c0,0-0.238,0.099-0.609,0.204c-0.37,0.111-0.879,0.21-1.395,0.261
					c-0.259,0.024-0.52,0.065-0.765,0.049c-0.244-0.02-0.472-0.046-0.66-0.109c-0.378-0.12-0.61-0.251-0.61-0.251l0.01-0.043
					c0,0,0.27-0.051,0.645-0.051c0.186,0.017,0.407-0.02,0.637-0.001c0.23,0.03,0.479,0.041,0.729,0.057
					c1.001,0.036,2.005-0.157,2.005-0.157L40.341,85.481z"/>
			</g>
			<g>
				<path fill="#2A3757" d="M36.894,84.316c0,0,0.168-0.112,0.455-0.215c0.145-0.042,0.314-0.101,0.502-0.126
					c0.189-0.02,0.391-0.053,0.594-0.046c0.405,0.004,0.809,0.084,1.091,0.188c0.282,0.112,0.461,0.198,0.461,0.198
					s-0.204-0.018-0.493-0.062c-0.142-0.038-0.315-0.03-0.495-0.053c-0.18-0.028-0.372-0.029-0.565-0.024
					c-0.386-0.021-0.77,0.029-1.062,0.06C37.09,84.271,36.894,84.316,36.894,84.316z"/>
			</g>
			<g>
				<path fill="#2A3757" d="M33.596,84.316c0,0-0.153-0.049-0.382-0.087c-0.229-0.035-0.53-0.087-0.833-0.066
					c-0.151-0.006-0.303-0.002-0.444,0.026c-0.141,0.021-0.278,0.019-0.388,0.057c-0.227,0.048-0.389,0.07-0.389,0.07
					s0.135-0.081,0.353-0.188c0.218-0.101,0.541-0.181,0.866-0.184c0.164-0.009,0.325,0.025,0.475,0.044
					c0.15,0.027,0.284,0.082,0.396,0.124C33.473,84.211,33.596,84.316,33.596,84.316z"/>
			</g>
			<g>
				<path fill="#E8EFFF" d="M35.394,76.771c0,0,0.67-0.416,1.619,0"/>
				<path fill="#2A3757" d="M35.394,76.771c0,0,0.076-0.078,0.225-0.153c0.074-0.028,0.162-0.073,0.264-0.09s0.211-0.037,0.32-0.032
					c0.221,0.004,0.436,0.062,0.58,0.138c0.144,0.077,0.23,0.138,0.23,0.138s-0.111-0.009-0.263-0.034
					c-0.151-0.022-0.353-0.06-0.55-0.05c-0.199-0.018-0.397,0.017-0.55,0.033C35.499,76.742,35.394,76.771,35.394,76.771z"/>
			</g>
			<g>
				<path fill="#2A3757" d="M34.276,77.932c0,0,0.963-0.104,1.927-0.096c0.964-0.008,1.927,0.096,1.927,0.096
					s-0.963,0.104-1.927,0.096C35.239,78.035,34.276,77.932,34.276,77.932z"/>
			</g>
			<g>
				<path fill="#2A3757" d="M34.728,80.115c0,0,0.006-0.035,0.033-0.094c0.025-0.059,0.07-0.145,0.151-0.222
					c0.08-0.081,0.183-0.165,0.312-0.222c0.123-0.076,0.271-0.093,0.412-0.143c0.146-0.029,0.293-0.025,0.43-0.039
					c0.137-0.018,0.262,0.021,0.369,0.028c0.216,0.035,0.354,0.069,0.354,0.069s-0.146,0.022-0.356,0.039
					c-0.105,0.007-0.229,0.006-0.357,0.029c-0.128,0.021-0.269,0.026-0.4,0.061c-0.129,0.038-0.273,0.045-0.383,0.106
					c-0.119,0.044-0.228,0.091-0.311,0.152C34.81,79.99,34.728,80.115,34.728,80.115z"/>
			</g>
		</g>
		<path fill="#E8EFFF" d="M9.28,32.541c1.404-0.453,2.89-0.697,4.428-0.697c8.633,0,15.631,7.656,15.631,17.1
			s-6.998,17.1-15.631,17.1c-1.538,0-3.023-0.244-4.428-0.697V32.541z"/>
		<path fill="#DCE3F2" d="M9.28,33.287c1.399-0.475,2.887-0.729,4.428-0.729c8.272,0,14.979,7.336,14.979,16.385
			S21.98,65.328,13.708,65.328c-1.541,0-3.028-0.256-4.428-0.729V33.287z"/>
		<path fill="#AA7941" d="M9.28,36.846c1.37-0.602,2.862-0.936,4.428-0.936c6.579,0,11.912,5.836,11.912,13.033
			s-5.333,13.031-11.912,13.031c-1.565,0-3.058-0.334-4.428-0.934V36.846z"/>
		<path fill="#BF9B4D" d="M9.28,38.223c1.352-0.67,2.849-1.045,4.428-1.045c5.939,0,10.755,5.268,10.755,11.766
			s-4.815,11.766-10.755,11.766c-1.579,0-3.076-0.377-4.428-1.045V38.223z"/>
		<path fill="#E8EFFF" d="M9.28,42.215c1.246-0.982,2.774-1.564,4.428-1.564c4.187,0,7.581,3.713,7.581,8.293
			s-3.395,8.291-7.581,8.291c-1.653,0-3.182-0.58-4.428-1.562V42.215z"/>
		<path fill="#AA292E" d="M9.28,42.742c1.221-1.045,2.758-1.67,4.428-1.67c3.974,0,7.194,3.523,7.194,7.871
			c0,4.346-3.221,7.869-7.194,7.869c-1.67,0-3.207-0.623-4.428-1.668V42.742z"/>
		<path fill="#AA7941" d="M9.28,47.744c0.251-0.164,0.497-0.334,0.738-0.512l0,0c0.244-0.182,0.484-0.369,0.719-0.562l0.001-0.002
			c0.233-0.193,0.46-0.393,0.682-0.6c0.002-0.002,0.004-0.004,0.006-0.006c0.218-0.203,0.431-0.414,0.638-0.629
			c0.005-0.006,0.01-0.01,0.015-0.014c0.027,0.223,0.06,0.445,0.098,0.666c0.007,0.039,0.015,0.078,0.021,0.115
			c0.032,0.176,0.064,0.354,0.102,0.527c0.002,0.006,0.003,0.01,0.004,0.016c0.014,0.064,0.029,0.127,0.044,0.189
			c0.031,0.137,0.063,0.271,0.098,0.406c0.007,0.027,0.014,0.053,0.021,0.08c0.017,0.062,0.035,0.125,0.053,0.188
			c0.035,0.129,0.071,0.258,0.11,0.385c0.008,0.023,0.016,0.049,0.023,0.074c0.02,0.064,0.041,0.127,0.062,0.191
			c0.041,0.129,0.083,0.256,0.128,0.385c0.029,0.082,0.062,0.164,0.093,0.246c0.045,0.121,0.092,0.244,0.14,0.365
			c0.034,0.084,0.07,0.166,0.105,0.25c0.05,0.117,0.101,0.234,0.152,0.35c0.038,0.084,0.079,0.168,0.118,0.25
			c0.055,0.113,0.107,0.227,0.164,0.338c0.042,0.084,0.087,0.166,0.131,0.248c0.05,0.094,0.1,0.189,0.151,0.281
			c0.01,0.02,0.02,0.039,0.031,0.057c0.043,0.078,0.089,0.156,0.134,0.234c0.048,0.082,0.096,0.162,0.145,0.242
			c0.027,0.045,0.055,0.09,0.083,0.135c0.037,0.061,0.075,0.119,0.112,0.18c0.056,0.086,0.112,0.172,0.169,0.258
			c0.041,0.061,0.082,0.121,0.123,0.18c0.023,0.035,0.047,0.068,0.07,0.104c0.067,0.096,0.136,0.191,0.205,0.285
			c0.066,0.092,0.134,0.182,0.203,0.27c0.063,0.084,0.129,0.168,0.195,0.25c0.031,0.041,0.063,0.078,0.095,0.117
			c0.057,0.07,0.114,0.139,0.171,0.207c0.05,0.059,0.099,0.117,0.148,0.174c0.049,0.057,0.098,0.111,0.146,0.166
			c0.08,0.09,0.162,0.18,0.244,0.268c0.014,0.016,0.028,0.031,0.043,0.047c0.064,0.068,0.129,0.137,0.195,0.203
			c0.101,0.104,0.203,0.205,0.307,0.305c0.055,0.053,0.108,0.105,0.163,0.158c0.041,0.039,0.084,0.076,0.126,0.115
			c0.094,0.088,0.188,0.172,0.283,0.256c0.023,0.021,0.047,0.043,0.07,0.062c0.068,0.061,0.138,0.117,0.207,0.176
			c0.107,0.092,0.216,0.18,0.325,0.268c0.081,0.064,0.163,0.127,0.245,0.191c0.077,0.059,0.155,0.117,0.233,0.176
			c0.096,0.07,0.193,0.139,0.291,0.207c0.079,0.057,0.158,0.111,0.238,0.166c0.1,0.068,0.201,0.133,0.303,0.197
			c0.08,0.053,0.161,0.105,0.242,0.154c0.104,0.064,0.209,0.125,0.314,0.188c0.082,0.047,0.163,0.096,0.245,0.143
			c0.108,0.061,0.218,0.119,0.328,0.176c0.082,0.045,0.163,0.088,0.246,0.131c0.113,0.057,0.229,0.111,0.344,0.166
			c0.081,0.039,0.161,0.08,0.243,0.117c0.122,0.055,0.246,0.107,0.369,0.16c0.077,0.031,0.153,0.066,0.23,0.098
			c0.138,0.055,0.276,0.107,0.415,0.158c0.066,0.025,0.13,0.051,0.196,0.074c0.178,0.064,0.359,0.123,0.54,0.182
			c0.027,0.008,0.055,0.018,0.083,0.027c0.211,0.064,0.424,0.125,0.639,0.182c0.031,0.008,0.063,0.014,0.096,0.023
			c0.182,0.045,0.364,0.09,0.548,0.131c0.066,0.014,0.135,0.025,0.201,0.039c0.15,0.029,0.301,0.061,0.452,0.086
			c0.079,0.014,0.16,0.023,0.24,0.035c0.377,0.059,0.757,0.105,1.142,0.135c-2.844,4.252-7.438,7.016-12.623,7.016
			c-1.532,0-3.013-0.244-4.413-0.693V47.744z"/>
		<path fill="#BF9B4D" d="M9.28,48.924c0.16-0.52,0.38-0.92,0.681-1.141c0.562-0.607,1.323-1.07,1.904-1.678
			c0.825,6.646,6.472,12.994,13.164,13.506c-3.747,5.604-15.308,9.92-15.749,0.846V48.924z"/>
		<polygon fill="#1F2D6C" points="9.28,48.41 9.28,37.252 15.024,31.934 20.874,35.273 		"/>
		<path fill="#0B050F" d="M22.13,35.539c0,0-12.544,14.439-12.85,14.602v-2.236l10.506-12.631L22.13,35.539z"/>
		<path fill="#0B050F" d="M37.952,17.543c0,0,5.178,11.445,4.377,15.131c-0.802,3.688-8.172-6.748-8.172-6.748L37.952,17.543z"/>
		<path fill="#AA292E" d="M33.503,7.064c0,0,8.228,1.973,12.002,13.359c3.774,11.389,2.047,15.76,2.047,15.76l-5.734-4.012
			c0,0,0.525-5.381-3.408-14.689c-3.935-9.311-4.906-8.459-4.906-8.459V7.064z"/>
		<path fill="#BF9B4D" d="M28.789,8.062c0,0,8.227,1.973,12.002,13.359c3.774,11.389,1.962,13.445,1.962,13.445L41.09,34.5
			c0,0,2.1-3.705-1.835-13.014S28.789,10.021,28.789,10.021V8.062z"/>
		<path fill="#AA7941" d="M41.41,31.209l5.118,3.902c0,0-14.842,5.402-32.18-1.248l4.149-5.117L41.41,31.209z"/>
		<path fill="#BF9B4D" d="M40.387,30.404l5.118,3.902c0,0-13.818,5.111-31.156-1.539l4.149-5.117L40.387,30.404z"/>
		<path fill="#DCE3F2" d="M36.76,25.977c0,0.102,0.939,2.828,3.627,4.428c0,0-13.518,2.438-21.889-1.66c0,0,1.288-8.299,5.319-6.582
			C27.847,23.879,36.76,25.977,36.76,25.977z"/>
		<path fill="#E8EFFF" d="M38.261,15.377c0,0,0.34,3.029,0,3.477c-0.34,0.449-0.403,0.801-0.276,1.539
			c0.129,0.736,0.129,4.291-0.448,5.061c-0.576,0.768-3.011,5.412-4.676,5.445c-1.666,0.031-8.681-2.852-8.777-6.6
			c0,0-0.512,0.674-1.185,0.289s-0.769-3.172-0.769-3.172S27.868,8.893,33.503,9.438C33.503,9.438,38.281,12.861,38.261,15.377z"/>
		<path fill="#0B050F" d="M33.503,7.064c0,0-5.959-1.598-10.602,3.35C18.26,15.359,13.161,27.23,9.28,28.523v4.902
			c0,0,9.436-4.826,11.719-12.283S33.503,7.064,33.503,7.064z"/>
		<path fill="#D28537" d="M33.503,9.686c0,0-1.526,6.715-8.07,6.943c-1.826-1.75,4.182-6.943,4.182-6.943s1.239-0.984,3.889-0.662
			V9.686z"/>
		<path fill="#AA292E" d="M33.503,9.023c0,0-6.33,1.625-11.578,14.541C13.011,37.965,9.28,37.252,9.28,37.252v-3.826
			c0,0,6.468-5.207,10.425-12.359S26.299,7.064,33.503,7.064V9.023z"/>
		<path fill="#BF9B4D" d="M33.503,7.064c0,0,8.228,1.973,12.002,13.359c3.774,11.389,2.047,15.76,2.047,15.76l-1.513-0.91
			c0,0,1.865-5.477-2.069-14.785S33.503,9.023,33.503,9.023V7.064z"/>
		<path fill="#BD7831" d="M33.503,9.686c0,0,1.012,4.322,4.917,5.752c0,0,1.22-7.043-4.917-6.414V9.686z"/>
		<g>
			<path fill="#D28537" d="M38.278,18.404c0,0-0.77-0.203-1.539-0.175c-0.193,0.013-0.383,0.021-0.559,0.05
				c-0.176,0.019-0.346-0.014-0.488,0.006c-0.287,0.009-0.502-0.032-0.502-0.032l-0.01-0.037c0,0,0.17-0.12,0.463-0.231
				c0.289-0.115,0.709-0.136,1.111-0.062c0.403,0.048,0.797,0.145,1.078,0.251c0.283,0.102,0.459,0.195,0.459,0.195L38.278,18.404z"
				/>
		</g>
		<g>
			<path fill="#D28537" d="M28.783,18.204c0-0.001,0.237-0.099,0.609-0.204c0.37-0.111,0.878-0.21,1.395-0.261
				c0.258-0.024,0.519-0.065,0.764-0.049c0.244,0.02,0.471,0.046,0.66,0.109c0.378,0.12,0.61,0.251,0.61,0.251l-0.009,0.043
				c0,0-0.271,0.051-0.646,0.051c-0.186-0.017-0.407,0.02-0.637,0.001c-0.23-0.03-0.479-0.041-0.729-0.057
				c-1.001-0.036-2.005,0.157-2.005,0.156L28.783,18.204z"/>
		</g>
		<g>
			<path fill="#2A3757" d="M32.229,19.369c0,0-0.168,0.112-0.455,0.215c-0.145,0.042-0.314,0.101-0.502,0.126
				c-0.188,0.02-0.39,0.053-0.593,0.046c-0.406-0.004-0.809-0.084-1.091-0.188c-0.283-0.112-0.461-0.198-0.461-0.198
				s0.204,0.018,0.493,0.062c0.142,0.038,0.315,0.03,0.495,0.053c0.18,0.028,0.373,0.029,0.565,0.024
				c0.386,0.021,0.77-0.029,1.062-0.06C32.033,19.414,32.229,19.369,32.229,19.369z"/>
		</g>
		<g>
			<path fill="#2A3757" d="M35.527,19.369c0,0,0.153,0.049,0.382,0.087c0.229,0.035,0.531,0.087,0.834,0.066
				c0.15,0.006,0.303,0.002,0.443-0.026c0.141-0.021,0.278-0.019,0.389-0.057c0.227-0.048,0.389-0.07,0.389-0.07
				s-0.135,0.081-0.354,0.188c-0.218,0.101-0.54,0.181-0.865,0.184c-0.164,0.009-0.325-0.025-0.476-0.044
				c-0.149-0.027-0.284-0.082-0.396-0.124C35.65,19.475,35.527,19.369,35.527,19.369z"/>
		</g>
		<g>
			<path fill="#E8EFFF" d="M33.729,26.912c0,0-0.67,0.418-1.619,0"/>
			<path fill="#2A3757" d="M33.729,26.912c0,0-0.076,0.078-0.224,0.153c-0.075,0.029-0.164,0.074-0.265,0.091
				c-0.102,0.016-0.21,0.037-0.321,0.032c-0.22-0.004-0.436-0.063-0.579-0.138c-0.144-0.078-0.231-0.139-0.231-0.139
				s0.111,0.009,0.263,0.035c0.151,0.022,0.353,0.06,0.55,0.05c0.199,0.018,0.397-0.017,0.549-0.034
				C33.625,26.941,33.729,26.912,33.729,26.912z"/>
		</g>
		<g>
			<path fill="#2A3757" d="M34.847,25.754c0,0-0.963,0.104-1.927,0.096c-0.963,0.008-1.927-0.096-1.927-0.096
				s0.963-0.104,1.927-0.096C33.883,25.65,34.847,25.754,34.847,25.754z"/>
		</g>
		<g>
			<path fill="#2A3757" d="M34.396,23.57c0,0-0.006,0.035-0.033,0.094c-0.025,0.059-0.07,0.145-0.151,0.222
				c-0.08,0.081-0.183,0.165-0.312,0.222c-0.123,0.076-0.271,0.093-0.412,0.143c-0.145,0.029-0.292,0.025-0.429,0.039
				c-0.137,0.018-0.263-0.021-0.37-0.028c-0.215-0.035-0.354-0.069-0.354-0.069s0.146-0.022,0.357-0.039
				c0.105-0.007,0.229-0.006,0.357-0.029c0.128-0.021,0.269-0.026,0.4-0.061c0.128-0.038,0.273-0.045,0.383-0.106
				c0.12-0.044,0.228-0.091,0.311-0.152C34.313,23.695,34.396,23.57,34.396,23.57z"/>
		</g>
	</g>
</g>
</svg>
