<?xml version="1.0" encoding="utf-8"?>
<!-- Generator: Adobe Illustrator 16.0.0, SVG Export Plug-In . SVG Version: 6.00 Build 0)  -->
<!DOCTYPE svg PUBLIC "-//W3C//DTD SVG 1.1//EN" "http://www.w3.org/Graphics/SVG/1.1/DTD/svg11.dtd">
<svg version="1.1" id="Layer_1" xmlns="http://www.w3.org/2000/svg" xmlns:xlink="http://www.w3.org/1999/xlink" x="0px" y="0px"
	 width="69.12px" height="103.69px" viewBox="0 0 69.12 103.69" enable-background="new 0 0 69.12 103.69" xml:space="preserve">
<g>
	<g>
		<path fill="#F2F2F2" d="M69.123,100.963c0,1.504-1.219,2.721-2.722,2.721H2.721c-1.503,0-2.721-1.217-2.721-2.721V2.721
			C0,1.219,1.218,0,2.721,0h63.681c1.503,0,2.722,1.219,2.722,2.721V100.963z"/>
		<g>
			<path fill="#7A2B2B" d="M7.372,19.875l-0.577-0.576c-2.144-1.896-3.545-3.174-3.545-4.742c0-1.275,0.99-2.266,2.266-2.266
				c0.704,0,1.404,0.748,1.856,1.285c0.453-0.537,1.154-1.285,1.856-1.285c1.275,0,2.266,0.99,2.266,2.266
				c0,1.568-1.4,2.846-3.544,4.742L7.372,19.875z M7.372,19.875"/>
			<path fill="#943434" d="M7.363,13.57c-0.453-0.535-1.147-1.275-1.848-1.275c-1.275,0-2.266,0.99-2.266,2.266
				c0,1.568,1.401,2.846,3.545,4.742l0.568,0.566V13.57z"/>
		</g>
		<g>
			<path fill="#7A2B2B" d="M61.662,83.635l0.577,0.576c2.144,1.896,3.545,3.174,3.545,4.742c0,1.275-0.99,2.266-2.266,2.266
				c-0.704,0-1.404-0.75-1.856-1.285c-0.453,0.535-1.154,1.285-1.856,1.285c-1.275,0-2.266-0.99-2.266-2.266
				c0-1.568,1.4-2.846,3.544-4.742L61.662,83.635z M61.662,83.635"/>
			<path fill="#943434" d="M61.671,89.939c0.453,0.535,1.147,1.275,1.848,1.275c1.275,0,2.266-0.99,2.266-2.266
				c0-1.568-1.401-2.848-3.545-4.742l-0.568-0.568V89.939z"/>
		</g>
		<rect x="2.721" y="2.721" fill="none" width="9.374" height="9.762"/>
		<text transform="matrix(1 0 0 1 3.6577 10.4492)" fill="#7A2B2B" font-family="'ChunkFive'" font-size="10.8856">Q</text>
		<rect x="57.026" y="91.201" fill="none" width="9.374" height="9.762"/>
		<text transform="matrix(-1 0 0 -1 65.4648 93.2344)" fill="#7A2B2B" font-family="'ChunkFive'" font-size="10.8856">Q</text>
	</g>
	<g>
		<rect x="35.14" y="57.83" fill="#1F2D6C" width="4.062" height="1.375"/>
		<rect x="34.786" y="59.205" fill="#AA292E" width="4.063" height="1.375"/>
		<rect x="34.186" y="60.58" fill="#1F2D6C" width="4.063" height="1.375"/>
		<rect x="33.833" y="61.955" fill="#AA292E" width="4.062" height="1.377"/>
		<rect x="33.232" y="63.332" fill="#1F2D6C" width="4.062" height="1.375"/>
		<rect x="32.879" y="64.707" fill="#AA292E" width="4.062" height="1.375"/>
		<rect x="32.279" y="66.082" fill="#1F2D6C" width="4.062" height="1.375"/>
		<polygon fill="#AA292E" points="34.786,57.771 31.813,65.475 24.104,66.018 28.519,57.193 		"/>
		<polygon fill="#AA292E" points="44.378,58.266 45.457,66.785 37.603,66.426 37.476,63.287 40.178,57.699 		"/>
		<path fill="#0B050F" d="M35.428,66.945l3.486-9.02l2.56,0.34c0,0-3.583,4.715-3.022,6.506c0.56,1.791,4.702,0.703,4.702,0.703
			l1.775,3.176L35.428,66.945z"/>
		<path fill="#0B050F" d="M35.988,57.699l-3.407,9.15l-8.701,0.652l1.149-2.604c0,0,4.736,0.896,6.112-0.225
			c1.376-1.119,2.687-6.844,2.687-6.844L35.988,57.699z"/>
		<path fill="#0B050F" d="M27.594,54.465c7.103-0.309,17.335,0.617,17.335,0.617v3.184c0,0-10.232-0.926-17.335-0.617"/>
		<path fill="none" stroke="#AA7941" stroke-width="0.7677" stroke-miterlimit="10" d="M44.929,58.266
			c0,0-10.232-0.926-17.335-0.617"/>
		<path fill="none" stroke="#AA7941" stroke-width="0.7677" stroke-miterlimit="10" d="M44.929,55.082
			c0,0-10.232-0.926-17.335-0.617"/>
		<path fill="#DCE3F2" d="M50.56,64.658l-4.893,4.492c0,0-3.861-1.994-3.396-5.965c0.464-3.969,2.604-5.355,2.604-5.355
			L50.56,64.658z"/>
		<path fill="#0B050F" d="M50.56,64.654l-4.352,3.996c0,0-3.434-1.775-3.021-5.305s2.317-4.764,2.317-4.764L50.56,64.654z"/>
		<path fill="#1F2D6C" d="M50.56,64.65l-3.632,3.334c0,0-2.866-1.48-2.521-4.428c0.344-2.945,1.934-3.975,1.934-3.975L50.56,64.65z"
			/>
		<g>
			<rect x="29.92" y="44.479" fill="#1F2D6C" width="4.062" height="1.375"/>
			<rect x="30.273" y="43.104" fill="#AA292E" width="4.062" height="1.375"/>
			<rect x="30.874" y="41.729" fill="#1F2D6C" width="4.062" height="1.375"/>
			<rect x="31.228" y="40.352" fill="#AA292E" width="4.062" height="1.377"/>
			<rect x="31.828" y="38.977" fill="#1F2D6C" width="4.062" height="1.375"/>
			<rect x="32.181" y="37.602" fill="#AA292E" width="4.063" height="1.375"/>
			<rect x="32.781" y="36.227" fill="#1F2D6C" width="4.062" height="1.375"/>
			<polygon fill="#AA292E" points="34.336,45.912 37.309,38.209 45.019,37.666 40.604,46.49 			"/>
			<polygon fill="#AA292E" points="24.744,45.418 23.665,36.9 31.52,37.258 31.647,40.396 28.944,45.984 			"/>
			<path fill="#0B050F" d="M33.694,36.738l-3.486,9.02l-2.56-0.34c0,0,3.583-4.713,3.023-6.506
				c-0.561-1.791-4.702-0.703-4.702-0.703l-1.775-3.176L33.694,36.738z"/>
			<path fill="#0B050F" d="M33.134,45.984l3.407-9.15l8.701-0.652l-1.149,2.604c0,0-4.736-0.896-6.112,0.225
				c-1.375,1.119-2.687,6.844-2.687,6.844L33.134,45.984z"/>
			<path fill="#0B050F" d="M41.529,49.219c-7.104,0.309-17.335-0.615-17.335-0.615v-3.186c0,0,10.231,0.926,17.335,0.617"/>
			<path fill="none" stroke="#AA7941" stroke-width="0.7677" stroke-miterlimit="10" d="M24.194,45.418
				c0,0,10.231,0.926,17.335,0.617"/>
			<path fill="none" stroke="#AA7941" stroke-width="0.7677" stroke-miterlimit="10" d="M24.194,48.604
				c0,0,10.231,0.924,17.335,0.615"/>
			<path fill="#E8EFFF" d="M59.842,32.539c-1.404-0.451-2.89-0.695-4.427-0.695c-8.633,0-15.631,7.654-15.631,17.098
				c0,9.445,6.998,17.1,15.631,17.1c1.537,0,3.022-0.244,4.427-0.697V32.539z"/>
			<path fill="#DCE3F2" d="M59.842,33.287c-1.399-0.475-2.886-0.73-4.427-0.73c-8.272,0-14.978,7.336-14.978,16.385
				c0,9.051,6.705,16.387,14.978,16.387c1.541,0,3.027-0.256,4.427-0.729V33.287z"/>
			<path fill="#AA7941" d="M59.842,36.846c-1.369-0.602-2.861-0.936-4.427-0.936c-6.58,0-11.913,5.834-11.913,13.031
				s5.333,13.033,11.913,13.033c1.565,0,3.058-0.334,4.427-0.934V36.846z"/>
			<path fill="#BF9B4D" d="M59.842,38.221c-1.351-0.668-2.848-1.043-4.427-1.043c-5.94,0-10.755,5.268-10.755,11.764
				c0,6.498,4.814,11.766,10.755,11.766c1.579,0,3.076-0.375,4.427-1.045V38.221z"/>
			<path fill="#E8EFFF" d="M59.842,42.213c-1.246-0.982-2.773-1.562-4.427-1.562c-4.187,0-7.581,3.713-7.581,8.291
				c0,4.58,3.395,8.293,7.581,8.293c1.653,0,3.181-0.58,4.427-1.564V42.213z"/>
			<path fill="#AA292E" d="M59.842,42.742c-1.221-1.045-2.757-1.67-4.427-1.67c-3.974,0-7.194,3.523-7.194,7.869
				c0,4.348,3.221,7.871,7.194,7.871c1.67,0,3.206-0.625,4.427-1.67V42.742z"/>
			<path fill="#AA7941" d="M59.842,47.744c-0.25-0.164-0.496-0.336-0.737-0.514l0,0c-0.245-0.18-0.485-0.367-0.719-0.562h-0.001
				c-0.233-0.193-0.461-0.395-0.682-0.6c-0.002-0.002-0.004-0.004-0.006-0.006c-0.219-0.203-0.431-0.414-0.639-0.629
				c-0.005-0.006-0.009-0.01-0.014-0.016c-0.027,0.225-0.061,0.447-0.098,0.668c-0.007,0.039-0.015,0.076-0.021,0.115
				c-0.032,0.176-0.065,0.352-0.102,0.527c-0.002,0.004-0.003,0.01-0.004,0.016c-0.014,0.062-0.03,0.127-0.045,0.189
				c-0.031,0.137-0.062,0.271-0.097,0.406c-0.007,0.025-0.014,0.053-0.021,0.078c-0.017,0.064-0.035,0.127-0.053,0.189
				c-0.036,0.129-0.071,0.258-0.11,0.383c-0.007,0.025-0.016,0.051-0.023,0.076c-0.02,0.064-0.042,0.127-0.062,0.189
				c-0.042,0.129-0.083,0.258-0.129,0.385c-0.029,0.084-0.061,0.164-0.092,0.246c-0.046,0.123-0.092,0.246-0.141,0.367
				c-0.034,0.084-0.069,0.166-0.105,0.25c-0.05,0.117-0.1,0.234-0.151,0.35c-0.038,0.084-0.079,0.166-0.119,0.25
				c-0.053,0.113-0.107,0.227-0.163,0.338c-0.043,0.082-0.086,0.166-0.131,0.248c-0.05,0.094-0.1,0.188-0.151,0.281
				c-0.01,0.02-0.021,0.037-0.031,0.057c-0.044,0.078-0.089,0.156-0.134,0.232c-0.048,0.082-0.096,0.162-0.145,0.244
				c-0.027,0.045-0.055,0.09-0.083,0.135c-0.037,0.061-0.075,0.119-0.113,0.178c-0.056,0.088-0.111,0.174-0.168,0.26
				c-0.041,0.061-0.083,0.119-0.124,0.18c-0.023,0.033-0.046,0.068-0.07,0.102c-0.066,0.096-0.135,0.191-0.204,0.287
				c-0.066,0.09-0.135,0.18-0.203,0.27c-0.064,0.084-0.129,0.168-0.195,0.25c-0.031,0.039-0.063,0.078-0.095,0.117
				c-0.057,0.07-0.114,0.139-0.171,0.205c-0.05,0.059-0.099,0.117-0.148,0.176c-0.049,0.057-0.098,0.111-0.147,0.166
				c-0.08,0.09-0.161,0.178-0.243,0.266c-0.015,0.016-0.028,0.033-0.043,0.047c-0.065,0.07-0.13,0.137-0.195,0.205
				c-0.101,0.104-0.203,0.205-0.307,0.305c-0.055,0.053-0.107,0.105-0.163,0.156c-0.041,0.041-0.084,0.078-0.126,0.117
				c-0.094,0.086-0.188,0.172-0.283,0.256c-0.023,0.021-0.047,0.041-0.07,0.062c-0.068,0.061-0.138,0.117-0.207,0.176
				c-0.108,0.09-0.216,0.18-0.325,0.268c-0.081,0.064-0.163,0.127-0.245,0.189c-0.078,0.061-0.155,0.119-0.233,0.178
				c-0.096,0.07-0.193,0.139-0.291,0.207c-0.079,0.057-0.158,0.111-0.238,0.166c-0.101,0.066-0.201,0.133-0.303,0.197
				c-0.081,0.051-0.161,0.104-0.242,0.154c-0.104,0.064-0.209,0.125-0.314,0.188c-0.082,0.047-0.163,0.096-0.246,0.143
				c-0.108,0.061-0.218,0.117-0.327,0.176c-0.082,0.043-0.164,0.088-0.246,0.129c-0.114,0.059-0.229,0.113-0.345,0.168
				c-0.081,0.039-0.161,0.078-0.242,0.115c-0.122,0.057-0.246,0.107-0.369,0.16c-0.078,0.033-0.153,0.066-0.23,0.1
				c-0.137,0.055-0.276,0.107-0.415,0.158c-0.066,0.023-0.13,0.051-0.196,0.074c-0.179,0.062-0.359,0.123-0.541,0.18
				c-0.027,0.01-0.055,0.02-0.082,0.027c-0.211,0.066-0.424,0.127-0.638,0.182c-0.032,0.01-0.065,0.016-0.097,0.023
				c-0.182,0.047-0.364,0.092-0.548,0.131c-0.067,0.014-0.135,0.025-0.202,0.039c-0.15,0.031-0.301,0.061-0.452,0.088
				c-0.079,0.012-0.159,0.023-0.239,0.035c-0.378,0.059-0.758,0.105-1.142,0.135c2.844,4.252,7.438,7.014,12.622,7.014
				c1.532,0,3.014-0.242,4.413-0.691V47.744z"/>
			<path fill="#BF9B4D" d="M59.842,48.924c-0.16-0.521-0.38-0.92-0.681-1.143c-0.561-0.605-1.322-1.068-1.904-1.676
				c-0.824,6.646-6.471,12.994-13.164,13.506c3.748,5.604,15.309,9.918,15.749,0.844V48.924z"/>
			<path fill="#0B050F" d="M31.17,17.543c0,0-5.177,11.443-4.376,15.131c0.802,3.688,8.172-6.748,8.172-6.748L31.17,17.543z"/>
			<path fill="#AA292E" d="M35.62,7.064c0,0-8.228,1.971-12.002,13.359s-2.047,15.758-2.047,15.758l5.734-4.01
				c0,0-0.526-5.383,3.408-14.691s4.906-8.459,4.906-8.459V7.064z"/>
			<path fill="#BF9B4D" d="M40.334,8.062c0,0-8.228,1.973-12.001,13.359c-3.775,11.387-1.964,13.445-1.964,13.445l1.663-0.369
				c0,0-2.099-3.703,1.836-13.012c3.934-9.309,10.466-11.467,10.466-11.467V8.062z"/>
			<polygon fill="#1F2D6C" points="59.842,48.41 59.842,37.252 54.099,31.934 48.249,35.273 			"/>
			<path fill="#0B050F" d="M46.993,35.539c0,0,12.543,14.439,12.849,14.602v-2.236L49.337,35.273L46.993,35.539z"/>
			<path fill="#AA7941" d="M27.713,31.207l-5.118,3.904c0,0,14.842,5.402,32.18-1.248l-4.149-5.119L27.713,31.207z"/>
			<path fill="#BF9B4D" d="M28.736,30.404l-5.118,3.902c0,0,13.818,5.111,31.156-1.539l-4.149-5.119L28.736,30.404z"/>
			<path fill="#DCE3F2" d="M32.363,25.975c0,0.104-0.94,2.83-3.627,4.43c0,0,13.517,2.436,21.889-1.66c0,0-1.288-8.301-5.319-6.582
				C41.275,23.879,32.363,25.975,32.363,25.975z"/>
			<path fill="#E8EFFF" d="M30.861,15.377c0,0-0.34,3.027,0,3.477c0.341,0.449,0.404,0.801,0.276,1.537s-0.128,4.293,0.449,5.061
				c0.576,0.77,3.011,5.414,4.676,5.445c1.665,0.033,8.681-2.85,8.776-6.598c0,0,0.513,0.672,1.186,0.289
				c0.673-0.385,0.769-3.172,0.769-3.172S41.255,8.891,35.62,9.436C35.62,9.436,30.842,12.861,30.861,15.377z"/>
			<path fill="#0B050F" d="M35.62,7.064c0,0,5.959-1.598,10.602,3.348c4.642,4.947,9.739,16.818,13.62,18.111v4.902
				c0,0-9.436-4.826-11.718-12.283C45.841,13.686,35.62,7.064,35.62,7.064z"/>
			<path fill="#D28537" d="M35.62,9.684c0,0,1.526,6.717,8.07,6.945c1.826-1.75-4.182-6.945-4.182-6.945s-1.24-0.984-3.889-0.662
				V9.684z"/>
			<path fill="#AA292E" d="M35.62,9.021c0,0,6.33,1.627,11.578,14.541c8.914,14.402,12.644,13.689,12.644,13.689v-3.826
				c0,0-6.468-5.207-10.425-12.359S42.824,7.064,35.62,7.064V9.021z"/>
			<path fill="#BF9B4D" d="M35.62,7.064c0,0-8.228,1.971-12.002,13.359s-2.047,15.758-2.047,15.758l1.512-0.908
				c0,0-1.863-5.477,2.07-14.785C29.088,11.178,35.62,9.021,35.62,9.021V7.064z"/>
			<path fill="#BD7831" d="M35.62,9.684c0,0-1.012,4.324-4.916,5.754c0,0-1.221-7.043,4.916-6.416V9.684z"/>
			<path fill="#DCE3F2" d="M18.563,39.025l4.893-4.492c0,0,3.86,1.996,3.396,5.965c-0.465,3.969-2.605,5.355-2.605,5.355
				L18.563,39.025z"/>
			<path fill="#0B050F" d="M18.563,39.029l4.351-3.996c0,0,3.434,1.775,3.021,5.305c-0.412,3.531-2.316,4.764-2.316,4.764
				L18.563,39.029z"/>
			<path fill="#1F2D6C" d="M18.563,39.033l3.631-3.334c0,0,2.866,1.482,2.521,4.428s-1.934,3.977-1.934,3.977L18.563,39.033z"/>
			<g>
				<path fill="#D28537" d="M30.831,18.369c0,0,0.176-0.095,0.459-0.195c0.282-0.107,0.674-0.205,1.078-0.252
					c0.402-0.075,0.822-0.055,1.113,0.061c0.291,0.111,0.463,0.231,0.463,0.231l-0.012,0.037c0,0-0.215,0.041-0.502,0.032
					c-0.141-0.02-0.312,0.014-0.487-0.006c-0.176-0.029-0.366-0.036-0.558-0.049c-0.771-0.028-1.539,0.176-1.54,0.176L30.831,18.369
					z"/>
			</g>
			<g>
				<path fill="#D28537" d="M40.328,18.245c0,0.001-1.004-0.193-2.006-0.157c-0.25,0.016-0.498,0.026-0.729,0.057
					c-0.23,0.02-0.451-0.018-0.637,0c-0.375,0-0.646-0.051-0.646-0.051l-0.008-0.043c0,0,0.23-0.131,0.609-0.251
					c0.189-0.063,0.416-0.09,0.66-0.11c0.245-0.017,0.506,0.024,0.764,0.049c0.518,0.051,1.025,0.15,1.396,0.262
					c0.372,0.105,0.608,0.203,0.608,0.204L40.328,18.245z"/>
			</g>
			<g>
				<path fill="#2A3757" d="M36.894,19.369c0,0,0.196,0.045,0.487,0.08c0.291,0.03,0.676,0.081,1.062,0.06
					c0.192,0.005,0.386,0.004,0.565-0.024c0.18-0.022,0.354-0.015,0.495-0.053c0.29-0.045,0.493-0.062,0.493-0.062
					s-0.178,0.086-0.461,0.198c-0.283,0.104-0.686,0.185-1.092,0.188c-0.203,0.007-0.404-0.026-0.592-0.046
					c-0.188-0.025-0.358-0.084-0.503-0.126C37.062,19.481,36.894,19.369,36.894,19.369z"/>
			</g>
			<g>
				<path fill="#2A3757" d="M33.596,19.369c0,0-0.123,0.105-0.346,0.204c-0.113,0.042-0.246,0.097-0.396,0.124
					c-0.151,0.019-0.312,0.053-0.476,0.044c-0.326-0.003-0.648-0.083-0.866-0.184c-0.219-0.107-0.354-0.188-0.354-0.188
					s0.162,0.022,0.389,0.07c0.11,0.038,0.248,0.035,0.389,0.057c0.141,0.028,0.292,0.032,0.444,0.026
					c0.303,0.021,0.604-0.031,0.833-0.066C33.441,19.418,33.596,19.369,33.596,19.369z"/>
			</g>
			<g>
				<path fill="#E8EFFF" d="M35.393,26.912c0,0,0.67,0.416,1.62,0"/>
				<path fill="#2A3757" d="M35.393,26.912c0,0,0.105,0.029,0.257,0.051c0.153,0.017,0.351,0.051,0.55,0.033
					c0.198,0.01,0.398-0.027,0.551-0.05c0.152-0.025,0.263-0.034,0.263-0.034s-0.087,0.061-0.231,0.138
					c-0.144,0.074-0.359,0.134-0.579,0.138c-0.11,0.005-0.22-0.016-0.321-0.032c-0.101-0.017-0.189-0.062-0.264-0.09
					C35.469,26.99,35.393,26.912,35.393,26.912z"/>
			</g>
			<g>
				<path fill="#2A3757" d="M34.275,25.754c0,0,0.963-0.104,1.927-0.096c0.964-0.008,1.927,0.096,1.927,0.096
					s-0.963,0.104-1.927,0.096C35.238,25.857,34.275,25.754,34.275,25.754z"/>
			</g>
			<g>
				<path fill="#2A3757" d="M34.727,23.57c0,0,0.082,0.125,0.255,0.233c0.083,0.062,0.19,0.107,0.311,0.151
					c0.11,0.062,0.255,0.067,0.383,0.106c0.132,0.034,0.272,0.039,0.4,0.06c0.128,0.023,0.252,0.022,0.356,0.029
					c0.212,0.017,0.357,0.039,0.357,0.039s-0.139,0.034-0.354,0.069c-0.215,0.047-0.508,0.03-0.799-0.01
					c-0.141-0.05-0.29-0.066-0.412-0.143c-0.13-0.057-0.232-0.141-0.312-0.221c-0.082-0.077-0.126-0.163-0.152-0.222
					C34.732,23.605,34.727,23.57,34.727,23.57z"/>
			</g>
		</g>
		<path fill="#E8EFFF" d="M9.28,71.145c1.404,0.453,2.89,0.695,4.428,0.695c8.633,0,15.631-7.654,15.631-17.098
			c0-9.445-6.998-17.1-15.631-17.1c-1.538,0-3.023,0.244-4.428,0.697V71.145z"/>
		<path fill="#DCE3F2" d="M9.28,70.398c1.399,0.473,2.886,0.729,4.428,0.729c8.272,0,14.978-7.336,14.978-16.385
			S21.98,38.355,13.708,38.355c-1.542,0-3.028,0.256-4.428,0.73V70.398z"/>
		<path fill="#AA7941" d="M9.28,66.84c1.369,0.6,2.862,0.934,4.428,0.934c6.579,0,11.912-5.834,11.912-13.031
			s-5.333-13.033-11.912-13.033c-1.565,0-3.059,0.334-4.428,0.936V66.84z"/>
		<path fill="#BF9B4D" d="M9.28,65.463c1.351,0.668,2.849,1.045,4.428,1.045c5.939,0,10.755-5.27,10.755-11.766
			c0-6.498-4.815-11.766-10.755-11.766c-1.579,0-3.077,0.375-4.428,1.045V65.463z"/>
		<path fill="#E8EFFF" d="M9.28,61.471c1.246,0.982,2.774,1.562,4.428,1.562c4.187,0,7.58-3.713,7.58-8.291
			c0-4.58-3.394-8.293-7.58-8.293c-1.653,0-3.182,0.58-4.428,1.564V61.471z"/>
		<path fill="#AA292E" d="M9.28,60.941c1.221,1.047,2.758,1.67,4.428,1.67c3.974,0,7.194-3.523,7.194-7.869
			c0-4.348-3.221-7.871-7.194-7.871c-1.67,0-3.207,0.625-4.428,1.67V60.941z"/>
		<path fill="#AA7941" d="M9.28,55.939c0.251,0.164,0.497,0.336,0.737,0.514l0,0c0.245,0.18,0.485,0.367,0.72,0.562h0.001
			c0.232,0.193,0.46,0.395,0.682,0.6c0.002,0.002,0.003,0.004,0.005,0.006c0.219,0.203,0.432,0.414,0.639,0.629
			c0.005,0.006,0.01,0.01,0.015,0.016c0.027-0.225,0.06-0.447,0.098-0.668c0.006-0.039,0.015-0.076,0.021-0.115
			c0.031-0.176,0.064-0.352,0.102-0.527c0.001-0.004,0.002-0.01,0.004-0.014c0.014-0.064,0.029-0.127,0.044-0.191
			c0.031-0.137,0.062-0.271,0.097-0.406c0.008-0.025,0.014-0.053,0.021-0.078c0.016-0.064,0.035-0.127,0.053-0.189
			c0.035-0.129,0.071-0.256,0.109-0.383c0.009-0.025,0.017-0.051,0.023-0.076c0.021-0.062,0.042-0.127,0.062-0.189
			c0.042-0.129,0.084-0.258,0.129-0.385c0.029-0.084,0.062-0.164,0.093-0.246c0.045-0.123,0.091-0.246,0.14-0.367
			c0.034-0.084,0.07-0.166,0.105-0.248c0.05-0.119,0.1-0.234,0.152-0.352c0.038-0.084,0.079-0.166,0.118-0.25
			c0.054-0.113,0.107-0.227,0.163-0.338c0.043-0.082,0.087-0.166,0.131-0.248c0.05-0.094,0.101-0.188,0.151-0.281
			c0.011-0.02,0.021-0.037,0.031-0.057c0.044-0.078,0.09-0.156,0.135-0.232c0.048-0.082,0.096-0.162,0.144-0.242
			c0.027-0.047,0.056-0.092,0.084-0.137c0.037-0.061,0.074-0.119,0.112-0.178c0.056-0.088,0.112-0.174,0.169-0.26
			c0.04-0.061,0.082-0.119,0.123-0.18c0.023-0.033,0.046-0.068,0.07-0.102c0.067-0.096,0.135-0.191,0.204-0.287
			c0.067-0.09,0.135-0.18,0.203-0.27c0.064-0.084,0.129-0.168,0.195-0.25c0.031-0.039,0.063-0.078,0.096-0.117
			c0.057-0.068,0.113-0.139,0.171-0.205c0.049-0.059,0.098-0.117,0.148-0.176c0.048-0.055,0.098-0.111,0.146-0.166
			c0.08-0.09,0.162-0.178,0.243-0.266c0.015-0.016,0.029-0.031,0.044-0.047c0.064-0.068,0.129-0.137,0.195-0.205
			c0.101-0.104,0.202-0.205,0.307-0.305c0.054-0.053,0.107-0.105,0.162-0.156c0.042-0.039,0.085-0.078,0.127-0.117
			c0.093-0.086,0.188-0.172,0.283-0.256c0.023-0.02,0.046-0.041,0.069-0.062c0.068-0.059,0.139-0.117,0.208-0.176
			c0.107-0.09,0.215-0.18,0.325-0.268c0.08-0.064,0.162-0.127,0.244-0.189c0.078-0.061,0.155-0.119,0.234-0.176
			c0.096-0.072,0.193-0.141,0.291-0.209c0.078-0.055,0.158-0.111,0.238-0.166c0.1-0.066,0.201-0.131,0.303-0.197
			c0.08-0.051,0.16-0.104,0.242-0.154c0.104-0.064,0.209-0.125,0.314-0.186c0.082-0.049,0.162-0.098,0.245-0.145
			c0.108-0.061,0.218-0.117,0.328-0.176c0.081-0.043,0.163-0.088,0.246-0.129c0.113-0.059,0.229-0.113,0.344-0.168
			c0.081-0.039,0.161-0.078,0.242-0.115c0.123-0.057,0.246-0.107,0.37-0.16c0.077-0.033,0.152-0.066,0.229-0.098
			c0.138-0.057,0.276-0.107,0.416-0.16c0.065-0.023,0.13-0.051,0.195-0.074c0.179-0.062,0.359-0.123,0.541-0.18
			c0.027-0.008,0.055-0.02,0.082-0.027c0.212-0.064,0.424-0.127,0.639-0.182c0.032-0.01,0.064-0.016,0.096-0.023
			c0.182-0.047,0.364-0.092,0.549-0.131c0.066-0.014,0.134-0.025,0.201-0.039c0.15-0.031,0.301-0.061,0.452-0.086
			c0.079-0.014,0.16-0.025,0.239-0.037c0.378-0.059,0.758-0.105,1.143-0.135c-2.844-4.252-7.438-7.014-12.623-7.014
			c-1.532,0-3.013,0.242-4.413,0.693V55.939z"/>
		<path fill="#BF9B4D" d="M9.28,54.762c0.16,0.52,0.38,0.918,0.681,1.141c0.562,0.605,1.323,1.068,1.904,1.676
			c0.824-6.646,6.472-12.994,13.164-13.506c-3.747-5.604-15.308-9.918-15.749-0.844V54.762z"/>
		<polygon fill="#1F2D6C" points="9.28,55.273 9.28,66.432 15.024,71.75 20.873,68.412 		"/>
		<path fill="#0B050F" d="M22.129,68.146c0,0-12.543-14.441-12.849-14.602v2.234l10.506,12.633L22.129,68.146z"/>
		<path fill="#0B050F" d="M37.952,86.141c0,0,5.178-11.443,4.376-15.131c-0.801-3.688-8.172,6.748-8.172,6.748L37.952,86.141z"/>
		<path fill="#AA292E" d="M33.503,96.619c0,0,8.228-1.971,12.002-13.359s2.047-15.758,2.047-15.758l-5.734,4.01
			c0,0,0.525,5.383-3.409,14.691s-4.905,8.459-4.905,8.459V96.619z"/>
		<path fill="#BF9B4D" d="M28.789,95.621c0,0,8.227-1.971,12.002-13.359c3.774-11.387,1.962-13.445,1.962-13.445l-1.663,0.369
			c0,0,2.099,3.703-1.835,13.012c-3.935,9.311-10.466,11.467-10.466,11.467V95.621z"/>
		<path fill="#AA7941" d="M41.409,72.477l5.119-3.902c0,0-14.843-5.402-32.181,1.246l4.149,5.119L41.409,72.477z"/>
		<path fill="#BF9B4D" d="M40.387,73.279l5.118-3.902c0,0-13.819-5.111-31.157,1.539l4.149,5.119L40.387,73.279z"/>
		<path fill="#DCE3F2" d="M36.76,77.709c0-0.102,0.939-2.83,3.627-4.43c0,0-13.518-2.436-21.89,1.662c0,0,1.289,8.299,5.319,6.58
			C27.847,79.805,36.76,77.709,36.76,77.709z"/>
		<path fill="#E8EFFF" d="M38.261,88.307c0,0,0.34-3.027,0-3.477c-0.34-0.447-0.404-0.801-0.276-1.537s0.128-4.293-0.448-5.061
			c-0.576-0.77-3.011-5.414-4.677-5.445c-1.665-0.033-8.681,2.85-8.776,6.598c0,0-0.513-0.672-1.185-0.289
			c-0.674,0.385-0.77,3.172-0.77,3.172s5.739,12.525,11.374,11.98C33.503,94.248,38.281,90.822,38.261,88.307z"/>
		<path fill="#0B050F" d="M33.503,96.619c0,0-5.96,1.598-10.602-3.348C18.26,88.324,13.161,76.455,9.28,75.16v-4.9
			c0,0,9.436,4.824,11.719,12.281C23.282,90,33.503,96.619,33.503,96.619z"/>
		<path fill="#D28537" d="M33.503,94c0,0-1.526-6.717-8.07-6.945C23.605,88.805,29.614,94,29.614,94s1.239,0.984,3.889,0.662V94z"/>
		<path fill="#AA292E" d="M33.503,94.662c0,0-6.33-1.625-11.579-14.541C13.01,65.719,9.28,66.432,9.28,66.432v3.828
			c0,0,6.468,5.205,10.425,12.357c3.957,7.154,6.593,14.002,13.798,14.002V94.662z"/>
		<path fill="#BF9B4D" d="M33.503,96.619c0,0,8.228-1.971,12.002-13.359s2.047-15.758,2.047-15.758l-1.513,0.91
			c0,0,1.864,5.475-2.07,14.783c-3.934,9.311-10.466,11.467-10.466,11.467V96.619z"/>
		<path fill="#BD7831" d="M33.503,94c0,0,1.012-4.324,4.916-5.754c0,0,1.22,7.043-4.916,6.416V94z"/>
		<g>
			<path fill="#D28537" d="M38.291,85.314c0,0-0.176,0.095-0.459,0.195c-0.281,0.107-0.674,0.205-1.078,0.252
				c-0.401,0.075-0.822,0.055-1.111-0.061C35.35,85.59,35.18,85.47,35.18,85.47l0.01-0.037c0,0,0.215-0.041,0.502-0.032
				c0.143,0.02,0.312-0.014,0.488,0.006c0.176,0.029,0.365,0.036,0.559,0.049c0.77,0.028,1.539-0.176,1.539-0.176L38.291,85.314z"/>
		</g>
		<g>
			<path fill="#D28537" d="M28.795,85.438c0-0.001,1.004,0.193,2.005,0.157c0.25-0.015,0.498-0.025,0.729-0.056
				c0.23-0.019,0.451,0.018,0.637,0.001c0.375,0,0.646,0.051,0.646,0.051l0.009,0.043c0,0-0.231,0.131-0.61,0.251
				c-0.188,0.063-0.416,0.089-0.66,0.109c-0.245,0.017-0.505-0.024-0.764-0.05c-0.517-0.051-1.025-0.15-1.395-0.262
				c-0.372-0.105-0.609-0.203-0.609-0.204L28.795,85.438z"/>
		</g>
		<g>
			<path fill="#2A3757" d="M32.229,84.316c0,0-0.196-0.046-0.488-0.081c-0.291-0.03-0.676-0.08-1.062-0.06
				c-0.193-0.005-0.386-0.003-0.565,0.025c-0.18,0.021-0.354,0.015-0.496,0.052c-0.29,0.046-0.493,0.063-0.493,0.063
				s0.178-0.087,0.461-0.198c0.283-0.104,0.686-0.186,1.092-0.188c0.203-0.008,0.405,0.025,0.593,0.045
				C31.46,84,31.63,84.06,31.774,84.101C32.061,84.204,32.229,84.316,32.229,84.316z"/>
		</g>
		<g>
			<path fill="#2A3757" d="M35.526,84.316c0,0,0.123-0.105,0.347-0.205c0.111-0.041,0.246-0.097,0.396-0.123
				c0.151-0.02,0.312-0.054,0.476-0.045c0.326,0.003,0.648,0.083,0.867,0.185c0.218,0.107,0.353,0.188,0.353,0.188
				s-0.162-0.022-0.39-0.07c-0.109-0.038-0.248-0.036-0.389-0.058c-0.141-0.028-0.292-0.031-0.443-0.026
				c-0.303-0.02-0.604,0.032-0.834,0.066C35.68,84.268,35.526,84.316,35.526,84.316z"/>
		</g>
		<g>
			<path fill="#E8EFFF" d="M33.729,76.771c0,0-0.67-0.416-1.62,0"/>
			<path fill="#2A3757" d="M33.729,76.771c0,0-0.104-0.029-0.257-0.051c-0.153-0.017-0.351-0.051-0.55-0.033
				c-0.198-0.01-0.399,0.027-0.55,0.05c-0.152,0.025-0.263,0.034-0.263,0.034s0.087-0.061,0.231-0.138
				c0.144-0.074,0.359-0.134,0.579-0.138c0.11-0.005,0.219,0.016,0.321,0.032c0.101,0.017,0.189,0.062,0.265,0.09
				C33.652,76.693,33.729,76.771,33.729,76.771z"/>
		</g>
		<g>
			<path fill="#2A3757" d="M34.847,77.93c0,0-0.964,0.104-1.927,0.096c-0.963,0.008-1.927-0.096-1.927-0.096
				s0.963-0.104,1.927-0.096C33.883,77.826,34.847,77.93,34.847,77.93z"/>
		</g>
		<g>
			<path fill="#2A3757" d="M34.396,80.113c0,0-0.082-0.125-0.255-0.233c-0.082-0.062-0.19-0.107-0.311-0.151
				c-0.109-0.062-0.254-0.068-0.383-0.106c-0.132-0.034-0.272-0.039-0.4-0.06c-0.128-0.023-0.251-0.022-0.357-0.029
				c-0.211-0.017-0.357-0.039-0.357-0.039s0.139-0.034,0.354-0.069c0.214-0.047,0.507-0.03,0.799,0.01
				c0.141,0.05,0.289,0.066,0.412,0.143c0.129,0.056,0.232,0.141,0.312,0.221c0.08,0.077,0.125,0.163,0.151,0.222
				C34.39,80.078,34.396,80.113,34.396,80.113z"/>
		</g>
	</g>
</g>
</svg>
