<?xml version="1.0" encoding="utf-8"?>
<!-- Generator: Adobe Illustrator 16.0.0, SVG Export Plug-In . SVG Version: 6.00 Build 0)  -->
<!DOCTYPE svg PUBLIC "-//W3C//DTD SVG 1.1//EN" "http://www.w3.org/Graphics/SVG/1.1/DTD/svg11.dtd">
<svg version="1.1" id="Layer_1" xmlns="http://www.w3.org/2000/svg" xmlns:xlink="http://www.w3.org/1999/xlink" x="0px" y="0px"
	 width="69.12px" height="103.69px" viewBox="0 0 69.12 103.69" enable-background="new 0 0 69.12 103.69" xml:space="preserve">
<g>
	<g>
		<path fill="#F2F2F2" d="M69.122,100.963c0,1.502-1.219,2.721-2.721,2.721H2.722c-1.504,0-2.722-1.219-2.722-2.721V2.721
			C0,1.219,1.218,0,2.722,0h63.68c1.502,0,2.721,1.219,2.721,2.721V100.963z"/>
		<g>
			<path fill="#333333" d="M8.94,13.775c-0.452-0.373-0.922-0.756-1.28-1.182c-0.061-0.072-0.15-0.111-0.242-0.111H7.399
				c-0.093,0-0.183,0.039-0.243,0.111c-0.358,0.426-0.828,0.809-1.28,1.182c-0.959,0.783-1.949,1.596-1.949,2.854
				c0,1.139,0.797,1.936,1.939,1.936c0.552,0,1.033-0.324,1.36-0.621c-0.157,0.67-0.45,1.465-1.004,2.088h2.37
				c-0.555-0.625-0.848-1.42-1.005-2.092c0.327,0.299,0.809,0.625,1.361,0.625c1.142,0,1.94-0.797,1.94-1.936
				C10.89,15.373,9.897,14.561,8.94,13.775z"/>
			<path fill="#4D4D4D" d="M7.399,20.031v-7.549l0,0c-0.093,0-0.183,0.039-0.243,0.111c-0.358,0.426-0.828,0.809-1.28,1.182
				c-0.959,0.783-1.949,1.596-1.949,2.854c0,1.139,0.797,1.936,1.939,1.936c0.552,0,1.033-0.324,1.36-0.621
				c-0.157,0.67-0.45,1.465-1.004,2.088H7.399z"/>
		</g>
		<rect x="2.721" y="2.721" fill="none" width="9.374" height="9.762"/>
		<text transform="matrix(1 0 0 1 3.6577 10.4492)" fill="#333333" font-family="'ChunkFive'" font-size="10.8856">Q</text>
		<g>
			<path fill="#333333" d="M60.182,89.908c0.452,0.373,0.922,0.756,1.28,1.182c0.061,0.072,0.149,0.111,0.242,0.111h0.019
				c0.093,0,0.183-0.039,0.243-0.111c0.358-0.426,0.828-0.809,1.28-1.182c0.959-0.783,1.949-1.596,1.949-2.854
				c0-1.141-0.797-1.936-1.939-1.936c-0.552,0-1.033,0.324-1.36,0.621c0.157-0.672,0.45-1.465,1.004-2.088h-2.37
				c0.555,0.623,0.848,1.42,1.005,2.092c-0.327-0.299-0.809-0.625-1.361-0.625c-1.142,0-1.94,0.795-1.94,1.936
				C58.232,88.311,59.225,89.123,60.182,89.908z"/>
			<path fill="#4D4D4D" d="M61.723,83.652v7.549l0,0c0.093,0,0.183-0.039,0.243-0.111c0.358-0.426,0.828-0.809,1.28-1.182
				c0.959-0.783,1.949-1.596,1.949-2.854c0-1.141-0.797-1.936-1.939-1.936c-0.552,0-1.033,0.324-1.36,0.621
				c0.157-0.672,0.45-1.465,1.004-2.088H61.723z"/>
		</g>
		<rect x="57.026" y="91.201" fill="none" width="9.375" height="9.762"/>
		<text transform="matrix(-1 0 0 -1 65.4639 93.2344)" fill="#333333" font-family="'ChunkFive'" font-size="10.8856">Q</text>
	</g>
	<g>
		<rect x="29.92" y="44.479" fill="#1F2D6C" width="4.062" height="1.375"/>
		<rect x="30.273" y="43.104" fill="#AA292E" width="4.062" height="1.375"/>
		<rect x="30.874" y="41.727" fill="#1F2D6C" width="4.062" height="1.377"/>
		<rect x="31.228" y="40.352" fill="#AA292E" width="4.062" height="1.375"/>
		<rect x="31.827" y="38.977" fill="#1F2D6C" width="4.063" height="1.375"/>
		<rect x="32.181" y="37.602" fill="#AA292E" width="4.063" height="1.375"/>
		<rect x="32.781" y="36.225" fill="#1F2D6C" width="4.062" height="1.377"/>
		<polygon fill="#333333" points="34.336,45.912 37.309,38.209 45.019,37.664 40.604,46.488 		"/>
		<polygon fill="#333333" points="24.744,45.418 23.665,36.898 31.52,37.258 31.647,40.395 28.944,45.984 		"/>
		<path fill="#0B050F" d="M33.694,36.738l-3.486,9.02l-2.56-0.34c0,0,3.583-4.715,3.023-6.506c-0.561-1.791-4.702-0.703-4.702-0.703
			l-1.775-3.176L33.694,36.738z"/>
		<path fill="#0B050F" d="M33.134,45.984l3.407-9.15l8.701-0.652l-1.148,2.604c0,0-4.737-0.896-6.113,0.223
			c-1.375,1.121-2.687,6.846-2.687,6.846L33.134,45.984z"/>
		<path fill="#0B050F" d="M41.529,49.219c-7.104,0.309-17.335-0.617-17.335-0.617v-3.184c0,0,10.231,0.926,17.335,0.617"/>
		<path fill="none" stroke="#AA7941" stroke-width="0.7677" stroke-miterlimit="10" d="M24.194,45.418
			c0,0,10.231,0.926,17.335,0.617"/>
		<path fill="none" stroke="#AA7941" stroke-width="0.7677" stroke-miterlimit="10" d="M24.194,48.602
			c0,0,10.231,0.926,17.335,0.617"/>
		<path fill="#DCE3F2" d="M18.562,39.025l4.893-4.492c0,0,3.861,1.994,3.397,5.965c-0.465,3.969-2.605,5.355-2.605,5.355
			L18.562,39.025z"/>
		<path fill="#0B050F" d="M18.562,39.027l4.352-3.994c0,0,3.434,1.773,3.021,5.305c-0.412,3.529-2.316,4.764-2.316,4.764
			L18.562,39.027z"/>
		<path fill="#1F2D6C" d="M18.562,39.033l3.632-3.334c0,0,2.866,1.48,2.521,4.428c-0.345,2.945-1.934,3.975-1.934,3.975
			L18.562,39.033z"/>
		<g>
			<rect x="35.14" y="57.83" fill="#1F2D6C" width="4.062" height="1.375"/>
			<rect x="34.786" y="59.205" fill="#AA292E" width="4.063" height="1.375"/>
			<rect x="34.186" y="60.58" fill="#1F2D6C" width="4.063" height="1.375"/>
			<rect x="33.833" y="61.955" fill="#AA292E" width="4.062" height="1.375"/>
			<rect x="33.232" y="63.33" fill="#1F2D6C" width="4.062" height="1.377"/>
			<rect x="32.879" y="64.707" fill="#AA292E" width="4.062" height="1.375"/>
			<rect x="32.279" y="66.082" fill="#1F2D6C" width="4.062" height="1.375"/>
			<polygon fill="#333333" points="34.786,57.771 31.813,65.475 24.104,66.018 28.519,57.193 			"/>
			<polygon fill="#333333" points="44.378,58.266 45.457,66.785 37.603,66.426 37.476,63.287 40.178,57.699 			"/>
			<path fill="#0B050F" d="M35.428,66.945l3.486-9.02l2.56,0.34c0,0-3.583,4.713-3.022,6.504c0.56,1.793,4.702,0.705,4.702,0.705
				l1.775,3.176L35.428,66.945z"/>
			<path fill="#0B050F" d="M35.988,57.699l-3.407,9.15L23.88,67.5l1.149-2.602c0,0,4.736,0.896,6.112-0.225
				c1.376-1.119,2.687-6.844,2.687-6.844L35.988,57.699z"/>
			<path fill="#0B050F" d="M27.594,54.465c7.104-0.309,17.335,0.617,17.335,0.617v3.184c0,0-10.231-0.926-17.335-0.617"/>
			<path fill="none" stroke="#AA7941" stroke-width="0.7677" stroke-miterlimit="10" d="M44.929,58.266
				c0,0-10.231-0.926-17.335-0.617"/>
			<path fill="none" stroke="#AA7941" stroke-width="0.7677" stroke-miterlimit="10" d="M44.929,55.082
				c0,0-10.231-0.926-17.335-0.617"/>
			<path fill="#E8EFFF" d="M9.28,71.143c1.404,0.453,2.89,0.697,4.428,0.697c8.633,0,15.631-7.654,15.631-17.1
				c0-9.443-6.998-17.098-15.631-17.098c-1.538,0-3.023,0.244-4.428,0.695V71.143z"/>
			<path fill="#DCE3F2" d="M9.28,70.398c1.399,0.473,2.886,0.727,4.428,0.727c8.272,0,14.978-7.334,14.978-16.385
				c0-9.049-6.705-16.385-14.978-16.385c-1.542,0-3.028,0.256-4.428,0.729V70.398z"/>
			<path fill="#AA7941" d="M9.28,66.84c1.369,0.6,2.862,0.934,4.428,0.934c6.579,0,11.912-5.836,11.912-13.033
				s-5.333-13.031-11.912-13.031c-1.565,0-3.059,0.334-4.428,0.934V66.84z"/>
			<path fill="#BF9B4D" d="M9.28,65.461c1.351,0.67,2.849,1.045,4.428,1.045c5.939,0,10.754-5.268,10.754-11.766
				c0-6.496-4.814-11.764-10.754-11.764c-1.579,0-3.077,0.375-4.428,1.043V65.461z"/>
			<path fill="#E8EFFF" d="M9.28,61.469c1.246,0.984,2.774,1.564,4.428,1.564c4.187,0,7.58-3.713,7.58-8.293
				c0-4.578-3.394-8.291-7.58-8.291c-1.653,0-3.182,0.58-4.428,1.562V61.469z"/>
			<path fill="#333333" d="M9.28,60.941c1.221,1.045,2.758,1.67,4.428,1.67c3.974,0,7.194-3.523,7.194-7.871
				c0-4.346-3.221-7.869-7.194-7.869c-1.67,0-3.207,0.625-4.428,1.67V60.941z"/>
			<path fill="#AA7941" d="M9.28,55.939c0.251,0.164,0.497,0.336,0.737,0.512l0,0c0.245,0.182,0.485,0.369,0.72,0.564h0.001
				c0.233,0.193,0.46,0.395,0.682,0.6c0.002,0.002,0.003,0.004,0.005,0.006c0.219,0.203,0.432,0.414,0.639,0.629
				c0.005,0.006,0.01,0.01,0.015,0.016c0.027-0.225,0.06-0.447,0.098-0.668c0.006-0.039,0.015-0.076,0.021-0.115
				c0.031-0.176,0.064-0.354,0.102-0.527c0.001-0.006,0.002-0.01,0.004-0.016c0.013-0.062,0.029-0.127,0.044-0.189
				c0.031-0.137,0.062-0.271,0.097-0.406c0.008-0.025,0.015-0.053,0.021-0.078c0.016-0.064,0.035-0.127,0.053-0.189
				c0.035-0.129,0.071-0.256,0.11-0.383c0.007-0.025,0.016-0.051,0.022-0.076c0.021-0.064,0.042-0.127,0.062-0.189
				c0.042-0.129,0.084-0.258,0.129-0.387c0.029-0.082,0.062-0.164,0.093-0.246c0.045-0.121,0.091-0.244,0.14-0.365
				c0.034-0.084,0.07-0.166,0.105-0.25c0.05-0.117,0.1-0.234,0.152-0.35c0.038-0.084,0.079-0.166,0.118-0.25
				c0.054-0.113,0.107-0.227,0.163-0.338c0.043-0.082,0.087-0.166,0.131-0.248c0.05-0.094,0.101-0.188,0.151-0.281
				c0.011-0.02,0.021-0.039,0.031-0.057c0.044-0.078,0.09-0.156,0.135-0.234c0.048-0.08,0.096-0.162,0.144-0.242
				c0.027-0.045,0.056-0.09,0.084-0.135c0.037-0.061,0.074-0.119,0.112-0.18c0.056-0.086,0.112-0.172,0.169-0.258
				c0.04-0.061,0.082-0.121,0.123-0.18c0.023-0.033,0.046-0.068,0.07-0.102c0.067-0.098,0.135-0.193,0.205-0.287
				c0.066-0.092,0.134-0.18,0.202-0.27c0.064-0.084,0.129-0.168,0.195-0.25c0.031-0.039,0.063-0.078,0.096-0.117
				c0.057-0.068,0.113-0.139,0.171-0.207c0.049-0.059,0.098-0.115,0.148-0.174c0.049-0.055,0.098-0.111,0.146-0.166
				c0.08-0.09,0.162-0.178,0.243-0.266c0.015-0.018,0.029-0.033,0.044-0.049c0.064-0.068,0.129-0.137,0.195-0.203
				c0.101-0.104,0.203-0.205,0.307-0.305c0.054-0.053,0.107-0.105,0.162-0.156c0.042-0.039,0.085-0.078,0.127-0.117
				c0.093-0.086,0.188-0.172,0.283-0.256c0.023-0.021,0.047-0.043,0.069-0.062c0.068-0.061,0.139-0.117,0.208-0.176
				c0.107-0.09,0.215-0.18,0.325-0.268c0.08-0.064,0.162-0.127,0.244-0.189c0.078-0.061,0.155-0.119,0.234-0.178
				c0.096-0.07,0.193-0.139,0.291-0.207c0.078-0.055,0.158-0.111,0.238-0.166c0.1-0.066,0.201-0.133,0.302-0.197
				c0.081-0.051,0.161-0.104,0.243-0.154c0.104-0.064,0.209-0.125,0.314-0.188c0.081-0.047,0.162-0.096,0.245-0.143
				c0.108-0.061,0.218-0.117,0.328-0.176c0.081-0.043,0.163-0.088,0.246-0.131c0.113-0.057,0.229-0.111,0.344-0.166
				c0.081-0.039,0.161-0.078,0.242-0.115c0.123-0.057,0.246-0.107,0.37-0.16c0.077-0.033,0.152-0.068,0.229-0.1
				c0.138-0.055,0.276-0.105,0.416-0.158c0.065-0.025,0.13-0.051,0.195-0.074c0.179-0.064,0.359-0.123,0.541-0.18
				c0.027-0.01,0.055-0.02,0.082-0.027c0.212-0.066,0.424-0.127,0.639-0.184c0.032-0.008,0.064-0.014,0.096-0.021
				c0.182-0.047,0.364-0.092,0.549-0.131c0.066-0.016,0.135-0.025,0.201-0.039c0.15-0.031,0.301-0.061,0.452-0.088
				c0.079-0.014,0.16-0.023,0.239-0.035c0.378-0.059,0.758-0.105,1.143-0.135c-2.844-4.252-7.438-7.014-12.623-7.014
				c-1.532,0-3.013,0.242-4.413,0.691V55.939z"/>
			<path fill="#BF9B4D" d="M9.28,54.76c0.16,0.521,0.38,0.92,0.681,1.143c0.562,0.605,1.323,1.068,1.904,1.676
				c0.824-6.646,6.472-12.994,13.164-13.506c-3.747-5.604-15.308-9.918-15.749-0.846V54.76z"/>
			<path fill="#0B050F" d="M37.952,86.141c0,0,5.178-11.443,4.376-15.131c-0.801-3.688-8.171,6.748-8.171,6.748L37.952,86.141z"/>
			<path fill="#333333" d="M33.503,96.619c0,0,8.227-1.973,12.001-13.359c3.775-11.389,2.048-15.76,2.048-15.76l-5.734,4.012
				c0,0,0.525,5.381-3.409,14.691c-3.935,9.309-4.905,8.457-4.905,8.457V96.619z"/>
			<path fill="#BF9B4D" d="M28.789,95.621c0,0,8.227-1.973,12.001-13.359c3.774-11.389,1.963-13.445,1.963-13.445l-1.663,0.369
				c0,0,2.099,3.703-1.835,13.012c-3.935,9.309-10.466,11.467-10.466,11.467V95.621z"/>
			<polygon fill="#1F2D6C" points="9.28,55.273 9.28,66.432 15.024,71.75 20.873,68.412 			"/>
			<path fill="#0B050F" d="M22.129,68.145c0,0-12.543-14.439-12.849-14.6v2.234l10.506,12.633L22.129,68.145z"/>
			<path fill="#AA7941" d="M41.409,72.477l5.119-3.902c0,0-14.843-5.404-32.181,1.246l4.149,5.119L41.409,72.477z"/>
			<path fill="#BF9B4D" d="M40.387,73.279l5.117-3.902c0,0-13.818-5.111-31.156,1.539l4.149,5.119L40.387,73.279z"/>
			<path fill="#DCE3F2" d="M36.76,77.709c0-0.102,0.939-2.83,3.627-4.43c0,0-13.518-2.436-21.89,1.66c0,0,1.289,8.301,5.319,6.582
				C27.847,79.805,36.76,77.709,36.76,77.709z"/>
			<path fill="#E8EFFF" d="M38.261,88.307c0,0,0.34-3.029,0-3.477c-0.34-0.449-0.404-0.801-0.276-1.537
				c0.128-0.738,0.128-4.293-0.448-5.061c-0.576-0.77-3.011-5.414-4.677-5.445c-1.665-0.033-8.681,2.85-8.776,6.598
				c0,0-0.513-0.672-1.185-0.289c-0.674,0.385-0.77,3.172-0.77,3.172s5.739,12.523,11.374,11.979
				C33.503,94.246,38.28,90.822,38.261,88.307z"/>
			<path fill="#0B050F" d="M33.503,96.619c0,0-5.96,1.598-10.602-3.348C18.26,88.324,13.161,76.453,9.28,75.16v-4.9
				c0,0,9.436,4.824,11.719,12.281S33.503,96.619,33.503,96.619z"/>
			<path fill="#D28537" d="M33.503,93.998c0,0-1.526-6.715-8.07-6.943c-1.826,1.75,4.182,6.943,4.182,6.943s1.239,0.986,3.889,0.662
				V93.998z"/>
			<path fill="#333333" d="M33.503,94.66c0,0-6.33-1.625-11.579-14.539C13.01,65.719,9.28,66.432,9.28,66.432v3.828
				c0,0,6.468,5.205,10.425,12.357c3.957,7.154,6.593,14.002,13.798,14.002V94.66z"/>
			<path fill="#BF9B4D" d="M33.503,96.619c0,0,8.227-1.973,12.001-13.359c3.775-11.389,2.048-15.76,2.048-15.76l-1.513,0.912
				c0,0,1.864,5.475-2.07,14.783S33.503,94.66,33.503,94.66V96.619z"/>
			<path fill="#BD7831" d="M33.503,93.998c0,0,1.012-4.322,4.916-5.752c0,0,1.22,7.043-4.916,6.414V93.998z"/>
			<path fill="#DCE3F2" d="M50.56,64.658l-4.893,4.492c0,0-3.861-1.996-3.396-5.965c0.464-3.969,2.604-5.355,2.604-5.355
				L50.56,64.658z"/>
			<path fill="#0B050F" d="M50.56,64.654l-4.352,3.996c0,0-3.434-1.775-3.021-5.305c0.413-3.531,2.316-4.764,2.316-4.764
				L50.56,64.654z"/>
			<path fill="#1F2D6C" d="M50.56,64.65l-3.632,3.334c0,0-2.866-1.48-2.521-4.428c0.344-2.947,1.934-3.977,1.934-3.977L50.56,64.65z
				"/>
			<g>
				<path fill="#D28537" d="M38.291,85.314c0,0-0.176,0.095-0.459,0.195c-0.281,0.107-0.674,0.205-1.078,0.252
					c-0.401,0.075-0.822,0.055-1.111-0.061C35.35,85.59,35.18,85.47,35.18,85.47l0.01-0.037c0,0,0.216-0.041,0.502-0.032
					c0.143,0.02,0.312-0.014,0.488,0.006c0.176,0.029,0.365,0.036,0.559,0.049c0.77,0.028,1.539-0.176,1.539-0.176L38.291,85.314z"
					/>
			</g>
			<g>
				<path fill="#D28537" d="M28.795,85.438c0-0.001,1.004,0.192,2.005,0.156c0.25-0.016,0.498-0.026,0.729-0.057
					c0.23-0.019,0.451,0.018,0.637,0.001c0.375,0,0.646,0.051,0.646,0.051l0.009,0.043c0,0-0.231,0.131-0.61,0.251
					c-0.189,0.063-0.416,0.09-0.66,0.109c-0.245,0.017-0.506-0.024-0.764-0.049c-0.517-0.051-1.025-0.149-1.395-0.261
					c-0.372-0.105-0.609-0.203-0.609-0.204L28.795,85.438z"/>
			</g>
			<g>
				<path fill="#2A3757" d="M32.229,84.314c0,0-0.196-0.045-0.487-0.08c-0.292-0.03-0.676-0.08-1.062-0.06
					c-0.193-0.005-0.386-0.004-0.565,0.024c-0.18,0.021-0.354,0.015-0.495,0.053c-0.29,0.045-0.493,0.062-0.493,0.062
					s0.178-0.086,0.461-0.198c0.283-0.104,0.686-0.185,1.091-0.188c0.203-0.007,0.404,0.026,0.593,0.046
					c0.188,0.025,0.358,0.084,0.502,0.126C32.061,84.202,32.229,84.314,32.229,84.314z"/>
			</g>
			<g>
				<path fill="#2A3757" d="M35.526,84.314c0,0,0.123-0.105,0.347-0.204c0.112-0.042,0.246-0.097,0.396-0.124
					c0.151-0.019,0.312-0.053,0.476-0.044c0.326,0.003,0.648,0.083,0.866,0.184c0.219,0.107,0.354,0.188,0.354,0.188
					s-0.162-0.022-0.39-0.07c-0.109-0.038-0.248-0.035-0.389-0.057c-0.141-0.028-0.292-0.032-0.443-0.026
					c-0.303-0.021-0.604,0.031-0.834,0.066C35.68,84.266,35.526,84.314,35.526,84.314z"/>
			</g>
			<g>
				<path fill="#E8EFFF" d="M33.729,76.771c0,0-0.67-0.416-1.62,0"/>
				<path fill="#2A3757" d="M33.729,76.771c0,0-0.104-0.029-0.257-0.051c-0.153-0.017-0.351-0.051-0.55-0.033
					c-0.198-0.01-0.399,0.027-0.55,0.05c-0.152,0.025-0.263,0.034-0.263,0.034s0.087-0.061,0.231-0.138
					c0.144-0.074,0.359-0.134,0.579-0.138c0.11-0.005,0.219,0.016,0.321,0.032c0.101,0.017,0.189,0.062,0.265,0.09
					C33.652,76.693,33.729,76.771,33.729,76.771z"/>
			</g>
			<g>
				<path fill="#2A3757" d="M34.847,77.93c0,0-0.964,0.104-1.927,0.096c-0.963,0.008-1.927-0.096-1.927-0.096
					s0.963-0.104,1.927-0.096C33.883,77.826,34.847,77.93,34.847,77.93z"/>
			</g>
			<g>
				<path fill="#2A3757" d="M34.396,80.113c0,0-0.082-0.125-0.255-0.233c-0.082-0.062-0.19-0.107-0.311-0.151
					c-0.109-0.062-0.254-0.068-0.383-0.106c-0.132-0.034-0.272-0.039-0.4-0.06c-0.128-0.023-0.252-0.022-0.357-0.029
					c-0.211-0.017-0.357-0.039-0.357-0.039s0.139-0.034,0.354-0.069c0.214-0.047,0.507-0.03,0.799,0.01
					c0.141,0.05,0.29,0.066,0.413,0.143c0.129,0.056,0.232,0.141,0.312,0.221c0.08,0.077,0.125,0.163,0.151,0.222
					C34.39,80.078,34.396,80.113,34.396,80.113z"/>
			</g>
		</g>
		<path fill="#E8EFFF" d="M59.843,32.539c-1.404-0.451-2.891-0.697-4.428-0.697c-8.633,0-15.631,7.656-15.631,17.1
			c0,9.445,6.998,17.1,15.631,17.1c1.537,0,3.023-0.244,4.428-0.697V32.539z"/>
		<path fill="#DCE3F2" d="M59.843,33.285c-1.4-0.473-2.887-0.729-4.428-0.729c-8.272,0-14.979,7.336-14.979,16.385
			c0,9.051,6.706,16.385,14.979,16.385c1.541,0,3.027-0.256,4.428-0.729V33.285z"/>
		<path fill="#AA7941" d="M59.843,36.844c-1.37-0.6-2.862-0.934-4.428-0.934c-6.58,0-11.913,5.834-11.913,13.031
			s5.333,13.031,11.913,13.031c1.565,0,3.058-0.332,4.428-0.934V36.844z"/>
		<path fill="#BF9B4D" d="M59.843,38.221c-1.352-0.668-2.849-1.043-4.428-1.043c-5.94,0-10.756,5.268-10.756,11.764
			c0,6.498,4.815,11.766,10.756,11.766c1.579,0,3.076-0.375,4.428-1.045V38.221z"/>
		<path fill="#E8EFFF" d="M59.843,42.213c-1.247-0.982-2.774-1.564-4.428-1.564c-4.187,0-7.581,3.713-7.581,8.293
			s3.395,8.293,7.581,8.293c1.653,0,3.181-0.58,4.428-1.564V42.213z"/>
		<path fill="#333333" d="M59.843,42.742c-1.222-1.047-2.758-1.67-4.428-1.67c-3.975,0-7.194,3.523-7.194,7.869
			c0,4.348,3.22,7.871,7.194,7.871c1.67,0,3.206-0.625,4.428-1.67V42.742z"/>
		<path fill="#AA7941" d="M59.843,47.742c-0.251-0.162-0.497-0.334-0.738-0.512l0,0c-0.245-0.18-0.485-0.367-0.719-0.562h-0.001
			c-0.233-0.193-0.461-0.395-0.682-0.6c-0.002-0.002-0.004-0.004-0.006-0.006c-0.219-0.205-0.431-0.414-0.639-0.631
			c-0.005-0.004-0.009-0.008-0.014-0.014c-0.027,0.225-0.061,0.447-0.098,0.668c-0.007,0.039-0.015,0.076-0.021,0.113
			c-0.032,0.178-0.065,0.354-0.102,0.527c-0.002,0.006-0.003,0.012-0.004,0.016c-0.014,0.064-0.03,0.127-0.044,0.191
			c-0.032,0.135-0.063,0.271-0.098,0.404c-0.007,0.027-0.014,0.055-0.021,0.08c-0.017,0.064-0.035,0.127-0.053,0.189
			c-0.036,0.129-0.071,0.256-0.11,0.383c-0.008,0.025-0.016,0.051-0.023,0.076c-0.02,0.062-0.041,0.127-0.062,0.189
			c-0.042,0.129-0.083,0.258-0.129,0.385c-0.029,0.084-0.061,0.164-0.092,0.246c-0.046,0.123-0.092,0.246-0.141,0.367
			c-0.034,0.084-0.069,0.166-0.105,0.248c-0.049,0.117-0.1,0.236-0.151,0.352c-0.038,0.084-0.079,0.166-0.119,0.25
			c-0.054,0.113-0.107,0.225-0.163,0.338c-0.043,0.082-0.087,0.164-0.131,0.248c-0.05,0.094-0.1,0.188-0.151,0.281
			c-0.01,0.018-0.021,0.037-0.031,0.057c-0.043,0.078-0.089,0.156-0.134,0.232c-0.048,0.082-0.096,0.162-0.145,0.242
			c-0.027,0.047-0.055,0.092-0.083,0.137c-0.037,0.059-0.075,0.119-0.113,0.178c-0.055,0.086-0.111,0.174-0.168,0.258
			c-0.041,0.061-0.083,0.121-0.124,0.182c-0.023,0.033-0.046,0.068-0.07,0.102c-0.066,0.096-0.135,0.191-0.204,0.287
			c-0.066,0.09-0.135,0.18-0.203,0.27c-0.064,0.084-0.129,0.168-0.195,0.25c-0.031,0.039-0.063,0.078-0.095,0.117
			c-0.057,0.068-0.114,0.137-0.172,0.205c-0.049,0.059-0.098,0.117-0.147,0.174c-0.049,0.057-0.098,0.113-0.147,0.168
			c-0.08,0.09-0.161,0.178-0.243,0.266c-0.015,0.016-0.028,0.031-0.043,0.047c-0.065,0.068-0.13,0.137-0.195,0.203
			c-0.101,0.104-0.203,0.205-0.307,0.307c-0.055,0.053-0.108,0.105-0.163,0.156c-0.041,0.039-0.084,0.078-0.126,0.117
			c-0.094,0.086-0.188,0.172-0.283,0.256c-0.023,0.021-0.047,0.041-0.07,0.062c-0.068,0.059-0.139,0.117-0.207,0.176
			c-0.108,0.09-0.216,0.18-0.325,0.266c-0.081,0.064-0.163,0.129-0.245,0.191c-0.078,0.059-0.155,0.119-0.233,0.178
			c-0.096,0.07-0.193,0.139-0.291,0.207c-0.079,0.055-0.158,0.111-0.238,0.166c-0.101,0.066-0.201,0.131-0.304,0.197
			c-0.08,0.051-0.16,0.104-0.241,0.154c-0.104,0.062-0.209,0.125-0.314,0.188c-0.082,0.047-0.163,0.096-0.246,0.141
			c-0.108,0.061-0.218,0.119-0.328,0.178c-0.081,0.043-0.162,0.088-0.245,0.129c-0.114,0.059-0.229,0.113-0.345,0.168
			c-0.081,0.039-0.161,0.078-0.242,0.115c-0.122,0.057-0.246,0.107-0.369,0.16c-0.077,0.033-0.153,0.066-0.23,0.098
			c-0.138,0.057-0.276,0.107-0.415,0.16c-0.066,0.023-0.13,0.049-0.196,0.074c-0.179,0.062-0.359,0.123-0.541,0.18
			c-0.027,0.008-0.054,0.02-0.082,0.027c-0.211,0.064-0.424,0.127-0.639,0.182c-0.031,0.01-0.064,0.016-0.096,0.023
			c-0.182,0.047-0.364,0.09-0.548,0.131c-0.067,0.014-0.135,0.025-0.202,0.039c-0.15,0.031-0.3,0.061-0.452,0.086
			c-0.079,0.014-0.159,0.025-0.239,0.037c-0.377,0.059-0.758,0.105-1.142,0.135c2.844,4.252,7.438,7.014,12.622,7.014
			c1.533,0,3.014-0.242,4.414-0.691V47.742z"/>
		<path fill="#BF9B4D" d="M59.843,48.922c-0.161-0.52-0.381-0.918-0.682-1.141c-0.561-0.605-1.322-1.068-1.904-1.676
			c-0.824,6.646-6.471,12.994-13.163,13.506c3.747,5.604,15.308,9.918,15.749,0.844V48.922z"/>
		<polygon fill="#1F2D6C" points="59.843,48.408 59.843,37.252 54.099,31.934 48.249,35.271 		"/>
		<path fill="#0B050F" d="M46.993,35.537c0,0,12.543,14.441,12.85,14.602v-2.234L49.337,35.271L46.993,35.537z"/>
		<path fill="#0B050F" d="M31.17,17.543c0,0-5.177,11.443-4.376,15.131c0.802,3.688,8.172-6.748,8.172-6.748L31.17,17.543z"/>
		<path fill="#333333" d="M35.62,7.064c0,0-8.228,1.971-12.002,13.359c-3.774,11.387-2.047,15.758-2.047,15.758l5.734-4.01
			c0,0-0.526-5.383,3.408-14.691s4.906-8.459,4.906-8.459V7.064z"/>
		<path fill="#BF9B4D" d="M40.334,8.062c0,0-8.227,1.971-12.002,13.359c-3.774,11.387-1.963,13.445-1.963,13.445l1.663-0.369
			c0,0-2.099-3.703,1.836-13.012c3.934-9.311,10.466-11.467,10.466-11.467V8.062z"/>
		<path fill="#AA7941" d="M27.713,31.207l-5.118,3.902c0,0,14.842,5.402,32.18-1.246l-4.149-5.119L27.713,31.207z"/>
		<path fill="#BF9B4D" d="M28.736,30.404l-5.118,3.902c0,0,13.818,5.111,31.156-1.539l-4.149-5.119L28.736,30.404z"/>
		<path fill="#DCE3F2" d="M32.363,25.975c0,0.102-0.94,2.83-3.627,4.43c0,0,13.518,2.436,21.889-1.662c0,0-1.288-8.299-5.319-6.582
			C41.275,23.879,32.363,25.975,32.363,25.975z"/>
		<path fill="#E8EFFF" d="M30.862,15.377c0,0-0.341,3.027,0,3.477c0.34,0.447,0.403,0.801,0.275,1.537s-0.128,4.293,0.449,5.061
			c0.576,0.77,3.011,5.414,4.676,5.445c1.665,0.033,8.681-2.85,8.776-6.598c0,0,0.513,0.672,1.186,0.287
			c0.673-0.383,0.769-3.17,0.769-3.17S41.255,8.891,35.62,9.436C35.62,9.436,30.842,12.861,30.862,15.377z"/>
		<path fill="#0B050F" d="M35.62,7.064c0,0,5.959-1.598,10.602,3.348c4.642,4.947,9.739,16.818,13.621,18.111v4.9
			c0,0-9.437-4.824-11.719-12.281C45.841,13.684,35.62,7.064,35.62,7.064z"/>
		<path fill="#D28537" d="M35.62,9.684c0,0,1.526,6.717,8.07,6.945c1.826-1.75-4.182-6.945-4.182-6.945s-1.24-0.984-3.889-0.662
			V9.684z"/>
		<path fill="#333333" d="M35.62,9.021c0,0,6.33,1.625,11.578,14.541c8.914,14.402,12.645,13.689,12.645,13.689v-3.828
			c0,0-6.469-5.205-10.426-12.357C45.46,13.912,42.824,7.064,35.62,7.064V9.021z"/>
		<path fill="#BF9B4D" d="M35.62,7.064c0,0-8.228,1.971-12.002,13.359c-3.774,11.387-2.047,15.758-2.047,15.758l1.512-0.91
			c0,0-1.864-5.475,2.07-14.783C29.088,11.178,35.62,9.021,35.62,9.021V7.064z"/>
		<path fill="#BD7831" d="M35.62,9.684c0,0-1.012,4.324-4.917,5.754c0,0-1.22-7.043,4.917-6.416V9.684z"/>
		<g>
			<path fill="#D28537" d="M30.831,18.367c0,0,0.176-0.094,0.459-0.195c0.281-0.106,0.674-0.203,1.078-0.251
				c0.402-0.074,0.822-0.054,1.112,0.062c0.292,0.111,0.462,0.231,0.462,0.231l-0.011,0.037c0,0-0.215,0.041-0.501,0.032
				c-0.142-0.02-0.312,0.013-0.488-0.006c-0.176-0.029-0.366-0.037-0.558-0.05c-0.771-0.028-1.539,0.175-1.54,0.175L30.831,18.367z"
				/>
		</g>
		<g>
			<path fill="#D28537" d="M40.328,18.245c0,0.001-1.004-0.193-2.006-0.157c-0.25,0.015-0.498,0.025-0.729,0.056
				c-0.23,0.019-0.451-0.018-0.637-0.001c-0.375,0-0.646-0.051-0.646-0.051l-0.008-0.043c0,0,0.23-0.131,0.609-0.251
				c0.189-0.063,0.416-0.089,0.66-0.109c0.246-0.017,0.506,0.024,0.764,0.05c0.518,0.051,1.025,0.15,1.396,0.262
				c0.372,0.105,0.608,0.203,0.608,0.204L40.328,18.245z"/>
		</g>
		<g>
			<path fill="#2A3757" d="M36.894,19.367c0,0,0.196,0.045,0.487,0.08c0.291,0.03,0.676,0.081,1.062,0.06
				c0.192,0.005,0.386,0.004,0.565-0.024c0.18-0.022,0.354-0.015,0.495-0.053c0.29-0.045,0.493-0.062,0.493-0.062
				s-0.178,0.086-0.461,0.198c-0.283,0.104-0.686,0.185-1.092,0.188c-0.203,0.007-0.404-0.026-0.592-0.046
				c-0.188-0.025-0.358-0.084-0.503-0.126C37.062,19.479,36.894,19.367,36.894,19.367z"/>
		</g>
		<g>
			<path fill="#2A3757" d="M33.596,19.367c0,0-0.123,0.105-0.346,0.204c-0.113,0.042-0.246,0.097-0.396,0.124
				c-0.151,0.019-0.312,0.053-0.476,0.044c-0.326-0.003-0.648-0.083-0.866-0.184c-0.219-0.107-0.354-0.188-0.354-0.188
				s0.162,0.022,0.389,0.07c0.11,0.038,0.248,0.035,0.389,0.057c0.141,0.028,0.292,0.032,0.444,0.026
				c0.303,0.021,0.604-0.031,0.833-0.066C33.442,19.416,33.596,19.367,33.596,19.367z"/>
		</g>
		<g>
			<path fill="#E8EFFF" d="M35.393,26.912c0,0,0.67,0.416,1.62,0"/>
			<path fill="#2A3757" d="M35.393,26.912c0,0,0.105,0.029,0.257,0.051c0.153,0.017,0.351,0.051,0.55,0.033
				c0.198,0.01,0.398-0.027,0.551-0.05c0.152-0.025,0.263-0.034,0.263-0.034s-0.087,0.061-0.231,0.138
				c-0.144,0.074-0.359,0.134-0.579,0.138c-0.11,0.005-0.22-0.016-0.321-0.032c-0.101-0.017-0.189-0.062-0.264-0.09
				C35.469,26.99,35.393,26.912,35.393,26.912z"/>
		</g>
		<g>
			<path fill="#2A3757" d="M34.275,25.754c0,0,0.963-0.104,1.927-0.096c0.964-0.008,1.927,0.096,1.927,0.096
				s-0.963,0.104-1.927,0.096C35.238,25.857,34.275,25.754,34.275,25.754z"/>
		</g>
		<g>
			<path fill="#2A3757" d="M34.727,23.57c0,0,0.082,0.125,0.255,0.233c0.083,0.062,0.19,0.107,0.311,0.151
				c0.11,0.062,0.255,0.067,0.383,0.106c0.132,0.034,0.272,0.039,0.4,0.06c0.128,0.023,0.252,0.022,0.356,0.029
				c0.212,0.017,0.357,0.039,0.357,0.039s-0.139,0.034-0.354,0.069c-0.215,0.047-0.508,0.03-0.799-0.01
				c-0.141-0.05-0.29-0.066-0.412-0.143c-0.13-0.057-0.232-0.141-0.312-0.221c-0.082-0.077-0.126-0.163-0.152-0.222
				C34.732,23.605,34.727,23.57,34.727,23.57z"/>
		</g>
	</g>
</g>
</svg>
